<svg width="28" height="31" viewBox="0 0 28 31" fill="none" xmlns="http://www.w3.org/2000/svg">
<path d="M14 18.8004L3.56654 30.3517C3.17617 30.7839 2.67934 31 2.07605 31C1.47275 31 0.975918 30.7839 0.58555 30.3517C0.195183 29.9195 0 29.3695 0 28.7015C0 28.0336 0.195183 27.4835 0.58555 27.0513L11.019 15.5L0.58555 3.94867C0.195183 3.51648 0 2.96641 0 2.29848C0 1.63054 0.195183 1.08048 0.58555 0.648288C0.975918 0.216095 1.47275 0 2.07605 0C2.67934 0 3.17617 0.216095 3.56654 0.648288L14 12.1996L24.4335 0.648288C24.8238 0.216095 25.3207 0 25.924 0C26.5272 0 27.0241 0.216095 27.4144 0.648288C27.8048 1.08048 28 1.63054 28 2.29848C28 2.96641 27.8048 3.51648 27.4144 3.94867L16.981 15.5L27.4144 27.0513C27.8048 27.4835 28 28.0336 28 28.7015C28 29.3695 27.8048 29.9195 27.4144 30.3517C27.0241 30.7839 26.5272 31 25.924 31C25.3207 31 24.8238 30.7839 24.4335 30.3517L14 18.8004Z" fill="black"/>
</svg>
