<svg width="1049" height="391" viewBox="0 0 1049 391" fill="none" xmlns="http://www.w3.org/2000/svg">
<path d="M2 30C2 14.536 14.536 2 30 2H1019C1034.46 2 1047 14.536 1047 30V74H2V30Z" fill="#D2BADD" stroke="black" stroke-width="4"/>
<mask id="path-2-inside-1_224_719" fill="white">
<path d="M0 76H1049V361C1049 377.569 1035.57 391 1019 391H30C13.4315 391 0 377.569 0 361V76Z"/>
</mask>
<path d="M0 76H1049V361C1049 377.569 1035.57 391 1019 391H30C13.4315 391 0 377.569 0 361V76Z" fill="#F4E9F9"/>
<path d="M0 76H1049H0ZM1053 361C1053 379.778 1037.78 395 1019 395H30C11.2223 395 -4 379.778 -4 361H4C4 375.359 15.6406 387 30 387H1019C1033.36 387 1045 375.359 1045 361H1053ZM30 395C11.2223 395 -4 379.778 -4 361V76H4V361C4 375.359 15.6406 387 30 387V395ZM1053 76V361C1053 379.778 1037.78 395 1019 395V387C1033.36 387 1045 375.359 1045 361V76H1053Z" fill="black" mask="url(#path-2-inside-1_224_719)"/>
<path d="M1002 40.8004L991.567 52.3517C991.176 52.7839 990.679 53 990.076 53C989.473 53 988.976 52.7839 988.586 52.3517C988.195 51.9195 988 51.3695 988 50.7015C988 50.0336 988.195 49.4835 988.586 49.0513L999.019 37.5L988.586 25.9487C988.195 25.5165 988 24.9664 988 24.2985C988 23.6305 988.195 23.0805 988.586 22.6483C988.976 22.2161 989.473 22 990.076 22C990.679 22 991.176 22.2161 991.567 22.6483L1002 34.1996L1012.43 22.6483C1012.82 22.2161 1013.32 22 1013.92 22C1014.53 22 1015.02 22.2161 1015.41 22.6483C1015.8 23.0805 1016 23.6305 1016 24.2985C1016 24.9664 1015.8 25.5165 1015.41 25.9487L1004.98 37.5L1015.41 49.0513C1015.8 49.4835 1016 50.0336 1016 50.7015C1016 51.3695 1015.8 51.9195 1015.41 52.3517C1015.02 52.7839 1014.53 53 1013.92 53C1013.32 53 1012.82 52.7839 1012.43 52.3517L1002 40.8004Z" fill="black"/>
<rect x="926" y="28" width="34" height="20" stroke="black" stroke-width="4"/>
<path d="M860 38H898.5" stroke="black" stroke-width="4"/>
<path d="M63.3213 50.6074C63.5166 51.1934 63.6387 51.6572 63.6875 51.999C63.7363 52.3408 63.6712 52.6012 63.4922 52.7803C63.3132 52.943 62.9958 53.0407 62.54 53.0732C62.0843 53.1221 61.4577 53.1465 60.6602 53.1465C59.8301 53.1465 59.179 53.1302 58.707 53.0977C58.2513 53.0814 57.9014 53.0407 57.6572 52.9756C57.4131 52.8942 57.2422 52.7884 57.1445 52.6582C57.0469 52.528 56.9655 52.3571 56.9004 52.1455L54.7764 45.7979H42.9111L40.9092 51.9746C40.8441 52.2025 40.7546 52.3978 40.6406 52.5605C40.543 52.707 40.3721 52.8291 40.1279 52.9268C39.9001 53.0081 39.5664 53.0651 39.127 53.0977C38.7038 53.1302 38.1423 53.1465 37.4424 53.1465C36.6937 53.1465 36.1077 53.1221 35.6846 53.0732C35.2614 53.0244 34.9684 52.9105 34.8057 52.7314C34.6429 52.5361 34.5859 52.2676 34.6348 51.9258C34.6836 51.584 34.8057 51.1283 35.001 50.5586L44.7422 22.5312C44.8398 22.2546 44.9538 22.0348 45.084 21.8721C45.2142 21.693 45.4176 21.5628 45.6943 21.4814C45.9873 21.3838 46.3861 21.3268 46.8906 21.3105C47.3952 21.278 48.0625 21.2617 48.8926 21.2617C49.8529 21.2617 50.6178 21.278 51.1875 21.3105C51.7572 21.3268 52.1966 21.3838 52.5059 21.4814C52.8314 21.5628 53.0592 21.693 53.1895 21.8721C53.3359 22.0511 53.458 22.2952 53.5557 22.6045L63.3213 50.6074ZM48.8193 27.4385H48.7949L44.3271 40.8662H53.2871L48.8193 27.4385ZM83.8779 48.7031C83.8779 49.1263 83.8617 49.4844 83.8291 49.7773C83.8128 50.054 83.7803 50.29 83.7314 50.4854C83.6989 50.6807 83.6501 50.8434 83.585 50.9736C83.5361 51.0876 83.4141 51.2422 83.2188 51.4375C83.0234 51.6165 82.6898 51.8444 82.2178 52.1211C81.7458 52.3815 81.2087 52.6175 80.6064 52.8291C80.0042 53.0407 79.3451 53.2116 78.6289 53.3418C77.929 53.472 77.2048 53.5371 76.4561 53.5371C74.7796 53.5371 73.2904 53.2767 71.9883 52.7559C70.7025 52.235 69.6201 51.4701 68.7412 50.4609C67.8623 49.4355 67.195 48.1904 66.7393 46.7256C66.2998 45.2607 66.0801 43.5843 66.0801 41.6963C66.0801 39.5153 66.3486 37.6354 66.8857 36.0566C67.4391 34.4616 68.2041 33.1432 69.1807 32.1016C70.1572 31.0599 71.3128 30.2868 72.6475 29.7822C73.9821 29.2777 75.4469 29.0254 77.042 29.0254C77.693 29.0254 78.3278 29.0824 78.9463 29.1963C79.5811 29.3102 80.167 29.4648 80.7041 29.6602C81.2575 29.8555 81.7458 30.0752 82.1689 30.3193C82.6084 30.5635 82.9176 30.7751 83.0967 30.9541C83.2757 31.1331 83.3978 31.2878 83.4629 31.418C83.5443 31.5319 83.6012 31.6865 83.6338 31.8818C83.6826 32.0771 83.7152 32.3213 83.7314 32.6143C83.764 32.891 83.7803 33.2327 83.7803 33.6396C83.7803 34.5837 83.6989 35.251 83.5361 35.6416C83.3734 36.016 83.1618 36.2031 82.9014 36.2031C82.6247 36.2031 82.3317 36.0892 82.0225 35.8613C81.7132 35.6335 81.347 35.3812 80.9238 35.1045C80.5007 34.8278 79.9961 34.5755 79.4102 34.3477C78.8242 34.1198 78.1243 34.0059 77.3105 34.0059C75.7155 34.0059 74.4948 34.6243 73.6484 35.8613C72.8021 37.082 72.3789 38.8805 72.3789 41.2568C72.3789 42.4287 72.4847 43.4622 72.6963 44.3574C72.9079 45.2526 73.2171 46.0013 73.624 46.6035C74.0472 47.2057 74.568 47.6615 75.1865 47.9707C75.8213 48.2637 76.5537 48.4102 77.3838 48.4102C78.2301 48.4102 78.9544 48.2881 79.5566 48.0439C80.1751 47.7835 80.7122 47.4987 81.168 47.1895C81.6237 46.8802 82.0062 46.6035 82.3154 46.3594C82.6247 46.099 82.8851 45.9688 83.0967 45.9688C83.2432 45.9688 83.3652 46.0094 83.4629 46.0908C83.5605 46.1722 83.6338 46.3268 83.6826 46.5547C83.7477 46.7663 83.7965 47.043 83.8291 47.3848C83.8617 47.7266 83.8779 48.166 83.8779 48.7031ZM104.825 48.7031C104.825 49.1263 104.809 49.4844 104.776 49.7773C104.76 50.054 104.728 50.29 104.679 50.4854C104.646 50.6807 104.597 50.8434 104.532 50.9736C104.483 51.0876 104.361 51.2422 104.166 51.4375C103.971 51.6165 103.637 51.8444 103.165 52.1211C102.693 52.3815 102.156 52.6175 101.554 52.8291C100.951 53.0407 100.292 53.2116 99.5762 53.3418C98.8763 53.472 98.152 53.5371 97.4033 53.5371C95.7269 53.5371 94.2376 53.2767 92.9355 52.7559C91.6497 52.235 90.5674 51.4701 89.6885 50.4609C88.8096 49.4355 88.1423 48.1904 87.6865 46.7256C87.2471 45.2607 87.0273 43.5843 87.0273 41.6963C87.0273 39.5153 87.2959 37.6354 87.833 36.0566C88.3864 34.4616 89.1514 33.1432 90.1279 32.1016C91.1045 31.0599 92.2601 30.2868 93.5947 29.7822C94.9294 29.2777 96.3942 29.0254 97.9893 29.0254C98.6403 29.0254 99.2751 29.0824 99.8936 29.1963C100.528 29.3102 101.114 29.4648 101.651 29.6602C102.205 29.8555 102.693 30.0752 103.116 30.3193C103.556 30.5635 103.865 30.7751 104.044 30.9541C104.223 31.1331 104.345 31.2878 104.41 31.418C104.492 31.5319 104.549 31.6865 104.581 31.8818C104.63 32.0771 104.662 32.3213 104.679 32.6143C104.711 32.891 104.728 33.2327 104.728 33.6396C104.728 34.5837 104.646 35.251 104.483 35.6416C104.321 36.016 104.109 36.2031 103.849 36.2031C103.572 36.2031 103.279 36.0892 102.97 35.8613C102.66 35.6335 102.294 35.3812 101.871 35.1045C101.448 34.8278 100.943 34.5755 100.357 34.3477C99.7715 34.1198 99.0716 34.0059 98.2578 34.0059C96.6628 34.0059 95.4421 34.6243 94.5957 35.8613C93.7493 37.082 93.3262 38.8805 93.3262 41.2568C93.3262 42.4287 93.432 43.4622 93.6436 44.3574C93.8551 45.2526 94.1644 46.0013 94.5713 46.6035C94.9945 47.2057 95.5153 47.6615 96.1338 47.9707C96.7686 48.2637 97.501 48.4102 98.3311 48.4102C99.1774 48.4102 99.9017 48.2881 100.504 48.0439C101.122 47.7835 101.66 47.4987 102.115 47.1895C102.571 46.8802 102.953 46.6035 103.263 46.3594C103.572 46.099 103.832 45.9688 104.044 45.9688C104.19 45.9688 104.312 46.0094 104.41 46.0908C104.508 46.1722 104.581 46.3268 104.63 46.5547C104.695 46.7663 104.744 47.043 104.776 47.3848C104.809 47.7266 104.825 48.166 104.825 48.7031ZM129.41 40.6465C129.41 41.3952 129.239 41.9486 128.897 42.3066C128.572 42.6647 128.116 42.8438 127.53 42.8438H114.273C114.273 43.7715 114.379 44.6178 114.591 45.3828C114.819 46.1315 115.169 46.7744 115.641 47.3115C116.129 47.8324 116.747 48.2311 117.496 48.5078C118.261 48.7845 119.173 48.9229 120.23 48.9229C121.305 48.9229 122.249 48.8496 123.062 48.7031C123.876 48.5404 124.576 48.3695 125.162 48.1904C125.764 47.9951 126.261 47.8242 126.651 47.6777C127.042 47.515 127.359 47.4336 127.604 47.4336C127.75 47.4336 127.872 47.4661 127.97 47.5312C128.067 47.5801 128.149 47.6777 128.214 47.8242C128.279 47.9707 128.32 48.1823 128.336 48.459C128.368 48.7194 128.385 49.0531 128.385 49.46C128.385 49.818 128.377 50.1273 128.36 50.3877C128.344 50.6318 128.32 50.8434 128.287 51.0225C128.255 51.2015 128.206 51.3561 128.141 51.4863C128.076 51.6003 127.986 51.7142 127.872 51.8281C127.774 51.9421 127.49 52.0967 127.018 52.292C126.546 52.4873 125.943 52.6826 125.211 52.8779C124.479 53.057 123.64 53.2116 122.696 53.3418C121.752 53.4883 120.743 53.5615 119.669 53.5615C117.732 53.5615 116.031 53.3174 114.566 52.8291C113.118 52.3408 111.905 51.6003 110.929 50.6074C109.952 49.6146 109.22 48.3613 108.731 46.8477C108.259 45.334 108.023 43.5599 108.023 41.5254C108.023 39.5885 108.276 37.847 108.78 36.3008C109.285 34.7383 110.017 33.4199 110.978 32.3457C111.938 31.2552 113.102 30.4251 114.469 29.8555C115.852 29.2858 117.407 29.001 119.132 29.001C120.955 29.001 122.509 29.2695 123.795 29.8066C125.097 30.3438 126.163 31.0924 126.993 32.0527C127.823 32.9967 128.434 34.1198 128.824 35.4219C129.215 36.724 129.41 38.14 129.41 39.6699V40.6465ZM123.453 38.8887C123.502 37.1634 123.152 35.8125 122.403 34.8359C121.671 33.8431 120.532 33.3467 118.985 33.3467C118.204 33.3467 117.521 33.4932 116.935 33.7861C116.365 34.0791 115.885 34.4779 115.494 34.9824C115.12 35.4707 114.827 36.0566 114.615 36.7402C114.42 37.4076 114.306 38.1237 114.273 38.8887H123.453ZM149.82 46.0176C149.82 47.2546 149.584 48.3451 149.112 49.2891C148.657 50.2331 148.006 51.0225 147.159 51.6572C146.313 52.292 145.312 52.764 144.156 53.0732C143.001 53.3988 141.747 53.5615 140.396 53.5615C139.583 53.5615 138.801 53.4964 138.053 53.3662C137.32 53.2523 136.661 53.1058 136.075 52.9268C135.489 52.7314 135.001 52.5361 134.61 52.3408C134.22 52.1455 133.935 51.9665 133.756 51.8037C133.577 51.6247 133.438 51.3561 133.341 50.998C133.243 50.6237 133.194 50.0785 133.194 49.3623C133.194 48.8903 133.211 48.516 133.243 48.2393C133.276 47.9463 133.325 47.7184 133.39 47.5557C133.455 47.3766 133.536 47.2627 133.634 47.2139C133.731 47.1488 133.854 47.1162 134 47.1162C134.179 47.1162 134.439 47.222 134.781 47.4336C135.139 47.6289 135.579 47.8486 136.1 48.0928C136.62 48.3369 137.223 48.5648 137.906 48.7764C138.606 48.988 139.396 49.0938 140.274 49.0938C140.828 49.0938 141.316 49.0368 141.739 48.9229C142.179 48.8089 142.553 48.6462 142.862 48.4346C143.188 48.223 143.432 47.9544 143.595 47.6289C143.757 47.3034 143.839 46.929 143.839 46.5059C143.839 46.0176 143.684 45.6025 143.375 45.2607C143.082 44.9027 142.683 44.5934 142.179 44.333C141.69 44.0726 141.129 43.8285 140.494 43.6006C139.876 43.3727 139.233 43.1204 138.565 42.8438C137.914 42.5671 137.271 42.2497 136.637 41.8916C136.018 41.5335 135.457 41.0941 134.952 40.5732C134.464 40.0524 134.065 39.4258 133.756 38.6934C133.463 37.9609 133.316 37.082 133.316 36.0566C133.316 35.015 133.52 34.0628 133.927 33.2002C134.334 32.3213 134.92 31.5726 135.685 30.9541C136.45 30.3356 137.377 29.8555 138.468 29.5137C139.575 29.1719 140.812 29.001 142.179 29.001C142.862 29.001 143.521 29.0498 144.156 29.1475C144.807 29.2451 145.393 29.3672 145.914 29.5137C146.435 29.6602 146.874 29.8229 147.232 30.002C147.59 30.1647 147.843 30.3112 147.989 30.4414C148.152 30.5553 148.266 30.6774 148.331 30.8076C148.396 30.9215 148.445 31.068 148.478 31.2471C148.51 31.4098 148.535 31.6214 148.551 31.8818C148.583 32.126 148.6 32.4352 148.6 32.8096C148.6 33.249 148.583 33.6071 148.551 33.8838C148.535 34.1605 148.494 34.3802 148.429 34.543C148.38 34.7057 148.307 34.8197 148.209 34.8848C148.111 34.9336 147.997 34.958 147.867 34.958C147.721 34.958 147.493 34.8766 147.184 34.7139C146.874 34.5348 146.484 34.3477 146.012 34.1523C145.556 33.957 145.019 33.778 144.4 33.6152C143.798 33.4362 143.106 33.3467 142.325 33.3467C141.772 33.3467 141.292 33.4036 140.885 33.5176C140.478 33.6315 140.144 33.7943 139.884 34.0059C139.623 34.2174 139.428 34.4697 139.298 34.7627C139.168 35.0394 139.103 35.3405 139.103 35.666C139.103 36.1706 139.257 36.5938 139.566 36.9355C139.876 37.2773 140.283 37.5785 140.787 37.8389C141.292 38.0993 141.861 38.3434 142.496 38.5713C143.147 38.7992 143.798 39.0514 144.449 39.3281C145.117 39.5885 145.768 39.8978 146.402 40.2559C147.053 40.6139 147.631 41.0534 148.136 41.5742C148.64 42.0951 149.047 42.7217 149.356 43.4541C149.666 44.1702 149.82 45.0247 149.82 46.0176ZM169.791 46.0176C169.791 47.2546 169.555 48.3451 169.083 49.2891C168.627 50.2331 167.976 51.0225 167.13 51.6572C166.284 52.292 165.283 52.764 164.127 53.0732C162.971 53.3988 161.718 53.5615 160.367 53.5615C159.553 53.5615 158.772 53.4964 158.023 53.3662C157.291 53.2523 156.632 53.1058 156.046 52.9268C155.46 52.7314 154.972 52.5361 154.581 52.3408C154.19 52.1455 153.906 51.9665 153.727 51.8037C153.548 51.6247 153.409 51.3561 153.312 50.998C153.214 50.6237 153.165 50.0785 153.165 49.3623C153.165 48.8903 153.181 48.516 153.214 48.2393C153.246 47.9463 153.295 47.7184 153.36 47.5557C153.425 47.3766 153.507 47.2627 153.604 47.2139C153.702 47.1488 153.824 47.1162 153.971 47.1162C154.15 47.1162 154.41 47.222 154.752 47.4336C155.11 47.6289 155.549 47.8486 156.07 48.0928C156.591 48.3369 157.193 48.5648 157.877 48.7764C158.577 48.988 159.366 49.0938 160.245 49.0938C160.799 49.0938 161.287 49.0368 161.71 48.9229C162.149 48.8089 162.524 48.6462 162.833 48.4346C163.159 48.223 163.403 47.9544 163.565 47.6289C163.728 47.3034 163.81 46.929 163.81 46.5059C163.81 46.0176 163.655 45.6025 163.346 45.2607C163.053 44.9027 162.654 44.5934 162.149 44.333C161.661 44.0726 161.1 43.8285 160.465 43.6006C159.846 43.3727 159.203 43.1204 158.536 42.8438C157.885 42.5671 157.242 42.2497 156.607 41.8916C155.989 41.5335 155.427 41.0941 154.923 40.5732C154.435 40.0524 154.036 39.4258 153.727 38.6934C153.434 37.9609 153.287 37.082 153.287 36.0566C153.287 35.015 153.491 34.0628 153.897 33.2002C154.304 32.3213 154.89 31.5726 155.655 30.9541C156.42 30.3356 157.348 29.8555 158.438 29.5137C159.545 29.1719 160.782 29.001 162.149 29.001C162.833 29.001 163.492 29.0498 164.127 29.1475C164.778 29.2451 165.364 29.3672 165.885 29.5137C166.406 29.6602 166.845 29.8229 167.203 30.002C167.561 30.1647 167.813 30.3112 167.96 30.4414C168.123 30.5553 168.237 30.6774 168.302 30.8076C168.367 30.9215 168.416 31.068 168.448 31.2471C168.481 31.4098 168.505 31.6214 168.521 31.8818C168.554 32.126 168.57 32.4352 168.57 32.8096C168.57 33.249 168.554 33.6071 168.521 33.8838C168.505 34.1605 168.465 34.3802 168.399 34.543C168.351 34.7057 168.277 34.8197 168.18 34.8848C168.082 34.9336 167.968 34.958 167.838 34.958C167.691 34.958 167.464 34.8766 167.154 34.7139C166.845 34.5348 166.454 34.3477 165.982 34.1523C165.527 33.957 164.99 33.778 164.371 33.6152C163.769 33.4362 163.077 33.3467 162.296 33.3467C161.743 33.3467 161.262 33.4036 160.855 33.5176C160.449 33.6315 160.115 33.7943 159.854 34.0059C159.594 34.2174 159.399 34.4697 159.269 34.7627C159.138 35.0394 159.073 35.3405 159.073 35.666C159.073 36.1706 159.228 36.5938 159.537 36.9355C159.846 37.2773 160.253 37.5785 160.758 37.8389C161.262 38.0993 161.832 38.3434 162.467 38.5713C163.118 38.7992 163.769 39.0514 164.42 39.3281C165.087 39.5885 165.738 39.8978 166.373 40.2559C167.024 40.6139 167.602 41.0534 168.106 41.5742C168.611 42.0951 169.018 42.7217 169.327 43.4541C169.636 44.1702 169.791 45.0247 169.791 46.0176ZM180.582 52.1699C180.582 52.3327 180.533 52.4792 180.436 52.6094C180.338 52.7233 180.167 52.821 179.923 52.9023C179.695 52.9837 179.386 53.0407 178.995 53.0732C178.604 53.1221 178.108 53.1465 177.506 53.1465C176.904 53.1465 176.407 53.1221 176.017 53.0732C175.626 53.0407 175.309 52.9837 175.064 52.9023C174.837 52.821 174.674 52.7233 174.576 52.6094C174.479 52.4792 174.43 52.3327 174.43 52.1699V30.4414C174.43 30.2786 174.479 30.1403 174.576 30.0264C174.674 29.8962 174.837 29.7904 175.064 29.709C175.309 29.6113 175.626 29.5381 176.017 29.4893C176.407 29.4404 176.904 29.416 177.506 29.416C178.108 29.416 178.604 29.4404 178.995 29.4893C179.386 29.5381 179.695 29.6113 179.923 29.709C180.167 29.7904 180.338 29.8962 180.436 30.0264C180.533 30.1403 180.582 30.2786 180.582 30.4414V52.1699ZM181.046 23.0195C181.046 24.2565 180.794 25.111 180.289 25.583C179.785 26.055 178.849 26.291 177.481 26.291C176.098 26.291 175.162 26.0632 174.674 25.6074C174.202 25.1517 173.966 24.3298 173.966 23.1416C173.966 21.9046 174.21 21.0501 174.698 20.5781C175.203 20.0898 176.147 19.8457 177.53 19.8457C178.897 19.8457 179.825 20.0817 180.313 20.5537C180.802 21.0094 181.046 21.8314 181.046 23.0195ZM208.658 40.9883C208.658 42.9251 208.447 44.6667 208.023 46.2129C207.6 47.7591 206.99 49.0775 206.192 50.168C205.395 51.2585 204.41 52.0967 203.238 52.6826C202.083 53.2686 200.764 53.5615 199.283 53.5615C198.551 53.5615 197.867 53.4883 197.232 53.3418C196.598 53.2116 195.987 52.9919 195.401 52.6826C194.832 52.3734 194.262 51.9827 193.692 51.5107C193.139 51.0387 192.569 50.4691 191.983 49.8018V52.1699C191.983 52.349 191.935 52.5036 191.837 52.6338C191.756 52.7477 191.609 52.8454 191.397 52.9268C191.202 53.0081 190.934 53.0651 190.592 53.0977C190.25 53.1302 189.835 53.1465 189.347 53.1465C188.842 53.1465 188.419 53.1302 188.077 53.0977C187.752 53.0651 187.483 53.0081 187.271 52.9268C187.076 52.8454 186.938 52.7477 186.856 52.6338C186.775 52.5036 186.734 52.349 186.734 52.1699V20.0654C186.734 19.9027 186.783 19.7562 186.881 19.626C186.979 19.4958 187.141 19.39 187.369 19.3086C187.613 19.2109 187.931 19.1377 188.321 19.0889C188.712 19.04 189.208 19.0156 189.811 19.0156C190.413 19.0156 190.909 19.04 191.3 19.0889C191.69 19.1377 192 19.2109 192.228 19.3086C192.472 19.39 192.643 19.4958 192.74 19.626C192.838 19.7562 192.887 19.9027 192.887 20.0654V32.1016C193.44 31.5482 193.993 31.0762 194.547 30.6855C195.1 30.2949 195.654 29.9775 196.207 29.7334C196.76 29.473 197.33 29.2858 197.916 29.1719C198.502 29.0579 199.12 29.001 199.771 29.001C201.383 29.001 202.75 29.3265 203.873 29.9775C204.996 30.6123 205.908 31.4749 206.607 32.5654C207.324 33.6559 207.844 34.9336 208.17 36.3984C208.495 37.847 208.658 39.377 208.658 40.9883ZM202.286 41.4277C202.286 40.5 202.213 39.6048 202.066 38.7422C201.936 37.8796 201.7 37.1146 201.358 36.4473C201.017 35.7799 200.569 35.251 200.016 34.8604C199.479 34.4535 198.795 34.25 197.965 34.25C197.558 34.25 197.159 34.307 196.769 34.4209C196.378 34.5348 195.971 34.7301 195.548 35.0068C195.141 35.2835 194.718 35.6416 194.278 36.0811C193.839 36.5205 193.375 37.0658 192.887 37.7168V44.9434C193.749 46.0501 194.571 46.8965 195.353 47.4824C196.15 48.0521 196.98 48.3369 197.843 48.3369C198.64 48.3369 199.316 48.1335 199.869 47.7266C200.423 47.3197 200.878 46.7907 201.236 46.1396C201.611 45.4886 201.879 44.748 202.042 43.918C202.205 43.0879 202.286 42.2578 202.286 41.4277ZM219.742 52.1699C219.742 52.3327 219.693 52.4792 219.596 52.6094C219.498 52.7233 219.327 52.821 219.083 52.9023C218.855 52.9837 218.546 53.0407 218.155 53.0732C217.765 53.1221 217.268 53.1465 216.666 53.1465C216.064 53.1465 215.567 53.1221 215.177 53.0732C214.786 53.0407 214.469 52.9837 214.225 52.9023C213.997 52.821 213.834 52.7233 213.736 52.6094C213.639 52.4792 213.59 52.3327 213.59 52.1699V20.0654C213.59 19.9027 213.639 19.7562 213.736 19.626C213.834 19.4958 213.997 19.39 214.225 19.3086C214.469 19.2109 214.786 19.1377 215.177 19.0889C215.567 19.04 216.064 19.0156 216.666 19.0156C217.268 19.0156 217.765 19.04 218.155 19.0889C218.546 19.1377 218.855 19.2109 219.083 19.3086C219.327 19.39 219.498 19.4958 219.596 19.626C219.693 19.7562 219.742 19.9027 219.742 20.0654V52.1699ZM246.012 40.6465C246.012 41.3952 245.841 41.9486 245.499 42.3066C245.174 42.6647 244.718 42.8438 244.132 42.8438H230.875C230.875 43.7715 230.981 44.6178 231.192 45.3828C231.42 46.1315 231.77 46.7744 232.242 47.3115C232.73 47.8324 233.349 48.2311 234.098 48.5078C234.863 48.7845 235.774 48.9229 236.832 48.9229C237.906 48.9229 238.85 48.8496 239.664 48.7031C240.478 48.5404 241.178 48.3695 241.764 48.1904C242.366 47.9951 242.862 47.8242 243.253 47.6777C243.644 47.515 243.961 47.4336 244.205 47.4336C244.352 47.4336 244.474 47.4661 244.571 47.5312C244.669 47.5801 244.75 47.6777 244.815 47.8242C244.881 47.9707 244.921 48.1823 244.938 48.459C244.97 48.7194 244.986 49.0531 244.986 49.46C244.986 49.818 244.978 50.1273 244.962 50.3877C244.946 50.6318 244.921 50.8434 244.889 51.0225C244.856 51.2015 244.807 51.3561 244.742 51.4863C244.677 51.6003 244.588 51.7142 244.474 51.8281C244.376 51.9421 244.091 52.0967 243.619 52.292C243.147 52.4873 242.545 52.6826 241.812 52.8779C241.08 53.057 240.242 53.2116 239.298 53.3418C238.354 53.4883 237.345 53.5615 236.271 53.5615C234.334 53.5615 232.633 53.3174 231.168 52.8291C229.719 52.3408 228.507 51.6003 227.53 50.6074C226.554 49.6146 225.821 48.3613 225.333 46.8477C224.861 45.334 224.625 43.5599 224.625 41.5254C224.625 39.5885 224.877 37.847 225.382 36.3008C225.886 34.7383 226.619 33.4199 227.579 32.3457C228.539 31.2552 229.703 30.4251 231.07 29.8555C232.454 29.2858 234.008 29.001 235.733 29.001C237.556 29.001 239.111 29.2695 240.396 29.8066C241.699 30.3438 242.765 31.0924 243.595 32.0527C244.425 32.9967 245.035 34.1198 245.426 35.4219C245.816 36.724 246.012 38.14 246.012 39.6699V40.6465ZM240.055 38.8887C240.104 37.1634 239.754 35.8125 239.005 34.8359C238.272 33.8431 237.133 33.3467 235.587 33.3467C234.806 33.3467 234.122 33.4932 233.536 33.7861C232.966 34.0791 232.486 34.4779 232.096 34.9824C231.721 35.4707 231.428 36.0566 231.217 36.7402C231.021 37.4076 230.908 38.1237 230.875 38.8887H240.055ZM284.415 31.0029C284.415 32.777 284.138 34.3477 283.585 35.7148C283.032 37.082 282.226 38.2376 281.168 39.1816C280.11 40.1094 278.808 40.8174 277.262 41.3057C275.732 41.7939 273.925 42.0381 271.842 42.0381H269.205V52.1211C269.205 52.2839 269.148 52.4303 269.034 52.5605C268.937 52.6908 268.766 52.7965 268.521 52.8779C268.277 52.9593 267.952 53.0244 267.545 53.0732C267.138 53.1221 266.617 53.1465 265.982 53.1465C265.364 53.1465 264.843 53.1221 264.42 53.0732C264.013 53.0244 263.688 52.9593 263.443 52.8779C263.199 52.7965 263.028 52.6908 262.931 52.5605C262.833 52.4303 262.784 52.2839 262.784 52.1211V23.7031C262.784 22.9382 262.979 22.3685 263.37 21.9941C263.777 21.6035 264.306 21.4082 264.957 21.4082H272.403C273.152 21.4082 273.86 21.4408 274.527 21.5059C275.211 21.5547 276.025 21.6768 276.969 21.8721C277.913 22.0511 278.865 22.3929 279.825 22.8975C280.802 23.402 281.632 24.0449 282.315 24.8262C282.999 25.5911 283.52 26.4945 283.878 27.5361C284.236 28.5615 284.415 29.7171 284.415 31.0029ZM277.701 31.4668C277.701 30.36 277.506 29.4486 277.115 28.7324C276.725 28.0163 276.244 27.4873 275.675 27.1455C275.105 26.8037 274.503 26.5921 273.868 26.5107C273.25 26.4131 272.607 26.3643 271.939 26.3643H269.205V37.082H272.086C273.111 37.082 273.966 36.9437 274.649 36.667C275.349 36.3903 275.919 36.0078 276.358 35.5195C276.798 35.015 277.132 34.4209 277.359 33.7373C277.587 33.0374 277.701 32.2806 277.701 31.4668ZM310.221 41.0615C310.221 42.917 309.977 44.6097 309.488 46.1396C309 47.6696 308.259 48.988 307.267 50.0947C306.274 51.2015 305.029 52.056 303.531 52.6582C302.034 53.2604 300.284 53.5615 298.282 53.5615C296.345 53.5615 294.661 53.293 293.229 52.7559C291.796 52.2188 290.608 51.4375 289.664 50.4121C288.72 49.3867 288.02 48.1253 287.564 46.6279C287.109 45.1305 286.881 43.4215 286.881 41.501C286.881 39.6455 287.125 37.9528 287.613 36.4229C288.118 34.8766 288.867 33.5583 289.859 32.4678C290.852 31.361 292.089 30.5065 293.57 29.9043C295.068 29.3021 296.817 29.001 298.819 29.001C300.772 29.001 302.465 29.2695 303.897 29.8066C305.33 30.3275 306.51 31.1006 307.438 32.126C308.382 33.1514 309.081 34.4128 309.537 35.9102C309.993 37.4076 310.221 39.1247 310.221 41.0615ZM303.897 41.3057C303.897 40.2314 303.808 39.2467 303.629 38.3516C303.466 37.4401 303.181 36.6507 302.774 35.9834C302.368 35.3161 301.822 34.7952 301.139 34.4209C300.471 34.0465 299.625 33.8594 298.6 33.8594C297.688 33.8594 296.891 34.0303 296.207 34.3721C295.523 34.6976 294.962 35.1859 294.522 35.8369C294.083 36.4717 293.749 37.2448 293.521 38.1562C293.31 39.0514 293.204 40.0768 293.204 41.2324C293.204 42.3066 293.294 43.2995 293.473 44.2109C293.652 45.1061 293.937 45.8874 294.327 46.5547C294.734 47.222 295.279 47.7428 295.963 48.1172C296.646 48.4753 297.493 48.6543 298.502 48.6543C299.43 48.6543 300.235 48.4915 300.919 48.166C301.603 47.8242 302.164 47.3359 302.604 46.7012C303.043 46.0664 303.368 45.3014 303.58 44.4062C303.792 43.4948 303.897 42.4613 303.897 41.3057ZM337.027 40.9639C337.027 42.9007 336.816 44.6504 336.393 46.2129C335.986 47.7591 335.383 49.0775 334.586 50.168C333.788 51.2585 332.796 52.0967 331.607 52.6826C330.419 53.2686 329.06 53.5615 327.53 53.5615C326.896 53.5615 326.31 53.4964 325.772 53.3662C325.252 53.2523 324.739 53.0732 324.234 52.8291C323.746 52.5687 323.258 52.2513 322.77 51.877C322.281 51.5026 321.777 51.0632 321.256 50.5586V60.8125C321.256 60.9753 321.207 61.1217 321.109 61.252C321.012 61.3822 320.841 61.488 320.597 61.5693C320.369 61.667 320.06 61.7402 319.669 61.7891C319.278 61.8379 318.782 61.8623 318.18 61.8623C317.577 61.8623 317.081 61.8379 316.69 61.7891C316.3 61.7402 315.982 61.667 315.738 61.5693C315.51 61.488 315.348 61.3822 315.25 61.252C315.152 61.1217 315.104 60.9753 315.104 60.8125V30.3926C315.104 30.2298 315.144 30.0915 315.226 29.9775C315.307 29.8473 315.445 29.7415 315.641 29.6602C315.852 29.5788 316.121 29.5218 316.446 29.4893C316.788 29.4404 317.211 29.416 317.716 29.416C318.204 29.416 318.611 29.4404 318.937 29.4893C319.278 29.5218 319.547 29.5788 319.742 29.6602C319.954 29.7415 320.1 29.8473 320.182 29.9775C320.263 30.0915 320.304 30.2298 320.304 30.3926V32.9561C320.938 32.305 321.557 31.7354 322.159 31.2471C322.778 30.7425 323.404 30.3275 324.039 30.002C324.674 29.6602 325.325 29.4079 325.992 29.2451C326.676 29.0824 327.4 29.001 328.165 29.001C329.76 29.001 331.119 29.3184 332.242 29.9531C333.365 30.5716 334.277 31.4261 334.977 32.5166C335.693 33.6071 336.214 34.8766 336.539 36.3252C336.865 37.7738 337.027 39.32 337.027 40.9639ZM330.631 41.4033C330.631 40.4756 330.558 39.5885 330.411 38.7422C330.281 37.8796 330.045 37.1146 329.703 36.4473C329.378 35.7799 328.938 35.251 328.385 34.8604C327.848 34.4535 327.172 34.25 326.358 34.25C325.951 34.25 325.545 34.3151 325.138 34.4453C324.747 34.5592 324.34 34.7546 323.917 35.0312C323.51 35.3079 323.087 35.666 322.647 36.1055C322.208 36.5449 321.744 37.0902 321.256 37.7412V44.9189C322.118 46.0094 322.94 46.8558 323.722 47.458C324.503 48.0439 325.317 48.3369 326.163 48.3369C326.961 48.3369 327.636 48.1335 328.189 47.7266C328.759 47.3197 329.223 46.7907 329.581 46.1396C329.939 45.4723 330.2 44.7236 330.362 43.8936C330.541 43.0635 330.631 42.2334 330.631 41.4033ZM362.613 52.1699C362.613 52.3327 362.573 52.4792 362.491 52.6094C362.41 52.7233 362.263 52.821 362.052 52.9023C361.856 52.9837 361.588 53.0407 361.246 53.0732C360.921 53.1221 360.506 53.1465 360.001 53.1465C359.464 53.1465 359.024 53.1221 358.683 53.0732C358.357 53.0407 358.097 52.9837 357.901 52.9023C357.706 52.821 357.568 52.7233 357.486 52.6094C357.405 52.4792 357.364 52.3327 357.364 52.1699V49.6553C356.16 50.9574 354.931 51.9339 353.678 52.585C352.441 53.236 351.155 53.5615 349.82 53.5615C348.323 53.5615 347.062 53.3174 346.036 52.8291C345.027 52.3408 344.205 51.6735 343.57 50.8271C342.952 49.9808 342.504 49.0042 342.228 47.8975C341.967 46.7744 341.837 45.3828 341.837 43.7227V30.3926C341.837 30.2298 341.878 30.0915 341.959 29.9775C342.057 29.8473 342.219 29.7415 342.447 29.6602C342.691 29.5788 343.009 29.5218 343.399 29.4893C343.806 29.4404 344.303 29.416 344.889 29.416C345.491 29.416 345.987 29.4404 346.378 29.4893C346.769 29.5218 347.078 29.5788 347.306 29.6602C347.55 29.7415 347.721 29.8473 347.818 29.9775C347.916 30.0915 347.965 30.2298 347.965 30.3926V42.6973C347.965 43.8366 348.038 44.7074 348.185 45.3096C348.331 45.9118 348.551 46.4326 348.844 46.8721C349.153 47.2952 349.535 47.6289 349.991 47.873C350.463 48.1009 351.008 48.2148 351.627 48.2148C352.408 48.2148 353.189 47.93 353.971 47.3604C354.768 46.7907 355.615 45.9606 356.51 44.8701V30.3926C356.51 30.2298 356.55 30.0915 356.632 29.9775C356.729 29.8473 356.892 29.7415 357.12 29.6602C357.364 29.5788 357.682 29.5218 358.072 29.4893C358.463 29.4404 358.959 29.416 359.562 29.416C360.164 29.416 360.66 29.4404 361.051 29.4893C361.441 29.5218 361.751 29.5788 361.979 29.6602C362.206 29.7415 362.369 29.8473 362.467 29.9775C362.564 30.0915 362.613 30.2298 362.613 30.3926V52.1699ZM390.738 40.9639C390.738 42.9007 390.527 44.6504 390.104 46.2129C389.697 47.7591 389.094 49.0775 388.297 50.168C387.499 51.2585 386.507 52.0967 385.318 52.6826C384.13 53.2686 382.771 53.5615 381.241 53.5615C380.606 53.5615 380.021 53.4964 379.483 53.3662C378.963 53.2523 378.45 53.0732 377.945 52.8291C377.457 52.5687 376.969 52.2513 376.48 51.877C375.992 51.5026 375.488 51.0632 374.967 50.5586V60.8125C374.967 60.9753 374.918 61.1217 374.82 61.252C374.723 61.3822 374.552 61.488 374.308 61.5693C374.08 61.667 373.771 61.7402 373.38 61.7891C372.989 61.8379 372.493 61.8623 371.891 61.8623C371.288 61.8623 370.792 61.8379 370.401 61.7891C370.011 61.7402 369.693 61.667 369.449 61.5693C369.221 61.488 369.059 61.3822 368.961 61.252C368.863 61.1217 368.814 60.9753 368.814 60.8125V30.3926C368.814 30.2298 368.855 30.0915 368.937 29.9775C369.018 29.8473 369.156 29.7415 369.352 29.6602C369.563 29.5788 369.832 29.5218 370.157 29.4893C370.499 29.4404 370.922 29.416 371.427 29.416C371.915 29.416 372.322 29.4404 372.647 29.4893C372.989 29.5218 373.258 29.5788 373.453 29.6602C373.665 29.7415 373.811 29.8473 373.893 29.9775C373.974 30.0915 374.015 30.2298 374.015 30.3926V32.9561C374.649 32.305 375.268 31.7354 375.87 31.2471C376.489 30.7425 377.115 30.3275 377.75 30.002C378.385 29.6602 379.036 29.4079 379.703 29.2451C380.387 29.0824 381.111 29.001 381.876 29.001C383.471 29.001 384.83 29.3184 385.953 29.9531C387.076 30.5716 387.988 31.4261 388.688 32.5166C389.404 33.6071 389.924 34.8766 390.25 36.3252C390.576 37.7738 390.738 39.32 390.738 40.9639ZM384.342 41.4033C384.342 40.4756 384.269 39.5885 384.122 38.7422C383.992 37.8796 383.756 37.1146 383.414 36.4473C383.089 35.7799 382.649 35.251 382.096 34.8604C381.559 34.4535 380.883 34.25 380.069 34.25C379.662 34.25 379.256 34.3151 378.849 34.4453C378.458 34.5592 378.051 34.7546 377.628 35.0312C377.221 35.3079 376.798 35.666 376.358 36.1055C375.919 36.5449 375.455 37.0902 374.967 37.7412V44.9189C375.829 46.0094 376.651 46.8558 377.433 47.458C378.214 48.0439 379.028 48.3369 379.874 48.3369C380.672 48.3369 381.347 48.1335 381.9 47.7266C382.47 47.3197 382.934 46.7907 383.292 46.1396C383.65 45.4723 383.91 44.7236 384.073 43.8936C384.252 43.0635 384.342 42.2334 384.342 41.4033ZM410.758 46.0176C410.758 47.2546 410.522 48.3451 410.05 49.2891C409.594 50.2331 408.943 51.0225 408.097 51.6572C407.25 52.292 406.249 52.764 405.094 53.0732C403.938 53.3988 402.685 53.5615 401.334 53.5615C400.52 53.5615 399.739 53.4964 398.99 53.3662C398.258 53.2523 397.599 53.1058 397.013 52.9268C396.427 52.7314 395.938 52.5361 395.548 52.3408C395.157 52.1455 394.872 51.9665 394.693 51.8037C394.514 51.6247 394.376 51.3561 394.278 50.998C394.181 50.6237 394.132 50.0785 394.132 49.3623C394.132 48.8903 394.148 48.516 394.181 48.2393C394.213 47.9463 394.262 47.7184 394.327 47.5557C394.392 47.3766 394.474 47.2627 394.571 47.2139C394.669 47.1488 394.791 47.1162 394.938 47.1162C395.117 47.1162 395.377 47.222 395.719 47.4336C396.077 47.6289 396.516 47.8486 397.037 48.0928C397.558 48.3369 398.16 48.5648 398.844 48.7764C399.544 48.988 400.333 49.0938 401.212 49.0938C401.765 49.0938 402.254 49.0368 402.677 48.9229C403.116 48.8089 403.491 48.6462 403.8 48.4346C404.125 48.223 404.369 47.9544 404.532 47.6289C404.695 47.3034 404.776 46.929 404.776 46.5059C404.776 46.0176 404.622 45.6025 404.312 45.2607C404.02 44.9027 403.621 44.5934 403.116 44.333C402.628 44.0726 402.066 43.8285 401.432 43.6006C400.813 43.3727 400.17 43.1204 399.503 42.8438C398.852 42.5671 398.209 42.2497 397.574 41.8916C396.956 41.5335 396.394 41.0941 395.89 40.5732C395.401 40.0524 395.003 39.4258 394.693 38.6934C394.4 37.9609 394.254 37.082 394.254 36.0566C394.254 35.015 394.457 34.0628 394.864 33.2002C395.271 32.3213 395.857 31.5726 396.622 30.9541C397.387 30.3356 398.315 29.8555 399.405 29.5137C400.512 29.1719 401.749 29.001 403.116 29.001C403.8 29.001 404.459 29.0498 405.094 29.1475C405.745 29.2451 406.331 29.3672 406.852 29.5137C407.372 29.6602 407.812 29.8229 408.17 30.002C408.528 30.1647 408.78 30.3112 408.927 30.4414C409.09 30.5553 409.203 30.6774 409.269 30.8076C409.334 30.9215 409.382 31.068 409.415 31.2471C409.448 31.4098 409.472 31.6214 409.488 31.8818C409.521 32.126 409.537 32.4352 409.537 32.8096C409.537 33.249 409.521 33.6071 409.488 33.8838C409.472 34.1605 409.431 34.3802 409.366 34.543C409.317 34.7057 409.244 34.8197 409.146 34.8848C409.049 34.9336 408.935 34.958 408.805 34.958C408.658 34.958 408.43 34.8766 408.121 34.7139C407.812 34.5348 407.421 34.3477 406.949 34.1523C406.493 33.957 405.956 33.778 405.338 33.6152C404.736 33.4362 404.044 33.3467 403.263 33.3467C402.709 33.3467 402.229 33.4036 401.822 33.5176C401.415 33.6315 401.082 33.7943 400.821 34.0059C400.561 34.2174 400.366 34.4697 400.235 34.7627C400.105 35.0394 400.04 35.3405 400.04 35.666C400.04 36.1706 400.195 36.5938 400.504 36.9355C400.813 37.2773 401.22 37.5785 401.725 37.8389C402.229 38.0993 402.799 38.3434 403.434 38.5713C404.085 38.7992 404.736 39.0514 405.387 39.3281C406.054 39.5885 406.705 39.8978 407.34 40.2559C407.991 40.6139 408.569 41.0534 409.073 41.5742C409.578 42.0951 409.985 42.7217 410.294 43.4541C410.603 44.1702 410.758 45.0247 410.758 46.0176Z" fill="black"/>
</svg>
