<svg width="662" height="467" viewBox="0 0 662 467" fill="none" xmlns="http://www.w3.org/2000/svg">
<path d="M108 2H631.345C646.809 2 659.345 14.536 659.345 30V74H80V30C80 14.536 92.536 2 108 2Z" fill="#D2BADD" stroke="black" stroke-width="4"/>
<mask id="path-2-inside-1_346_454" fill="white">
<path d="M78 76H661.345V361C661.345 377.569 647.913 391 631.345 391H108C91.4314 391 78 377.569 78 361V76Z"/>
</mask>
<path d="M78 76H661.345V361C661.345 377.569 647.913 391 631.345 391H108C91.4314 391 78 377.569 78 361V76Z" fill="#F4E9F9"/>
<path d="M78 76H661.345H78ZM665.345 361C665.345 379.778 650.123 395 631.345 395H108C89.2223 395 74 379.778 74 361H82C82 375.359 93.6406 387 108 387H631.345C645.704 387 657.345 375.359 657.345 361H665.345ZM108 395C89.2223 395 74 379.778 74 361V76H82V361C82 375.359 93.6406 387 108 387V395ZM665.345 76V361C665.345 379.778 650.123 395 631.345 395V387C645.704 387 657.345 375.359 657.345 361V76H665.345Z" fill="black" mask="url(#path-2-inside-1_346_454)"/>
<path d="M622.274 40.8004L613.601 52.3517C613.277 52.7839 612.864 53 612.362 53C611.861 53 611.448 52.7839 611.123 52.3517C610.799 51.9195 610.637 51.3695 610.637 50.7015C610.637 50.0336 610.799 49.4835 611.123 49.0513L619.796 37.5L611.123 25.9487C610.799 25.5165 610.637 24.9664 610.637 24.2985C610.637 23.6305 610.799 23.0805 611.123 22.6483C611.448 22.2161 611.861 22 612.362 22C612.864 22 613.277 22.2161 613.601 22.6483L622.274 34.1996L630.947 22.6483C631.272 22.2161 631.685 22 632.186 22C632.688 22 633.101 22.2161 633.425 22.6483C633.75 23.0805 633.912 23.6305 633.912 24.2985C633.912 24.9664 633.75 25.5165 633.425 25.9487L624.752 37.5L633.425 49.0513C633.75 49.4835 633.912 50.0336 633.912 50.7015C633.912 51.3695 633.75 51.9195 633.425 52.3517C633.101 52.7839 632.688 53 632.186 53C631.685 53 631.272 52.7839 630.947 52.3517L622.274 40.8004Z" fill="black"/>
<rect x="559.437" y="28" width="27.5882" height="20" stroke="black" stroke-width="4"/>
<path d="M504.235 38H536.239" stroke="black" stroke-width="4"/>
<path d="M69 40H592.345C607.809 40 620.345 52.536 620.345 68V112H41V68C41 52.536 53.536 40 69 40Z" fill="#BEDDBA" stroke="black" stroke-width="4"/>
<mask id="path-8-inside-2_346_454" fill="white">
<path d="M39 114H622.345V399C622.345 415.569 608.913 429 592.345 429H69C52.4314 429 39 415.569 39 399V114Z"/>
</mask>
<path d="M39 114H622.345V399C622.345 415.569 608.913 429 592.345 429H69C52.4314 429 39 415.569 39 399V114Z" fill="#E2FFDE"/>
<path d="M39 114H622.345H39ZM626.345 399C626.345 417.778 611.123 433 592.345 433H69C50.2223 433 35 417.778 35 399H43C43 413.359 54.6406 425 69 425H592.345C606.704 425 618.345 413.359 618.345 399H626.345ZM69 433C50.2223 433 35 417.778 35 399V114H43V399C43 413.359 54.6406 425 69 425V433ZM626.345 114V399C626.345 417.778 611.123 433 592.345 433V425C606.704 425 618.345 413.359 618.345 399V114H626.345Z" fill="black" mask="url(#path-8-inside-2_346_454)"/>
<path d="M583.274 78.8004L574.601 90.3517C574.277 90.7839 573.864 91 573.362 91C572.861 91 572.448 90.7839 572.123 90.3517C571.799 89.9195 571.637 89.3695 571.637 88.7015C571.637 88.0336 571.799 87.4835 572.123 87.0513L580.796 75.5L572.123 63.9487C571.799 63.5165 571.637 62.9664 571.637 62.2985C571.637 61.6305 571.799 61.0805 572.123 60.6483C572.448 60.2161 572.861 60 573.362 60C573.864 60 574.277 60.2161 574.601 60.6483L583.274 72.1996L591.947 60.6483C592.272 60.2161 592.685 60 593.186 60C593.688 60 594.101 60.2161 594.425 60.6483C594.75 61.0805 594.912 61.6305 594.912 62.2985C594.912 62.9664 594.75 63.5165 594.425 63.9487L585.752 75.5L594.425 87.0513C594.75 87.4835 594.912 88.0336 594.912 88.7015C594.912 89.3695 594.75 89.9195 594.425 90.3517C594.101 90.7839 593.688 91 593.186 91C592.685 91 592.272 90.7839 591.947 90.3517L583.274 78.8004Z" fill="black"/>
<rect x="520.437" y="66" width="27.5882" height="20" stroke="black" stroke-width="4"/>
<path d="M465.235 76H497.239" stroke="black" stroke-width="4"/>
<path d="M30 78H553.345C568.809 78 581.345 90.536 581.345 106V150H2V106C2 90.536 14.536 78 30 78Z" fill="#BADCDD" stroke="black" stroke-width="4"/>
<mask id="path-14-inside-3_346_454" fill="white">
<path d="M0 152H583.345V437C583.345 453.569 569.913 467 553.345 467H30C13.4314 467 0 453.569 0 437V152Z"/>
</mask>
<path d="M0 152H583.345V437C583.345 453.569 569.913 467 553.345 467H30C13.4314 467 0 453.569 0 437V152Z" fill="#E4FEFF"/>
<path d="M0 152H583.345H0ZM587.345 437C587.345 455.778 572.123 471 553.345 471H30C11.2223 471 -4 455.778 -4 437H4C4 451.359 15.6406 463 30 463H553.345C567.704 463 579.345 451.359 579.345 437H587.345ZM30 471C11.2223 471 -4 455.778 -4 437V152H4V437C4 451.359 15.6406 463 30 463V471ZM587.345 152V437C587.345 455.778 572.123 471 553.345 471V463C567.704 463 579.345 451.359 579.345 437V152H587.345Z" fill="black" mask="url(#path-14-inside-3_346_454)"/>
<path d="M544.274 116.8L535.601 128.352C535.277 128.784 534.864 129 534.362 129C533.861 129 533.448 128.784 533.123 128.352C532.799 127.92 532.637 127.369 532.637 126.702C532.637 126.034 532.799 125.484 533.123 125.051L541.796 113.5L533.123 101.949C532.799 101.516 532.637 100.966 532.637 100.298C532.637 99.6305 532.799 99.0805 533.123 98.6483C533.448 98.2161 533.861 98 534.362 98C534.864 98 535.277 98.2161 535.601 98.6483L544.274 110.2L552.947 98.6483C553.272 98.2161 553.685 98 554.186 98C554.688 98 555.101 98.2161 555.425 98.6483C555.75 99.0805 555.912 99.6305 555.912 100.298C555.912 100.966 555.75 101.516 555.425 101.949L546.752 113.5L555.425 125.051C555.75 125.484 555.912 126.034 555.912 126.702C555.912 127.369 555.75 127.92 555.425 128.352C555.101 128.784 554.688 129 554.186 129C553.685 129 553.272 128.784 552.947 128.352L544.274 116.8Z" fill="black"/>
<rect x="481.437" y="104" width="27.5882" height="20" stroke="black" stroke-width="4"/>
<path d="M426.235 114H458.239" stroke="black" stroke-width="4"/>
</svg>
