<svg width="135" height="141" viewBox="0 0 135 141" fill="none" xmlns="http://www.w3.org/2000/svg">
<path d="M61.0859 32.0858C64.8799 31.8233 68.7518 32.0576 70.7588 32.3397L72.0205 32.5067C74.63 32.8307 75.1244 32.7648 78.1797 33.7684L79.9854 34.368C81.6662 34.9435 83.0633 35.5108 84.9814 36.6376L85.2939 36.826C86.8821 37.8081 88.8446 39.3718 90.6797 41.0106C92.645 42.7657 94.5573 44.6908 95.8027 46.2245L96.4072 46.9833C102.337 54.586 104.834 62.4881 104.333 72.2938L104.272 73.2811C103.867 79.0276 101.208 85.4426 99.1006 90.2645L99.0723 90.3299L99.0371 90.3924C96.6677 94.657 94.4061 98.3971 90.3848 101.466L89.9902 101.761C85.6674 104.922 82.1534 107.207 76.3564 108.708L75.7881 108.85C72.766 109.587 68.1432 109.578 65.3418 109.578C64.6843 109.578 63.5041 109.405 62.5107 109.254C61.6888 109.128 60.9416 109.008 60.4277 108.938L59.9971 108.888C59.6139 108.852 59.0777 108.711 58.6074 108.577C58.089 108.429 57.4854 108.24 56.8955 108.048C55.7138 107.663 54.539 107.25 54.1123 107.1V107.101L54.1055 107.098H54.1045C51.6303 106.232 49.897 105.51 48.3096 104.583C46.9211 103.772 45.6866 102.828 44.1895 101.564L43.5312 101.003C40.6674 98.5397 37.0596 94.282 35.3271 90.3905L35.165 90.0155C34.3891 88.1511 33.2429 85.6096 32.3877 83.4891L32.041 82.6092C31.1737 80.348 30.4525 76.7984 30.3301 74.0741L30.3145 73.5409C30.2346 68.4164 30.8025 64.2095 31.6367 59.2401L31.6562 59.1229L31.6943 59.0106C33.7348 52.9337 37.9763 46.9059 41.8662 43.328L42.3711 42.8719C44.8902 40.6398 47.2967 39.1241 49.8291 37.3817L50.3145 37.0614C52.6238 35.5947 55.5454 34.5302 58.1191 33.6258L58.3193 33.2645L58.5703 32.8104L59.0479 32.6083L59.875 32.2577L60.0928 32.1659L60.3281 32.1454L61.0859 32.0858Z" fill="#EACF79" stroke="black" stroke-width="3" stroke-linecap="round"/>
<path d="M68.1807 117.302L68.2959 117.306C68.8555 117.348 69.1978 117.683 69.2539 117.736C69.3804 117.855 69.4686 117.976 69.5156 118.044C69.6163 118.19 69.7037 118.353 69.7725 118.488C69.917 118.772 70.0831 119.147 70.2549 119.558C70.6026 120.39 71.026 121.494 71.4414 122.603C71.8581 123.715 72.2742 124.851 72.6045 125.751C72.7703 126.203 72.9137 126.593 73.0264 126.894C73.0826 127.044 73.1295 127.168 73.167 127.264C73.1857 127.312 73.2017 127.351 73.2139 127.381C73.2199 127.396 73.2249 127.408 73.2285 127.416C73.2303 127.421 73.2314 127.424 73.2324 127.426C73.2331 127.428 73.2332 127.429 73.2334 127.429L73.374 127.759C73.7017 128.566 74.0146 129.609 74.0146 130.436V130.538L74.001 130.64C74.0028 130.626 73.9957 130.781 74.0068 131.21C74.0165 131.583 74.035 132.024 74.0508 132.499C74.0661 132.96 74.0785 133.445 74.0762 133.854C74.075 134.057 74.0697 134.262 74.0566 134.445C74.049 134.552 74.0346 134.73 73.9922 134.921L73.9404 135.114L73.9053 135.218L73.8564 135.317C73.3384 136.351 72.8404 137.119 72.2412 137.675C71.761 138.121 71.275 138.375 70.8145 138.553L70.3633 138.71C69.7621 138.901 69.3097 139.001 68.8652 139.041C68.6707 139.059 68.4707 139.063 68.2852 139.063L67.792 139.059C67.2903 139.059 66.167 139.072 65.1113 138.739L64.9014 138.667C64.379 138.477 62.854 137.667 61.7051 135.72L61.4805 135.316C61.3699 135.103 61.3259 134.904 61.3076 134.812C61.2848 134.697 61.2714 134.586 61.2627 134.493C61.2453 134.305 61.2393 134.095 61.2373 133.893C61.2333 133.485 61.2474 132.991 61.2646 132.522C61.2826 132.033 61.3032 131.587 61.3154 131.199C61.3293 130.756 61.3226 130.599 61.3252 130.618L61.3115 130.517V130.414C61.3115 129.47 61.7205 128.241 62.0928 127.408L62.9316 125.61C63.3598 124.702 63.8977 123.571 64.4268 122.469C64.9576 121.364 65.4859 120.276 65.8936 119.461C66.0963 119.056 66.2753 118.707 66.4121 118.453C66.4785 118.331 66.5463 118.208 66.6084 118.108C66.6362 118.063 66.6848 117.986 66.7461 117.907C66.7733 117.872 66.8388 117.79 66.9336 117.703C66.9807 117.66 67.0703 117.582 67.1982 117.507C67.3081 117.443 67.5799 117.302 67.958 117.302H68.1807Z" fill="#EACF79" stroke="black" stroke-width="3" stroke-linecap="round"/>
<path d="M68.1807 23.2613L68.2959 23.2574C68.8555 23.2155 69.1978 22.8807 69.2539 22.8277C69.3804 22.7082 69.4686 22.5871 69.5156 22.5191C69.6163 22.3735 69.7037 22.2109 69.7725 22.0757C69.917 21.7916 70.0831 21.4166 70.2549 21.0054C70.6026 20.1729 71.026 19.0691 71.4414 17.9605C71.8581 16.8485 72.2742 15.7119 72.6045 14.8121C72.7703 14.3603 72.9137 13.9699 73.0264 13.6695C73.0826 13.5195 73.1295 13.3955 73.167 13.2994C73.1857 13.2513 73.2017 13.2121 73.2139 13.1822C73.2199 13.1675 73.2249 13.1557 73.2285 13.147C73.2303 13.1429 73.2314 13.1395 73.2324 13.1373C73.2331 13.1358 73.2332 13.1348 73.2334 13.1343L73.374 12.8043C73.7017 11.9979 74.0146 10.9543 74.0146 10.1275V10.025L74.001 9.9234C74.0028 9.93708 73.9957 9.78194 74.0068 9.35309C74.0165 8.98004 74.035 8.53934 74.0508 8.06403C74.0661 7.60314 74.0785 7.11804 74.0762 6.70953C74.075 6.50607 74.0697 6.30182 74.0566 6.11871C74.0465 5.97606 74.0248 5.70645 73.9404 5.44977L73.9053 5.34528L73.8564 5.24664C73.3384 4.21215 72.8404 3.44452 72.2412 2.88824C71.761 2.44242 71.275 2.1882 70.8145 2.01031L70.3633 1.85309C69.7621 1.66291 69.3097 1.56206 68.8652 1.52203C68.6707 1.50452 68.4707 1.50047 68.2852 1.50055L67.792 1.50446C67.2903 1.50447 66.167 1.49185 65.1113 1.82477L64.9014 1.89606C64.379 2.08658 62.854 2.89667 61.7051 4.84332L61.4805 5.24762C61.3699 5.46012 61.3259 5.65988 61.3076 5.75153C61.2848 5.86598 61.2714 5.9774 61.2627 6.07086C61.2453 6.25859 61.2393 6.46826 61.2373 6.67047C61.2333 7.07884 61.2474 7.57246 61.2646 8.04156C61.2826 8.53075 61.3032 8.97688 61.3154 9.36481C61.3293 9.80788 61.3226 9.96418 61.3252 9.94586L61.3115 10.0464V10.149C61.3115 11.0938 61.7205 12.3223 62.0928 13.1558L62.9316 14.9537C63.3598 15.8613 63.8977 16.9926 64.4268 18.0943C64.9576 19.1998 65.4859 20.2877 65.8936 21.1021C66.0963 21.5071 66.2753 21.8566 66.4121 22.1099C66.4785 22.2328 66.5463 22.3553 66.6084 22.4556C66.6362 22.5005 66.6848 22.5778 66.7461 22.6568C66.7733 22.6918 66.8388 22.7729 66.9336 22.8599C66.9807 22.9031 67.0703 22.9817 67.1982 23.0562C67.3081 23.1202 67.5799 23.2613 67.958 23.2613H68.1807Z" fill="#EACF79" stroke="black" stroke-width="3" stroke-linecap="round"/>
<path d="M111.663 68.7846L111.677 68.5785C111.738 68.1224 111.988 67.8319 112.046 67.7641C112.159 67.6317 112.275 67.5374 112.343 67.4857C112.485 67.3765 112.644 67.2819 112.775 67.2084C113.05 67.054 113.411 66.8778 113.803 66.6967C114.598 66.3299 115.651 65.8834 116.706 65.4467C117.764 65.0084 118.846 64.5711 119.702 64.224C120.132 64.0497 120.502 63.8988 120.787 63.7807C120.929 63.7217 121.047 63.6731 121.137 63.6342C121.183 63.6147 121.219 63.5987 121.247 63.5863C121.26 63.5803 121.271 63.5752 121.278 63.5717C121.284 63.569 121.287 63.5671 121.288 63.5668L121.625 63.4086C121.971 63.2541 122.34 63.113 122.702 63.0004C123.16 62.858 123.712 62.7279 124.23 62.7279H124.344L124.455 62.7445C124.419 62.7392 124.545 62.7476 124.961 62.7357C125.315 62.7256 125.731 62.7075 126.185 62.6908C126.624 62.6747 127.09 62.6609 127.483 62.6635C127.679 62.6647 127.879 62.6697 128.06 62.684C128.198 62.6949 128.478 62.7201 128.747 62.8178L128.857 62.8578L128.961 62.9154C129.954 63.4652 130.69 63.9934 131.219 64.6234C131.637 65.1208 131.873 65.6196 132.038 66.0912L132.182 66.5521C132.361 67.1772 132.455 67.6378 132.491 68.0844C132.523 68.4801 132.506 68.8896 132.506 69.1928L132.502 69.7357C132.489 70.3306 132.435 71.1583 132.21 71.9467L132.144 72.1605C131.977 72.6681 131.222 74.2707 129.35 75.4906L128.961 75.7289C128.741 75.8553 128.532 75.906 128.436 75.9271C128.318 75.9533 128.204 75.9683 128.11 75.9779C127.922 75.9972 127.716 76.0041 127.521 76.0062C127.127 76.0105 126.652 75.9951 126.206 75.9769C125.737 75.9579 125.317 75.937 124.948 75.9242C124.517 75.9093 124.392 75.9179 124.434 75.9115L124.322 75.9281H124.21C123.691 75.9281 123.138 75.7981 122.68 75.6557C122.198 75.5056 121.704 75.3046 121.267 75.0892L119.554 74.2055C118.69 73.7551 117.614 73.1901 116.566 72.6342C115.514 72.0761 114.479 71.5202 113.703 71.0912C113.317 70.878 112.984 70.6891 112.741 70.5443C112.623 70.4742 112.505 70.4013 112.407 70.3344C112.363 70.3044 112.287 70.2514 112.21 70.185C112.175 70.1551 112.096 70.0864 112.014 69.9877C111.973 69.9382 111.904 69.8474 111.838 69.7221C111.779 69.6116 111.664 69.361 111.664 69.0189H111.663V68.7846Z" fill="#EACF79" stroke="black" stroke-width="3" stroke-linecap="round"/>
<path d="M22.3477 68.7846L22.334 68.5785C22.2724 68.1224 22.0229 67.8319 21.9648 67.7641C21.8517 67.6317 21.7356 67.5374 21.668 67.4857C21.5251 67.3765 21.3662 67.2819 21.2354 67.2084C20.9606 67.054 20.5994 66.8778 20.207 66.6967C19.4122 66.3299 18.3596 65.8834 17.3047 65.4467C16.2462 65.0084 15.1643 64.5711 14.3086 64.224C13.8789 64.0497 13.5088 63.8988 13.2236 63.7807C13.0812 63.7217 12.9636 63.6731 12.873 63.6342C12.8278 63.6147 12.7912 63.5987 12.7637 63.5863C12.7502 63.5803 12.74 63.5752 12.7324 63.5717C12.7266 63.569 12.7234 63.5671 12.7227 63.5668L12.3857 63.4086C12.0398 63.2541 11.6706 63.113 11.3086 63.0004C10.8507 62.858 10.2986 62.7279 9.78027 62.7279H9.66699L9.55566 62.7445C9.59107 62.7392 9.46515 62.7476 9.0498 62.7357C8.69594 62.7256 8.27967 62.7075 7.8252 62.6908C7.38657 62.6747 6.92088 62.6609 6.52734 62.6635C6.33148 62.6647 6.13142 62.6697 5.9502 62.684C5.81218 62.6949 5.5326 62.7201 5.26367 62.8178L5.15332 62.8578L5.0498 62.9154C4.05621 63.4652 3.32037 63.9934 2.79102 64.6234C2.37309 65.1208 2.13726 65.6196 1.97266 66.0912L1.82812 66.5521C1.64919 67.1772 1.55591 67.6378 1.51953 68.0844C1.48731 68.4801 1.50487 68.8896 1.50488 69.1928L1.50879 69.7357C1.52174 70.3306 1.5759 71.1583 1.80078 71.9467L1.86621 72.1605C2.03368 72.6681 2.78892 74.2707 4.66016 75.4906L5.0498 75.7289C5.26979 75.8553 5.47845 75.906 5.57422 75.9271C5.69296 75.9533 5.80689 75.9683 5.90039 75.9779C6.08804 75.9972 6.29427 76.0041 6.48926 76.0062C6.88369 76.0105 7.35811 75.9951 7.80469 75.9769C8.27329 75.9579 8.69373 75.937 9.0625 75.9242C9.49361 75.9093 9.6182 75.9179 9.57617 75.9115L9.68848 75.9281H9.80078C10.3193 75.9281 10.8721 75.7981 11.3301 75.6557C11.8125 75.5056 12.3067 75.3046 12.7432 75.0892L14.4561 74.2055C15.32 73.7551 16.3966 73.1901 17.4443 72.6342C18.4961 72.0761 19.532 71.5202 20.3076 71.0912C20.6931 70.878 21.0269 70.6891 21.2695 70.5443C21.3871 70.4742 21.5056 70.4013 21.6035 70.3344C21.6474 70.3044 21.7233 70.2514 21.8008 70.185C21.8356 70.1551 21.9141 70.0864 21.9961 69.9877C22.0372 69.9382 22.1068 69.8474 22.1729 69.7221C22.2311 69.6116 22.3465 69.361 22.3467 69.0189H22.3477V68.7846Z" fill="#EACF79" stroke="black" stroke-width="3" stroke-linecap="round"/>
<path d="M105.958 92.3403L106.072 92.1638C106.352 91.7882 106.716 91.6659 106.794 91.639C106.956 91.5839 107.1 91.564 107.182 91.5549C107.357 91.5356 107.539 91.5361 107.686 91.5412C107.996 91.5519 108.392 91.5893 108.817 91.6386C109.679 91.7386 110.802 91.9051 111.923 92.0813C113.049 92.2581 114.193 92.448 115.1 92.5972C115.555 92.6721 115.947 92.7366 116.25 92.7842C116.402 92.808 116.528 92.8269 116.626 92.8408C116.674 92.8477 116.713 92.8532 116.742 92.8569L116.789 92.8621C117.267 92.9048 117.789 92.9901 118.276 93.1131C118.739 93.2301 119.273 93.4067 119.715 93.6749L119.809 93.7321L119.894 93.8021C119.872 93.7833 119.982 93.8599 120.345 94.0663C120.656 94.2437 121.027 94.4468 121.428 94.6709C121.815 94.8875 122.224 95.1196 122.563 95.3279C122.731 95.4316 122.9 95.5404 123.049 95.6468C123.162 95.7283 123.387 95.8939 123.569 96.1143L123.644 96.2053L123.705 96.3065C124.302 97.3023 124.687 98.145 124.846 98.9689C124.972 99.622 124.94 100.181 124.857 100.68L124.762 101.158C124.62 101.795 124.48 102.246 124.297 102.656C124.216 102.837 124.123 103.015 124.032 103.181L123.782 103.629C123.53 104.088 122.989 105.094 122.206 105.87L122.047 106.022C121.652 106.381 120.233 107.369 118.038 107.442L117.588 107.444C117.342 107.438 117.142 107.374 117.052 107.342C116.939 107.304 116.835 107.258 116.75 107.218C116.581 107.137 116.401 107.035 116.231 106.935C115.889 106.732 115.486 106.47 115.108 106.22C114.712 105.958 114.358 105.718 114.045 105.513C113.68 105.274 113.563 105.213 113.596 105.227L113.495 105.184L113.401 105.127C112.959 104.859 112.547 104.461 112.219 104.098C111.874 103.716 111.543 103.284 111.268 102.869L110.206 101.205C109.672 100.36 109.008 99.3048 108.365 98.2724C107.72 97.2365 107.087 96.2116 106.62 95.4328C106.387 95.0456 106.188 94.7067 106.047 94.4543C105.979 94.3319 105.912 94.2067 105.859 94.098C105.836 94.0493 105.795 93.9643 105.76 93.8668C105.744 93.8232 105.709 93.723 105.685 93.5941C105.673 93.5295 105.655 93.4117 105.657 93.2657C105.659 93.1376 105.679 92.8508 105.848 92.5436L105.847 92.5431L105.958 92.3403Z" fill="#EACF79" stroke="black" stroke-width="3" stroke-linecap="round"/>
<path d="M28.5758 45.3764L28.6644 45.1847C28.8341 44.7424 28.7527 44.3495 28.7356 44.2647C28.7005 44.0905 28.6446 43.949 28.6109 43.8695C28.5396 43.701 28.4482 43.5357 28.3702 43.4038C28.2064 43.1269 27.978 42.7858 27.7245 42.4231C27.2112 41.6883 26.5125 40.7492 25.8067 39.8166C25.0985 38.8807 24.3696 37.9335 23.7936 37.183C23.5044 36.8063 23.255 36.4814 23.0642 36.2291C22.9687 36.1028 22.8901 35.9974 22.83 35.9157C22.8001 35.8752 22.7763 35.8427 22.7582 35.8174L22.7309 35.778C22.4563 35.3634 22.1251 34.9311 21.7804 34.5495C21.4526 34.1865 21.0399 33.7885 20.5981 33.5203L20.5037 33.4631L20.4036 33.4205C20.4303 33.4317 20.312 33.3695 19.9607 33.1426C19.6588 32.9477 19.3063 32.7122 18.9212 32.4593C18.549 32.2148 18.1532 31.9583 17.8124 31.7543C17.6427 31.6529 17.4686 31.5534 17.3066 31.4714C17.1826 31.4086 16.934 31.287 16.6613 31.2315L16.549 31.209L16.435 31.2038C15.3159 31.1578 14.4292 31.2287 13.6709 31.496C13.07 31.708 12.6254 32.0173 12.2561 32.3413L11.9091 32.6671C11.4556 33.1155 11.1543 33.4681 10.9077 33.8397C10.7989 34.0037 10.6987 34.1774 10.6081 34.3427L10.3641 34.7949C10.1119 35.2543 9.55317 36.2499 9.30566 37.3504L9.25995 37.5714C9.16167 38.1096 9.05734 39.8962 10.0947 41.931L10.3178 42.3415C10.4455 42.5619 10.5986 42.7118 10.6698 42.7788C10.7582 42.8619 10.8476 42.934 10.923 42.9907C11.0744 43.1045 11.2485 43.2177 11.4158 43.3217C11.754 43.5319 12.1711 43.7679 12.5665 43.9869C12.9804 44.2162 13.3551 44.4187 13.6805 44.6014C14.0592 44.8141 14.1687 44.8903 14.1403 44.8668L14.2263 44.9372L14.3206 44.9945C14.7623 45.2624 15.296 45.4388 15.7588 45.5557C16.2456 45.6787 16.7681 45.7645 17.2469 45.8072L19.1491 45.9413C20.1114 46.0054 21.3133 46.0823 22.4854 46.1516C23.6614 46.221 24.8221 46.2844 25.6974 46.3206C26.1326 46.3385 26.5113 46.3502 26.7898 46.3524C26.9247 46.3534 27.0615 46.3522 27.1774 46.3457C27.2293 46.3428 27.3194 46.3368 27.4174 46.3202C27.4612 46.3127 27.5613 46.2946 27.6796 46.2522C27.7388 46.2309 27.845 46.1886 27.9641 46.1133C28.0685 46.0472 28.2948 45.8858 28.4636 45.5787L28.4644 45.5792L28.5758 45.3764Z" fill="#EACF79" stroke="black" stroke-width="3" stroke-linecap="round"/>
<path d="M89.8155 109.765L89.9142 109.71C90.403 109.46 90.8484 109.566 90.9256 109.583C91.0918 109.62 91.2259 109.679 91.2998 109.713C91.4574 109.787 91.6113 109.882 91.7356 109.964C91.9969 110.135 92.3197 110.373 92.6644 110.639C93.3621 111.178 94.2547 111.911 95.1418 112.653C96.0317 113.397 96.9324 114.164 97.6464 114.769C98.0048 115.073 98.3148 115.335 98.5551 115.536C98.6753 115.637 98.7752 115.72 98.8533 115.783C98.8921 115.815 98.9238 115.839 98.9483 115.859L98.9876 115.89L99.2665 116.102C99.9356 116.629 100.71 117.373 101.108 118.099L101.158 118.19L101.196 118.289C101.189 118.271 101.254 118.405 101.469 118.772C101.655 119.09 101.88 119.462 102.12 119.865C102.352 120.256 102.594 120.67 102.787 121.026C102.883 121.203 102.976 121.385 103.053 121.552C103.112 121.681 103.224 121.931 103.274 122.204L103.294 122.316L103.298 122.43C103.341 123.601 103.275 124.529 103.021 125.326C102.817 125.963 102.52 126.436 102.208 126.83L101.893 127.2C101.465 127.679 101.124 128.001 100.763 128.266C100.604 128.382 100.435 128.49 100.275 128.587L99.8456 128.842C99.4103 129.106 98.4506 129.703 97.3872 129.968L97.173 130.015C96.6408 130.123 94.9362 130.227 93.01 129.142L92.6223 128.908C92.4212 128.78 92.2845 128.627 92.2237 128.556C92.1479 128.467 92.0824 128.375 92.0298 128.298C91.9242 128.143 91.8182 127.963 91.72 127.788C91.5216 127.436 91.2982 127 91.0899 126.584C90.8725 126.151 90.6786 125.754 90.5047 125.411C90.3052 125.019 90.2277 124.892 90.2421 124.911L90.1798 124.828L90.1295 124.736C89.6743 123.908 89.444 122.62 89.3699 121.702C89.3333 121.248 89.1732 118.662 89.0414 116.197C88.9753 114.961 88.9158 113.741 88.8814 112.821C88.8644 112.364 88.8526 111.966 88.8506 111.675C88.8496 111.533 88.8507 111.391 88.8567 111.27C88.8594 111.217 88.8655 111.124 88.881 111.023C88.888 110.978 88.905 110.872 88.9457 110.747C88.9659 110.685 89.0066 110.571 89.0806 110.442C89.1447 110.33 89.3081 110.074 89.6231 109.883L89.6226 109.882L89.8155 109.765Z" fill="#EACF79" stroke="black" stroke-width="3" stroke-linecap="round"/>
<path d="M45.1017 28.3549L45.1967 28.2927C45.6468 27.9726 45.7822 27.514 45.8066 27.4352C45.8592 27.2654 45.878 27.114 45.8865 27.0295C45.9046 26.8491 45.903 26.6614 45.8982 26.5076C45.8882 26.1843 45.8528 25.771 45.8059 25.3242C45.711 24.4197 45.5531 23.2404 45.3855 22.062C45.2174 20.8798 45.0365 19.6766 44.8946 18.7238C44.8233 18.2457 44.7626 17.8325 44.7172 17.5133C44.6946 17.3536 44.6761 17.2211 44.6628 17.1183C44.6562 17.0672 44.6516 17.0259 44.6479 16.9939L44.642 16.9426L44.6069 16.5828C44.5069 15.7099 44.2808 14.6331 43.8824 13.9079L43.8321 13.8163L43.7693 13.7323C43.7807 13.7476 43.7034 13.6215 43.5081 13.2426C43.3392 12.9147 43.1453 12.5241 42.9327 12.1036C42.7267 11.6966 42.5071 11.2691 42.3102 10.9156C42.2121 10.7395 42.109 10.5641 42.0096 10.4109C41.9327 10.2923 41.7827 10.0656 41.5831 9.88351L41.5009 9.80896L41.4087 9.7485C40.4659 9.12345 39.668 8.71987 38.8843 8.55296C38.2583 8.41966 37.7196 8.45372 37.2393 8.54126L36.7773 8.64247C36.1683 8.79328 35.7325 8.94222 35.3334 9.13873C35.1583 9.22497 34.9848 9.32509 34.8255 9.42187L34.4004 9.68556C33.9652 9.94972 32.9934 10.5248 32.2439 11.3608L32.0974 11.5318C31.7427 11.9626 30.8046 13.4623 30.7354 15.7583L30.7341 16.2281C30.7395 16.4755 30.797 16.6763 30.8254 16.7673C30.8608 16.8809 30.9034 16.9862 30.9408 17.0727C31.0159 17.2465 31.1108 17.4327 31.2055 17.6094C31.397 17.9665 31.6443 18.3877 31.8824 18.785C32.131 19.1999 32.3611 19.5748 32.5561 19.9043C32.7798 20.2822 32.8456 20.4161 32.837 20.3935L32.8743 20.4918L32.9246 20.5834C33.3798 21.4121 34.3258 22.2658 35.045 22.7922C35.4006 23.0525 37.4513 24.4914 39.4158 25.8437C40.4013 26.5219 41.3765 27.1861 42.117 27.6772C42.4853 27.9214 42.8068 28.1308 43.0462 28.2785C43.1622 28.3501 43.2802 28.4205 43.3823 28.4751C43.428 28.4995 43.5073 28.5403 43.5984 28.5767C43.6389 28.5929 43.7343 28.6301 43.8577 28.6556C43.9191 28.6683 44.0332 28.6882 44.1769 28.6856C44.3013 28.6833 44.5933 28.6621 44.9084 28.471L44.9089 28.4719L45.1017 28.3549Z" fill="#EACF79" stroke="black" stroke-width="3" stroke-linecap="round"/>
<path d="M45.1017 110.315L45.1967 110.378C45.6468 110.698 45.7822 111.156 45.8066 111.235C45.8592 111.405 45.878 111.556 45.8865 111.641C45.9046 111.821 45.903 112.009 45.8982 112.163C45.8882 112.486 45.8528 112.899 45.8059 113.346C45.711 114.251 45.5531 115.43 45.3855 116.608C45.2174 117.791 45.0365 118.994 44.8946 119.946C44.8233 120.425 44.7626 120.838 44.7172 121.157C44.6946 121.317 44.6761 121.449 44.6628 121.552C44.6562 121.603 44.6516 121.644 44.6479 121.676L44.642 121.728L44.6069 122.088C44.5069 122.96 44.2808 124.037 43.8824 124.762L43.8321 124.854L43.7693 124.938C43.7807 124.923 43.7034 125.049 43.5081 125.428C43.3392 125.756 43.1453 126.146 42.9327 126.567C42.7267 126.974 42.5071 127.401 42.3102 127.755C42.2121 127.931 42.109 128.106 42.0096 128.259C41.9327 128.378 41.7827 128.605 41.5831 128.787L41.5009 128.861L41.4087 128.922C40.4659 129.547 39.668 129.95 38.8843 130.117C38.2583 130.251 37.7196 130.217 37.2393 130.129L36.7773 130.028C36.1683 129.877 35.7325 129.728 35.3334 129.532C35.1583 129.445 34.9848 129.345 34.8255 129.248L34.4004 128.985C33.9652 128.721 32.9934 128.145 32.2439 127.31L32.0974 127.138C31.7427 126.708 30.8046 125.208 30.7354 122.912L30.7341 122.442C30.7395 122.195 30.797 121.994 30.8254 121.903C30.8608 121.789 30.9034 121.684 30.9408 121.598C31.0159 121.424 31.1108 121.238 31.2055 121.061C31.397 120.704 31.6443 120.283 31.8824 119.885C32.131 119.47 32.3611 119.096 32.5561 118.766C32.7798 118.388 32.8456 118.254 32.837 118.277L32.8743 118.179L32.9246 118.087C33.3798 117.258 34.3258 116.405 35.045 115.878C35.4006 115.618 37.4513 114.179 39.4158 112.827C40.4013 112.148 41.3765 111.484 42.117 110.993C42.4853 110.749 42.8068 110.54 43.0462 110.392C43.1622 110.32 43.2802 110.25 43.3823 110.195C43.428 110.171 43.5073 110.13 43.5984 110.094C43.6389 110.077 43.7343 110.04 43.8577 110.015C43.9191 110.002 44.0332 109.982 44.1769 109.985C44.3013 109.987 44.5933 110.008 44.9084 110.199L44.9089 110.198L45.1017 110.315Z" fill="#EACF79" stroke="black" stroke-width="3" stroke-linecap="round"/>
<path d="M89.8155 28.9051L89.9142 28.9605C90.403 29.2102 90.8484 29.1042 90.9256 29.087C91.0918 29.05 91.2259 28.9914 91.2998 28.9569C91.4574 28.8831 91.6113 28.7878 91.7356 28.7066C91.9969 28.5358 92.3197 28.297 92.6644 28.0309C93.3621 27.4922 94.2547 26.7589 95.1418 26.0171C96.0317 25.2729 96.9324 24.5066 97.6464 23.901C98.0048 23.5971 98.3148 23.3352 98.5551 23.1343C98.6753 23.0338 98.7752 22.9508 98.8533 22.8873C98.8921 22.8557 98.9238 22.8308 98.9483 22.8115L98.9876 22.7805L99.2665 22.5686C99.9356 22.0412 100.71 21.2969 101.108 20.5717L101.158 20.4801L101.196 20.3809C101.189 20.3989 101.254 20.2654 101.469 19.8983C101.655 19.5805 101.88 19.2087 102.12 18.8049C102.352 18.4139 102.594 18.0002 102.787 17.6442C102.883 17.4669 102.976 17.2853 103.053 17.1183C103.112 16.9889 103.224 16.739 103.274 16.4662L103.294 16.3542L103.298 16.24C103.341 15.0691 103.275 14.141 103.021 13.3441C102.817 12.7076 102.52 12.2342 102.208 11.8407L101.893 11.4707C101.465 10.9917 101.124 10.6695 100.763 10.4044C100.604 10.2881 100.435 10.1802 100.275 10.0836L99.8456 9.82849C99.4103 9.56436 98.4506 8.96724 97.3872 8.70281L97.173 8.655C96.6408 8.54756 94.9362 8.44335 93.01 9.52832L92.6223 9.76207C92.4212 9.89071 92.2845 10.0434 92.2237 10.1148C92.1479 10.2038 92.0824 10.2953 92.0298 10.3726C91.9242 10.5278 91.8182 10.7073 91.72 10.8819C91.5216 11.2347 91.2982 11.6705 91.0899 12.0859C90.8725 12.5197 90.6786 12.9165 90.5047 13.2588C90.3052 13.6515 90.2277 13.7783 90.2421 13.7592L90.1798 13.8423L90.1295 13.9339C89.6743 14.7626 89.444 16.0506 89.3699 16.9686C89.3333 17.4225 89.1732 20.0088 89.0414 22.4733C88.9753 23.7096 88.9158 24.9295 88.8814 25.8492C88.8644 26.3066 88.8526 26.7039 88.8506 26.9957C88.8496 27.1371 88.8507 27.2797 88.8567 27.4C88.8594 27.4538 88.8655 27.5464 88.881 27.6476C88.888 27.6925 88.905 27.7979 88.9457 27.923C88.9659 27.9852 89.0066 28.0991 89.0806 28.2286C89.1447 28.3406 89.3081 28.5959 89.6231 28.7872L89.6226 28.7881L89.8155 28.9051Z" fill="#EACF79" stroke="black" stroke-width="3" stroke-linecap="round"/>
<path d="M28.5758 93.294L28.6644 93.4856C28.8341 93.928 28.7527 94.3208 28.7356 94.4056C28.7005 94.5798 28.6446 94.7213 28.6109 94.8008C28.5396 94.9693 28.4482 95.1346 28.3702 95.2665C28.2064 95.5435 27.978 95.8845 27.7245 96.2472C27.2112 96.982 26.5125 97.9211 25.8067 98.8537C25.0985 99.7896 24.3696 100.737 23.7936 101.487C23.5044 101.864 23.255 102.189 23.0642 102.441C22.9687 102.568 22.8901 102.673 22.83 102.755C22.8001 102.795 22.7763 102.828 22.7582 102.853L22.7309 102.892C22.4563 103.307 22.1251 103.739 21.7804 104.121C21.4526 104.484 21.0399 104.882 20.5981 105.15L20.5037 105.207L20.4036 105.25C20.4303 105.239 20.312 105.301 19.9607 105.528C19.6588 105.723 19.3063 105.958 18.9212 106.211C18.549 106.455 18.1532 106.712 17.8124 106.916C17.6427 107.017 17.4686 107.117 17.3066 107.199C17.1826 107.262 16.934 107.383 16.6613 107.439L16.549 107.461L16.435 107.467C15.3159 107.513 14.4292 107.442 13.6709 107.174C13.07 106.962 12.6254 106.653 12.2561 106.329L11.9091 106.003C11.4556 105.555 11.1543 105.202 10.9077 104.831C10.7989 104.667 10.6987 104.493 10.6081 104.328L10.3641 103.875C10.1119 103.416 9.55317 102.42 9.30566 101.32L9.25995 101.099C9.16167 100.561 9.05734 98.7741 10.0947 96.7393L10.3178 96.3288C10.4455 96.1084 10.5986 95.9585 10.6698 95.8915C10.7582 95.8084 10.8476 95.7364 10.923 95.6797C11.0744 95.5658 11.2485 95.4526 11.4158 95.3487C11.754 95.1385 12.1711 94.9024 12.5665 94.6834C12.9804 94.4541 13.3551 94.2516 13.6805 94.0689C14.0592 93.8563 14.1687 93.78 14.1403 93.8036L14.2263 93.7331L14.3206 93.6759C14.7623 93.4079 15.296 93.2315 15.7588 93.1146C16.2456 92.9916 16.7681 92.9058 17.2469 92.8631L19.1491 92.729C20.1114 92.6649 21.3133 92.588 22.4854 92.5188C23.6614 92.4493 24.8221 92.3859 25.6974 92.3497C26.1326 92.3318 26.5113 92.3201 26.7898 92.3179C26.9247 92.3169 27.0615 92.3182 27.1774 92.3246C27.2293 92.3275 27.3194 92.3335 27.4174 92.3501C27.4612 92.3576 27.5613 92.3757 27.6796 92.4181C27.7388 92.4394 27.845 92.4818 27.9641 92.5571C28.0685 92.6231 28.2948 92.7845 28.4636 93.0916L28.4644 93.0911L28.5758 93.294Z" fill="#EACF79" stroke="black" stroke-width="3" stroke-linecap="round"/>
<path d="M105.958 46.33L106.072 46.5065C106.352 46.8821 106.716 47.0044 106.794 47.0313C106.956 47.0865 107.1 47.1063 107.182 47.1154C107.357 47.1348 107.539 47.1342 107.686 47.1291C107.996 47.1184 108.392 47.081 108.817 47.0317C109.679 46.9317 110.802 46.7652 111.923 46.589C113.049 46.4123 114.193 46.2223 115.1 46.0731C115.555 45.9983 115.947 45.9337 116.25 45.8861C116.402 45.8623 116.528 45.8434 116.626 45.8296C116.674 45.8227 116.713 45.8172 116.742 45.8134L116.789 45.8082C117.267 45.7655 117.789 45.6802 118.276 45.5572C118.739 45.4403 119.273 45.2636 119.715 44.9954L119.809 44.9382L119.894 44.8682C119.872 44.887 119.982 44.8104 120.345 44.604C120.656 44.4267 121.027 44.2235 121.428 43.9994C121.815 43.7828 122.224 43.5508 122.563 43.3424C122.731 43.2387 122.9 43.1299 123.049 43.0235C123.162 42.942 123.387 42.7764 123.569 42.556L123.644 42.465L123.705 42.3639C124.302 41.368 124.687 40.5253 124.846 39.7014C124.972 39.0483 124.94 38.4889 124.857 37.9907L124.762 37.5119C124.62 36.8749 124.48 36.4243 124.297 36.014C124.216 35.8329 124.123 35.6549 124.032 35.4898L123.782 35.0416C123.53 34.5822 122.989 33.5758 122.206 32.8003L122.047 32.6481C121.652 32.2896 120.233 31.3013 118.038 31.2283L117.588 31.2262C117.342 31.2322 117.142 31.2966 117.052 31.3279C116.939 31.3668 116.835 31.4122 116.75 31.4525C116.581 31.5334 116.401 31.6353 116.231 31.7356C115.889 31.9384 115.486 32.2001 115.108 32.4505C114.712 32.7126 114.358 32.9525 114.045 33.1574C113.68 33.3959 113.563 33.4574 113.596 33.4433L113.495 33.4864L113.401 33.5436C112.959 33.8117 112.547 34.2094 112.219 34.5722C111.874 34.9539 111.543 35.3866 111.268 35.8012L110.206 37.4658C109.672 38.3099 109.008 39.3655 108.365 40.398C107.72 41.4338 107.087 42.4587 106.62 43.2376C106.387 43.6247 106.188 43.9636 106.047 44.216C105.979 44.3384 105.912 44.4636 105.859 44.5723C105.836 44.621 105.795 44.706 105.76 44.8036C105.744 44.8471 105.709 44.9473 105.685 45.0762C105.673 45.1408 105.655 45.2586 105.657 45.4047C105.659 45.5327 105.679 45.8195 105.848 46.1267L105.847 46.1272L105.958 46.33Z" fill="#EACF79" stroke="black" stroke-width="3" stroke-linecap="round"/>
</svg>
