<svg width="142" height="141" viewBox="0 0 142 141" fill="none" xmlns="http://www.w3.org/2000/svg">
<mask id="path-1-outside-1_322_405" maskUnits="userSpaceOnUse" x="0.414551" y="0" width="141" height="141" fill="black">
<rect fill="white" x="0.414551" width="141" height="141"/>
<path d="M62.1572 34.8514C59.2276 35.8779 56.0143 37.0111 53.6794 38.6176C50.9212 40.5154 48.4855 42.0372 45.8814 44.4324C42.1612 47.8542 38.069 53.6713 36.1159 59.4884C35.2866 64.4281 34.736 68.5296 34.8138 73.5177C34.8545 76.1231 35.5802 79.8269 36.4414 82.0722C37.3027 84.3176 38.6277 87.2233 39.55 89.4392C41.0933 93.1474 44.6668 97.4211 47.509 99.8656C51.0897 102.945 52.7173 103.972 57.6 105.683L57.6074 105.685C58.4593 105.984 62.2529 107.313 63.1338 107.394C64.1621 107.488 67.3104 108.078 68.3421 108.078C71.2135 108.078 75.6263 108.078 78.4331 107.394C84.2924 105.965 87.7057 103.767 92.1048 100.55C96.0906 97.6352 98.2895 94.0485 100.726 89.6637C102.847 84.8097 105.392 78.6247 105.776 73.1756C106.497 62.9548 103.966 54.9615 97.6385 47.1699C95.2851 44.2719 90.2434 39.7059 87.222 37.931C84.8165 36.518 83.3227 36.0513 80.7116 35.1936C77.387 34.1014 77.4565 34.3739 73.5503 33.8249C71.5143 33.5387 67.3655 33.2973 63.4593 33.6395L62.6328 33.9893L62.1572 34.8514Z"/>
<path d="M74.8639 12.5224C74.5158 13.3018 71.568 21.7613 71.1801 21.7613L70.9578 21.7613C70.7922 21.7613 66.8103 13.3238 66.4622 12.5444C66.1141 11.765 65.8112 10.7716 65.8112 10.1491C65.8112 9.52671 65.6101 6.32675 65.8112 5.94008C66.7787 4.08007 68.1563 3.39997 68.4153 3.30552C69.2405 3.00466 70.2175 3.00463 70.7922 3.00461C71.551 3.00459 71.8292 2.94141 72.9108 3.28355C73.9073 3.59879 74.5384 3.96794 75.5149 5.91811C75.6851 6.43582 75.5149 9.50474 75.5149 10.1272C75.5149 10.7496 75.212 11.7431 74.8639 12.5224Z"/>
<path d="M75.142 128.239C74.7939 127.459 71.8461 119 71.4582 119L71.2359 119C71.0703 119 67.0884 127.437 66.7403 128.217C66.3922 128.996 66.0893 129.99 66.0893 130.612C66.0893 131.235 65.8881 134.435 66.0893 134.821C67.0568 136.681 68.4344 137.361 68.6934 137.456C69.5186 137.757 70.4956 137.757 71.0703 137.757C71.829 137.757 72.1073 137.82 73.1889 137.478C74.1854 137.163 74.8165 136.793 75.793 134.843C75.9631 134.325 75.793 131.257 75.793 130.634C75.793 130.012 75.4901 129.018 75.142 128.239Z"/>
<path d="M12.937 66.312C13.7164 66.6601 22.1758 69.6078 22.1758 69.9957L22.1758 70.2181C22.1758 70.3836 13.7383 74.3655 12.959 74.7136C12.1796 75.0617 11.1861 75.3647 10.5637 75.3647C9.94126 75.3647 6.7413 75.5658 6.35463 75.3647C4.49462 74.3971 3.81452 73.0196 3.72007 72.7605C3.41921 71.9353 3.41918 70.9584 3.41916 70.3836C3.41914 69.6249 3.35596 69.3467 3.6981 68.2651C4.01334 67.2685 4.38249 66.6375 6.33266 65.6609C6.85037 65.4908 9.91929 65.6609 10.5417 65.6609C11.1642 65.6609 12.1576 65.9639 12.937 66.312Z"/>
<path d="M128.653 66.0339C127.874 66.382 119.415 69.3297 119.415 69.7176L119.415 69.94C119.415 70.1055 127.852 74.0875 128.631 74.4356C129.411 74.7836 130.404 75.0866 131.027 75.0866C131.649 75.0866 134.849 75.2877 135.236 75.0866C137.096 74.1191 137.776 72.7415 137.87 72.4825C138.171 71.6573 138.171 70.6803 138.171 70.1055C138.171 69.3468 138.234 69.0686 137.892 67.987C137.577 66.9904 137.208 66.3594 135.258 65.3829C134.74 65.2127 131.671 65.3829 131.049 65.3829C130.426 65.3829 129.433 65.6858 128.653 66.0339Z"/>
<path d="M23.2966 37.0939C23.7854 37.7937 29.5184 44.6774 29.3186 45.0098L29.204 45.2004C29.1188 45.3423 19.8356 44.4099 18.9883 44.3068C18.1409 44.2038 17.1334 43.9518 16.5998 43.6312C16.0663 43.3107 13.2198 41.835 12.992 41.4634C11.8959 39.6761 12.0225 38.145 12.0749 37.8743C12.242 37.0121 12.7452 36.1746 13.0412 35.6819C13.432 35.0316 13.5211 34.7605 14.3714 34.0097C15.1549 33.3178 15.7963 32.967 17.9709 33.1344C18.5023 33.2552 21.0453 34.9816 21.5788 35.3022C22.1123 35.6228 22.8078 36.3941 23.2966 37.0939Z"/>
<path d="M122.628 96.4539C121.781 96.3509 113.011 94.5206 112.812 94.8531L112.697 95.0437C112.612 95.1856 117.793 102.944 118.282 103.644C118.771 104.344 119.466 105.115 120 105.436C120.534 105.756 123.173 107.577 123.608 107.604C125.701 107.732 126.993 106.902 127.207 106.728C127.89 106.176 128.393 105.339 128.689 104.846C129.08 104.196 129.278 103.99 129.542 102.886C129.785 101.87 129.793 101.139 128.624 99.2973C128.268 98.8849 125.55 97.4501 125.017 97.1295C124.483 96.8089 123.476 96.5569 122.628 96.4539Z"/>
<path d="M118.294 37.0939C117.805 37.7937 112.072 44.6774 112.272 45.0098L112.387 45.2004C112.472 45.3423 121.755 44.4099 122.602 44.3068C123.45 44.2038 124.457 43.9518 124.991 43.6312C125.524 43.3107 128.371 41.835 128.599 41.4634C129.695 39.6761 129.568 38.145 129.516 37.8743C129.349 37.0121 128.846 36.1746 128.549 35.6819C128.159 35.0316 128.07 34.7605 127.219 34.0097C126.436 33.3178 125.794 32.967 123.62 33.1344C123.088 33.2552 120.545 34.9816 120.012 35.3022C119.478 35.6228 118.783 36.3941 118.294 37.0939Z"/>
<path d="M18.9625 96.4539C19.8099 96.3509 28.5793 94.5206 28.779 94.8531L28.8935 95.0437C28.9788 95.1856 23.7973 102.944 23.3085 103.644C22.8198 104.344 22.1242 105.115 21.5907 105.436C21.0572 105.756 18.4179 107.577 17.9828 107.604C15.8902 107.732 14.5977 106.902 14.3834 106.728C13.7005 106.176 13.1973 105.339 12.9012 104.846C12.5104 104.196 12.313 103.99 12.0492 102.886C11.8061 101.87 11.7975 101.139 12.9662 99.2973C13.3223 98.8849 16.0406 97.4501 16.5741 97.1295C17.1076 96.8089 18.1152 96.5569 18.9625 96.4539Z"/>
<path d="M37.5087 117.879C38.2085 117.39 45.0921 111.658 45.4246 111.857L45.6152 111.972C45.7571 112.057 44.8247 121.34 44.7216 122.188C44.6186 123.035 44.3666 124.043 44.046 124.576C43.7254 125.11 42.2497 127.956 41.8782 128.184C40.0909 129.28 38.5598 129.153 38.2891 129.101C37.4268 128.934 36.5894 128.431 36.0967 128.135C35.4463 127.744 35.1753 127.655 34.4244 126.804C33.7326 126.021 33.3818 125.38 33.5491 123.205C33.67 122.674 35.3964 120.131 35.717 119.597C36.0376 119.064 36.8089 118.368 37.5087 117.879Z"/>
<path d="M96.8687 18.5477C96.7656 19.3951 94.9354 28.1645 95.2679 28.3642L95.4585 28.4787C95.6004 28.564 103.359 23.3825 104.059 22.8937C104.759 22.405 105.53 21.7094 105.851 21.1759C106.171 20.6424 107.992 18.0031 108.019 17.568C108.147 15.4754 107.317 14.1829 107.143 13.9686C106.591 13.2857 105.753 12.7825 105.261 12.4864C104.61 12.0956 104.404 11.8982 103.301 11.6344C102.285 11.3913 101.554 11.3827 99.7121 12.5514C99.2996 12.9076 97.8649 15.6258 97.5443 16.1593C97.2237 16.6928 96.9717 17.7004 96.8687 18.5477Z"/>
<path d="M104.082 117.879C103.382 117.39 96.4987 111.658 96.1662 111.857L95.9756 111.972C95.8337 112.057 96.7662 121.34 96.8692 122.188C96.9722 123.035 97.2242 124.043 97.5448 124.576C97.8654 125.11 99.3411 127.956 99.7126 128.184C101.5 129.28 103.031 129.153 103.302 129.101C104.164 128.934 105.001 128.431 105.494 128.135C106.144 127.744 106.416 127.655 107.166 126.804C107.858 126.021 108.209 125.38 108.042 123.205C107.921 122.674 106.194 120.131 105.874 119.597C105.553 119.064 104.782 118.368 104.082 117.879Z"/>
<path d="M44.7221 18.5477C44.8252 19.3951 46.6554 28.1645 46.3229 28.3642L46.1323 28.4787C45.9904 28.564 38.2316 23.3825 37.5318 22.8937C36.832 22.405 36.0607 21.7094 35.7401 21.1759C35.4196 20.6424 33.599 18.0031 33.5723 17.568C33.4437 15.4754 34.2742 14.1829 34.4476 13.9686C35 13.2857 35.8374 12.7825 36.33 12.4864C36.9804 12.0956 37.1863 11.8982 38.2896 11.6344C39.3062 11.3913 40.0372 11.3827 41.8787 12.5514C42.2912 12.9076 43.726 15.6258 44.0465 16.1593C44.3671 16.6928 44.6191 17.7004 44.7221 18.5477Z"/>
</mask>
<path d="M62.1572 34.8514C59.2276 35.8779 56.0143 37.0111 53.6794 38.6176C50.9212 40.5154 48.4855 42.0372 45.8814 44.4324C42.1612 47.8542 38.069 53.6713 36.1159 59.4884C35.2866 64.4281 34.736 68.5296 34.8138 73.5177C34.8545 76.1231 35.5802 79.8269 36.4414 82.0722C37.3027 84.3176 38.6277 87.2233 39.55 89.4392C41.0933 93.1474 44.6668 97.4211 47.509 99.8656C51.0897 102.945 52.7173 103.972 57.6 105.683L57.6074 105.685C58.4593 105.984 62.2529 107.313 63.1338 107.394C64.1621 107.488 67.3104 108.078 68.3421 108.078C71.2135 108.078 75.6263 108.078 78.4331 107.394C84.2924 105.965 87.7057 103.767 92.1048 100.55C96.0906 97.6352 98.2895 94.0485 100.726 89.6637C102.847 84.8097 105.392 78.6247 105.776 73.1756C106.497 62.9548 103.966 54.9615 97.6385 47.1699C95.2851 44.2719 90.2434 39.7059 87.222 37.931C84.8165 36.518 83.3227 36.0513 80.7116 35.1936C77.387 34.1014 77.4565 34.3739 73.5503 33.8249C71.5143 33.5387 67.3655 33.2973 63.4593 33.6395L62.6328 33.9893L62.1572 34.8514Z" fill="#EACF79"/>
<path d="M74.8639 12.5224C74.5158 13.3018 71.568 21.7613 71.1801 21.7613L70.9578 21.7613C70.7922 21.7613 66.8103 13.3238 66.4622 12.5444C66.1141 11.765 65.8112 10.7716 65.8112 10.1491C65.8112 9.52671 65.6101 6.32675 65.8112 5.94008C66.7787 4.08007 68.1563 3.39997 68.4153 3.30552C69.2405 3.00466 70.2175 3.00463 70.7922 3.00461C71.551 3.00459 71.8292 2.94141 72.9108 3.28355C73.9073 3.59879 74.5384 3.96794 75.5149 5.91811C75.6851 6.43582 75.5149 9.50474 75.5149 10.1272C75.5149 10.7496 75.212 11.7431 74.8639 12.5224Z" fill="#EACF79"/>
<path d="M75.142 128.239C74.7939 127.459 71.8461 119 71.4582 119L71.2359 119C71.0703 119 67.0884 127.437 66.7403 128.217C66.3922 128.996 66.0893 129.99 66.0893 130.612C66.0893 131.235 65.8881 134.435 66.0893 134.821C67.0568 136.681 68.4344 137.361 68.6934 137.456C69.5186 137.757 70.4956 137.757 71.0703 137.757C71.829 137.757 72.1073 137.82 73.1889 137.478C74.1854 137.163 74.8165 136.793 75.793 134.843C75.9631 134.325 75.793 131.257 75.793 130.634C75.793 130.012 75.4901 129.018 75.142 128.239Z" fill="#EACF79"/>
<path d="M12.937 66.312C13.7164 66.6601 22.1758 69.6078 22.1758 69.9957L22.1758 70.2181C22.1758 70.3836 13.7383 74.3655 12.959 74.7136C12.1796 75.0617 11.1861 75.3647 10.5637 75.3647C9.94126 75.3647 6.7413 75.5658 6.35463 75.3647C4.49462 74.3971 3.81452 73.0196 3.72007 72.7605C3.41921 71.9353 3.41918 70.9584 3.41916 70.3836C3.41914 69.6249 3.35596 69.3467 3.6981 68.2651C4.01334 67.2685 4.38249 66.6375 6.33266 65.6609C6.85037 65.4908 9.91929 65.6609 10.5417 65.6609C11.1642 65.6609 12.1576 65.9639 12.937 66.312Z" fill="#EACF79"/>
<path d="M128.653 66.0339C127.874 66.382 119.415 69.3297 119.415 69.7176L119.415 69.94C119.415 70.1055 127.852 74.0875 128.631 74.4356C129.411 74.7836 130.404 75.0866 131.027 75.0866C131.649 75.0866 134.849 75.2877 135.236 75.0866C137.096 74.1191 137.776 72.7415 137.87 72.4825C138.171 71.6573 138.171 70.6803 138.171 70.1055C138.171 69.3468 138.234 69.0686 137.892 67.987C137.577 66.9904 137.208 66.3594 135.258 65.3829C134.74 65.2127 131.671 65.3829 131.049 65.3829C130.426 65.3829 129.433 65.6858 128.653 66.0339Z" fill="#EACF79"/>
<path d="M23.2966 37.0939C23.7854 37.7937 29.5184 44.6774 29.3186 45.0098L29.204 45.2004C29.1188 45.3423 19.8356 44.4099 18.9883 44.3068C18.1409 44.2038 17.1334 43.9518 16.5998 43.6312C16.0663 43.3107 13.2198 41.835 12.992 41.4634C11.8959 39.6761 12.0225 38.145 12.0749 37.8743C12.242 37.0121 12.7452 36.1746 13.0412 35.6819C13.432 35.0316 13.5211 34.7605 14.3714 34.0097C15.1549 33.3178 15.7963 32.967 17.9709 33.1344C18.5023 33.2552 21.0453 34.9816 21.5788 35.3022C22.1123 35.6228 22.8078 36.3941 23.2966 37.0939Z" fill="#EACF79"/>
<path d="M122.628 96.4539C121.781 96.3509 113.011 94.5206 112.812 94.8531L112.697 95.0437C112.612 95.1856 117.793 102.944 118.282 103.644C118.771 104.344 119.466 105.115 120 105.436C120.534 105.756 123.173 107.577 123.608 107.604C125.701 107.732 126.993 106.902 127.207 106.728C127.89 106.176 128.393 105.339 128.689 104.846C129.08 104.196 129.278 103.99 129.542 102.886C129.785 101.87 129.793 101.139 128.624 99.2973C128.268 98.8849 125.55 97.4501 125.017 97.1295C124.483 96.8089 123.476 96.5569 122.628 96.4539Z" fill="#EACF79"/>
<path d="M118.294 37.0939C117.805 37.7937 112.072 44.6774 112.272 45.0098L112.387 45.2004C112.472 45.3423 121.755 44.4099 122.602 44.3068C123.45 44.2038 124.457 43.9518 124.991 43.6312C125.524 43.3107 128.371 41.835 128.599 41.4634C129.695 39.6761 129.568 38.145 129.516 37.8743C129.349 37.0121 128.846 36.1746 128.549 35.6819C128.159 35.0316 128.07 34.7605 127.219 34.0097C126.436 33.3178 125.794 32.967 123.62 33.1344C123.088 33.2552 120.545 34.9816 120.012 35.3022C119.478 35.6228 118.783 36.3941 118.294 37.0939Z" fill="#EACF79"/>
<path d="M18.9625 96.4539C19.8099 96.3509 28.5793 94.5206 28.779 94.8531L28.8935 95.0437C28.9788 95.1856 23.7973 102.944 23.3085 103.644C22.8198 104.344 22.1242 105.115 21.5907 105.436C21.0572 105.756 18.4179 107.577 17.9828 107.604C15.8902 107.732 14.5977 106.902 14.3834 106.728C13.7005 106.176 13.1973 105.339 12.9012 104.846C12.5104 104.196 12.313 103.99 12.0492 102.886C11.8061 101.87 11.7975 101.139 12.9662 99.2973C13.3223 98.8849 16.0406 97.4501 16.5741 97.1295C17.1076 96.8089 18.1152 96.5569 18.9625 96.4539Z" fill="#EACF79"/>
<path d="M37.5087 117.879C38.2085 117.39 45.0921 111.658 45.4246 111.857L45.6152 111.972C45.7571 112.057 44.8247 121.34 44.7216 122.188C44.6186 123.035 44.3666 124.043 44.046 124.576C43.7254 125.11 42.2497 127.956 41.8782 128.184C40.0909 129.28 38.5598 129.153 38.2891 129.101C37.4268 128.934 36.5894 128.431 36.0967 128.135C35.4463 127.744 35.1753 127.655 34.4244 126.804C33.7326 126.021 33.3818 125.38 33.5491 123.205C33.67 122.674 35.3964 120.131 35.717 119.597C36.0376 119.064 36.8089 118.368 37.5087 117.879Z" fill="#EACF79"/>
<path d="M96.8687 18.5477C96.7656 19.3951 94.9354 28.1645 95.2679 28.3642L95.4585 28.4787C95.6004 28.564 103.359 23.3825 104.059 22.8937C104.759 22.405 105.53 21.7094 105.851 21.1759C106.171 20.6424 107.992 18.0031 108.019 17.568C108.147 15.4754 107.317 14.1829 107.143 13.9686C106.591 13.2857 105.753 12.7825 105.261 12.4864C104.61 12.0956 104.404 11.8982 103.301 11.6344C102.285 11.3913 101.554 11.3827 99.7121 12.5514C99.2996 12.9076 97.8649 15.6258 97.5443 16.1593C97.2237 16.6928 96.9717 17.7004 96.8687 18.5477Z" fill="#EACF79"/>
<path d="M104.082 117.879C103.382 117.39 96.4987 111.658 96.1662 111.857L95.9756 111.972C95.8337 112.057 96.7662 121.34 96.8692 122.188C96.9722 123.035 97.2242 124.043 97.5448 124.576C97.8654 125.11 99.3411 127.956 99.7126 128.184C101.5 129.28 103.031 129.153 103.302 129.101C104.164 128.934 105.001 128.431 105.494 128.135C106.144 127.744 106.416 127.655 107.166 126.804C107.858 126.021 108.209 125.38 108.042 123.205C107.921 122.674 106.194 120.131 105.874 119.597C105.553 119.064 104.782 118.368 104.082 117.879Z" fill="#EACF79"/>
<path d="M44.7221 18.5477C44.8252 19.3951 46.6554 28.1645 46.3229 28.3642L46.1323 28.4787C45.9904 28.564 38.2316 23.3825 37.5318 22.8937C36.832 22.405 36.0607 21.7094 35.7401 21.1759C35.4196 20.6424 33.599 18.0031 33.5723 17.568C33.4437 15.4754 34.2742 14.1829 34.4476 13.9686C35 13.2857 35.8374 12.7825 36.33 12.4864C36.9804 12.0956 37.1863 11.8982 38.2896 11.6344C39.3062 11.3913 40.0372 11.3827 41.8787 12.5514C42.2912 12.9076 43.726 15.6258 44.0465 16.1593C44.3671 16.6928 44.6191 17.7004 44.7221 18.5477Z" fill="#EACF79"/>
<path d="M62.1572 34.8514C59.2276 35.8779 56.0143 37.0111 53.6794 38.6176C50.9212 40.5154 48.4855 42.0372 45.8814 44.4324C42.1612 47.8542 38.069 53.6713 36.1159 59.4884C35.2866 64.4281 34.736 68.5296 34.8138 73.5177C34.8545 76.1231 35.5802 79.8269 36.4414 82.0722C37.3027 84.3176 38.6277 87.2233 39.55 89.4392C41.0933 93.1474 44.6668 97.4211 47.509 99.8656C51.0897 102.945 52.7173 103.972 57.6 105.683L57.6074 105.685C58.4593 105.984 62.2529 107.313 63.1338 107.394C64.1621 107.488 67.3104 108.078 68.3421 108.078C71.2135 108.078 75.6263 108.078 78.4331 107.394C84.2924 105.965 87.7057 103.767 92.1048 100.55C96.0906 97.6352 98.2895 94.0485 100.726 89.6637C102.847 84.8097 105.392 78.6247 105.776 73.1756C106.497 62.9548 103.966 54.9615 97.6385 47.1699C95.2851 44.2719 90.2434 39.7059 87.222 37.931C84.8165 36.518 83.3227 36.0513 80.7116 35.1936C77.387 34.1014 77.4565 34.3739 73.5503 33.8249C71.5143 33.5387 67.3655 33.2973 63.4593 33.6395L62.6328 33.9893L62.1572 34.8514Z" stroke="black" stroke-width="6" stroke-linecap="round" mask="url(#path-1-outside-1_322_405)"/>
<path d="M74.8639 12.5224C74.5158 13.3018 71.568 21.7613 71.1801 21.7613L70.9578 21.7613C70.7922 21.7613 66.8103 13.3238 66.4622 12.5444C66.1141 11.765 65.8112 10.7716 65.8112 10.1491C65.8112 9.52671 65.6101 6.32675 65.8112 5.94008C66.7787 4.08007 68.1563 3.39997 68.4153 3.30552C69.2405 3.00466 70.2175 3.00463 70.7922 3.00461C71.551 3.00459 71.8292 2.94141 72.9108 3.28355C73.9073 3.59879 74.5384 3.96794 75.5149 5.91811C75.6851 6.43582 75.5149 9.50474 75.5149 10.1272C75.5149 10.7496 75.212 11.7431 74.8639 12.5224Z" stroke="black" stroke-width="6" stroke-linecap="round" mask="url(#path-1-outside-1_322_405)"/>
<path d="M75.142 128.239C74.7939 127.459 71.8461 119 71.4582 119L71.2359 119C71.0703 119 67.0884 127.437 66.7403 128.217C66.3922 128.996 66.0893 129.99 66.0893 130.612C66.0893 131.235 65.8881 134.435 66.0893 134.821C67.0568 136.681 68.4344 137.361 68.6934 137.456C69.5186 137.757 70.4956 137.757 71.0703 137.757C71.829 137.757 72.1073 137.82 73.1889 137.478C74.1854 137.163 74.8165 136.793 75.793 134.843C75.9631 134.325 75.793 131.257 75.793 130.634C75.793 130.012 75.4901 129.018 75.142 128.239Z" stroke="black" stroke-width="6" stroke-linecap="round" mask="url(#path-1-outside-1_322_405)"/>
<path d="M12.937 66.312C13.7164 66.6601 22.1758 69.6078 22.1758 69.9957L22.1758 70.2181C22.1758 70.3836 13.7383 74.3655 12.959 74.7136C12.1796 75.0617 11.1861 75.3647 10.5637 75.3647C9.94126 75.3647 6.7413 75.5658 6.35463 75.3647C4.49462 74.3971 3.81452 73.0196 3.72007 72.7605C3.41921 71.9353 3.41918 70.9584 3.41916 70.3836C3.41914 69.6249 3.35596 69.3467 3.6981 68.2651C4.01334 67.2685 4.38249 66.6375 6.33266 65.6609C6.85037 65.4908 9.91929 65.6609 10.5417 65.6609C11.1642 65.6609 12.1576 65.9639 12.937 66.312Z" stroke="black" stroke-width="6" stroke-linecap="round" mask="url(#path-1-outside-1_322_405)"/>
<path d="M128.653 66.0339C127.874 66.382 119.415 69.3297 119.415 69.7176L119.415 69.94C119.415 70.1055 127.852 74.0875 128.631 74.4356C129.411 74.7836 130.404 75.0866 131.027 75.0866C131.649 75.0866 134.849 75.2877 135.236 75.0866C137.096 74.1191 137.776 72.7415 137.87 72.4825C138.171 71.6573 138.171 70.6803 138.171 70.1055C138.171 69.3468 138.234 69.0686 137.892 67.987C137.577 66.9904 137.208 66.3594 135.258 65.3829C134.74 65.2127 131.671 65.3829 131.049 65.3829C130.426 65.3829 129.433 65.6858 128.653 66.0339Z" stroke="black" stroke-width="6" stroke-linecap="round" mask="url(#path-1-outside-1_322_405)"/>
<path d="M23.2966 37.0939C23.7854 37.7937 29.5184 44.6774 29.3186 45.0098L29.204 45.2004C29.1188 45.3423 19.8356 44.4099 18.9883 44.3068C18.1409 44.2038 17.1334 43.9518 16.5998 43.6312C16.0663 43.3107 13.2198 41.835 12.992 41.4634C11.8959 39.6761 12.0225 38.145 12.0749 37.8743C12.242 37.0121 12.7452 36.1746 13.0412 35.6819C13.432 35.0316 13.5211 34.7605 14.3714 34.0097C15.1549 33.3178 15.7963 32.967 17.9709 33.1344C18.5023 33.2552 21.0453 34.9816 21.5788 35.3022C22.1123 35.6228 22.8078 36.3941 23.2966 37.0939Z" stroke="black" stroke-width="6" stroke-linecap="round" mask="url(#path-1-outside-1_322_405)"/>
<path d="M122.628 96.4539C121.781 96.3509 113.011 94.5206 112.812 94.8531L112.697 95.0437C112.612 95.1856 117.793 102.944 118.282 103.644C118.771 104.344 119.466 105.115 120 105.436C120.534 105.756 123.173 107.577 123.608 107.604C125.701 107.732 126.993 106.902 127.207 106.728C127.89 106.176 128.393 105.339 128.689 104.846C129.08 104.196 129.278 103.99 129.542 102.886C129.785 101.87 129.793 101.139 128.624 99.2973C128.268 98.8849 125.55 97.4501 125.017 97.1295C124.483 96.8089 123.476 96.5569 122.628 96.4539Z" stroke="black" stroke-width="6" stroke-linecap="round" mask="url(#path-1-outside-1_322_405)"/>
<path d="M118.294 37.0939C117.805 37.7937 112.072 44.6774 112.272 45.0098L112.387 45.2004C112.472 45.3423 121.755 44.4099 122.602 44.3068C123.45 44.2038 124.457 43.9518 124.991 43.6312C125.524 43.3107 128.371 41.835 128.599 41.4634C129.695 39.6761 129.568 38.145 129.516 37.8743C129.349 37.0121 128.846 36.1746 128.549 35.6819C128.159 35.0316 128.07 34.7605 127.219 34.0097C126.436 33.3178 125.794 32.967 123.62 33.1344C123.088 33.2552 120.545 34.9816 120.012 35.3022C119.478 35.6228 118.783 36.3941 118.294 37.0939Z" stroke="black" stroke-width="6" stroke-linecap="round" mask="url(#path-1-outside-1_322_405)"/>
<path d="M18.9625 96.4539C19.8099 96.3509 28.5793 94.5206 28.779 94.8531L28.8935 95.0437C28.9788 95.1856 23.7973 102.944 23.3085 103.644C22.8198 104.344 22.1242 105.115 21.5907 105.436C21.0572 105.756 18.4179 107.577 17.9828 107.604C15.8902 107.732 14.5977 106.902 14.3834 106.728C13.7005 106.176 13.1973 105.339 12.9012 104.846C12.5104 104.196 12.313 103.99 12.0492 102.886C11.8061 101.87 11.7975 101.139 12.9662 99.2973C13.3223 98.8849 16.0406 97.4501 16.5741 97.1295C17.1076 96.8089 18.1152 96.5569 18.9625 96.4539Z" stroke="black" stroke-width="6" stroke-linecap="round" mask="url(#path-1-outside-1_322_405)"/>
<path d="M37.5087 117.879C38.2085 117.39 45.0921 111.658 45.4246 111.857L45.6152 111.972C45.7571 112.057 44.8247 121.34 44.7216 122.188C44.6186 123.035 44.3666 124.043 44.046 124.576C43.7254 125.11 42.2497 127.956 41.8782 128.184C40.0909 129.28 38.5598 129.153 38.2891 129.101C37.4268 128.934 36.5894 128.431 36.0967 128.135C35.4463 127.744 35.1753 127.655 34.4244 126.804C33.7326 126.021 33.3818 125.38 33.5491 123.205C33.67 122.674 35.3964 120.131 35.717 119.597C36.0376 119.064 36.8089 118.368 37.5087 117.879Z" stroke="black" stroke-width="6" stroke-linecap="round" mask="url(#path-1-outside-1_322_405)"/>
<path d="M96.8687 18.5477C96.7656 19.3951 94.9354 28.1645 95.2679 28.3642L95.4585 28.4787C95.6004 28.564 103.359 23.3825 104.059 22.8937C104.759 22.405 105.53 21.7094 105.851 21.1759C106.171 20.6424 107.992 18.0031 108.019 17.568C108.147 15.4754 107.317 14.1829 107.143 13.9686C106.591 13.2857 105.753 12.7825 105.261 12.4864C104.61 12.0956 104.404 11.8982 103.301 11.6344C102.285 11.3913 101.554 11.3827 99.7121 12.5514C99.2996 12.9076 97.8649 15.6258 97.5443 16.1593C97.2237 16.6928 96.9717 17.7004 96.8687 18.5477Z" stroke="black" stroke-width="6" stroke-linecap="round" mask="url(#path-1-outside-1_322_405)"/>
<path d="M104.082 117.879C103.382 117.39 96.4987 111.658 96.1662 111.857L95.9756 111.972C95.8337 112.057 96.7662 121.34 96.8692 122.188C96.9722 123.035 97.2242 124.043 97.5448 124.576C97.8654 125.11 99.3411 127.956 99.7126 128.184C101.5 129.28 103.031 129.153 103.302 129.101C104.164 128.934 105.001 128.431 105.494 128.135C106.144 127.744 106.416 127.655 107.166 126.804C107.858 126.021 108.209 125.38 108.042 123.205C107.921 122.674 106.194 120.131 105.874 119.597C105.553 119.064 104.782 118.368 104.082 117.879Z" stroke="black" stroke-width="6" stroke-linecap="round" mask="url(#path-1-outside-1_322_405)"/>
<path d="M44.7221 18.5477C44.8252 19.3951 46.6554 28.1645 46.3229 28.3642L46.1323 28.4787C45.9904 28.564 38.2316 23.3825 37.5318 22.8937C36.832 22.405 36.0607 21.7094 35.7401 21.1759C35.4196 20.6424 33.599 18.0031 33.5723 17.568C33.4437 15.4754 34.2742 14.1829 34.4476 13.9686C35 13.2857 35.8374 12.7825 36.33 12.4864C36.9804 12.0956 37.1863 11.8982 38.2896 11.6344C39.3062 11.3913 40.0372 11.3827 41.8787 12.5514C42.2912 12.9076 43.726 15.6258 44.0465 16.1593C44.3671 16.6928 44.6191 17.7004 44.7221 18.5477Z" stroke="black" stroke-width="6" stroke-linecap="round" mask="url(#path-1-outside-1_322_405)"/>
</svg>
