<svg width="125" height="128" viewBox="0 0 125 128" fill="none" xmlns="http://www.w3.org/2000/svg">
<path d="M64.9717 1.5L65.0391 1.50586L71.6504 2.10547L71.6494 2.10645C71.6785 2.10893 71.7109 2.11113 71.7451 2.11621C71.7865 2.12232 72.1164 2.16277 72.4385 2.4082C72.6364 2.55909 72.8935 2.83688 72.9922 3.2666C73.0901 3.69333 72.9816 4.05074 72.876 4.26562C72.7017 4.61999 72.4347 4.80223 72.4014 4.82617C72.2591 4.9283 72.1261 4.98363 72.1064 4.99219C72.0582 5.01325 72.0147 5.02933 71.9854 5.04004C71.8773 5.07949 71.736 5.12256 71.6016 5.16211C71.3131 5.24698 70.8832 5.36599 70.3662 5.50586C69.3305 5.78607 67.8771 6.17007 66.3789 6.57129C64.8727 6.97466 63.3098 7.39825 62.0264 7.76562C61.0216 8.05323 60.2671 8.28446 59.835 8.43555L59.5127 8.55957C53.4622 11.3007 48.7289 14.7095 45.9707 17.0547L45.4453 17.5088C40.1968 22.1334 34.4196 28.3011 31.4707 40.4648C29.4315 50.4428 29.8755 57.8712 30.8828 62.9854C31.8981 68.1397 33.4469 70.8759 33.8535 71.957H33.8525C35.6069 76.6197 37.2425 79.4321 39.6172 82.3135L40.0635 82.8467C42.3784 85.5619 45.8486 88.9906 48.4229 91.0898L48.8916 91.4658C51.1259 93.2332 54.0069 95.1426 56.5322 96.2861L57.0674 96.5195L57.1367 96.5479L57.2031 96.584C58.0449 97.0389 59.8414 97.8764 61.665 98.6748C63.4922 99.4748 65.2044 100.172 65.9297 100.396C66.3334 100.494 66.8309 100.654 67.3184 100.818C67.8835 101.009 68.4682 101.214 69.0938 101.419C70.3978 101.845 71.4939 102.134 72.1162 102.134H86.54C86.9417 102.134 87.8642 101.987 89.2441 101.657C90.572 101.34 92.1942 100.886 93.918 100.346C97.38 99.2616 101.158 97.8616 103.728 96.5811L104.026 96.4277C105.509 95.6441 106.871 94.592 108.263 93.4121C109.702 92.1923 111.253 90.7616 112.857 89.5625L113.197 89.3008C114.866 87.9775 116.102 86.414 117.797 84.1621L118.106 83.7393C118.815 82.7467 119.417 81.7282 119.867 80.9307C119.995 80.704 120.109 80.4966 120.211 80.3125C120.31 80.132 120.403 79.9644 120.479 79.8311C120.543 79.717 120.632 79.5603 120.719 79.4375C120.743 79.4026 120.785 79.3444 120.841 79.2812C120.87 79.2485 121.015 79.0799 121.254 78.9463C121.377 78.8775 121.657 78.7414 122.041 78.7539C122.502 78.769 122.901 78.9901 123.16 79.3086C123.375 79.5722 123.443 79.8379 123.468 79.958C123.496 80.095 123.5 80.2087 123.5 80.2725V80.5332L123.412 80.7783L120.407 89.1641L120.376 89.25L120.336 89.3311C119.831 90.3373 118.506 92.5766 117.901 93.582L114.896 98.9727L114.827 99.0967L114.736 99.2051L108.727 106.393L108.643 106.493L108.543 106.577L100.729 113.166L100.637 113.245L100.532 113.308L88.5127 120.495L88.3271 120.606L88.1182 120.66L71.8906 124.854L71.7578 124.888L71.6221 124.897L63.208 125.496L63.0801 125.505L62.9521 125.492L50.9316 124.295L50.7412 124.275L50.5615 124.209L34.334 118.219L34.1699 118.158L34.0234 118.062L25.0078 112.071L24.9121 112.007L24.8262 111.93L17.6143 105.34L17.5186 105.252L17.4385 105.149L11.4287 97.3623L11.3564 97.2686L11.3008 97.166L7.69434 90.5762L7.65625 90.5078L7.62598 90.4346L4.62109 83.2471L4.58398 83.1572L4.55859 83.0645L2.75488 76.4756L2.73535 76.4014L2.72266 76.3262L2.12109 72.7324L2.11133 72.6719L2.10645 72.6104L1.50488 65.4219L1.5 65.3594V56.1631L1.5293 56.0166L2.73145 50.0264L2.74609 49.9521L2.76855 49.8789L5.17285 42.0918L5.20996 41.9736L5.26562 41.8623L6.45312 39.4932L10.0527 31.7207L10.1094 31.5996L10.1865 31.4893L14.3936 25.499L14.4434 25.4277L14.502 25.3633L19.3096 19.9717L19.3682 19.9062L19.4346 19.8477L24.8438 15.0557L24.9219 14.9863L25.0078 14.9287L32.2207 10.1367L32.2979 10.085L32.3818 10.0439L37.1895 7.64746L37.2197 7.63281L37.251 7.61816L42.6602 5.22266L42.7266 5.19336L42.7949 5.1709L48.2041 3.37305L48.2773 3.34961L48.3525 3.33301L53.7617 2.13477L53.8408 2.11719L53.9209 2.1084L59.3301 1.50879L59.4121 1.5H64.9717Z" fill="#E1E1E1" stroke="#374356" stroke-width="3" stroke-linecap="round"/>
</svg>
