<svg width="126" height="127" viewBox="0 0 126 127" fill="none" xmlns="http://www.w3.org/2000/svg">
<path d="M65.9722 1.5L66.0396 1.50586L72.6509 2.10547L72.6499 2.10645C72.6788 2.10892 72.7107 2.11117 72.7446 2.11621C72.7846 2.12215 73.1151 2.16224 73.438 2.4082C73.6359 2.55906 73.893 2.83678 73.9917 3.2666C74.0897 3.69338 73.9812 4.05073 73.8755 4.26562C73.7012 4.61986 73.4342 4.80224 73.4009 4.82617C73.2596 4.92757 73.1277 4.98315 73.1069 4.99219C73.0589 5.01316 73.0152 5.02932 72.9858 5.04004C72.8777 5.07951 72.7356 5.12254 72.6011 5.16211C72.3125 5.24699 71.8827 5.366 71.3657 5.50586C70.3299 5.78609 68.8767 6.17006 67.3784 6.57129C65.8723 6.97463 64.3102 7.39827 63.0269 7.76562C62.0216 8.05337 61.2666 8.28445 60.8345 8.43555L60.5132 8.55957C54.4628 11.3006 49.7295 14.7094 46.9712 17.0547L46.4458 17.5088C43.9242 19.7306 40.9088 23.7955 38.2476 28.2402C35.5935 32.673 33.4001 37.3007 32.4468 40.5596C30.5304 47.1104 30.1523 60.5296 34.8364 71.9141L35.1743 72.7256C36.8532 76.7093 38.4082 79.6338 40.6167 82.3135L41.064 82.8467C43.3788 85.5617 46.8482 88.9907 49.4224 91.0898L49.8911 91.4658C52.1253 93.2331 55.0064 95.1425 57.5317 96.2861L58.0669 96.5195L58.1372 96.5479L58.2026 96.584L58.5728 96.7734C59.5699 97.2662 61.4612 98.0905 63.2603 98.8545C64.2696 99.2831 65.2234 99.682 65.9253 99.9736C66.276 100.119 66.5635 100.239 66.7632 100.321C66.863 100.362 66.9418 100.394 66.9946 100.416C67.0208 100.427 67.0408 100.435 67.0542 100.44C67.0609 100.443 67.0665 100.446 67.0698 100.447C67.071 100.448 67.072 100.448 67.0728 100.448L67.0737 100.449H67.0747L67.2554 100.523L67.3677 100.608C67.3833 100.617 67.4129 100.634 67.4585 100.657C67.5895 100.724 67.8484 100.841 68.2847 100.993C69.1605 101.298 70.7238 101.729 73.354 102.152C78.5238 102.984 82.8305 102.509 87.4194 102.139C91.6919 101.794 99.4695 99.2016 104.728 96.5811L105.034 96.4219C106.597 95.5767 108.66 94.0034 110.444 92.5283C111.376 91.7572 112.202 91.0392 112.794 90.5137C113.09 90.2514 113.326 90.0372 113.489 89.8896C113.57 89.8159 113.633 89.7581 113.674 89.7197L113.733 89.666L113.734 89.665C113.739 89.6604 113.745 89.6549 113.751 89.6484C113.776 89.6248 113.812 89.5892 113.86 89.543C113.955 89.4506 114.093 89.3148 114.265 89.1445C114.609 88.8035 115.086 88.3239 115.619 87.7715C116.696 86.6536 117.953 85.2832 118.796 84.1621C119.639 83.042 120.353 81.8421 120.867 80.9307C120.995 80.7039 121.11 80.4967 121.211 80.3125C121.311 80.1321 121.403 79.9643 121.478 79.8311C121.543 79.7169 121.633 79.5604 121.719 79.4375C121.744 79.4026 121.786 79.3445 121.841 79.2812C121.87 79.2484 122.015 79.0799 122.253 78.9463C122.376 78.8774 122.658 78.7413 123.042 78.7539C123.502 78.7691 123.901 78.9903 124.16 79.3086C124.374 79.5722 124.443 79.838 124.468 79.958C124.497 80.095 124.5 80.2087 124.5 80.2725V80.5205L124.42 80.7549L124.419 80.7568C124.419 80.7577 124.419 80.7592 124.418 80.7607C124.417 80.7643 124.415 80.7695 124.413 80.7764C124.408 80.7906 124.4 80.8124 124.391 80.8398C124.372 80.8948 124.345 80.9756 124.31 81.0781C124.24 81.2837 124.139 81.5783 124.017 81.9346C123.772 82.6475 123.44 83.6087 123.093 84.6006C122.747 85.5913 122.384 86.6178 122.076 87.459C121.784 88.2548 121.503 88.9964 121.335 89.3311C120.823 90.3518 119.468 92.6416 118.876 93.625C118.61 94.068 118.266 94.8055 117.719 95.8691C117.272 96.7398 116.726 97.7464 116.089 98.7021L115.811 99.1084C114.854 100.462 114.014 101.315 113.119 102.345L112.732 102.799C111.781 103.936 111.13 104.833 110.126 105.957L109.672 106.454C107.204 109.099 105.442 110.556 102.804 112.424L101.616 113.254C100.438 114.068 98.8914 114.991 97.6636 115.699C97.0447 116.056 96.4969 116.364 96.104 116.582C95.9077 116.691 95.7496 116.778 95.6401 116.838C95.5978 116.861 95.5619 116.88 95.5347 116.895C95.5075 116.913 95.4711 116.938 95.4253 116.969C95.3206 117.038 95.1689 117.138 94.98 117.262C94.6021 117.509 94.0724 117.851 93.4644 118.231C92.4112 118.891 91.0876 119.688 89.9009 120.304L89.4019 120.556C86.2839 122.081 82.0718 123.158 78.729 123.852C77.0398 124.202 75.5379 124.461 74.4585 124.632C73.9185 124.717 73.483 124.782 73.1812 124.824C73.0302 124.846 72.9122 124.861 72.8315 124.872C72.7914 124.877 72.7601 124.882 72.7388 124.885C72.7283 124.886 72.7201 124.887 72.7144 124.888C72.7115 124.888 72.7092 124.888 72.7075 124.889H72.7046L72.689 124.891L72.5151 123.401L72.688 124.891H72.687C72.6863 124.891 72.6854 124.891 72.6841 124.892C72.6814 124.892 72.6773 124.892 72.6724 124.893C72.662 124.894 72.6462 124.896 72.6265 124.898C72.5869 124.903 72.529 124.909 72.4546 124.917C72.3055 124.934 72.0897 124.958 71.8208 124.986C71.283 125.043 70.5313 125.118 69.6753 125.193C68.1881 125.325 66.3506 125.459 64.7651 125.492L64.103 125.5C59.5908 125.505 56.8602 125.278 52.6421 124.445L51.7769 124.271C48.3255 123.557 44.1616 122.015 40.9165 120.682C39.2817 120.01 37.8569 119.382 36.8403 118.922C36.3318 118.692 35.924 118.504 35.6431 118.372C35.5027 118.306 35.3942 118.254 35.3198 118.219C35.2829 118.201 35.2544 118.188 35.2349 118.179C35.2253 118.174 35.2176 118.17 35.2124 118.168C35.2098 118.167 35.207 118.166 35.2056 118.165L35.2046 118.164H35.2036L35.145 118.136L35.0894 118.103L35.854 116.812L35.0884 118.103L35.0874 118.102C35.0866 118.101 35.085 118.1 35.0835 118.1C35.0805 118.098 35.0763 118.095 35.0708 118.092C35.0594 118.085 35.0428 118.075 35.021 118.062C34.9773 118.035 34.9129 117.998 34.8306 117.948C34.6657 117.849 34.4274 117.705 34.1313 117.524C33.5394 117.163 32.7149 116.655 31.7856 116.063C30.1699 115.035 28.2021 113.734 26.5815 112.516L25.9097 112C23.2492 109.904 21.6195 108.512 19.4771 106.268L18.5229 105.249C16.1958 102.722 14.8373 101.033 13.1157 98.4297L12.3521 97.2529C11.1339 95.3462 10.3894 94.0068 9.55029 92.3301L8.65869 90.5078C7.48979 88.0838 6.78254 86.5353 5.95068 84.2031L5.58447 83.1504C4.81914 80.8962 4.39393 79.458 3.93311 77.335L3.73193 76.3789C3.51252 75.3018 3.3872 74.5688 3.25439 73.668L3.11572 72.6914C2.81772 70.547 2.69503 69.089 2.59717 67.3018L2.50146 65.3662C2.34274 61.9386 2.07886 59.7767 2.51025 56.1357L2.62451 55.2539C2.90045 53.2972 3.24908 51.979 3.74561 49.9629L4.25732 47.8525C4.74075 45.8778 5.20463 44.2076 6.23877 41.917L6.42627 41.5146C6.62429 41.0991 6.84811 40.6558 7.03467 40.293C7.16072 40.0478 7.27324 39.8331 7.354 39.6797C7.38981 39.6117 7.41886 39.5552 7.44092 39.5137C7.45546 39.4768 7.47636 39.4278 7.50049 39.3672C7.55744 39.2242 7.64017 39.0178 7.74463 38.7617C7.9536 38.2495 8.24971 37.5359 8.6001 36.7305C9.29417 35.1351 10.2248 33.1197 11.1196 31.5928L11.4204 31.0947C12.1524 29.9093 13.0829 28.5923 13.8501 27.5449C14.2925 26.9409 14.6892 26.4157 14.9751 26.041C15.1181 25.8536 15.2337 25.7033 15.314 25.5996C15.3541 25.5478 15.3853 25.5071 15.4067 25.4795C15.4173 25.466 15.4255 25.4555 15.4312 25.4482C15.434 25.4446 15.4364 25.4414 15.438 25.4395C15.4387 25.4386 15.4395 25.438 15.4399 25.4375V25.4365H15.4409L15.4702 25.3984L15.5015 25.3633L20.3101 19.9717L20.3687 19.9062L20.4351 19.8477L25.8433 15.0557L25.9214 14.9863L26.0083 14.9287L33.2202 10.1367L33.2983 10.085L33.3813 10.0439L38.1899 7.64746L38.2202 7.63281L38.2515 7.61816L43.6606 5.22266L43.7261 5.19336L43.7944 5.1709L49.2036 3.37305L49.2769 3.34961L49.3521 3.33301L54.7612 2.13477L54.8403 2.11719L54.9204 2.1084L60.3296 1.50879L60.4126 1.5H65.9722Z" fill="#E1E1E1" stroke="#374356" stroke-width="3" stroke-linecap="round"/>
</svg>
