<svg width="1110" height="520" viewBox="0 0 1110 520" fill="none" xmlns="http://www.w3.org/2000/svg">
<path d="M17.6616 48.8047C18.7069 46.3983 22.1197 46.3983 23.1649 48.8047L26.5354 56.5645C26.9843 57.5981 27.9746 58.2929 29.0993 58.3634L37.6656 58.9004C40.428 59.0736 41.5023 62.5767 39.3118 64.2687L33.0901 69.0747C32.1293 69.8169 31.7105 71.065 32.0293 72.2365L34.0712 79.7406C34.7753 82.3281 31.9898 84.469 29.6705 83.1228L21.9193 78.6238C20.988 78.0833 19.8385 78.0833 18.9073 78.6238L11.1561 83.1229C8.83678 84.469 6.05125 82.3281 6.75535 79.7406L8.79726 72.2365C9.11604 71.065 8.69728 69.8169 7.73644 69.0747L1.51473 64.2687C-0.675755 62.5767 0.398501 59.0736 3.16097 58.9004L11.7272 58.3634C12.8519 58.2929 13.8422 57.5981 14.2912 56.5645L17.6616 48.8047Z" fill="#F8D566"/>
<path d="M991.682 433.805C992.727 431.398 996.14 431.398 997.185 433.805L997.23 433.909C997.66 434.898 998.608 435.563 999.684 435.63L1000.04 435.652C1002.56 435.81 1003.54 439.007 1001.54 440.55C1000.66 441.228 1000.28 442.376 1000.57 443.445C1001.23 445.868 998.636 447.909 996.464 446.648L995.94 446.344C995.008 445.803 993.859 445.803 992.928 446.344L992.403 446.648C990.232 447.909 987.633 445.868 988.293 443.445C988.583 442.376 988.204 441.228 987.327 440.55C985.329 439.007 986.309 435.81 988.829 435.652L989.183 435.63C990.26 435.563 991.207 434.898 991.637 433.909L991.682 433.805Z" fill="#F8D566"/>
<path d="M1093.63 208.805C1094.68 206.398 1098.09 206.398 1099.13 208.805L1100.69 212.378C1101.14 213.412 1102.13 214.107 1103.25 214.177L1106.95 214.409C1109.71 214.582 1110.79 218.085 1108.59 219.777L1106.12 221.691C1105.16 222.433 1104.74 223.681 1105.06 224.853L1105.91 227.982C1106.61 230.57 1103.83 232.71 1101.51 231.364L1097.89 229.264C1096.96 228.723 1095.81 228.723 1094.88 229.264L1091.26 231.364C1088.94 232.71 1086.15 230.57 1086.86 227.982L1087.71 224.853C1088.03 223.681 1087.61 222.433 1086.65 221.691L1084.17 219.777C1081.98 218.085 1083.05 214.582 1085.82 214.409L1089.51 214.177C1090.64 214.107 1091.63 213.412 1092.08 212.378L1093.63 208.805Z" fill="#F8D566"/>
<path d="M186.662 156.805C187.707 154.398 191.12 154.398 192.165 156.805L195.535 164.564C195.984 165.598 196.975 166.293 198.099 166.363L206.666 166.9C209.428 167.074 210.502 170.577 208.312 172.269L202.09 177.075C201.129 177.817 200.711 179.065 201.029 180.237L203.071 187.741C203.775 190.328 200.99 192.469 198.67 191.123L190.919 186.624C189.988 186.083 188.839 186.083 187.907 186.624L180.156 191.123C177.837 192.469 175.051 190.328 175.755 187.741L177.797 180.237C178.116 179.065 177.697 177.817 176.736 177.075L170.515 172.269C168.324 170.577 169.398 167.074 172.161 166.9L180.727 166.363C181.852 166.293 182.842 165.598 183.291 164.564L186.662 156.805Z" fill="#F8D566"/>
<path d="M79.6616 317.805C80.7069 315.398 84.1197 315.398 85.1649 317.805L88.5354 325.564C88.9843 326.598 89.9746 327.293 91.0993 327.363L99.6656 327.9C102.428 328.074 103.502 331.577 101.312 333.269L95.0901 338.075C94.1293 338.817 93.7105 340.065 94.0293 341.237L96.0712 348.741C96.7753 351.328 93.9897 353.469 91.6705 352.123L83.9193 347.624C82.988 347.083 81.8385 347.083 80.9073 347.624L73.1561 352.123C70.8368 353.469 68.0512 351.328 68.7553 348.741L70.7973 341.237C71.116 340.065 70.6973 338.817 69.7365 338.075L63.5147 333.269C61.3242 331.577 62.3985 328.074 65.161 327.9L73.7272 327.363C74.8519 327.293 75.8422 326.598 76.2912 325.564L79.6616 317.805Z" fill="#F8D566"/>
<path d="M562.913 8.96973C562.913 13.6641 559.108 17.4697 554.413 17.4697C549.719 17.4697 545.913 13.6641 545.913 8.96973C545.913 4.27531 549.719 0.469727 554.413 0.469727C559.108 0.469727 562.913 4.27531 562.913 8.96973Z" fill="#F8D566"/>
<path d="M700.913 497.97C700.913 502.664 697.108 506.47 692.413 506.47C687.719 506.47 683.913 502.664 683.913 497.97C683.913 493.275 687.719 489.47 692.413 489.47C697.108 489.47 700.913 493.275 700.913 497.97Z" fill="#F8D566"/>
<path d="M870.913 184.97C870.913 189.664 867.108 193.47 862.413 193.47C857.719 193.47 853.913 189.664 853.913 184.97C853.913 180.275 857.719 176.47 862.413 176.47C867.108 176.47 870.913 180.275 870.913 184.97Z" fill="#F8D566"/>
</svg>
