<svg width="1169" height="531" viewBox="0 0 1169 531" fill="none" xmlns="http://www.w3.org/2000/svg">
<path d="M528.661 495.805C529.707 493.398 533.12 493.398 534.165 495.805L537.535 503.565C537.984 504.598 538.974 505.293 540.099 505.363L548.665 505.9C551.428 506.074 552.502 509.577 550.312 511.269L544.09 516.075C543.129 516.817 542.71 518.065 543.029 519.237L545.071 526.741C545.775 529.328 542.99 531.469 540.67 530.123L532.919 525.624C531.988 525.083 530.838 525.083 529.907 525.624L522.156 530.123C519.837 531.469 517.051 529.328 517.755 526.741L519.797 519.237C520.116 518.065 519.697 516.817 518.736 516.075L512.515 511.269C510.324 509.577 511.398 506.074 514.161 505.9L522.727 505.363C523.852 505.293 524.842 504.598 525.291 503.565L528.661 495.805Z" fill="#F8D566"/>
<path d="M1137.63 322.805C1138.68 320.398 1142.09 320.398 1143.13 322.805L1144.69 326.378C1145.14 327.412 1146.13 328.107 1147.25 328.177L1150.95 328.409C1153.71 328.582 1154.79 332.085 1152.59 333.777L1150.12 335.691C1149.16 336.433 1148.74 337.681 1149.06 338.853L1149.91 341.982C1150.61 344.57 1147.83 346.711 1145.51 345.364L1141.89 343.264C1140.96 342.723 1139.81 342.723 1138.88 343.264L1135.26 345.364C1132.94 346.71 1130.15 344.57 1130.86 341.982L1131.71 338.853C1132.03 337.681 1131.61 336.433 1130.65 335.691L1128.17 333.777C1125.98 332.085 1127.05 328.582 1129.82 328.409L1133.51 328.177C1134.64 328.107 1135.63 327.412 1136.08 326.378L1137.63 322.805Z" fill="#F8D566"/>
<path d="M49.6309 429.805C50.6761 427.398 54.0889 427.398 55.1342 429.805L56.6863 433.378C57.1353 434.412 58.1256 435.107 59.2503 435.177L62.9483 435.409C65.7108 435.582 66.785 439.085 64.5945 440.777L62.1173 442.691C61.1564 443.433 60.7377 444.681 61.0565 445.853L61.9079 448.982C62.612 451.57 59.8265 453.711 57.5072 452.364L53.8885 450.264C52.9573 449.723 51.8078 449.723 50.8765 450.264L47.2578 452.364C44.9385 453.711 42.153 451.57 42.8571 448.982L43.7086 445.853C44.0274 444.681 43.6086 443.433 42.6478 442.691L40.1705 440.777C37.98 439.085 39.0543 435.582 41.8167 435.409L45.5148 435.177C46.6395 435.107 47.6298 434.412 48.0787 433.378L49.6309 429.805Z" fill="#F8D566"/>
<path d="M10.6309 191.805C11.6761 189.398 15.0889 189.398 16.1342 191.805L17.6863 195.378C18.1353 196.412 19.1256 197.107 20.2503 197.177L23.9483 197.409C26.7108 197.582 27.785 201.085 25.5945 202.777L23.1173 204.691C22.1564 205.433 21.7377 206.681 22.0565 207.853L22.9079 210.982C23.612 213.57 20.8265 215.711 18.5072 214.364L14.8885 212.264C13.9573 211.723 12.8078 211.723 11.8765 212.264L8.25782 214.364C5.93853 215.711 3.15298 213.57 3.85709 210.982L4.70857 207.853C5.02735 206.681 4.60859 205.433 3.64776 204.691L1.17049 202.777C-1.01999 201.085 0.0542586 197.582 2.81672 197.409L6.51477 197.177C7.63945 197.107 8.62977 196.412 9.07872 195.378L10.6309 191.805Z" fill="#F8D566"/>
<path d="M723.682 28.8048C724.727 26.3984 728.14 26.3984 729.185 28.8048L729.23 28.9086C729.66 29.8977 730.608 30.5627 731.684 30.6301L732.038 30.6523C734.558 30.8103 735.539 34.0066 733.54 35.5505C732.663 36.2277 732.284 37.3763 732.575 38.4452C733.234 40.8679 730.636 42.9088 728.464 41.6484L727.94 41.3439C727.008 40.8034 725.859 40.8034 724.928 41.3439L724.403 41.6484C722.231 42.9088 719.633 40.8679 720.292 38.4452C720.583 37.3763 720.204 36.2277 719.327 35.5505C717.329 34.0066 718.309 30.8103 720.829 30.6523L721.183 30.6301C722.259 30.5627 723.207 29.8977 723.637 28.9086L723.682 28.8048Z" fill="#F8D566"/>
<path d="M865.631 96.8048C866.676 94.3984 870.089 94.3984 871.134 96.8048L872.686 100.378C873.135 101.412 874.126 102.107 875.25 102.177L878.948 102.409C881.711 102.582 882.785 106.085 880.595 107.777L878.117 109.691C877.156 110.433 876.738 111.681 877.056 112.853L877.908 115.982C878.612 118.57 875.826 120.711 873.507 119.364L869.888 117.264C868.957 116.723 867.808 116.723 866.877 117.264L863.258 119.364C860.939 120.711 858.153 118.57 858.857 115.982L859.709 112.853C860.027 111.681 859.609 110.433 858.648 109.691L856.17 107.777C853.98 106.085 855.054 102.582 857.817 102.409L861.515 102.177C862.639 102.107 863.63 101.412 864.079 100.378L865.631 96.8048Z" fill="#F8D566"/>
<path d="M943.631 16.8048C944.676 14.3984 948.089 14.3984 949.134 16.8048L950.686 20.3783C951.135 21.4119 952.126 22.1067 953.25 22.1772L956.948 22.4091C959.711 22.5822 960.785 26.0853 958.595 27.7774L956.117 29.6909C955.156 30.4331 954.738 31.6813 955.056 32.8528L955.908 35.982C956.612 38.5696 953.826 40.7105 951.507 39.3643L947.888 37.2639C946.957 36.7234 945.808 36.7234 944.877 37.2639L941.258 39.3643C938.939 40.7105 936.153 38.5696 936.857 35.982L937.709 32.8528C938.027 31.6813 937.609 30.4331 936.648 29.6909L934.17 27.7774C931.98 26.0853 933.054 22.5822 935.817 22.4091L939.515 22.1772C940.639 22.1067 941.63 21.4119 942.079 20.3783L943.631 16.8048Z" fill="#F8D566"/>
<path d="M1145.66 481.805C1146.71 479.398 1150.12 479.398 1151.16 481.805L1154.54 489.565C1154.98 490.598 1155.97 491.293 1157.1 491.363L1165.67 491.9C1168.43 492.074 1169.5 495.577 1167.31 497.269L1161.09 502.075C1160.13 502.817 1159.71 504.065 1160.03 505.237L1162.07 512.741C1162.78 515.328 1159.99 517.469 1157.67 516.123L1149.92 511.624C1148.99 511.083 1147.84 511.083 1146.91 511.624L1139.16 516.123C1136.84 517.469 1134.05 515.328 1134.76 512.741L1136.8 505.237C1137.12 504.065 1136.7 502.817 1135.74 502.075L1129.51 497.269C1127.32 495.577 1128.4 492.074 1131.16 491.9L1139.73 491.363C1140.85 491.293 1141.84 490.598 1142.29 489.565L1145.66 481.805Z" fill="#F8D566"/>
<path d="M916.661 427.805C917.707 425.398 921.12 425.398 922.165 427.805L925.535 435.565C925.984 436.598 926.974 437.293 928.099 437.363L936.665 437.9C939.428 438.074 940.502 441.577 938.312 443.269L932.09 448.075C931.129 448.817 930.71 450.065 931.029 451.237L933.071 458.741C933.775 461.328 930.99 463.469 928.67 462.123L920.919 457.624C919.988 457.083 918.838 457.083 917.907 457.624L910.156 462.123C907.837 463.469 905.051 461.328 905.755 458.741L907.797 451.237C908.116 450.065 907.697 448.817 906.736 448.075L900.515 443.269C898.324 441.577 899.398 438.074 902.161 437.9L910.727 437.363C911.852 437.293 912.842 436.598 913.291 435.565L916.661 427.805Z" fill="#F8D566"/>
<path d="M253.913 358.97C253.913 363.664 250.108 367.47 245.413 367.47C240.719 367.47 236.913 363.664 236.913 358.97C236.913 354.275 240.719 350.47 245.413 350.47C250.108 350.47 253.913 354.275 253.913 358.97Z" fill="#F8D566"/>
</svg>
