<svg width="910" height="502" viewBox="0 0 910 502" fill="none" xmlns="http://www.w3.org/2000/svg">
<path d="M886.661 201.805C887.707 199.398 891.119 199.398 892.165 201.805L895.535 209.565C895.984 210.598 896.974 211.293 898.099 211.363L906.665 211.9C909.428 212.074 910.502 215.577 908.312 217.269L902.09 222.075C901.129 222.817 900.71 224.065 901.029 225.237L903.071 232.741C903.775 235.328 900.99 237.469 898.67 236.123L890.919 231.624C889.988 231.083 888.838 231.083 887.907 231.624L880.156 236.123C877.837 237.469 875.051 235.328 875.755 232.741L877.797 225.237C878.116 224.065 877.697 222.817 876.736 222.075L870.515 217.269C868.324 215.577 869.398 212.074 872.161 211.9L880.727 211.363C881.852 211.293 882.842 210.598 883.291 209.565L886.661 201.805Z" fill="#F8D566"/>
<path d="M227.631 409.805C228.676 407.398 232.089 407.398 233.134 409.805L234.686 413.378C235.135 414.412 236.126 415.107 237.25 415.177L240.948 415.409C243.711 415.582 244.785 419.085 242.594 420.777L240.117 422.691C239.156 423.433 238.738 424.681 239.056 425.853L239.908 428.982C240.612 431.57 237.826 433.711 235.507 432.364L231.888 430.264C230.957 429.723 229.808 429.723 228.876 430.264L225.258 432.364C222.938 433.711 220.153 431.57 220.857 428.982L221.709 425.853C222.027 424.681 221.609 423.433 220.648 422.691L218.17 420.777C215.98 419.085 217.054 415.582 219.817 415.409L223.515 415.177C224.639 415.107 225.63 414.412 226.079 413.378L227.631 409.805Z" fill="#F8D566"/>
<path d="M227.631 409.805C228.676 407.398 232.089 407.398 233.134 409.805L234.686 413.378C235.135 414.412 236.126 415.107 237.25 415.177L240.948 415.409C243.711 415.582 244.785 419.085 242.594 420.777L240.117 422.691C239.156 423.433 238.738 424.681 239.056 425.853L239.908 428.982C240.612 431.57 237.826 433.711 235.507 432.364L231.888 430.264C230.957 429.723 229.808 429.723 228.876 430.264L225.258 432.364C222.938 433.711 220.153 431.57 220.857 428.982L221.709 425.853C222.027 424.681 221.609 423.433 220.648 422.691L218.17 420.777C215.98 419.085 217.054 415.582 219.817 415.409L223.515 415.177C224.639 415.107 225.63 414.412 226.079 413.378L227.631 409.805Z" fill="#F8D566"/>
<path d="M376.631 23.8048C377.676 21.3984 381.089 21.3984 382.134 23.8048L383.686 27.3783C384.135 28.4119 385.125 29.1067 386.25 29.1772L389.948 29.4091C392.711 29.5822 393.785 33.0853 391.594 34.7774L389.117 36.6909C388.156 37.4331 387.738 38.6813 388.056 39.8528L388.908 42.982C389.612 45.5696 386.826 47.7105 384.507 46.3643L380.888 44.2639C379.957 43.7234 378.808 43.7234 377.876 44.2639L374.258 46.3643C371.938 47.7105 369.153 45.5696 369.857 42.982L370.709 39.8528C371.027 38.6813 370.609 37.4331 369.648 36.6909L367.17 34.7774C364.98 33.0853 366.054 29.5822 368.817 29.4091L372.515 29.1772C373.639 29.1067 374.63 28.4119 375.079 27.3783L376.631 23.8048Z" fill="#F8D566"/>
<path d="M155.913 44.9698C155.913 49.6642 152.107 53.4698 147.413 53.4698C142.719 53.4698 138.913 49.6642 138.913 44.9698C138.913 40.2754 142.719 36.4698 147.413 36.4698C152.107 36.4698 155.913 40.2754 155.913 44.9698Z" fill="#F8D566"/>
<path d="M17.9131 228.97C17.9131 233.664 14.1075 237.47 9.41309 237.47C4.71867 237.47 0.913086 233.664 0.913086 228.97C0.913086 224.275 4.71867 220.47 9.41309 220.47C14.1075 220.47 17.9131 224.275 17.9131 228.97Z" fill="#F8D566"/>
<path d="M17.9131 452.97C17.9131 457.664 14.1075 461.47 9.41309 461.47C4.71867 461.47 0.913086 457.664 0.913086 452.97C0.913086 448.275 4.71867 444.47 9.41309 444.47C14.1075 444.47 17.9131 448.275 17.9131 452.97Z" fill="#F8D566"/>
<path d="M862.913 357.97C862.913 362.664 859.108 366.47 854.413 366.47C849.719 366.47 845.913 362.664 845.913 357.97C845.913 353.275 849.719 349.47 854.413 349.47C859.108 349.47 862.913 353.275 862.913 357.97Z" fill="#F8D566"/>
</svg>
