<svg width="143" height="130" viewBox="0 0 143 130" fill="none" xmlns="http://www.w3.org/2000/svg">
<path d="M26.4951 3.65338L39.9951 6.15338L51.9951 8.65338L76.9951 8.65338L93.4951 3.65338L98.9951 3.65338L103.995 21.6534L105.995 66.6534L122.995 74.1534L102.495 127.153L45.4951 128.153L24.4951 109.153L15.4951 88.6534L12.9951 60.6534L18.4951 37.1534L26.4951 3.65338Z" fill="white"/>
<path d="M116.695 66.5864C116.901 96.1456 56.1538 71.0864 78.9691 126.491C54.7587 126.659 23.0682 90.6824 22.8622 61.1233C22.6562 31.5641 42.1156 7.46491 66.326 7.2962C90.5364 7.12749 116.489 37.0273 116.695 66.5864Z" fill="#DDBABB"/>
<path d="M139.372 89.3673C139.585 119.951 97.3338 128.402 89.1495 124.381C77.8145 107.128 84.9078 100.961 88.9474 95.326C100.104 87.0922 102.221 98.292 119.374 72.6848C134.146 71.0525 139.317 81.4849 139.372 89.3673Z" fill="#DDBABB"/>
<mask id="path-4-inside-1_185_789" fill="white">
<ellipse cx="3.05845" cy="3.05845" rx="3.05845" ry="3.05845" transform="matrix(-0.999976 0.00696849 0.00696849 0.999976 79.9224 43.9035)"/>
</mask>
<ellipse cx="3.05845" cy="3.05845" rx="3.05845" ry="3.05845" transform="matrix(-0.999976 0.00696849 0.00696849 0.999976 79.9224 43.9035)" fill="#8D5153"/>
<path d="M77.8268 46.9766C77.8232 46.4566 77.3987 46.038 76.8787 46.0417L76.9345 54.0415C73.0363 54.0686 69.8542 50.9306 69.827 47.0324L77.8268 46.9766ZM76.8787 46.0417C76.3587 46.0453 75.9401 46.4698 75.9438 46.9898L83.9436 46.934C83.9707 50.8322 80.8327 54.0143 76.9345 54.0415L76.8787 46.0417ZM75.9438 46.9898C75.9474 47.5097 76.3719 47.9283 76.8919 47.9247L76.8361 39.9249C80.7343 39.8977 83.9164 43.0358 83.9436 46.934L75.9438 46.9898ZM76.8919 47.9247C77.4118 47.9211 77.8304 47.4966 77.8268 46.9766L69.827 47.0324C69.7999 43.1342 72.9379 39.9521 76.8361 39.9249L76.8919 47.9247Z" fill="#8D5153" mask="url(#path-4-inside-1_185_789)"/>
<mask id="path-6-inside-2_185_789" fill="white">
<ellipse cx="3.05845" cy="3.05845" rx="3.05845" ry="3.05845" transform="matrix(-0.999976 0.00696849 0.00696849 0.999976 46.2803 44.138)"/>
</mask>
<ellipse cx="3.05845" cy="3.05845" rx="3.05845" ry="3.05845" transform="matrix(-0.999976 0.00696849 0.00696849 0.999976 46.2803 44.138)" fill="#8D5153"/>
<path d="M44.1847 47.2111C44.1811 46.6911 43.7566 46.2725 43.2366 46.2762L43.2924 54.276C39.3942 54.3031 36.2121 51.1651 36.1849 47.2669L44.1847 47.2111ZM43.2366 46.2762C42.7167 46.2798 42.2981 46.7043 42.3017 47.2243L50.3015 47.1685C50.3287 51.0667 47.1906 54.2488 43.2924 54.276L43.2366 46.2762ZM42.3017 47.2243C42.3053 47.7442 42.7298 48.1628 43.2498 48.1592L43.194 40.1594C47.0922 40.1322 50.2743 43.2703 50.3015 47.1685L42.3017 47.2243ZM43.2498 48.1592C43.7698 48.1556 44.1884 47.7311 44.1847 47.2111L36.1849 47.2669C36.1578 43.3687 39.2958 40.1866 43.194 40.1594L43.2498 48.1592Z" fill="#8D5153" mask="url(#path-6-inside-2_185_789)"/>
<path d="M23.4525 60.0994L1.02444 60.2557M24.9284 52.4428L0.971155 52.6097M117.332 72.189C120.716 72.1655 122.429 72.1535 125.997 72.1287C129.565 72.1038 133.151 74.6276 135.724 78.1779C138.298 81.7283 139.335 84.2698 139.877 88.8538C140.419 93.4378 139.923 95.4803 139.923 95.4803C139.951 99.5581 137.934 102.631 135.41 106.217C132.886 109.802 129.849 112.882 125.287 116.482C120.724 120.082 114.119 123.187 105.981 125.792C102.85 126.795 92.6199 127.092 81.2177 127.079M117.332 72.189C117.367 77.2863 117.388 80.3447 117.424 85.442C117.459 90.5393 114.961 97.6933 113.952 99.2296C112.943 100.766 110.451 108.939 106.883 108.964C103.315 108.989 96.6884 109.035 96.6884 109.035M117.332 72.189C117.296 67.0918 115.714 59.4565 115.714 59.4565M115.714 59.4565L99.912 59.5666M115.714 59.4565L113.108 51.3186M113.108 51.3186C113.108 51.3186 110.72 45.1372 109.261 41.1503C107.668 36.7998 105.317 30.4771 105.313 29.9632C105.306 28.9437 103.167 14.6855 102.127 11.6342C101.086 8.58297 100.038 4.51224 97.4752 2.49108M113.108 51.3186L96.7968 51.4322M97.4752 2.49108C95.4327 1.99551 94.6381 2.31472 92.8876 2.52305C91.1371 2.73138 79.1534 6.69673 77.6313 7.72691C76.1092 8.7571 76.6225 9.2632 76.6225 9.2632M97.4752 2.49108C97.4752 2.49108 93.4933 16.2821 91.9676 16.8026C90.442 17.323 86.8526 14.2894 84.2951 13.0329C81.7375 11.7764 76.6225 9.2632 76.6225 9.2632M76.6225 9.2632L72.534 7.76248L66.4101 6.78565L59.2739 6.83538L47.5643 8.956M47.5643 8.956C47.5643 8.956 41.7321 6.27962 37.8511 4.94565C34.5151 3.79904 30.1874 2.45029 29.1679 2.45739C28.1484 2.4645 26.6264 3.49461 26.6264 3.49461M47.5643 8.956C47.5643 8.956 45.4148 10.2429 44.0104 11.0198C41.6734 12.3126 40.1842 12.7123 37.915 14.1208C35.378 15.6955 31.8302 18.751 31.8302 18.751C31.8302 18.751 31.3072 13.6672 30.2442 10.606C29.2221 7.66248 26.6264 3.49461 26.6264 3.49461M26.6264 3.49461C26.6264 3.49461 25.1078 5.03446 24.6088 6.5672C24.1097 8.09994 22.124 15.7601 22.124 15.7601L20.6837 28.514L18.698 36.1741L15.7178 47.4095L15.2294 50.4714L14.2383 54.5564L13.86 73.4199L13.9027 79.5367L15.4922 88.1914L19.6482 99.377L24.2926 107.501L28.9193 113.076L35.0822 119.66L38.6716 122.693M38.6716 122.693L40.215 124.721L41.7548 126.24C41.7548 126.24 49.2158 126.527 59.0902 126.765M38.6716 122.693L38.5615 106.892M59.0902 126.765L56.5263 124.608L55.4962 123.086L55.3826 106.774M59.0902 126.765C65.8726 126.929 73.7937 127.07 81.2177 127.079M81.2177 127.079C81.2177 127.079 76.2676 122.672 74.8375 118.873C74.191 117.155 74.0331 116.111 73.7861 114.292C73.4379 111.728 73.5374 110.246 73.7399 107.666C73.9295 105.252 74.0651 103.874 74.7168 101.542C75.2937 99.4771 75.6775 98.304 76.7202 96.4305C77.9599 94.203 78.9725 93.12 80.7625 91.3048C82.5525 89.4897 83.6404 88.4948 85.8314 87.1915C87.5164 86.1892 88.5144 85.6409 90.4047 85.1206C91.5722 84.7993 92.2487 84.598 93.4595 84.5896C94.6704 84.5811 96.5215 85.078 96.5215 85.078M81.2177 127.079L139.409 126.673M60.0501 45.0615C60.0572 46.081 60.5846 48.6261 60.5918 49.6456C60.5989 50.665 60.6024 51.1747 60.6024 51.1747M60.6024 51.1747C60.6024 51.1747 56.8618 53.5864 56.0326 53.7554C55.2034 53.9243 53.3606 54.0204 52.9742 53.7767C52.5878 53.533 52.557 53.1946 52.4574 52.7608C52.3683 52.3727 52.3666 52.1306 52.4503 51.7413M60.6024 51.1747C60.6024 51.1747 62.3901 52.5522 63.675 53.1923C64.6345 53.6704 65.1631 54.2905 66.2307 54.194C67.1174 54.1139 67.8951 53.9713 68.2626 53.1604C68.509 52.6164 68.5059 52.1717 68.2519 51.6312" stroke="#8D5153" stroke-width="4"/>
</svg>
