<svg width="123" height="63" viewBox="0 0 123 63" fill="none" xmlns="http://www.w3.org/2000/svg">
<path d="M19.9247 35.0171C20.1796 34.8503 20.7439 34.7102 21.6175 34.5968C22.4876 34.4637 23.1219 34.433 23.5204 34.5049L24.3007 34.611C24.9842 34.917 25.3654 35.063 25.4441 35.0491C26.3628 35.537 26.9715 36.2827 27.2703 37.286C27.4649 37.6985 27.5541 38.0889 27.5378 38.4574C27.5586 38.5755 27.5644 38.8385 27.5551 39.2464L27.3794 39.978L27.1135 40.5427C26.9988 40.5833 26.9316 40.6053 26.9119 40.6087C26.2039 40.8554 25.6461 40.9741 25.2383 40.9648C24.827 40.9358 24.4441 40.7799 24.0896 40.4971C24.0097 40.3894 23.961 40.2863 23.9437 40.1878C23.946 40.0858 23.9599 39.992 23.9854 39.9062L24.0498 39.4075C24.1947 38.7321 24.0812 38.2037 23.7094 37.8225C23.699 37.7634 23.5814 37.6725 23.3566 37.5496C23.1319 37.4268 22.9535 37.3364 22.8214 37.2784C22.709 37.217 22.5202 37.2402 22.2549 37.3479C21.8169 37.6282 21.519 38.3001 21.3613 39.3637C21.0577 39.9452 20.9 40.6635 20.8883 41.5185C20.9124 43.0374 20.9419 43.8954 20.9766 44.0923L21.0617 44.7475L21.1086 45.0134C21.0761 45.0597 21.2469 45.913 21.6209 47.5733C21.6579 47.6683 21.7216 47.7993 21.812 47.9661C21.9093 48.1723 22.0604 48.5112 22.2654 48.9828L22.7641 49.5651C22.873 49.6068 23.0323 49.7615 23.2419 50.0291C23.3404 50.0118 23.4314 50.0668 23.5148 50.1943C23.6769 50.3078 23.7499 50.3762 23.7337 50.3994C23.8357 50.4017 23.9938 50.4347 24.2081 50.4985C24.7885 50.6805 25.241 50.5398 25.5654 50.0764C25.679 49.9142 25.8134 49.6976 25.9687 49.4265C26.1402 49.1322 26.2631 48.9075 26.3372 48.7522C26.4276 48.5738 26.5788 48.3949 26.7909 48.2153C27.354 47.6083 27.9188 47.529 28.4853 47.9775C28.6116 48.1177 28.6892 48.5 28.718 49.1245C28.7631 49.7258 28.5968 50.3948 28.219 51.1316C28.2004 51.2568 28.1071 51.4763 27.9391 51.7902C27.7676 52.0845 27.5776 52.3312 27.369 52.5305C27.3539 52.6753 26.6228 52.9058 25.1757 53.2218C25.0969 53.2357 24.9359 53.2438 24.6926 53.2461C24.4864 53.3434 24.1857 53.3659 23.7906 53.3138C23.4153 53.2581 23.2079 53.2337 23.1685 53.2407L22.7688 53.2198C22.6112 53.2476 22.445 53.2261 22.27 53.1554C22.0951 53.0847 21.7997 52.9642 21.3838 52.7938C20.9841 52.6003 20.6719 52.4421 20.4471 52.3192C19.7729 51.9507 19.2539 51.4837 18.8902 50.9183C18.7871 50.7943 18.7049 50.6159 18.6435 50.383C18.5787 50.1304 18.5063 49.9503 18.4264 49.8425C18.241 49.7127 18.1171 49.4706 18.0546 49.116C18.0118 48.758 17.9157 48.3282 17.7663 47.8265C17.7246 47.5902 17.7101 47.4506 17.7229 47.4077C17.607 47.3266 17.5381 47.1661 17.5161 46.9263C17.4907 46.6667 17.4398 46.3203 17.3634 45.887C17.4016 45.7584 17.3605 45.4103 17.2401 44.8425C17.1359 44.2517 17.0775 43.805 17.0648 43.5026C16.9547 43.3393 16.8997 43.085 16.8998 42.7397L16.773 41.8482C16.7302 41.4902 16.7529 41.1003 16.841 40.6786C16.8294 40.4979 16.8324 40.2841 16.8498 40.0373C16.8637 39.7709 17.0312 39.2235 17.3522 38.3951C17.3244 38.2376 17.4374 38.0145 17.6912 37.7261C17.6773 37.6473 17.7353 37.5152 17.865 37.3299C17.9948 37.1445 18.1374 36.9163 18.2927 36.6452C18.5094 36.2618 18.7712 35.9617 19.0783 35.7451C19.3853 35.5285 19.6675 35.2859 19.9247 35.0171ZM30.2042 35.5502L30.1037 33.7706L29.9717 32.8495C29.9266 32.5935 29.9411 32.3878 30.0153 32.2326L30.2378 31.7669C30.6967 31.2595 30.9997 30.9624 31.1468 30.8755C31.294 30.7886 31.5222 30.7585 31.8315 30.7852C32.1571 30.7887 32.3546 30.8148 32.4241 30.8635L32.796 31.0721C32.9906 31.1393 33.1071 31.2813 33.1453 31.4979C33.2646 31.5987 33.3097 31.6821 33.2808 31.7482C33.1869 31.9069 33.1949 33.1037 33.3046 35.3386L33.7767 39.3983L33.7697 40.222C33.8148 40.4781 33.8507 40.6241 33.8774 40.66L33.9711 41.1918C34.0012 41.5926 34.0052 41.8458 33.9832 41.9512C34.0005 42.0497 34 42.1615 33.9814 42.2866C34.0277 42.3191 34.0752 42.4732 34.1238 42.7489C34.169 43.005 34.1672 43.1677 34.1186 43.2372C34.1347 43.5593 34.1689 43.8681 34.221 44.1635C34.2696 44.4393 34.3414 44.7313 34.4363 45.0394C34.5475 45.3245 34.6193 45.6164 34.6517 45.9154L34.9678 47.0172L35.046 47.4604C35.1479 47.8079 35.2179 48.0901 35.2561 48.3067L35.6748 49.817L35.9336 50.5938C36.0517 50.9182 36.0795 51.2484 36.0169 51.5844C35.974 51.9169 35.8511 52.1417 35.6484 52.2587C35.0829 52.6224 34.3837 52.573 33.5508 52.1106L33.3144 52.1523C33.1488 52.0191 33.0022 51.8215 32.8748 51.5597C32.7034 51.5087 32.6101 51.3829 32.5951 51.1825C32.5801 50.9821 32.5094 50.8117 32.3831 50.6715C32.2569 50.5313 32.1833 50.4021 32.1625 50.284C32.1173 50.0279 32.0577 49.8049 31.9836 49.6149L31.9715 49.3733C31.9019 49.3246 31.8568 49.2412 31.8359 49.123L31.6831 48.6017L31.6414 48.3653C31.6136 48.2077 31.5847 48.1011 31.5546 48.0455C31.5441 47.9864 31.5563 47.8828 31.5911 47.7345C31.5181 47.6661 31.4579 47.3822 31.4105 46.8829C31.2612 45.3454 31.1363 44.2911 31.0355 43.7199L30.9401 43.0057L30.789 42.1489C30.7253 41.6727 30.6292 41.0702 30.5008 40.3415C30.3919 39.6092 30.3619 39.2084 30.4105 39.1389L30.3341 38.8782C30.2508 38.4055 30.2068 37.7532 30.2023 36.9213C30.214 36.0663 30.2147 35.6093 30.2042 35.5502ZM37.4725 31.466C38.7921 31.2333 39.7647 31.336 40.3903 31.774C40.4493 32.1089 40.3427 32.8283 40.0702 33.9324C40.0505 34.2811 39.9694 34.5696 39.8268 34.7978L39.5105 35.2496C39.4224 35.3261 39.3291 35.373 39.2306 35.3903C38.5528 35.6926 37.977 35.652 37.5032 35.2684C37.4036 35.1642 37.2895 35.0929 37.1609 35.0546C37.052 35.0129 36.942 34.8495 36.8308 34.5645C36.6084 34.3397 36.485 34.1584 36.4607 34.0205C36.206 32.8063 36.5137 31.96 37.3839 31.4816L37.4725 31.466ZM38.4656 38.4801C38.6452 38.3469 39.1254 38.3638 39.9062 38.5307C39.9989 38.5956 40.131 38.6536 40.3024 38.7046L40.8429 39.0053C40.9356 39.0702 40.9975 39.1913 41.0288 39.3685L41.4872 41.9684C41.5567 42.3623 41.5995 42.7203 41.6157 43.0424L41.6469 43.2197C41.7302 44.0377 42.1007 45.8509 42.7584 48.6593C42.9147 49.2004 42.8457 49.5578 42.5514 49.7316C42.2166 49.7906 41.9913 49.7796 41.8754 49.6984C41.7897 49.6729 41.7173 49.6654 41.6582 49.6758L41.4514 49.7123L41.2845 49.8026C41.2254 49.8131 41.1102 49.7928 40.9387 49.7418C40.7638 49.6711 40.6381 49.5917 40.5616 49.5036C40.5049 49.4121 40.4157 49.3669 40.294 49.368C40.0635 49.3275 39.9192 49.2006 39.8613 48.9874C39.4918 48.5042 39.2885 48.2151 39.2515 48.1201C39.2341 48.0216 39.1855 47.9185 39.1055 47.8108L38.5046 45.2664C38.4525 44.971 38.4323 44.741 38.4439 44.5765L38.3188 43.8675C38.3003 43.6473 38.2506 43.2499 38.1695 42.6753C38.0851 42.0809 38.0312 41.603 38.0081 41.2415C37.8784 40.7364 37.798 40.3951 37.7667 40.2179C37.7354 40.0406 37.7227 39.9109 37.7285 39.8286C37.4737 39.6501 37.4314 39.353 37.6018 38.9371C37.8231 38.695 38.0519 38.5531 38.2883 38.5114L38.4656 38.4801ZM46.5931 36.1027C47.1655 35.4331 48.1857 35.172 49.6535 35.3193C50.0162 35.4179 50.3631 35.6004 50.6944 35.8669C50.8705 36.0593 51.0396 36.3848 51.2018 36.8436C51.3639 37.3025 51.4606 37.7931 51.4918 38.3157C51.5427 38.8347 51.4829 39.3022 51.3126 39.7181C51.1584 40.1108 50.8062 40.4166 50.2558 40.6355C49.8422 40.7084 49.5636 40.6256 49.42 40.3869C49.1767 40.0439 49.08 39.7259 49.1299 39.4328C49.116 39.0087 48.9701 38.5267 48.6921 37.9868C48.6458 37.9544 48.5438 37.952 48.3863 37.9798L48.1464 38.6923C48.1209 38.778 48.0576 39.3984 47.9567 40.5535C47.8719 41.6854 47.8458 42.4008 47.8782 42.6998C47.9071 42.979 47.9227 43.2402 47.925 43.4835C48.1646 44.8426 48.4315 45.7805 48.7257 46.2972C49.0165 46.7943 49.2707 47.0845 49.4885 47.168C49.558 47.2167 49.7307 47.2167 50.0064 47.1681C50.3019 47.116 50.6031 46.9816 50.9102 46.765C51.1674 46.4963 51.3928 46.162 51.5863 45.7624C51.5724 45.6836 51.719 45.5359 52.0261 45.3193L52.2207 45.0412C52.9356 44.834 53.3752 45.0814 53.5397 45.7835C53.6138 45.9735 53.5929 46.2006 53.477 46.4647C53.4202 46.7184 53.3738 46.8586 53.3379 46.8853C53.3518 46.964 53.1658 47.4639 52.7799 48.385C52.5829 48.4197 52.452 48.4834 52.3871 48.5761C52.0649 48.9375 51.631 49.1257 51.0853 49.1407C51.0228 49.1314 50.962 49.132 50.9029 49.1424C50.8438 49.1528 50.5298 49.1574 49.961 49.1562L49.5473 49.2291C49.0144 49.2012 48.6471 49.134 48.4456 49.0274C48.1988 49.0099 47.9005 48.9305 47.5506 48.7891L47.0641 48.4485C47.0015 48.4392 46.8578 48.3731 46.6331 48.2503C46.4246 48.1043 46.2937 47.9953 46.2404 47.9235C46.2033 47.8285 46.1101 47.7028 45.9606 47.5464C45.8274 47.3668 45.7469 47.1982 45.7191 47.0406L45.4672 46.4758C45.4256 46.2394 45.37 46.0969 45.3005 46.0482C45.2935 46.0088 45.2449 45.9057 45.1545 45.7389C45.1163 45.5222 45.0445 45.2303 44.9392 44.863C44.7724 44.2628 44.7539 43.87 44.8837 43.6847C44.9034 43.6812 44.8525 43.5074 44.7309 43.1633L44.5433 42.0997C44.4877 41.7846 44.5017 41.3455 44.5852 40.7824C44.5598 40.5229 44.6172 40.1574 44.7574 39.6859L44.8374 39.2758C44.8212 38.9537 44.9313 38.5992 45.1677 38.2122L45.5171 37.6023L45.7675 36.9489C45.9483 36.5921 46.2235 36.31 46.5931 36.1027ZM56.608 28.0005C57.1004 27.9137 57.4398 28.3413 57.6262 29.2832C57.9284 30.6515 58.124 32.0488 58.213 33.475C58.3217 34.8977 58.4536 36.3367 58.6086 37.7919L58.5841 39.3803L58.6293 39.4637C59.0835 39.1602 59.4948 38.6713 59.8633 37.9971L59.9172 37.9571C60.1443 37.6328 60.3738 37.3791 60.6055 37.1961C60.6403 37.0478 60.8431 36.7582 61.2139 36.3272C61.273 36.3168 61.3802 36.176 61.5354 35.905C61.963 35.5656 62.2208 35.3576 62.3089 35.2812C62.3935 35.185 62.4815 35.1086 62.5731 35.0518C62.6611 34.9754 62.8592 34.8897 63.1674 34.7947C63.1906 34.8109 63.2862 34.8347 63.4542 34.866C63.6222 34.8973 63.7409 34.9373 63.8104 34.986C64.2472 35.2745 64.2552 35.7808 63.8345 36.5048C63.3733 37.4594 62.8663 38.2698 62.3136 38.9359C61.7608 39.602 61.3506 40.0399 61.083 40.2495C61.2463 40.4847 61.4971 40.7553 61.8354 41.0612C62.1829 41.6498 62.4939 42.0316 62.7684 42.2066C63.2503 42.7512 63.8817 43.2796 64.6625 43.7918C64.7053 43.8045 64.7783 43.8729 64.8814 43.9969C65.0042 44.1174 65.2712 44.3648 65.6825 44.739C66.0126 44.8839 66.2072 45.1238 66.2663 45.4586C66.2709 45.5999 66.1585 45.7112 65.9291 45.7922C65.7229 45.8895 65.4767 45.9329 65.1905 45.9225C65.099 45.9792 64.8145 45.9786 64.3372 45.9206C64.2909 45.8882 64.1935 45.8545 64.0453 45.8198C63.9665 45.8337 63.795 45.7827 63.5309 45.6668C63.2354 45.7189 63.0414 45.7125 62.9487 45.6476C62.3625 45.5478 62.0421 45.4012 61.9877 45.2078C61.8232 45.1961 61.6529 45.0942 61.4768 44.9018C61.3645 44.8404 61.1733 44.6202 60.9034 44.2414C60.8212 44.2356 60.6839 44.1481 60.4916 43.9789C60.2958 43.79 60.1846 43.6776 60.158 43.6417C60.1476 43.5826 60.1174 43.527 60.0676 43.4748C60.0144 43.403 59.9495 43.3231 59.873 43.235C59.3379 42.6186 58.9776 42.2455 58.7922 42.1157L58.8582 42.8351L58.8477 43.2939C58.9346 43.4411 58.9589 43.579 58.9206 43.7076C58.9229 43.9509 58.9362 44.1414 58.9605 44.2793L59.0611 45.541L59.1601 46.1024C59.2284 46.3746 59.2186 46.549 59.1305 46.6254C59.0864 46.8363 58.7916 46.9492 58.2459 46.9642L57.6185 46.8616L57.4204 46.7747C57.3022 46.7955 57.1441 46.7625 56.946 46.6755C56.8672 46.6894 56.6795 46.6616 56.383 46.592C56.1026 46.4993 55.9207 46.3892 55.8373 46.2618C55.5304 45.7879 55.4209 45.3401 55.509 44.9184C55.4152 44.7318 55.366 44.5679 55.3614 44.4265C55.3881 44.1172 55.3748 43.9266 55.3215 43.8548C55.2937 43.6972 55.2758 43.5379 55.2677 43.3769C55.2596 43.2158 55.2237 43.0698 55.16 42.9389C55.1647 42.735 55.1653 42.4506 55.1619 42.0856C55.1144 41.9315 55.0901 41.7936 55.0889 41.672C55.0878 41.5504 55.0803 41.4501 55.0664 41.3713C55.0977 41.2034 55.0925 41.0012 55.0508 40.7648C54.9883 40.4103 54.9658 40.1097 54.9832 39.8629C55.0319 39.4481 54.996 39.1295 54.8756 38.907L54.8151 36.1456C54.695 33.5064 54.6982 31.3937 54.8247 29.8076L54.651 29.1681C54.534 28.9653 54.6053 28.6786 54.8649 28.3079C55.1418 28.0357 55.3625 27.9053 55.5271 27.917C55.6673 27.7907 56.0276 27.8185 56.608 28.0005ZM73.6638 34.3452C73.6603 34.3255 73.6702 34.1511 73.6934 33.8221C73.5926 33.5962 73.5886 33.343 73.6813 33.0627C73.6258 32.7475 73.6246 32.4533 73.678 32.1798C73.8182 32.0536 73.8396 31.8873 73.7423 31.6811C73.7215 31.5629 73.7348 31.4082 73.7824 31.2171C73.8299 31.0259 73.8311 30.8023 73.7859 30.5463C73.8114 30.4605 73.8219 30.347 73.8173 30.2057C73.8289 30.0411 73.8486 29.865 73.8764 29.6774C73.9008 29.47 73.9165 29.2134 73.9235 28.9075L74.0035 28.4974C74.1101 28.2958 74.146 28.0965 74.1113 27.8996L74.2643 27.3852C74.233 27.2079 74.2933 26.9739 74.4451 26.6831C74.5911 26.4746 74.6781 26.2765 74.7059 26.0888C74.7523 25.776 74.9759 25.4319 75.3768 25.0566C75.429 25.0068 75.6532 24.8962 76.0494 24.7248C76.4619 24.5302 76.7093 24.4358 76.7915 24.4416C76.89 24.4242 77.0018 24.4248 77.1269 24.4434C77.2486 24.4423 77.3523 24.4544 77.438 24.4799C77.54 24.4823 77.6651 24.5008 77.8134 24.5356C77.9582 24.5507 78.0717 24.5611 78.154 24.5669L78.5259 24.7755C78.5293 24.7952 78.5427 24.8132 78.5658 24.8294C78.7975 24.9916 78.9568 25.319 79.0436 25.8114L79.1582 26.4613C79.1733 26.6618 79.2051 26.8999 79.2537 27.1756L79.3475 27.7074C79.3891 27.9437 79.4285 28.1094 79.4656 28.2044L79.5558 28.8892C79.6068 29.063 79.6433 29.2698 79.6652 29.5096C79.6838 29.7297 79.7086 29.9284 79.7399 30.1057C79.7874 30.2598 79.8273 30.4863 79.8597 30.7852C79.9026 30.798 79.9657 31.0407 80.049 31.5134C80.1289 31.9664 80.17 32.3146 80.1723 32.5579L80.3129 33.3556C80.3871 33.5456 80.4872 34.0559 80.6134 34.8866C80.6875 35.0767 80.7216 35.2128 80.7158 35.2951C80.9683 36.266 81.1066 36.8204 81.131 36.9582C81.175 37.0926 81.2288 37.2253 81.2925 37.3562C81.3528 37.4675 81.4136 37.6395 81.4749 37.8724C81.5328 38.0856 81.5884 38.2281 81.6417 38.2999C81.6915 38.3521 81.7622 38.3498 81.8537 38.293C81.9453 38.2363 82.0096 38.0828 82.0467 37.8325L82.1806 37.3824C82.1806 37.0372 82.2258 36.7753 82.3162 36.5969C82.3058 36.5378 82.3417 36.3386 82.4241 35.9991C82.4831 35.9887 82.5428 35.8665 82.6031 35.6325C82.6831 35.395 82.7352 35.1725 82.7596 34.9651C82.8558 34.7045 82.8952 34.5249 82.8779 34.4264C83.1503 32.9771 83.3231 32.114 83.3961 31.8371L83.4309 31.3436C83.5491 30.9775 83.6112 30.5807 83.617 30.1531C83.6877 29.9782 83.7318 29.7674 83.7492 29.5206C83.7828 29.2506 83.8141 29.0827 83.8431 29.0166C83.8188 28.8788 83.9 28.245 84.0867 27.1154C84.1388 27.0656 84.1707 26.9585 84.1823 26.794C84.1939 26.6294 84.2594 26.2523 84.3788 25.6626C84.3916 25.2745 84.4409 24.9206 84.5267 24.6008C84.7017 23.981 85.014 23.4487 85.4636 23.0039C85.4428 22.8857 85.5865 22.7791 85.8947 22.6842C86.2191 22.566 86.4427 22.5672 86.5655 22.6877C86.5886 22.704 86.6923 22.7161 86.8765 22.7243C87.0573 22.7127 87.2896 22.7632 87.5734 22.8756C87.8769 22.9845 88.0808 23.1618 88.1851 23.4074C88.1329 23.4573 88.1323 23.7417 88.1832 24.2607C88.2503 24.7566 88.2879 25.0851 88.296 25.2461L88.4992 26.3983L88.5999 27.1421L89.2042 30.5693C89.2053 30.6909 89.2424 30.9586 89.3153 31.3722L89.5393 32.6426L89.9127 34.5873C89.9752 34.9418 90.0319 35.206 90.0829 35.3798L90.3642 36.9752C90.4128 37.2509 90.4805 37.4624 90.5674 37.6095C90.5651 37.7115 90.656 38.1118 90.8401 38.8104C91.052 39.3214 91.1256 39.6232 91.0607 39.7159C91.0907 40.1167 90.991 40.5303 90.7616 40.9566C90.6805 41.0725 90.5333 41.1594 90.3201 41.2173C89.8347 41.3435 89.2224 41.096 88.4833 40.4749C88.115 40.1134 87.8624 39.833 87.7257 39.6337C87.6863 39.6407 87.5751 39.5283 87.3921 39.2965C87.3527 39.3035 87.2989 39.1708 87.2306 38.8985C87.2109 38.902 86.9567 38.0939 86.468 36.4741L86.369 35.9128C86.3401 35.6336 86.3314 35.4117 86.343 35.2472C86.3512 35.063 86.3176 34.815 86.2423 34.5034C86.2609 34.3782 86.2511 34.2073 86.2129 33.9907L86.1243 33.4884C86.1405 33.4653 86.1272 33.2747 86.0844 32.9167C86.0416 32.5587 85.9964 32.3026 85.949 32.1485C85.9212 31.991 85.8917 31.8235 85.8604 31.6463C85.8488 31.4655 85.8396 31.3555 85.8326 31.3161L85.7945 30.9268C85.7632 30.7495 85.6943 30.5891 85.5877 30.4454L85.4781 31.3786C85.5024 31.5165 85.4468 31.8918 85.3111 32.5047C85.1755 33.1176 85.1111 33.4437 85.1181 33.4831C85.0856 33.5294 85.0462 33.709 84.9998 34.0218C84.9731 34.3311 84.9163 34.7575 84.8293 35.3008C84.8606 35.4781 84.8125 35.7811 84.685 36.2097C84.7093 36.3476 84.6443 36.7855 84.4901 37.5235C84.3429 38.3009 84.2519 38.9363 84.217 39.4299C84.1984 39.9003 84.1028 40.3944 83.9301 40.9122C83.9254 41.1162 83.886 41.2957 83.8118 41.451C83.6809 41.8599 83.4063 42.0302 82.988 41.9618L82.5344 41.9808C82.4788 42.0109 82.3375 42.0156 82.1104 41.9947C82.078 42.041 81.9105 42.0705 81.6082 42.0832C80.8146 41.9592 80.3685 41.9058 80.27 41.9232C79.9943 41.9718 79.7099 41.7985 79.4168 41.4034C79.3427 41.2134 79.2553 41.0054 79.1545 40.7795C78.9124 40.2129 78.7335 39.7165 78.6177 39.2901C78.6501 39.2437 78.539 38.7861 78.2842 37.9171L77.9838 36.386C77.9143 36.3374 77.8882 36.1897 77.9056 35.9429C77.8848 35.8247 77.8703 35.6851 77.8623 35.5241C77.7881 35.334 77.7412 35.0681 77.7216 34.7264C77.6232 34.3985 77.5653 34.1853 77.5479 34.0868C77.5468 33.9652 77.5225 33.8273 77.475 33.6732C77.4437 33.4959 77.4131 33.2069 77.383 32.806C77.3563 32.7701 77.2892 32.6194 77.1815 32.3541C77.0934 32.0853 77.0193 31.8953 76.9591 31.7841C76.9626 31.8038 76.9226 31.9225 76.8391 32.1403C76.8171 32.2457 76.7568 32.6524 76.6582 33.3603C76.7277 33.7542 76.7479 33.9842 76.719 34.0502C76.7097 34.1128 76.701 34.2361 76.6928 34.4204L76.6753 35.7029C76.6926 35.8014 76.6642 36.1009 76.59 36.6013L76.4073 38.1567C76.427 38.1532 76.4386 38.1613 76.4421 38.181C76.4421 38.181 76.4536 38.3618 76.4767 38.7232C76.4443 38.7696 76.4118 39.1612 76.3793 39.898C76.3236 40.2734 76.3305 40.8307 76.3999 41.5698C76.4658 42.2893 76.4912 42.7215 76.4762 42.8663C76.4808 43.0076 76.5005 43.1768 76.5352 43.3738C76.6012 43.748 76.5612 44.0394 76.4151 44.2479C76.3259 44.5479 76.009 44.7663 75.4644 44.9029C74.7473 44.8669 74.3019 44.7017 74.1281 44.4074C74.0308 44.2012 73.9341 44.0558 73.8379 43.9712C73.6804 43.6537 73.5924 43.3849 73.5739 43.1648C73.4837 41.9622 73.478 41.3539 73.5568 41.34C73.5661 41.2775 73.5499 41.128 73.5082 40.8917C73.4178 40.7248 73.4306 40.5093 73.5465 40.2452C73.5025 40.1108 73.5124 39.9364 73.5761 39.7221C73.6549 39.7082 73.6231 39.4701 73.4806 39.0078C73.4633 38.9094 73.4859 38.6921 73.5485 38.3562C73.5346 38.2774 73.5271 38.1772 73.526 38.0555C73.541 37.9107 73.5445 37.7578 73.5364 37.5967C73.5064 37.1958 73.5186 36.9195 73.5731 36.7678C73.4422 36.4862 73.4741 35.8612 73.6689 34.8926L73.6638 34.3452ZM97.7732 28.7537C97.7165 28.6622 97.5717 28.6471 97.3388 28.7084C97.1256 28.7663 96.979 28.914 96.899 29.1515C96.3172 30.5742 96.1253 32.0195 96.3232 33.4874C97.0207 33.5269 97.5397 33.1307 97.8805 32.2989C98.1507 30.261 98.115 29.0793 97.7732 28.7537ZM97.5369 40.8891L97.2311 40.8821L96.7445 40.5414C96.6263 40.5622 96.529 40.5286 96.4526 40.4406C96.1908 40.2227 95.7065 39.7801 94.9999 39.1127L94.2702 37.5659C94.2147 37.2507 94.1069 36.9854 93.9471 36.7699C93.5939 35.9183 93.3871 35.4369 93.3269 35.3256C93.2632 35.1947 93.1694 34.8355 93.0455 34.2481C92.9413 33.6572 92.8945 33.2187 92.9049 32.9326C92.898 32.5479 93.0992 31.5579 93.5084 29.9626C93.6544 29.7541 93.721 29.4987 93.7083 29.1963L94.0612 28.4334C94.4042 27.8449 94.8011 27.3891 95.2518 27.0659C95.2449 27.0265 95.5624 26.869 96.2042 26.5933C96.3386 26.5493 96.6625 26.543 97.1757 26.5743C98.4061 26.6417 99.2055 26.8562 99.5739 27.2177L99.6885 27.3498C100.157 27.8156 100.517 28.5948 100.771 29.6873C100.799 30.1902 100.822 30.6125 100.842 30.9542C100.862 31.296 100.753 31.9448 100.515 32.9006C100.317 33.5042 100.109 33.9977 99.8926 34.3812C99.5149 34.7727 99.2472 34.9824 99.0896 35.0101C99.0178 35.0634 98.8539 35.1126 98.5978 35.1578L97.9183 35.2776C97.8557 35.2683 97.726 35.2811 97.529 35.3158C97.3321 35.3505 97.0378 35.3516 96.6462 35.3191C96.7226 35.7525 96.9502 36.3521 97.3289 37.1179C97.7239 37.8606 98.0158 38.3067 98.2046 38.4562C98.6738 38.6984 99.0352 38.8479 99.289 38.9047C99.5427 38.9615 99.8613 38.9256 100.245 38.7971C100.625 38.6488 100.886 38.4606 101.029 38.2324L101.63 37.1515C102.004 36.395 102.496 36.2474 103.106 36.7086C103.387 36.923 103.521 37.1634 103.507 37.4299C103.509 37.6732 103.397 38.1904 103.171 38.9817C102.959 39.5065 102.714 39.956 102.434 40.3302C101.879 40.753 101.543 40.9748 101.424 40.9956C101.251 41.0466 100.97 41.0657 100.582 41.0529C100.402 41.1861 100.065 41.2353 99.5719 41.2004C99.565 41.1611 99.5007 41.1419 99.379 41.1431C99.2805 41.1604 99.1375 41.1552 98.9498 41.1274L99.0036 41.0874C98.9643 41.0944 98.8461 41.1152 98.6491 41.1499L97.7437 40.8526L97.5369 40.8891Z" fill="black"/>
<path d="M79 14.3994C79.4065 12.367 86.0648 6.74789 87.5 5.46118C88.854 4.24729 94.631 2.23902 96.4106 2.09665C100.026 1.80739 103.5 2.09657 108 3.9431C109.5 4.55861 109.5 4.46118 111 5.46118C111.75 5.96118 112.5 6.46118 113.5 7.30405C114.5 8.14692 116.325 9.21552 115.622 9.91811M110.02 14.0259C112.194 14.0259 114.319 14.3498 116.452 14.3994C118.312 14.4426 118.698 14.7513 119.004 13.0716C119.351 11.1597 120.244 9.21373 120.456 7.30405C120.551 6.44593 120.85 4.46118 120.85 3.9431" stroke="black" stroke-width="3" stroke-linecap="round"/>
</svg>
