<svg width="128" height="69" viewBox="0 0 128 69" fill="none" xmlns="http://www.w3.org/2000/svg">
<path d="M8.59607 39.8044C9.64491 39.0353 11.1388 37.7566 12.2344 37.2587C12.334 37.2587 12.2344 35.964 12.334 34.8684C12.4281 33.8329 13.0215 32.0167 13.7752 31.1725C15.3385 29.4216 16.7687 27.6262 18.7355 26.2852C20.4936 25.0865 23.9292 23.0921 25.8787 24.0127C26.0779 24.1067 26.1775 22.3196 26.2771 21.5228C26.4501 20.1393 26.9277 17.8736 27.2731 17.4395C27.8538 16.3439 29.0126 14.8473 29.8625 13.7545C31.2568 11.9618 32.3524 10.6671 33.9459 9.37234C34.8588 8.28672 38.0876 6.32863 39.4235 5.68736C41.9134 4.49223 44.2219 3.42479 47.4907 3.09791C49.4825 2.89873 53.4581 3.02259 55.4582 3.2971C60.163 3.94286 63.8419 6.38119 67.4095 9.17316C69.7001 10.9658 71.194 12.7585 72.6879 14.9496C73.7835 16.5564 74.879 18.2362 75.1778 19.5309C75.8496 22.4422 75.1778 22.7179 76.1737 22.1204C77.7672 21.5228 80.1298 20.7513 81.8506 20.5269C84.1413 20.2281 83.6648 20.2281 86.0335 20.2281C88.4023 20.2281 90.3161 21.1789 92.1088 21.8216C95.1365 22.907 96.7276 24.3539 98.8544 26.288L98.9808 26.4029C100.375 28.1956 101.427 30.6313 102.168 32.1794C102.624 33.1323 103.255 34.7688 103.463 36.0635C103.861 38.5534 103.87 38.4232 105.654 37.7863L105.789 37.7378C108.168 36.8879 109.639 36.3623 112.227 36.3623C114.269 36.3623 116.609 36.9599 118.9 38.2546C120.393 39.099 123.461 42.7952 123.979 43.8319C124.853 45.5795 125.672 53.5921 124.377 56.1815C122.276 60.3834 121.489 61.958 117.007 63.9499C111.231 66.0414 94.7737 65.643 88.9945 65.643C84.2047 65.643 38.0256 65.9555 33.2487 65.9555C30.6605 65.6967 26.7818 65.984 24.1856 65.9555C21.5984 65.9271 20.2539 66.0686 17.6535 65.9555C13.321 65.7671 9.01442 63.9247 5.99434 60.7642C3.83196 58.5012 2.9358 54.2868 3.00356 51.3056C3.06779 48.4792 4.29426 45.321 5.84844 42.9897L5.88403 42.9363C6.73444 41.6606 7.3746 40.7002 8.59607 39.8044Z" fill="#CBDCEF" stroke="black" stroke-width="5" stroke-linecap="round"/>
</svg>
