<svg width="109" height="59" viewBox="0 0 109 59" fill="none" xmlns="http://www.w3.org/2000/svg">
<path d="M7.7078 33.9625C8.59016 33.3154 9.84695 32.2397 10.7686 31.8208C10.8524 31.8208 10.7686 30.7316 10.8524 29.8099C10.9316 28.9388 11.4308 27.4109 12.0649 26.7007C13.38 25.2277 14.5832 23.7173 16.2378 22.5891C17.7168 21.5807 20.6071 19.9028 22.2472 20.6773C22.4148 20.7565 22.4986 19.253 22.5823 18.5827C22.7278 17.4187 23.1296 15.5127 23.4202 15.1475C23.9087 14.2258 24.8836 12.9667 25.5986 12.0474C26.7716 10.5393 27.6933 9.45007 29.0338 8.36086C29.8018 7.44756 32.5181 5.80028 33.642 5.2608C35.7367 4.25537 37.6787 3.35736 40.4286 3.08237C42.1044 2.9148 45.4489 3.019 47.1315 3.24994C51.0895 3.7932 54.1845 5.84449 57.1857 8.19329C59.1128 9.70142 60.3696 11.2096 61.6264 13.0528C62.548 14.4046 63.4697 15.8178 63.721 16.907C64.2862 19.3562 63.721 19.5881 64.5589 19.0854C65.8994 18.5827 67.887 17.9337 69.3346 17.7448C71.2617 17.4935 70.8609 17.4935 72.8536 17.4935C74.8464 17.4935 76.4564 18.2934 77.9645 18.834C80.5117 19.7472 81.8502 20.9644 83.6395 22.5915L83.7457 22.6882C84.9187 24.1963 85.804 26.2454 86.4269 27.5477C86.8103 28.3494 87.3418 29.7261 87.5161 30.8154C87.8512 32.91 87.859 32.8005 89.3594 32.2646L89.4736 32.2238C91.4748 31.5088 92.7123 31.0667 94.8892 31.0667C96.6072 31.0667 98.5758 31.5694 100.503 32.6586C101.76 33.369 104.34 36.4785 104.776 37.3506C105.511 38.8209 106.2 45.5616 105.111 47.74C103.344 51.2749 102.681 52.5996 98.9109 54.2753C94.0513 56.0348 80.2064 55.6996 75.3446 55.6996C71.3151 55.6996 32.4659 55.9626 28.4473 55.9626C26.27 55.7448 23.0069 55.9866 20.8228 55.9626C18.6463 55.9386 17.5152 56.0577 15.3276 55.9626C11.6827 55.8041 8.05975 54.2541 5.51905 51.5953C3.6999 49.6915 2.94599 46.146 3.00299 43.638C3.05703 41.2603 4.08882 38.6034 5.39631 36.6422L5.42627 36.5972C6.14168 35.5239 6.68023 34.716 7.7078 33.9625Z" fill="#CBDCEF" stroke="black" stroke-width="5" stroke-linecap="round"/>
</svg>
