<svg width="132" height="130" viewBox="0 0 132 130" fill="none" xmlns="http://www.w3.org/2000/svg">
<path d="M87.1753 65.7509C87.1753 92.9504 68.945 115 46.4568 115C23.9685 115 2.17529 86.9808 2.17529 59.7813C2.17529 32.5818 29.0583 11.9999 51.5465 11.9999C74.0347 11.9999 87.1753 38.5514 87.1753 65.7509Z" fill="white"/>
<path d="M108.047 63.2274C108.22 88.0584 81.801 114.615 58.8203 114.775C32.724 114.957 11.4563 88.586 12.6085 63.8925C12.4355 39.0615 30.692 13.1807 58.1007 11.508C82.9707 11.3347 107.873 38.3965 108.047 63.2274Z" fill="#FFE5BC"/>
<path d="M108.047 63.2274C108.22 88.0584 81.801 114.615 58.8203 114.775C32.724 114.957 11.4563 88.586 12.6085 63.8925C12.4355 39.0615 30.692 13.1807 58.1007 11.508C82.9707 11.3347 107.873 38.3965 108.047 63.2274Z" fill="#FFE5BC"/>
<path d="M131.606 126.997C131.606 126.997 111.847 127.135 110.729 127.143C109.61 127.15 107.739 126.045 107.739 126.045C107.739 126.045 105.591 125.011 104.741 123.829C103.853 122.595 103.977 121.224 103.596 120.109C103.216 118.993 102.727 118.064 101.711 117.139C100.844 116.349 100.21 115.658 99.0913 115.666C97.9729 115.674 97.2736 115.679 96.1089 115.687C83.4426 115.775 63.6749 115.913 63.6749 115.913L57.71 115.954M57.71 115.954C57.71 115.954 54.0683 116.168 51.7451 115.996C49.9851 115.866 47.267 115.388 47.267 115.388M57.71 115.954L61.0604 115.229M107.315 65.2777C106.62 69.9416 105.534 77.2204 105.534 77.2204C105.534 77.2204 105.008 78.5875 104.671 79.4634M107.315 65.2777C107.697 61.8044 107.683 59.798 107.253 56.3304C107.007 54.3467 106.286 51.304 106.286 51.304M107.315 65.2777C106.15 65.2858 104.333 65.2985 104.333 65.2985L99.4862 65.3323L93.9048 66.8949L87.5851 69.5163L82.7568 72.1597L76.9525 77.4196M55.0705 58.1853L48.3366 54.8768L41.2351 52.3166L33.3953 50.8054M55.0705 58.1853L60.6885 61.8744L67.4356 67.0793M55.0705 58.1853L56.5483 56.2573L58.3994 54.3803L60.4394 52.8748M84.3779 90.7895L82.1047 85.5858L78.7079 79.6443L76.9525 77.4196M84.3779 90.7895L86.6563 96.7388L87.4331 101.207C87.4331 101.207 87.572 103.024 87.661 104.188M84.3779 90.7895L89.1854 85.1637L94.0085 81.7746L99.585 79.4988C99.585 79.4988 102.685 79.4772 104.671 79.4634M87.661 104.188C86.8921 104.958 86.4398 105.371 85.6028 106.067C82.0526 109.017 75.2029 111.685 75.2029 111.685M87.661 104.188C89.8733 102.425 91.0543 101.347 93.0122 99.3043C96.9012 95.2472 98.9737 92.7046 101.506 87.6876C103.057 84.6154 103.435 82.6751 104.671 79.4634M75.2029 111.685L73.7172 112.488C69.1924 114.747 61.0604 115.229 61.0604 115.229M75.2029 111.685C75.2029 111.685 75.0459 107.118 74.4057 104.281C73.7266 101.271 72.9808 99.669 71.7441 96.8427C70.3605 93.6807 69.3957 91.9831 67.5887 89.0424C65.2405 85.2211 63.8918 83.0308 60.8132 79.769C58.0492 76.8405 56.2594 75.3894 52.9376 73.1131C49.1226 70.4989 46.7613 69.2931 42.4601 67.5938C37.8284 65.7639 35.0712 64.9768 30.1341 64.3243C24.7936 63.6184 21.6788 63.6991 16.3404 64.4204C13.3976 64.818 11.7575 65.175 8.89465 65.9636C6.23141 66.6972 2.19974 68.2472 2.19974 68.2472M2.19974 68.2472C2.19974 68.2472 2.31808 70.9885 2.60372 72.7182C3.04688 75.4018 3.68061 76.8268 4.51451 79.4157C4.93798 80.7304 5.65631 82.7632 5.65631 82.7632M2.19974 68.2472L2.1322 58.5542C2.1322 58.5542 2.33566 55.1444 2.46603 52.9596M5.65631 82.7632C5.65631 82.7632 7.46835 87.2091 9.06091 89.8231C10.3642 91.9622 11.3552 92.9883 12.8253 95.0164M5.65631 82.7632C5.65631 82.7632 8.24192 80.8935 10.1118 80.1224C11.6464 79.4894 12.584 79.3339 14.2048 78.9754C16.2152 78.5306 17.3673 78.367 19.4189 78.1934C21.8852 77.9846 23.2848 78.0221 25.7566 78.1492C28.2455 78.2772 29.6606 78.338 32.0995 78.8507C34.8028 79.4189 36.313 79.8927 38.8256 81.0407C41.1421 82.0991 42.337 82.9219 44.441 84.357C46.9206 86.0482 48.3642 86.9936 50.4397 89.1619C51.7289 90.5088 52.3186 91.3857 53.4481 92.8692C54.8426 94.7007 55.7112 95.6844 56.8371 97.6922C57.6975 99.2267 58.0895 100.142 58.7297 101.78C59.7196 104.313 60.1657 105.799 60.6405 108.478C60.8454 109.633 61.0341 111.457 61.0341 111.457L61.0604 115.229M12.8253 95.0164C14.3953 97.194 15.3973 98.3467 17.3354 100.204C18.4526 101.275 20.336 102.793 20.336 102.793L24.8327 106.064L29.3271 109.015L32.6957 110.909C32.6957 110.909 37.7493 113.71 41.2962 114.578C43.582 115.137 47.267 115.388 47.267 115.388M12.8253 95.0164C14.5663 94.1306 15.4387 93.3907 17.2834 92.7484C18.4172 92.3535 19.0698 92.1347 20.2606 91.982C21.4159 91.8338 22.0784 91.9693 23.2431 91.9612C24.5534 91.9521 25.288 91.9469 26.5983 91.9378C28.6406 92.506 31.828 93.3926 31.828 93.3926L34.8208 94.8631L38.1917 97.0765L39.6907 98.1845L42.6939 101.146C42.6939 101.146 43.6376 102.717 44.2033 103.745C44.9878 105.172 46.0933 107.461 46.0933 107.461L46.8623 110.811L47.2559 113.79L47.267 115.388M2.46603 52.9596C5.22817 52.3579 9.53893 51.419 9.53893 51.419L16.6144 50.2512L27.053 50.1785L31.902 50.5175L33.3953 50.8054M2.46603 52.9596C3.60741 49.6029 4.15542 47.6883 5.38872 44.3643C6.20692 42.159 6.55737 40.8716 7.58658 38.7566C8.47162 36.9379 10.165 34.2648 10.165 34.2648C10.165 34.2648 12.724 30.716 14.5997 28.6415C15.8055 27.308 17.8322 25.3636 17.8322 25.3636M57.5314 10.074L54.7354 10.0935C54.7354 10.0935 49.4613 10.2361 46.166 10.8989C44.9197 11.1496 43.0024 11.6666 43.0024 11.6666M57.5314 10.074C57.5314 10.074 59.2368 10.0017 60.3274 10.0545C62.2402 10.1472 63.3092 10.3534 65.1791 10.7664C67.1128 11.1935 70.0359 12.2238 70.0359 12.2238L72.4657 13.1389L77.1422 15.4761L81.2591 17.738C81.2591 17.738 84.5632 19.3561 86.4991 20.684C88.5437 22.0865 89.7371 22.8891 91.3742 24.7511C91.6778 25.0964 92.1261 25.6572 92.1261 25.6572M57.5314 10.074L57.3606 12.3122L59.2532 16.4L62.2668 20.8529L66.1599 24.1812L70.8851 27.0772L75.3721 28.9637L77.9844 29.3183C77.9844 29.3183 81.4217 29.6349 83.5764 29.2793C85.5303 28.9568 86.6034 28.5596 88.4125 27.7543C89.9341 27.077 92.1261 25.6572 92.1261 25.6572M43.0024 11.6666L39.8388 12.4343C39.8388 12.4343 35.1216 13.6416 32.4008 15.0958C31.3526 15.6561 29.8021 16.6798 29.8021 16.6798M43.0024 11.6666L44.341 16.5039L46.2414 21.7102L49.2576 26.5359L52.6388 30.2406L56.3928 33.9426L59.3887 35.8427L65.3762 39.0459L69.4874 40.5086L72.4768 41.4853L78.8235 42.7341M29.8021 16.6798L24.9759 19.6215C22.3695 21.678 20.9082 22.831 18.3018 24.8875L17.8322 25.3636M29.8021 16.6798L30.9616 22.5623L33.9908 29.252C33.9908 29.252 36.0052 33.543 37.766 35.9934C38.9635 37.6599 41.1494 40.014 41.1494 40.014L46.0271 44.4539L52.0206 48.5321L56.5146 51.4108L60.4394 52.8748M17.8322 25.3636C17.8322 25.3636 18.6374 28.5462 19.4592 30.4718C20.3029 32.4489 21.0738 33.4126 22.1026 35.3C23.2872 37.4732 23.7616 38.805 25.124 40.8713C26.5509 43.0355 27.7135 43.9826 29.2612 46.062C30.0126 47.0715 31.1436 48.6776 31.1436 48.6776L33.3953 50.8054M67.4356 67.0793L69.3098 68.5251L73.4419 72.9702L76.9525 77.4196M67.4356 67.0793L74.1069 61.4081L81.5318 56.8825L88.9672 53.8481L96.7831 51.9295L102.37 51.1449L106.286 51.304M106.286 51.304C106.286 51.304 105.893 48.1923 105.319 46.2777C104.184 42.4932 100.534 37.3632 100.534 37.3632M100.534 37.3632C100.534 37.3632 99.1952 34.5773 98.1418 32.906C96.1802 29.794 92.1261 25.6572 92.1261 25.6572M100.534 37.3632L94.8229 38.1487L88.493 39.3113L81.4253 41.5975L78.8235 42.7341M78.8235 42.7341L76.2216 43.8707L68.793 47.8569L62.4795 51.3693L60.4394 52.8748" stroke="#E8B152" stroke-width="4"/>
<path d="M17.0168 107.982C18.0656 105.74 19.9603 102.369 19.9603 102.369L26.2227 91.5139L31.4523 92.9688L34.4451 94.4392L37.816 96.6527L39.315 97.7607L32.32 110.485C32.32 110.485 30.4033 114.824 28.2633 116.852C27.5866 117.493 27.2179 117.891 26.4097 118.356C25.73 118.747 25.3181 118.953 24.5509 119.114C23.6961 119.295 23.1778 119.26 22.314 119.13C21.4035 118.993 20.9055 118.792 20.072 118.4C18.7542 117.781 17.962 117.338 17.074 116.184C16.4783 115.41 16.2417 114.884 15.94 113.955C15.622 112.976 15.4626 112.374 15.549 111.348C15.6693 109.919 16.4092 109.281 17.0168 107.982Z" fill="white" stroke="#474747" stroke-width="4"/>
<path d="M84.9492 12.0661C83.8334 12.4467 81.2602 17.6842 81.2602 17.6842C81.2602 17.6842 78.3141 22.9243 77.9491 24.0452C77.5841 25.1662 77.9855 29.2645 77.9855 29.2645L78.0036 31.8741L72.4779 41.4315L68.7941 47.8031L60.6896 61.8206L55.0716 58.1315L48.3377 54.8231L52.0217 48.4784L59.3898 35.789L66.161 24.1274L70.0734 17.3893L72.4668 13.0852L74.8601 8.78102C74.8601 8.78102 76.5204 5.69859 78.1842 4.28398C78.9841 3.60392 79.43 3.15225 80.4106 2.77717C81.2378 2.46078 81.7628 2.46747 82.6449 2.38878C83.515 2.31116 84.0106 2.3077 84.8817 2.37319C85.7648 2.43958 86.2831 2.44405 87.1211 2.73041C88.692 3.26717 89.3436 4.1204 90.4945 5.31666C91.1409 5.98847 91.5485 6.35401 91.9988 7.17029C92.4435 7.97656 92.5805 8.49878 92.76 9.40193C93.0154 10.6871 92.9155 11.4535 92.7833 12.7572C92.6479 14.0926 92.9935 15.152 92.0611 16.1176C91.6965 16.4953 91.4698 16.8144 90.9479 16.871C90.4902 16.9207 90.2347 16.7196 89.8269 16.506C88.499 15.8106 89.0125 14.2104 87.9395 13.1637C87.4183 12.6555 87.1405 12.2553 86.4405 12.0557C85.8804 11.896 86.0651 11.6855 84.9492 12.0661Z" fill="white" stroke="#474747" stroke-width="4"/>
</svg>
