<svg width="139" height="131" viewBox="0 0 139 131" fill="none" xmlns="http://www.w3.org/2000/svg">
<path d="M28.8052 4.12622L49.3066 44.0013L59.3066 128.47L50.3066 127.001L41.7808 108.001L41.7808 79.5013L45.8066 46.0013L40.8066 41.0013L33.3052 32.2816L25.3052 11.1262L28.8052 4.12622Z" fill="white"/>
<ellipse cx="64.8047" cy="15.7174" rx="12" ry="13" fill="white"/>
<ellipse cx="66.7642" cy="16.1079" rx="10.5646" ry="12.0738" transform="rotate(-0.399268 66.7642 16.1079)" fill="#EED9EA"/>
<path d="M56.3273 88.6246C57.5013 94.6535 51.2914 122.618 47.0184 106.423C44.1226 95.4483 49.1244 83.7697 48.8589 45.6627C45.8115 41.5335 13.4074 -6.15979 38.3853 4.60813C52.569 36.5811 56.2808 81.9566 56.3273 88.6246Z" fill="#EED9EA"/>
<path d="M65.5927 118.746C65.629 123.956 63.2 127.702 59.2408 127.729C53.9096 120.714 60.3852 129.464 53.1419 118.833C38.2852 98.5616 58.9622 87.7357 57.1623 100.2C61.7294 105.828 63.672 113.855 65.5927 118.746Z" fill="#EED9EA"/>
<path d="M76.4568 53.3946C76.8117 104.33 72.0567 125.87 60.4249 81.0504C50.9805 133.563 50.0614 55.815 49.9801 44.146C38.7255 -0.676048 41.949 28.7322 62.7346 33.4923C122.67 25.1512 76.3755 41.7256 76.4568 53.3946Z" fill="#EED9EA"/>
<path d="M102.323 83.4001C105.027 92.4369 79.9443 106.95 74.9433 106.985C64.3685 105.549 71.8639 98.2266 71.8435 95.3093C71.8232 92.3921 73.4803 59.4529 78.9544 86.9588C98.4793 73.2394 95.8619 76.6535 102.323 83.4001Z" fill="#EED9EA"/>
<path d="M98.1721 29.0954C104.346 48.6728 94.3289 46.4787 90.3697 46.5062C60.9799 52.3708 83.1354 37.1188 83.0802 29.2005C83.025 21.2823 77.6665 10.3725 87.8458 9.16946C93.4816 5.73453 98.117 21.1771 98.1721 29.0954Z" fill="#EED9EA"/>
<path d="M31.4609 2.41348C32.3845 2.13757 33.319 1.93778 34.5892 2.03327L35.316 2.07313C35.4936 2.08074 35.7305 2.09054 35.9806 2.13784C36.5025 2.23658 36.9568 2.47934 37.5055 2.76492L37.7202 2.88257C38.7674 3.48028 39.4031 4.24954 39.879 5.06484C40.1176 5.47377 40.32 5.9011 40.5008 6.28417C40.5948 6.48351 40.6851 6.67588 40.7783 6.86624L41.0723 7.43647L41.1593 7.59505L41.2055 7.77051L41.2065 7.77343C41.2071 7.77569 41.2083 7.77954 41.2095 7.78415C41.2119 7.79337 41.2157 7.80707 41.2205 7.82509C41.2303 7.86176 41.2446 7.91638 41.2636 7.98691C41.3017 8.12839 41.3578 8.33492 41.428 8.59222C41.5685 9.10693 41.767 9.82577 41.998 10.642C42.4619 12.2812 43.0503 14.2887 43.5663 15.8236L43.7118 16.2308C44.0639 17.1595 44.506 17.9559 45.0186 18.7803C45.5788 19.6812 46.3243 20.7627 46.9949 21.9551L47.3181 22.5154C48.0524 23.7492 48.6676 24.5123 49.7608 25.7641L50.4606 26.5502C51.1079 27.2576 51.6467 27.7716 52.5171 28.4852L52.7695 28.6846C55.4301 30.7138 59.7186 31.7603 63.6335 32.2603C65.6093 32.5127 67.4083 32.6168 68.7136 32.6576C69.3651 32.6779 69.8912 32.6825 70.2519 32.682C70.4319 32.6817 70.5707 32.6796 70.663 32.6781C70.7091 32.6774 70.7443 32.6769 70.7665 32.6764L70.7753 32.6764C70.779 32.6762 70.7832 32.6756 70.788 32.6753C70.8104 32.6741 70.8444 32.6723 70.8885 32.6697C70.9766 32.6647 71.1064 32.6567 71.2721 32.6466C71.6042 32.6262 72.0803 32.596 72.6534 32.5559C73.801 32.4755 75.3329 32.3568 76.8786 32.2022C78.4324 32.0467 79.9676 31.8579 81.1335 31.6423C81.6123 31.5537 81.9958 31.4652 82.2792 31.3833C82.2815 31.1436 82.2723 30.8367 82.2474 30.4597C82.1857 29.5242 82.0467 28.297 81.8708 26.8694C81.5668 24.4022 81.1582 21.3781 80.9201 18.5302L80.8297 17.3227C80.8094 17.0171 80.7776 16.7202 80.7431 16.3985C80.7097 16.0865 80.6732 15.7426 80.6512 15.3952C80.6062 14.6845 80.6184 13.8952 80.8495 13.0237L81.0028 12.465C81.161 11.9174 81.3454 11.4043 81.6475 10.9341C82.0619 10.289 82.6271 9.82836 83.2877 9.33277L83.516 9.16711C84.6434 8.3743 85.5332 8.15018 86.7103 7.88408L87.076 7.81121C87.9272 7.66457 88.7647 7.66948 89.383 7.70627C89.7452 7.72782 90.053 7.76185 90.2732 7.79089C90.3835 7.80543 90.473 7.81883 90.5372 7.82909C90.5691 7.8342 90.5953 7.83892 90.6144 7.84222C90.624 7.84387 90.6327 7.84486 90.6389 7.84596C90.6418 7.84648 90.6445 7.84747 90.6467 7.84786L90.6506 7.84783C90.6579 7.84913 90.6657 7.85098 90.6741 7.85255C90.7021 7.85783 90.7359 7.86453 90.7748 7.87333C90.853 7.89103 90.9533 7.91675 91.0703 7.95331C91.3041 8.02637 91.6099 8.14362 91.9557 8.32996C92.6541 8.70621 93.4963 9.35416 94.2332 10.443C94.4016 10.6919 94.5403 11.0043 94.6472 11.2673C94.766 11.5599 94.8935 11.9133 95.0265 12.3077C95.2931 13.0979 95.6018 14.1135 95.9329 15.2682C96.5963 17.5817 97.3669 20.5095 98.0982 23.4281C98.8298 26.3479 99.5252 29.2716 100.04 31.5789C100.297 32.7313 100.51 33.7385 100.661 34.518C100.798 35.2282 100.917 35.9098 100.919 36.2975C100.925 37.1098 100.982 37.5552 101.02 38.1044C101.055 38.611 101.062 39.1043 100.969 39.7669L100.922 40.0612C100.627 41.77 100.368 43.3532 98.7912 44.9522C97.2682 46.4964 95.1898 47.1658 93.665 47.1764C93.661 47.1765 93.6417 47.1773 93.6015 47.1798C93.5557 47.1826 93.4951 47.1873 93.419 47.1938C93.2666 47.2067 93.0672 47.226 92.8246 47.2516C92.3403 47.3028 91.7035 47.3766 90.9618 47.4677C89.4791 47.65 87.5943 47.8984 85.7097 48.1655C83.8236 48.4328 81.9474 48.7177 80.476 48.9705C79.7387 49.0972 79.1166 49.2138 78.6512 49.3143C78.4177 49.3647 78.2375 49.4076 78.1091 49.4431C78.0453 49.4607 78.0074 49.4724 77.9902 49.4781C77.632 49.661 77.4984 49.7396 77.457 49.765C77.4424 49.7921 77.4116 49.8558 77.3628 49.9825C77.3224 50.0876 77.2787 50.2112 77.2268 50.3653L77.0413 50.931C77.0411 50.9316 77.0402 50.9332 77.0394 50.9359C77.0383 50.9396 77.0365 50.9448 77.0346 50.9516C77.0308 50.9655 77.0261 50.9848 77.0204 51.0093C77.0087 51.0588 76.9951 51.1238 76.9797 51.2059C76.9489 51.371 76.9157 51.585 76.8807 51.8482C76.8107 52.3742 76.739 53.0617 76.6732 53.8838C76.5417 55.5265 76.4341 57.668 76.393 60.0608C76.3104 64.8607 76.4974 70.5883 77.2697 75.2913L77.4179 76.2396C77.5629 77.2059 77.6989 78.2179 77.8341 79.2065C78.016 80.5373 78.1982 81.8302 78.4073 82.9828C78.6189 84.1494 78.8446 85.0951 79.0956 85.7564C79.1609 85.9287 79.2225 86.0642 79.2762 86.1692C79.5817 86.0388 79.9905 85.8225 80.4953 85.5133C81.5741 84.8522 82.904 83.8954 84.2787 82.8677C85.6041 81.8767 87.0589 80.7529 88.1811 79.9215C88.7582 79.4939 89.2952 79.1069 89.7524 78.8041C90.1649 78.5309 90.6497 78.2308 91.0746 78.0858L91.4371 77.9681C92.276 77.7086 93.0663 77.5631 93.8884 77.5604C94.8252 77.5572 95.7165 77.7394 96.675 78.0429L97.1938 78.217C98.3592 78.6319 99.2245 79.1332 100.222 80.153L100.462 80.4082C101.612 81.678 101.986 82.8427 102.373 84.3022L102.47 84.7156C102.665 85.672 102.657 86.5788 102.608 87.3387C102.581 87.7674 102.537 88.1854 102.506 88.5182C102.473 88.873 102.454 89.1326 102.455 89.3408C102.459 89.8897 102.173 90.2818 102.116 90.3637C102.004 90.5223 101.874 90.6638 101.763 90.7763C101.535 91.0073 101.236 91.2667 100.903 91.5362C100.228 92.0828 99.2859 92.7784 98.1817 93.5611C95.9659 95.1316 93.0103 97.1133 90.0314 99.0682C87.0495 101.025 84.0316 102.963 81.6858 104.45C79.3925 105.903 77.6374 106.993 77.2643 107.183C75.7807 107.938 74.1665 107.797 72.7282 107.473L72.1226 107.325C68.9811 106.503 66.561 103.95 65.8042 101.731C65.6198 101.191 65.2968 99.7685 64.9311 98.081C64.5534 96.3382 64.0999 94.1657 63.6486 92.0234C63.1962 89.8758 62.7462 87.7575 62.373 86.1054C62.1861 85.2782 62.0208 84.5795 61.886 84.057C61.8184 83.7949 61.7614 83.5887 61.7157 83.439C61.688 83.3484 61.6706 83.2994 61.6638 83.2802L61.6757 83.2996C61.5131 82.9801 61.3841 82.6869 61.3119 82.5326C61.2923 82.4907 61.2753 82.4582 61.2624 82.4324C61.255 82.43 61.2473 82.4273 61.2389 82.4247L60.9366 82.3497C60.8375 82.3284 60.7467 82.3042 60.6627 82.2813C60.633 82.3066 60.5725 82.3688 60.4894 82.4993C60.3564 82.7082 60.2318 82.9961 60.126 83.328C60.0229 83.6517 59.9529 83.969 59.9085 84.2094C59.8867 84.3279 59.8716 84.4239 59.8626 84.4871C59.8581 84.5186 59.855 84.5419 59.8533 84.5555C59.8525 84.5621 59.8517 84.5664 59.8515 84.5682L59.8514 84.5663L59.8478 84.5985L59.8431 84.6308L59.8431 84.6327C59.8429 84.6344 59.8427 84.6373 59.8422 84.6406C59.8412 84.647 59.8394 84.6565 59.8375 84.6689C59.8335 84.6946 59.8274 84.7334 59.8197 84.7833C59.8043 84.8829 59.7812 85.029 59.7524 85.2154C59.6948 85.5887 59.6127 86.1235 59.5133 86.7679C59.3144 88.0569 59.0476 89.7861 58.777 91.5466C58.233 95.0857 57.6805 98.7041 57.6183 99.1847C57.5694 99.5622 57.5782 99.8291 57.6314 100.09C57.6879 100.366 57.8094 100.709 58.071 101.223C58.3807 101.831 60.173 105.646 61.9376 109.4C63.7237 113.2 65.4822 116.94 65.7637 117.494C66.5298 119 66.3094 120.369 66.0272 121.545L65.9057 122.037C65.6257 123.151 65.2113 124.057 64.6099 124.87C64.1698 125.465 63.6528 125.978 63.0829 126.466L62.4964 126.947C61.3139 127.886 60.0688 128.657 58.6771 129.061C57.3451 129.447 55.958 129.473 54.4653 129.093L54.1649 129.011C52.2102 128.448 51.2244 127.525 50.0133 126.331C49.8214 126.142 49.6559 125.905 49.5345 125.721C49.3976 125.514 49.2492 125.266 49.0948 124.996C48.7853 124.453 48.4195 123.758 48.0221 122.973C47.2257 121.398 46.2746 119.401 45.3465 117.397C43.5101 113.43 41.6924 109.28 41.3632 108.315C40.9899 107.221 40.8441 105.697 40.7668 104.165C40.7273 103.38 40.7036 102.539 40.6861 101.685L40.6389 99.1214C40.5921 96.8849 40.7262 94.4953 40.8661 92.4771C41.0105 90.3924 41.1501 88.8172 41.1446 88.019C41.1406 87.4427 41.3019 86.1776 41.5027 84.7625C41.7128 83.2829 41.9931 81.4674 42.272 79.6808C42.5518 77.889 42.8294 76.127 43.0374 74.7379C43.1415 74.0431 43.2274 73.4503 43.2861 72.9988C43.3154 72.7727 43.3367 72.5899 43.3506 72.4515C43.3626 72.3322 43.366 72.2761 43.3669 72.2629C43.3644 71.9078 43.4679 70.11 43.6029 67.7377C43.7409 65.3131 43.9184 62.1823 44.0785 59.0525C44.2387 55.9203 44.3804 52.8001 44.445 50.3955C44.4773 49.1909 44.4899 48.1829 44.4772 47.4489C44.4708 47.0794 44.4585 46.8018 44.4421 46.6132C44.4406 46.5969 44.4382 46.582 44.4369 46.5683C44.3363 46.4225 44.1429 46.1746 43.8153 45.8001C43.3971 45.3221 42.864 44.7508 42.2417 44.0816C41.1706 42.9295 39.8735 41.5258 38.687 40.0261L38.1864 39.3783C37.2639 38.1538 36.3836 37.1916 35.4337 36.0546C34.6222 35.0833 33.8157 34.0455 33.0788 32.7819L32.7673 32.2264C31.2048 29.3202 30.1936 27.465 29.0462 24.6174L28.5441 23.3308C27.086 19.4762 25.8943 16.911 25.5207 12.6973L25.457 11.8315C25.4162 11.1411 25.0706 10.0773 25.4804 8.46019L25.6137 7.97389C25.9455 6.85053 26.4292 5.80877 27.1589 4.92301C28.0072 3.8934 29.1238 3.15214 30.5293 2.70611L31.4609 2.41348Z" stroke="#474747" stroke-width="3"/>
<path d="M16.9326 79.4745C16.9618 83.6602 13.0093 87.081 8.82361 87.1102C4.63794 87.1394 1.22114 83.7699 1.19197 79.5842C1.16281 75.3986 4.53231 71.9818 8.71798 71.9526C12.9036 71.9234 16.9034 75.2889 16.9326 79.4745Z" fill="#474747"/>
<path d="M14.6046 80.0419C14.6046 80.0419 14.4545 58.5034 14.4504 57.9205C14.4463 57.3376 22.078 64.8634 22.078 64.8634" stroke="#474747" stroke-width="5"/>
<ellipse cx="22.2703" cy="65.0529" rx="2.52275" ry="2.52274" transform="rotate(-0.399268 22.2703 65.0529)" fill="#474747"/>
<path d="M129.829 49.538C129.858 53.7237 125.905 57.1445 121.72 57.1737C117.534 57.2028 114.117 53.8333 114.088 49.6477C114.059 45.462 117.428 42.0453 121.614 42.0161C125.8 41.9869 129.799 45.3524 129.829 49.538Z" fill="#474747"/>
<path d="M127.501 50.1048C127.501 50.1048 127.351 28.5663 127.346 27.9835C127.342 27.4006 134.974 34.9263 134.974 34.9263" stroke="#474747" stroke-width="5"/>
<ellipse cx="135.168" cy="35.1179" rx="2.525" ry="2.52499" transform="rotate(-0.399268 135.168 35.1179)" fill="#474747"/>
<ellipse cx="64.4561" cy="15.9874" rx="12.826" ry="12.8259" transform="rotate(-0.399268 64.4561 15.9874)" stroke="#474747" stroke-width="3"/>
</svg>
