<svg width="116" height="116" viewBox="0 0 116 116" fill="none" xmlns="http://www.w3.org/2000/svg">
<mask id="path-1-outside-1_340_370" maskUnits="userSpaceOnUse" x="5.62451" y="0" width="111" height="111" fill="black">
<rect fill="white" x="5.62451" width="111" height="111"/>
<path d="M54.122 27.6696C51.8529 28.4647 49.3642 29.3423 47.5558 30.5866C45.4194 32.0565 43.533 33.2352 41.516 35.0904C38.6347 37.7406 35.4651 42.246 33.9524 46.7515C33.3101 50.5774 32.8837 53.7541 32.9439 57.6176C32.9754 59.6355 33.5375 62.5041 34.2046 64.2432C34.8717 65.9823 35.8979 68.2328 36.6122 69.9491C37.8075 72.8212 40.5753 76.1312 42.7766 78.0246C45.55 80.4098 46.8106 81.2049 50.5924 82.53L50.5981 82.532C51.2579 82.7632 54.1962 83.7928 54.8784 83.8551C55.6749 83.9279 58.1133 84.3852 58.9123 84.3852C61.1363 84.3852 64.5541 84.3852 66.728 83.8551C71.2662 82.7486 73.9099 81.0461 77.3171 78.5546C80.4042 76.2971 82.1073 73.5191 83.9942 70.1229C85.637 66.3634 87.6086 61.573 87.906 57.3525C88.4639 49.4363 86.5038 43.2454 81.603 37.2106C79.7803 34.966 75.8754 31.4295 73.5352 30.0549C71.6721 28.9604 70.5152 28.599 68.4928 27.9346C65.9178 27.0888 65.9716 27.2998 62.9462 26.8745C61.3693 26.6529 58.1559 26.4659 55.1305 26.7309L54.4904 27.0019L54.122 27.6696Z"/>
<path d="M63.9636 10.3753C63.694 10.979 61.4109 17.531 61.1105 17.531L60.9382 17.531C60.81 17.531 57.7259 10.996 57.4563 10.3924C57.1867 9.7887 56.9521 9.01927 56.9521 8.53718C56.9521 8.05509 56.7963 5.57664 56.9521 5.27716C57.7015 3.83654 58.7684 3.30978 58.9691 3.23663C59.6082 3.00361 60.3649 3.00359 60.81 3.00357C61.3977 3.00355 61.6132 2.95462 62.4509 3.21962C63.2228 3.46377 63.7115 3.74969 64.4679 5.26014C64.5996 5.66112 64.4679 8.03807 64.4679 8.52016C64.4679 9.00225 64.2332 9.77169 63.9636 10.3753Z"/>
<path d="M64.179 100C63.9094 99.3966 61.6263 92.8446 61.3259 92.8446L61.1536 92.8446C61.0254 92.8446 57.9413 99.3796 57.6717 99.9833C57.4021 100.587 57.1675 101.356 57.1675 101.838C57.1675 102.321 57.0117 104.799 57.1675 105.098C57.9169 106.539 58.9838 107.066 59.1844 107.139C59.8236 107.372 60.5802 107.372 61.0254 107.372C61.6131 107.372 61.8286 107.421 62.6663 107.156C63.4381 106.912 63.9269 106.626 64.6832 105.115C64.815 104.715 64.6832 102.338 64.6832 101.855C64.6832 101.373 64.4486 100.604 64.179 100Z"/>
<path d="M15.9998 52.0365C16.6035 52.3061 23.1555 54.5892 23.1555 54.8897L23.1555 55.0619C23.1555 55.1901 16.6205 58.2742 16.0169 58.5438C15.4132 58.8134 14.6438 59.048 14.1617 59.048C13.6796 59.048 11.2012 59.2038 10.9017 59.048C9.46105 58.2987 8.9343 57.2317 8.86114 57.0311C8.62812 56.392 8.6281 55.6353 8.62808 55.1901C8.62806 54.6025 8.57913 54.387 8.84413 53.5492C9.08829 52.7774 9.3742 52.2886 10.8847 51.5323C11.2856 51.4005 13.6626 51.5323 14.1447 51.5323C14.6268 51.5323 15.3962 51.7669 15.9998 52.0365Z"/>
<path d="M105.625 51.8212C105.021 52.0908 98.4691 54.3739 98.4691 54.6743L98.4691 54.8465C98.4691 54.9747 105.004 58.0588 105.608 58.3284C106.211 58.598 106.981 58.8327 107.463 58.8327C107.945 58.8327 110.423 58.9885 110.723 58.8327C112.164 58.0833 112.69 57.0163 112.763 56.8157C112.997 56.1766 112.997 55.4199 112.997 54.9747C112.997 54.3871 113.046 54.1716 112.781 53.3339C112.536 52.562 112.25 52.0733 110.74 51.3169C110.339 51.1851 107.962 51.3169 107.48 51.3169C106.998 51.3169 106.228 51.5515 105.625 51.8212Z"/>
<path d="M24.0236 29.4065C24.4022 29.9485 28.8425 35.28 28.6878 35.5376L28.5991 35.6852C28.533 35.7951 21.343 35.0729 20.6867 34.9931C20.0304 34.9133 19.25 34.7181 18.8368 34.4698C18.4236 34.2215 16.2189 33.0786 16.0424 32.7908C15.1935 31.4065 15.2915 30.2206 15.3322 30.011C15.4616 29.3431 15.8513 28.6945 16.0806 28.3129C16.3832 27.8092 16.4523 27.5993 17.1109 27.0177C17.7177 26.4818 18.2145 26.2101 19.8987 26.3397C20.3103 26.4333 22.2799 27.7705 22.6931 28.0188C23.1064 28.2671 23.645 28.8645 24.0236 29.4065Z"/>
<path d="M100.958 75.3821C100.302 75.3023 93.5098 73.8848 93.355 74.1423L93.2663 74.2899C93.2003 74.3998 97.2135 80.4092 97.592 80.9512C97.9706 81.4932 98.5093 82.0906 98.9225 82.3389C99.3358 82.5872 101.38 83.9972 101.717 84.0179C103.338 84.1176 104.339 83.4743 104.505 83.34C105.034 82.9122 105.423 82.2636 105.653 81.882C105.955 81.3783 106.108 81.2188 106.313 80.3642C106.501 79.5769 106.508 79.0107 105.602 77.5844C105.327 77.265 103.221 76.1537 102.808 75.9054C102.395 75.6571 101.614 75.4619 100.958 75.3821Z"/>
<path d="M97.6013 29.4065C97.2227 29.9485 92.7824 35.28 92.9371 35.5376L93.0258 35.6852C93.0918 35.7951 100.282 35.0729 100.938 34.9931C101.594 34.9133 102.375 34.7181 102.788 34.4698C103.201 34.2215 105.406 33.0786 105.582 32.7908C106.431 31.4065 106.333 30.2206 106.293 30.011C106.163 29.3431 105.774 28.6945 105.544 28.3129C105.242 27.8092 105.173 27.5993 104.514 27.0177C103.907 26.4818 103.41 26.2101 101.726 26.3397C101.315 26.4333 99.345 27.7705 98.9318 28.0188C98.5185 28.2671 97.9798 28.8645 97.6013 29.4065Z"/>
<path d="M20.6668 75.3821C21.3231 75.3023 28.1151 73.8848 28.2699 74.1423L28.3586 74.2899C28.4246 74.3998 24.4114 80.4092 24.0329 80.9512C23.6543 81.4932 23.1156 82.0906 22.7024 82.3389C22.2891 82.5872 20.2449 83.9972 19.908 84.0179C18.2872 84.1176 17.2861 83.4743 17.1201 83.34C16.5912 82.9122 16.2014 82.2636 15.9721 81.882C15.6695 81.3783 15.5165 81.2188 15.3122 80.3642C15.124 79.5769 15.1173 79.0107 16.0225 77.5844C16.2983 77.265 18.4036 76.1537 18.8169 75.9054C19.2301 75.6571 20.0105 75.4619 20.6668 75.3821Z"/>
<path d="M35.0312 91.9766C35.5732 91.598 40.9047 87.1577 41.1622 87.3124L41.3099 87.4011C41.4198 87.4671 40.6976 94.6572 40.6178 95.3135C40.5379 95.9698 40.3428 96.7501 40.0945 97.1634C39.8462 97.5766 38.7032 99.7813 38.4154 99.9578C37.0311 100.807 35.8453 100.709 35.6356 100.668C34.9678 100.539 34.3192 100.149 33.9376 99.9196C33.4338 99.617 33.2239 99.5479 32.6423 98.8893C32.1065 98.2825 31.8348 97.7857 31.9644 96.1014C32.058 95.6899 33.3952 93.7203 33.6435 93.3071C33.8918 92.8938 34.4892 92.3551 35.0312 91.9766Z"/>
<path d="M81.0068 15.0421C80.927 15.6984 79.5095 22.4904 79.767 22.6452L79.9146 22.7339C80.0245 22.7999 86.0339 18.7867 86.5759 18.4081C87.1179 18.0296 87.7153 17.4909 87.9636 17.0777C88.2119 16.6644 89.6219 14.6202 89.6426 14.2833C89.7422 12.6625 89.099 11.6614 88.9647 11.4954C88.5369 10.9665 87.8883 10.5767 87.5067 10.3474C87.003 10.0448 86.8435 9.89184 85.9889 9.68752C85.2016 9.49927 84.6354 9.49263 83.2091 10.3978C82.8896 10.6736 81.7784 12.7789 81.5301 13.1922C81.2818 13.6054 81.0866 14.3858 81.0068 15.0421Z"/>
<path d="M86.5938 91.9766C86.0518 91.598 80.7203 87.1577 80.4627 87.3124L80.3151 87.4011C80.2052 87.4671 80.9274 94.6572 81.0072 95.3135C81.087 95.9698 81.2822 96.7501 81.5305 97.1634C81.7788 97.5766 82.9217 99.7813 83.2095 99.9578C84.5938 100.807 85.7797 100.709 85.9893 100.668C86.6572 100.539 87.3058 100.149 87.6874 99.9196C88.1911 99.617 88.401 99.5479 88.9826 98.8893C89.5185 98.2825 89.7902 97.7857 89.6606 96.1014C89.567 95.6899 88.2298 93.7203 87.9815 93.3071C87.7332 92.8938 87.1358 92.3551 86.5938 91.9766Z"/>
<path d="M40.6182 15.0421C40.698 15.6984 42.1155 22.4904 41.858 22.6452L41.7104 22.7339C41.6005 22.7999 35.5911 18.7867 35.0491 18.4081C34.5071 18.0296 33.9097 17.4909 33.6614 17.0777C33.4131 16.6644 32.0031 14.6202 31.9824 14.2833C31.8827 12.6625 32.526 11.6614 32.6603 11.4954C33.0881 10.9665 33.7367 10.5767 34.1183 10.3474C34.622 10.0448 34.7815 9.89184 35.636 9.68752C36.4234 9.49927 36.9896 9.49263 38.4159 10.3978C38.7353 10.6736 39.8466 12.7789 40.0949 13.1922C40.3432 13.6054 40.5384 14.3858 40.6182 15.0421Z"/>
</mask>
<path d="M54.122 27.6696C51.8529 28.4647 49.3642 29.3423 47.5558 30.5866C45.4194 32.0565 43.533 33.2352 41.516 35.0904C38.6347 37.7406 35.4651 42.246 33.9524 46.7515C33.3101 50.5774 32.8837 53.7541 32.9439 57.6176C32.9754 59.6355 33.5375 62.5041 34.2046 64.2432C34.8717 65.9823 35.8979 68.2328 36.6122 69.9491C37.8075 72.8212 40.5753 76.1312 42.7766 78.0246C45.55 80.4098 46.8106 81.2049 50.5924 82.53L50.5981 82.532C51.2579 82.7632 54.1962 83.7928 54.8784 83.8551C55.6749 83.9279 58.1133 84.3852 58.9123 84.3852C61.1363 84.3852 64.5541 84.3852 66.728 83.8551C71.2662 82.7486 73.9099 81.0461 77.3171 78.5546C80.4042 76.2971 82.1073 73.5191 83.9942 70.1229C85.637 66.3634 87.6086 61.573 87.906 57.3525C88.4639 49.4363 86.5038 43.2454 81.603 37.2106C79.7803 34.966 75.8754 31.4295 73.5352 30.0549C71.6721 28.9604 70.5152 28.599 68.4928 27.9346C65.9178 27.0888 65.9716 27.2998 62.9462 26.8745C61.3693 26.6529 58.1559 26.4659 55.1305 26.7309L54.4904 27.0019L54.122 27.6696Z" fill="#EACF79"/>
<path d="M63.9636 10.3753C63.694 10.979 61.4109 17.531 61.1105 17.531L60.9382 17.531C60.81 17.531 57.7259 10.996 57.4563 10.3924C57.1867 9.7887 56.9521 9.01927 56.9521 8.53718C56.9521 8.05509 56.7963 5.57664 56.9521 5.27716C57.7015 3.83654 58.7684 3.30978 58.9691 3.23663C59.6082 3.00361 60.3649 3.00359 60.81 3.00357C61.3977 3.00355 61.6132 2.95462 62.4509 3.21962C63.2228 3.46377 63.7115 3.74969 64.4679 5.26014C64.5996 5.66112 64.4679 8.03807 64.4679 8.52016C64.4679 9.00225 64.2332 9.77169 63.9636 10.3753Z" fill="#EACF79"/>
<path d="M64.179 100C63.9094 99.3966 61.6263 92.8446 61.3259 92.8446L61.1536 92.8446C61.0254 92.8446 57.9413 99.3796 57.6717 99.9833C57.4021 100.587 57.1675 101.356 57.1675 101.838C57.1675 102.321 57.0117 104.799 57.1675 105.098C57.9169 106.539 58.9838 107.066 59.1844 107.139C59.8236 107.372 60.5802 107.372 61.0254 107.372C61.6131 107.372 61.8286 107.421 62.6663 107.156C63.4381 106.912 63.9269 106.626 64.6832 105.115C64.815 104.715 64.6832 102.338 64.6832 101.855C64.6832 101.373 64.4486 100.604 64.179 100Z" fill="#EACF79"/>
<path d="M15.9998 52.0365C16.6035 52.3061 23.1555 54.5892 23.1555 54.8897L23.1555 55.0619C23.1555 55.1901 16.6205 58.2742 16.0169 58.5438C15.4132 58.8134 14.6438 59.048 14.1617 59.048C13.6796 59.048 11.2012 59.2038 10.9017 59.048C9.46105 58.2987 8.9343 57.2317 8.86114 57.0311C8.62812 56.392 8.6281 55.6353 8.62808 55.1901C8.62806 54.6025 8.57913 54.387 8.84413 53.5492C9.08829 52.7774 9.3742 52.2886 10.8847 51.5323C11.2856 51.4005 13.6626 51.5323 14.1447 51.5323C14.6268 51.5323 15.3962 51.7669 15.9998 52.0365Z" fill="#EACF79"/>
<path d="M105.625 51.8212C105.021 52.0908 98.4691 54.3739 98.4691 54.6743L98.4691 54.8465C98.4691 54.9747 105.004 58.0588 105.608 58.3284C106.211 58.598 106.981 58.8327 107.463 58.8327C107.945 58.8327 110.423 58.9885 110.723 58.8327C112.164 58.0833 112.69 57.0163 112.763 56.8157C112.997 56.1766 112.997 55.4199 112.997 54.9747C112.997 54.3871 113.046 54.1716 112.781 53.3339C112.536 52.562 112.25 52.0733 110.74 51.3169C110.339 51.1851 107.962 51.3169 107.48 51.3169C106.998 51.3169 106.228 51.5515 105.625 51.8212Z" fill="#EACF79"/>
<path d="M24.0236 29.4065C24.4022 29.9485 28.8425 35.28 28.6878 35.5376L28.5991 35.6852C28.533 35.7951 21.343 35.0729 20.6867 34.9931C20.0304 34.9133 19.25 34.7181 18.8368 34.4698C18.4236 34.2215 16.2189 33.0786 16.0424 32.7908C15.1935 31.4065 15.2915 30.2206 15.3322 30.011C15.4616 29.3431 15.8513 28.6945 16.0806 28.3129C16.3832 27.8092 16.4523 27.5993 17.1109 27.0177C17.7177 26.4818 18.2145 26.2101 19.8987 26.3397C20.3103 26.4333 22.2799 27.7705 22.6931 28.0188C23.1064 28.2671 23.645 28.8645 24.0236 29.4065Z" fill="#EACF79"/>
<path d="M100.958 75.3821C100.302 75.3023 93.5098 73.8848 93.355 74.1423L93.2663 74.2899C93.2003 74.3998 97.2135 80.4092 97.592 80.9512C97.9706 81.4932 98.5093 82.0906 98.9225 82.3389C99.3358 82.5872 101.38 83.9972 101.717 84.0179C103.338 84.1176 104.339 83.4743 104.505 83.34C105.034 82.9122 105.423 82.2636 105.653 81.882C105.955 81.3783 106.108 81.2188 106.313 80.3642C106.501 79.5769 106.508 79.0107 105.602 77.5844C105.327 77.265 103.221 76.1537 102.808 75.9054C102.395 75.6571 101.614 75.4619 100.958 75.3821Z" fill="#EACF79"/>
<path d="M97.6013 29.4065C97.2227 29.9485 92.7824 35.28 92.9371 35.5376L93.0258 35.6852C93.0918 35.7951 100.282 35.0729 100.938 34.9931C101.594 34.9133 102.375 34.7181 102.788 34.4698C103.201 34.2215 105.406 33.0786 105.582 32.7908C106.431 31.4065 106.333 30.2206 106.293 30.011C106.163 29.3431 105.774 28.6945 105.544 28.3129C105.242 27.8092 105.173 27.5993 104.514 27.0177C103.907 26.4818 103.41 26.2101 101.726 26.3397C101.315 26.4333 99.345 27.7705 98.9318 28.0188C98.5185 28.2671 97.9798 28.8645 97.6013 29.4065Z" fill="#EACF79"/>
<path d="M20.6668 75.3821C21.3231 75.3023 28.1151 73.8848 28.2699 74.1423L28.3586 74.2899C28.4246 74.3998 24.4114 80.4092 24.0329 80.9512C23.6543 81.4932 23.1156 82.0906 22.7024 82.3389C22.2891 82.5872 20.2449 83.9972 19.908 84.0179C18.2872 84.1176 17.2861 83.4743 17.1201 83.34C16.5912 82.9122 16.2014 82.2636 15.9721 81.882C15.6695 81.3783 15.5165 81.2188 15.3122 80.3642C15.124 79.5769 15.1173 79.0107 16.0225 77.5844C16.2983 77.265 18.4036 76.1537 18.8169 75.9054C19.2301 75.6571 20.0105 75.4619 20.6668 75.3821Z" fill="#EACF79"/>
<path d="M35.0312 91.9766C35.5732 91.598 40.9047 87.1577 41.1622 87.3124L41.3099 87.4011C41.4198 87.4671 40.6976 94.6572 40.6178 95.3135C40.5379 95.9698 40.3428 96.7501 40.0945 97.1634C39.8462 97.5766 38.7032 99.7813 38.4154 99.9578C37.0311 100.807 35.8453 100.709 35.6356 100.668C34.9678 100.539 34.3192 100.149 33.9376 99.9196C33.4338 99.617 33.2239 99.5479 32.6423 98.8893C32.1065 98.2825 31.8348 97.7857 31.9644 96.1014C32.058 95.6899 33.3952 93.7203 33.6435 93.3071C33.8918 92.8938 34.4892 92.3551 35.0312 91.9766Z" fill="#EACF79"/>
<path d="M81.0068 15.0421C80.927 15.6984 79.5095 22.4904 79.767 22.6452L79.9146 22.7339C80.0245 22.7999 86.0339 18.7867 86.5759 18.4081C87.1179 18.0296 87.7153 17.4909 87.9636 17.0777C88.2119 16.6644 89.6219 14.6202 89.6426 14.2833C89.7422 12.6625 89.099 11.6614 88.9647 11.4954C88.5369 10.9665 87.8883 10.5767 87.5067 10.3474C87.003 10.0448 86.8435 9.89184 85.9889 9.68752C85.2016 9.49927 84.6354 9.49263 83.2091 10.3978C82.8896 10.6736 81.7784 12.7789 81.5301 13.1922C81.2818 13.6054 81.0866 14.3858 81.0068 15.0421Z" fill="#EACF79"/>
<path d="M86.5938 91.9766C86.0518 91.598 80.7203 87.1577 80.4627 87.3124L80.3151 87.4011C80.2052 87.4671 80.9274 94.6572 81.0072 95.3135C81.087 95.9698 81.2822 96.7501 81.5305 97.1634C81.7788 97.5766 82.9217 99.7813 83.2095 99.9578C84.5938 100.807 85.7797 100.709 85.9893 100.668C86.6572 100.539 87.3058 100.149 87.6874 99.9196C88.1911 99.617 88.401 99.5479 88.9826 98.8893C89.5185 98.2825 89.7902 97.7857 89.6606 96.1014C89.567 95.6899 88.2298 93.7203 87.9815 93.3071C87.7332 92.8938 87.1358 92.3551 86.5938 91.9766Z" fill="#EACF79"/>
<path d="M40.6182 15.0421C40.698 15.6984 42.1155 22.4904 41.858 22.6452L41.7104 22.7339C41.6005 22.7999 35.5911 18.7867 35.0491 18.4081C34.5071 18.0296 33.9097 17.4909 33.6614 17.0777C33.4131 16.6644 32.0031 14.6202 31.9824 14.2833C31.8827 12.6625 32.526 11.6614 32.6603 11.4954C33.0881 10.9665 33.7367 10.5767 34.1183 10.3474C34.622 10.0448 34.7815 9.89184 35.636 9.68752C36.4234 9.49927 36.9896 9.49263 38.4159 10.3978C38.7353 10.6736 39.8466 12.7789 40.0949 13.1922C40.3432 13.6054 40.5384 14.3858 40.6182 15.0421Z" fill="#EACF79"/>
<path d="M54.122 27.6696C51.8529 28.4647 49.3642 29.3423 47.5558 30.5866C45.4194 32.0565 43.533 33.2352 41.516 35.0904C38.6347 37.7406 35.4651 42.246 33.9524 46.7515C33.3101 50.5774 32.8837 53.7541 32.9439 57.6176C32.9754 59.6355 33.5375 62.5041 34.2046 64.2432C34.8717 65.9823 35.8979 68.2328 36.6122 69.9491C37.8075 72.8212 40.5753 76.1312 42.7766 78.0246C45.55 80.4098 46.8106 81.2049 50.5924 82.53L50.5981 82.532C51.2579 82.7632 54.1962 83.7928 54.8784 83.8551C55.6749 83.9279 58.1133 84.3852 58.9123 84.3852C61.1363 84.3852 64.5541 84.3852 66.728 83.8551C71.2662 82.7486 73.9099 81.0461 77.3171 78.5546C80.4042 76.2971 82.1073 73.5191 83.9942 70.1229C85.637 66.3634 87.6086 61.573 87.906 57.3525C88.4639 49.4363 86.5038 43.2454 81.603 37.2106C79.7803 34.966 75.8754 31.4295 73.5352 30.0549C71.6721 28.9604 70.5152 28.599 68.4928 27.9346C65.9178 27.0888 65.9716 27.2998 62.9462 26.8745C61.3693 26.6529 58.1559 26.4659 55.1305 26.7309L54.4904 27.0019L54.122 27.6696Z" stroke="black" stroke-width="6" stroke-linecap="round" mask="url(#path-1-outside-1_340_370)"/>
<path d="M63.9636 10.3753C63.694 10.979 61.4109 17.531 61.1105 17.531L60.9382 17.531C60.81 17.531 57.7259 10.996 57.4563 10.3924C57.1867 9.7887 56.9521 9.01927 56.9521 8.53718C56.9521 8.05509 56.7963 5.57664 56.9521 5.27716C57.7015 3.83654 58.7684 3.30978 58.9691 3.23663C59.6082 3.00361 60.3649 3.00359 60.81 3.00357C61.3977 3.00355 61.6132 2.95462 62.4509 3.21962C63.2228 3.46377 63.7115 3.74969 64.4679 5.26014C64.5996 5.66112 64.4679 8.03807 64.4679 8.52016C64.4679 9.00225 64.2332 9.77169 63.9636 10.3753Z" stroke="black" stroke-width="6" stroke-linecap="round" mask="url(#path-1-outside-1_340_370)"/>
<path d="M64.179 100C63.9094 99.3966 61.6263 92.8446 61.3259 92.8446L61.1536 92.8446C61.0254 92.8446 57.9413 99.3796 57.6717 99.9833C57.4021 100.587 57.1675 101.356 57.1675 101.838C57.1675 102.321 57.0117 104.799 57.1675 105.098C57.9169 106.539 58.9838 107.066 59.1844 107.139C59.8236 107.372 60.5802 107.372 61.0254 107.372C61.6131 107.372 61.8286 107.421 62.6663 107.156C63.4381 106.912 63.9269 106.626 64.6832 105.115C64.815 104.715 64.6832 102.338 64.6832 101.855C64.6832 101.373 64.4486 100.604 64.179 100Z" stroke="black" stroke-width="6" stroke-linecap="round" mask="url(#path-1-outside-1_340_370)"/>
<path d="M15.9998 52.0365C16.6035 52.3061 23.1555 54.5892 23.1555 54.8897L23.1555 55.0619C23.1555 55.1901 16.6205 58.2742 16.0169 58.5438C15.4132 58.8134 14.6438 59.048 14.1617 59.048C13.6796 59.048 11.2012 59.2038 10.9017 59.048C9.46105 58.2987 8.9343 57.2317 8.86114 57.0311C8.62812 56.392 8.6281 55.6353 8.62808 55.1901C8.62806 54.6025 8.57913 54.387 8.84413 53.5492C9.08829 52.7774 9.3742 52.2886 10.8847 51.5323C11.2856 51.4005 13.6626 51.5323 14.1447 51.5323C14.6268 51.5323 15.3962 51.7669 15.9998 52.0365Z" stroke="black" stroke-width="6" stroke-linecap="round" mask="url(#path-1-outside-1_340_370)"/>
<path d="M105.625 51.8212C105.021 52.0908 98.4691 54.3739 98.4691 54.6743L98.4691 54.8465C98.4691 54.9747 105.004 58.0588 105.608 58.3284C106.211 58.598 106.981 58.8327 107.463 58.8327C107.945 58.8327 110.423 58.9885 110.723 58.8327C112.164 58.0833 112.69 57.0163 112.763 56.8157C112.997 56.1766 112.997 55.4199 112.997 54.9747C112.997 54.3871 113.046 54.1716 112.781 53.3339C112.536 52.562 112.25 52.0733 110.74 51.3169C110.339 51.1851 107.962 51.3169 107.48 51.3169C106.998 51.3169 106.228 51.5515 105.625 51.8212Z" stroke="black" stroke-width="6" stroke-linecap="round" mask="url(#path-1-outside-1_340_370)"/>
<path d="M24.0236 29.4065C24.4022 29.9485 28.8425 35.28 28.6878 35.5376L28.5991 35.6852C28.533 35.7951 21.343 35.0729 20.6867 34.9931C20.0304 34.9133 19.25 34.7181 18.8368 34.4698C18.4236 34.2215 16.2189 33.0786 16.0424 32.7908C15.1935 31.4065 15.2915 30.2206 15.3322 30.011C15.4616 29.3431 15.8513 28.6945 16.0806 28.3129C16.3832 27.8092 16.4523 27.5993 17.1109 27.0177C17.7177 26.4818 18.2145 26.2101 19.8987 26.3397C20.3103 26.4333 22.2799 27.7705 22.6931 28.0188C23.1064 28.2671 23.645 28.8645 24.0236 29.4065Z" stroke="black" stroke-width="6" stroke-linecap="round" mask="url(#path-1-outside-1_340_370)"/>
<path d="M100.958 75.3821C100.302 75.3023 93.5098 73.8848 93.355 74.1423L93.2663 74.2899C93.2003 74.3998 97.2135 80.4092 97.592 80.9512C97.9706 81.4932 98.5093 82.0906 98.9225 82.3389C99.3358 82.5872 101.38 83.9972 101.717 84.0179C103.338 84.1176 104.339 83.4743 104.505 83.34C105.034 82.9122 105.423 82.2636 105.653 81.882C105.955 81.3783 106.108 81.2188 106.313 80.3642C106.501 79.5769 106.508 79.0107 105.602 77.5844C105.327 77.265 103.221 76.1537 102.808 75.9054C102.395 75.6571 101.614 75.4619 100.958 75.3821Z" stroke="black" stroke-width="6" stroke-linecap="round" mask="url(#path-1-outside-1_340_370)"/>
<path d="M97.6013 29.4065C97.2227 29.9485 92.7824 35.28 92.9371 35.5376L93.0258 35.6852C93.0918 35.7951 100.282 35.0729 100.938 34.9931C101.594 34.9133 102.375 34.7181 102.788 34.4698C103.201 34.2215 105.406 33.0786 105.582 32.7908C106.431 31.4065 106.333 30.2206 106.293 30.011C106.163 29.3431 105.774 28.6945 105.544 28.3129C105.242 27.8092 105.173 27.5993 104.514 27.0177C103.907 26.4818 103.41 26.2101 101.726 26.3397C101.315 26.4333 99.345 27.7705 98.9318 28.0188C98.5185 28.2671 97.9798 28.8645 97.6013 29.4065Z" stroke="black" stroke-width="6" stroke-linecap="round" mask="url(#path-1-outside-1_340_370)"/>
<path d="M20.6668 75.3821C21.3231 75.3023 28.1151 73.8848 28.2699 74.1423L28.3586 74.2899C28.4246 74.3998 24.4114 80.4092 24.0329 80.9512C23.6543 81.4932 23.1156 82.0906 22.7024 82.3389C22.2891 82.5872 20.2449 83.9972 19.908 84.0179C18.2872 84.1176 17.2861 83.4743 17.1201 83.34C16.5912 82.9122 16.2014 82.2636 15.9721 81.882C15.6695 81.3783 15.5165 81.2188 15.3122 80.3642C15.124 79.5769 15.1173 79.0107 16.0225 77.5844C16.2983 77.265 18.4036 76.1537 18.8169 75.9054C19.2301 75.6571 20.0105 75.4619 20.6668 75.3821Z" stroke="black" stroke-width="6" stroke-linecap="round" mask="url(#path-1-outside-1_340_370)"/>
<path d="M35.0312 91.9766C35.5732 91.598 40.9047 87.1577 41.1622 87.3124L41.3099 87.4011C41.4198 87.4671 40.6976 94.6572 40.6178 95.3135C40.5379 95.9698 40.3428 96.7501 40.0945 97.1634C39.8462 97.5766 38.7032 99.7813 38.4154 99.9578C37.0311 100.807 35.8453 100.709 35.6356 100.668C34.9678 100.539 34.3192 100.149 33.9376 99.9196C33.4338 99.617 33.2239 99.5479 32.6423 98.8893C32.1065 98.2825 31.8348 97.7857 31.9644 96.1014C32.058 95.6899 33.3952 93.7203 33.6435 93.3071C33.8918 92.8938 34.4892 92.3551 35.0312 91.9766Z" stroke="black" stroke-width="6" stroke-linecap="round" mask="url(#path-1-outside-1_340_370)"/>
<path d="M81.0068 15.0421C80.927 15.6984 79.5095 22.4904 79.767 22.6452L79.9146 22.7339C80.0245 22.7999 86.0339 18.7867 86.5759 18.4081C87.1179 18.0296 87.7153 17.4909 87.9636 17.0777C88.2119 16.6644 89.6219 14.6202 89.6426 14.2833C89.7422 12.6625 89.099 11.6614 88.9647 11.4954C88.5369 10.9665 87.8883 10.5767 87.5067 10.3474C87.003 10.0448 86.8435 9.89184 85.9889 9.68752C85.2016 9.49927 84.6354 9.49263 83.2091 10.3978C82.8896 10.6736 81.7784 12.7789 81.5301 13.1922C81.2818 13.6054 81.0866 14.3858 81.0068 15.0421Z" stroke="black" stroke-width="6" stroke-linecap="round" mask="url(#path-1-outside-1_340_370)"/>
<path d="M86.5938 91.9766C86.0518 91.598 80.7203 87.1577 80.4627 87.3124L80.3151 87.4011C80.2052 87.4671 80.9274 94.6572 81.0072 95.3135C81.087 95.9698 81.2822 96.7501 81.5305 97.1634C81.7788 97.5766 82.9217 99.7813 83.2095 99.9578C84.5938 100.807 85.7797 100.709 85.9893 100.668C86.6572 100.539 87.3058 100.149 87.6874 99.9196C88.1911 99.617 88.401 99.5479 88.9826 98.8893C89.5185 98.2825 89.7902 97.7857 89.6606 96.1014C89.567 95.6899 88.2298 93.7203 87.9815 93.3071C87.7332 92.8938 87.1358 92.3551 86.5938 91.9766Z" stroke="black" stroke-width="6" stroke-linecap="round" mask="url(#path-1-outside-1_340_370)"/>
<path d="M40.6182 15.0421C40.698 15.6984 42.1155 22.4904 41.858 22.6452L41.7104 22.7339C41.6005 22.7999 35.5911 18.7867 35.0491 18.4081C34.5071 18.0296 33.9097 17.4909 33.6614 17.0777C33.4131 16.6644 32.0031 14.6202 31.9824 14.2833C31.8827 12.6625 32.526 11.6614 32.6603 11.4954C33.0881 10.9665 33.7367 10.5767 34.1183 10.3474C34.622 10.0448 34.7815 9.89184 35.636 9.68752C36.4234 9.49927 36.9896 9.49263 38.4159 10.3978C38.7353 10.6736 39.8466 12.7789 40.0949 13.1922C40.3432 13.6054 40.5384 14.3858 40.6182 15.0421Z" stroke="black" stroke-width="6" stroke-linecap="round" mask="url(#path-1-outside-1_340_370)"/>
<path d="M7.77951 90.6269C8.67531 89.97 9.95123 88.8779 10.8869 88.4526C10.972 88.4526 10.8869 87.3468 10.972 86.4112C11.0524 85.5267 11.5592 83.9756 12.2029 83.2545C13.5381 81.7591 14.7596 80.2257 16.4395 79.0803C17.941 78.0566 20.8753 76.3532 22.5403 77.1394C22.7105 77.2198 22.7955 75.6934 22.8806 75.0129C23.0283 73.8312 23.4362 71.8962 23.7312 71.5254C24.2272 70.5897 25.2169 69.3114 25.9428 68.3781C27.1337 66.847 28.0694 65.7412 29.4303 64.6354C30.21 63.7082 32.9677 62.0358 34.1087 61.4881C36.2353 60.4674 38.2069 59.5557 40.9987 59.2765C42.7 59.1064 46.0955 59.2122 47.8036 59.4466C51.822 59.9982 54.9641 62.0807 58.011 64.4653C59.9675 65.9964 61.2434 67.5275 62.5193 69.3988C63.455 70.7712 64.3907 72.2059 64.6458 73.3117C65.2197 75.7982 64.6458 76.0336 65.4965 75.5233C66.8574 75.0129 68.8753 74.354 70.345 74.1623C72.3014 73.9071 71.8945 73.9071 73.9176 73.9071C75.9407 73.9071 77.5752 74.7192 79.1063 75.2681C81.6923 76.1951 83.0511 77.4309 84.8676 79.0828L84.9756 79.1809C86.1664 80.712 87.0652 82.7923 87.6975 84.1145C88.0868 84.9284 88.6264 86.3261 88.8033 87.4319C89.1436 89.5584 89.1515 89.4472 90.6747 88.9032L90.7906 88.8618C92.8223 88.1359 94.0787 87.6871 96.2888 87.6871C98.0329 87.6871 100.031 88.1974 101.988 89.3032C103.264 90.0244 105.883 93.1813 106.326 94.0667C107.072 95.5593 107.772 102.403 106.666 104.614C104.872 108.203 104.199 109.548 100.372 111.249C95.4381 113.035 81.3823 112.695 76.4465 112.695C72.3556 112.695 32.9147 112.962 28.8349 112.962C26.6244 112.741 23.3116 112.986 21.0943 112.962C18.8846 112.938 17.7362 113.059 15.5153 112.962C11.815 112.801 8.13681 111.228 5.55741 108.528C3.71056 106.596 2.94517 102.996 3.00304 100.45C3.0579 98.0359 4.10541 95.3385 5.43281 93.3474L5.46322 93.3018C6.18953 92.2122 6.73628 91.392 7.77951 90.6269Z" fill="#CBDCEF" stroke="black" stroke-width="5" stroke-linecap="round"/>
</svg>
