<svg width="1183" height="1666" viewBox="0 0 1183 1666" fill="none" xmlns="http://www.w3.org/2000/svg">
<path d="M764.563 828.805C765.608 826.398 769.021 826.398 770.066 828.805L773.437 836.565C773.886 837.598 774.876 838.293 776.001 838.363L784.567 838.9C787.329 839.074 788.404 842.577 786.213 844.269L779.991 849.075C779.031 849.817 778.612 851.065 778.931 852.237L780.973 859.741C781.677 862.328 778.891 864.469 776.572 863.123L768.821 858.624C767.889 858.083 766.74 858.083 765.809 858.624L758.057 863.123C755.738 864.469 752.953 862.328 753.657 859.741L755.699 852.237C756.017 851.065 755.599 849.817 754.638 849.075L748.416 844.269C746.226 842.577 747.3 839.074 750.062 838.9L758.629 838.363C759.753 838.293 760.744 837.598 761.193 836.565L764.563 828.805Z" fill="#F8D566" fill-opacity="0.2"/>
<path d="M1019.56 719.805C1020.61 717.398 1024.02 717.398 1025.07 719.805L1028.44 727.565C1028.89 728.598 1029.88 729.293 1031 729.363L1039.57 729.9C1042.33 730.074 1043.4 733.577 1041.21 735.269L1034.99 740.075C1034.03 740.817 1033.61 742.065 1033.93 743.237L1035.97 750.741C1036.68 753.328 1033.89 755.469 1031.57 754.123L1023.82 749.624C1022.89 749.083 1021.74 749.083 1020.81 749.624L1013.06 754.123C1010.74 755.469 1007.95 753.328 1008.66 750.741L1010.7 743.237C1011.02 742.065 1010.6 740.817 1009.64 740.075L1003.42 735.269C1001.23 733.577 1002.3 730.074 1005.06 729.9L1013.63 729.363C1014.75 729.293 1015.74 728.598 1016.19 727.565L1019.56 719.805Z" fill="#F8D566" fill-opacity="0.2"/>
<path d="M575.563 666.805C576.608 664.398 580.021 664.398 581.066 666.805L584.437 674.565C584.886 675.598 585.876 676.293 587.001 676.363L595.567 676.9C598.329 677.074 599.404 680.577 597.213 682.269L590.991 687.075C590.031 687.817 589.612 689.065 589.931 690.237L591.973 697.741C592.677 700.328 589.891 702.469 587.572 701.123L579.821 696.624C578.889 696.083 577.74 696.083 576.809 696.624L569.057 701.123C566.738 702.469 563.953 700.328 564.657 697.741L566.699 690.237C567.017 689.065 566.599 687.817 565.638 687.075L559.416 682.269C557.226 680.577 558.3 677.074 561.062 676.9L569.629 676.363C570.753 676.293 571.744 675.598 572.193 674.565L575.563 666.805Z" fill="#F8D566" fill-opacity="0.2"/>
<path d="M386.563 501.805C387.608 499.398 391.021 499.398 392.066 501.805L395.437 509.565C395.886 510.598 396.876 511.293 398.001 511.363L406.567 511.9C409.329 512.074 410.404 515.577 408.213 517.269L401.991 522.075C401.031 522.817 400.612 524.065 400.931 525.237L402.973 532.741C403.677 535.328 400.891 537.469 398.572 536.123L390.821 531.624C389.889 531.083 388.74 531.083 387.809 531.624L380.057 536.123C377.738 537.469 374.953 535.328 375.657 532.741L377.699 525.237C378.017 524.065 377.599 522.817 376.638 522.075L370.416 517.269C368.226 515.577 369.3 512.074 372.062 511.9L380.629 511.363C381.753 511.293 382.744 510.598 383.193 509.565L386.563 501.805Z" fill="#F8D566" fill-opacity="0.2"/>
<path d="M830.563 519.805C831.608 517.398 835.021 517.398 836.066 519.805L839.437 527.565C839.886 528.598 840.876 529.293 842.001 529.363L850.567 529.9C853.329 530.074 854.404 533.577 852.213 535.269L845.991 540.075C845.031 540.817 844.612 542.065 844.931 543.237L846.973 550.741C847.677 553.328 844.891 555.469 842.572 554.123L834.821 549.624C833.889 549.083 832.74 549.083 831.809 549.624L824.057 554.123C821.738 555.469 818.953 553.328 819.657 550.741L821.699 543.237C822.017 542.065 821.599 540.817 820.638 540.075L814.416 535.269C812.226 533.577 813.3 530.074 816.062 529.9L824.629 529.363C825.753 529.293 826.744 528.598 827.193 527.565L830.563 519.805Z" fill="#F8D566" fill-opacity="0.2"/>
<path d="M82.563 559.805C83.6082 557.398 87.021 557.398 88.0663 559.805L91.4367 567.565C91.8857 568.598 92.876 569.293 94.0007 569.363L102.567 569.9C105.329 570.074 106.404 573.577 104.213 575.269L97.9914 580.075C97.0306 580.817 96.6118 582.065 96.9306 583.237L98.9725 590.741C99.6766 593.328 96.8911 595.469 94.5718 594.123L86.8206 589.624C85.8893 589.083 84.7399 589.083 83.8086 589.624L76.0574 594.123C73.7381 595.469 70.9526 593.328 71.6567 590.741L73.6986 583.237C74.0174 582.065 73.5986 580.817 72.6378 580.075L66.4161 575.269C64.2256 573.577 65.2998 570.074 68.0623 569.9L76.6286 569.363C77.7532 569.293 78.7436 568.598 79.1925 567.565L82.563 559.805Z" fill="#F8D566" fill-opacity="0.2"/>
<path d="M600.563 852.805C601.608 850.398 605.021 850.398 606.066 852.805L609.437 860.565C609.886 861.598 610.876 862.293 612.001 862.363L620.567 862.9C623.329 863.074 624.404 866.577 622.213 868.269L615.991 873.075C615.031 873.817 614.612 875.065 614.931 876.237L616.973 883.741C617.677 886.328 614.891 888.469 612.572 887.123L604.821 882.624C603.889 882.083 602.74 882.083 601.809 882.624L594.057 887.123C591.738 888.469 588.953 886.328 589.657 883.741L591.699 876.237C592.017 875.065 591.599 873.817 590.638 873.075L584.416 868.269C582.226 866.577 583.3 863.074 586.062 862.9L594.629 862.363C595.753 862.293 596.744 861.598 597.193 860.565L600.563 852.805Z" fill="#F8D566" fill-opacity="0.2"/>
<path d="M1159.56 522.805C1160.61 520.398 1164.02 520.398 1165.07 522.805L1168.44 530.565C1168.89 531.598 1169.88 532.293 1171 532.363L1179.57 532.9C1182.33 533.074 1183.4 536.577 1181.21 538.269L1174.99 543.075C1174.03 543.817 1173.61 545.065 1173.93 546.237L1175.97 553.741C1176.68 556.328 1173.89 558.469 1171.57 557.123L1163.82 552.624C1162.89 552.083 1161.74 552.083 1160.81 552.624L1153.06 557.123C1150.74 558.469 1147.95 556.328 1148.66 553.741L1150.7 546.237C1151.02 545.065 1150.6 543.817 1149.64 543.075L1143.42 538.269C1141.23 536.577 1142.3 533.074 1145.06 532.9L1153.63 532.363C1154.75 532.293 1155.74 531.598 1156.19 530.565L1159.56 522.805Z" fill="#F8D566" fill-opacity="0.2"/>
<path d="M995.563 546.805C996.608 544.398 1000.02 544.398 1001.07 546.805L1004.44 554.565C1004.89 555.598 1005.88 556.293 1007 556.363L1015.57 556.9C1018.33 557.074 1019.4 560.577 1017.21 562.269L1010.99 567.075C1010.03 567.817 1009.61 569.065 1009.93 570.237L1011.97 577.741C1012.68 580.328 1009.89 582.469 1007.57 581.123L999.821 576.624C998.889 576.083 997.74 576.083 996.809 576.624L989.057 581.123C986.738 582.469 983.953 580.328 984.657 577.741L986.699 570.237C987.017 569.065 986.599 567.817 985.638 567.075L979.416 562.269C977.226 560.577 978.3 557.074 981.062 556.9L989.629 556.363C990.753 556.293 991.744 555.598 992.193 554.565L995.563 546.805Z" fill="#F8D566" fill-opacity="0.2"/>
<path d="M529.563 995.805C530.608 993.398 534.021 993.398 535.066 995.805L538.437 1003.56C538.886 1004.6 539.876 1005.29 541.001 1005.36L549.567 1005.9C552.329 1006.07 553.404 1009.58 551.213 1011.27L544.991 1016.07C544.031 1016.82 543.612 1018.07 543.931 1019.24L545.973 1026.74C546.677 1029.33 543.891 1031.47 541.572 1030.12L533.821 1025.62C532.889 1025.08 531.74 1025.08 530.809 1025.62L523.057 1030.12C520.738 1031.47 517.953 1029.33 518.657 1026.74L520.699 1019.24C521.017 1018.07 520.599 1016.82 519.638 1016.07L513.416 1011.27C511.226 1009.58 512.3 1006.07 515.062 1005.9L523.629 1005.36C524.753 1005.29 525.744 1004.6 526.193 1003.56L529.563 995.805Z" fill="#F8D566" fill-opacity="0.2"/>
<path d="M682.563 1093.8C683.608 1091.4 687.021 1091.4 688.066 1093.8L691.437 1101.56C691.886 1102.6 692.876 1103.29 694.001 1103.36L702.567 1103.9C705.329 1104.07 706.404 1107.58 704.213 1109.27L697.991 1114.07C697.031 1114.82 696.612 1116.07 696.931 1117.24L698.973 1124.74C699.677 1127.33 696.891 1129.47 694.572 1128.12L686.821 1123.62C685.889 1123.08 684.74 1123.08 683.809 1123.62L676.057 1128.12C673.738 1129.47 670.953 1127.33 671.657 1124.74L673.699 1117.24C674.017 1116.07 673.599 1114.82 672.638 1114.07L666.416 1109.27C664.226 1107.58 665.3 1104.07 668.062 1103.9L676.629 1103.36C677.753 1103.29 678.744 1102.6 679.193 1101.56L682.563 1093.8Z" fill="#F8D566" fill-opacity="0.2"/>
<path d="M942.563 1093.8C943.608 1091.4 947.021 1091.4 948.066 1093.8L951.437 1101.56C951.886 1102.6 952.876 1103.29 954.001 1103.36L962.567 1103.9C965.329 1104.07 966.404 1107.58 964.213 1109.27L957.991 1114.07C957.031 1114.82 956.612 1116.07 956.931 1117.24L958.973 1124.74C959.677 1127.33 956.891 1129.47 954.572 1128.12L946.821 1123.62C945.889 1123.08 944.74 1123.08 943.809 1123.62L936.057 1128.12C933.738 1129.47 930.953 1127.33 931.657 1124.74L933.699 1117.24C934.017 1116.07 933.599 1114.82 932.638 1114.07L926.416 1109.27C924.226 1107.58 925.3 1104.07 928.062 1103.9L936.629 1103.36C937.753 1103.29 938.744 1102.6 939.193 1101.56L942.563 1093.8Z" fill="#F8D566" fill-opacity="0.2"/>
<path d="M1138.56 822.793C1139.61 820.389 1143.02 820.389 1144.07 822.793L1145.63 826.38C1146.08 827.413 1147.07 828.107 1148.19 828.177L1151.9 828.409C1154.66 828.582 1155.74 832.088 1153.54 833.779L1151.07 835.691C1150.1 836.433 1149.68 837.682 1150 838.855L1150.86 841.986C1151.56 844.573 1148.78 846.714 1146.46 845.37L1142.82 843.262C1141.89 842.722 1140.74 842.722 1139.81 843.262L1136.17 845.37C1133.85 846.714 1131.07 844.573 1131.77 841.986L1132.63 838.855C1132.95 837.682 1132.53 836.433 1131.56 835.691L1129.09 833.779C1126.89 832.088 1127.97 828.582 1130.73 828.409L1134.44 828.177C1135.56 828.107 1136.55 827.413 1137 826.38L1138.56 822.793Z" fill="#F8D566" fill-opacity="0.2"/>
<path d="M885.564 747.793C886.61 745.389 890.02 745.389 891.066 747.793L892.626 751.38C893.075 752.413 894.065 753.107 895.189 753.177L898.899 753.409C901.663 753.582 902.737 757.088 900.544 758.779L898.065 760.691C897.103 761.433 896.683 762.682 897.003 763.855L897.856 766.986C898.561 769.572 895.777 771.714 893.457 770.37L889.819 768.261C888.889 767.722 887.741 767.722 886.81 768.261L883.172 770.37C880.852 771.714 878.068 769.572 878.773 766.986L879.626 763.855C879.946 762.682 879.526 761.433 878.564 760.691L876.085 758.779C873.893 757.088 874.966 753.582 877.73 753.409L881.44 753.177C882.564 753.107 883.554 752.413 884.003 751.38L885.564 747.793Z" fill="#F8D566" fill-opacity="0.2"/>
<path d="M698.564 959.793C699.61 957.389 703.02 957.389 704.066 959.793L705.626 963.38C706.075 964.413 707.065 965.107 708.189 965.177L711.899 965.409C714.663 965.582 715.737 969.088 713.544 970.779L711.065 972.691C710.103 973.433 709.683 974.682 710.003 975.855L710.856 978.986C711.561 981.572 708.777 983.715 706.457 982.37L702.819 980.261C701.889 979.722 700.741 979.722 699.81 980.261L696.172 982.37C693.852 983.715 691.068 981.572 691.773 978.986L692.626 975.855C692.946 974.682 692.526 973.433 691.564 972.691L689.085 970.779C686.893 969.088 687.966 965.582 690.73 965.409L694.44 965.177C695.564 965.107 696.554 964.413 697.003 963.38L698.564 959.793Z" fill="#F8D566" fill-opacity="0.2"/>
<path d="M548.564 792.793C549.61 790.389 553.02 790.389 554.066 792.793L555.626 796.38C556.075 797.413 557.065 798.107 558.189 798.177L561.899 798.409C564.663 798.582 565.737 802.088 563.544 803.779L561.065 805.691C560.103 806.433 559.683 807.682 560.003 808.855L560.856 811.986C561.561 814.573 558.777 816.714 556.457 815.37L552.819 813.262C551.889 812.722 550.741 812.722 549.81 813.262L546.172 815.37C543.852 816.714 541.068 814.573 541.773 811.986L542.626 808.855C542.946 807.682 542.526 806.433 541.564 805.691L539.085 803.779C536.893 802.088 537.966 798.582 540.73 798.409L544.44 798.177C545.564 798.107 546.554 797.413 547.003 796.38L548.564 792.793Z" fill="#F8D566" fill-opacity="0.2"/>
<path d="M360.564 927.793C361.61 925.389 365.02 925.389 366.066 927.793L367.626 931.38C368.075 932.413 369.065 933.107 370.189 933.177L373.899 933.409C376.663 933.582 377.737 937.088 375.544 938.779L373.065 940.691C372.103 941.433 371.683 942.682 372.003 943.855L372.856 946.986C373.561 949.572 370.777 951.715 368.457 950.37L364.819 948.261C363.888 947.722 362.741 947.722 361.81 948.261L358.172 950.37C355.852 951.715 353.068 949.572 353.773 946.986L354.626 943.855C354.946 942.682 354.527 941.433 353.564 940.691L351.085 938.779C348.893 937.088 349.966 933.582 352.73 933.409L356.44 933.177C357.564 933.107 358.554 932.413 359.003 931.38L360.564 927.793Z" fill="#F8D566" fill-opacity="0.2"/>
<path d="M360.564 927.793C361.61 925.389 365.02 925.389 366.066 927.793L367.626 931.38C368.075 932.413 369.065 933.107 370.189 933.177L373.899 933.409C376.663 933.582 377.737 937.088 375.544 938.779L373.065 940.691C372.103 941.433 371.683 942.682 372.003 943.855L372.856 946.986C373.561 949.572 370.777 951.715 368.457 950.37L364.819 948.261C363.888 947.722 362.741 947.722 361.81 948.261L358.172 950.37C355.852 951.715 353.068 949.572 353.773 946.986L354.626 943.855C354.946 942.682 354.527 941.433 353.564 940.691L351.085 938.779C348.893 937.088 349.966 933.582 352.73 933.409L356.44 933.177C357.564 933.107 358.554 932.413 359.003 931.38L360.564 927.793Z" fill="#F8D566" fill-opacity="0.2"/>
<path d="M399.564 1086.79C400.61 1084.39 404.02 1084.39 405.066 1086.79L406.626 1090.38C407.075 1091.41 408.065 1092.11 409.189 1092.18L412.899 1092.41C415.663 1092.58 416.737 1096.09 414.544 1097.78L412.065 1099.69C411.103 1100.43 410.683 1101.68 411.003 1102.85L411.856 1105.99C412.561 1108.57 409.777 1110.71 407.457 1109.37L403.819 1107.26C402.888 1106.72 401.741 1106.72 400.81 1107.26L397.172 1109.37C394.852 1110.71 392.068 1108.57 392.773 1105.99L393.626 1102.85C393.946 1101.68 393.527 1100.43 392.564 1099.69L390.085 1097.78C387.893 1096.09 388.966 1092.58 391.73 1092.41L395.44 1092.18C396.564 1092.11 397.554 1091.41 398.003 1090.38L399.564 1086.79Z" fill="#F8D566" fill-opacity="0.2"/>
<path d="M510.564 541.793C511.61 539.389 515.02 539.389 516.066 541.793L517.626 545.38C518.075 546.413 519.065 547.107 520.189 547.177L523.899 547.409C526.663 547.582 527.737 551.088 525.544 552.779L523.065 554.691C522.103 555.433 521.683 556.682 522.003 557.855L522.856 560.986C523.561 563.572 520.777 565.715 518.457 564.37L514.819 562.261C513.889 561.722 512.741 561.722 511.81 562.261L508.172 564.37C505.852 565.714 503.068 563.572 503.773 560.986L504.626 557.855C504.946 556.682 504.526 555.433 503.564 554.691L501.085 552.779C498.893 551.088 499.966 547.582 502.73 547.409L506.44 547.177C507.564 547.107 508.554 546.413 509.003 545.38L510.564 541.793Z" fill="#F8D566" fill-opacity="0.2"/>
<path d="M687.564 595.793C688.61 593.389 692.02 593.389 693.066 595.793L694.626 599.38C695.075 600.413 696.065 601.107 697.189 601.177L700.899 601.409C703.663 601.582 704.737 605.088 702.544 606.779L700.065 608.691C699.103 609.433 698.683 610.682 699.003 611.855L699.856 614.986C700.561 617.572 697.777 619.714 695.457 618.37L691.819 616.261C690.889 615.722 689.741 615.722 688.81 616.261L685.172 618.37C682.852 619.714 680.068 617.572 680.773 614.986L681.626 611.855C681.946 610.682 681.526 609.433 680.564 608.691L678.085 606.779C675.893 605.088 676.966 601.582 679.73 601.409L683.44 601.177C684.564 601.107 685.554 600.413 686.003 599.38L687.564 595.793Z" fill="#F8D566" fill-opacity="0.2"/>
<path d="M167.564 477.793C168.61 475.389 172.02 475.389 173.066 477.793L174.626 481.38C175.075 482.413 176.065 483.107 177.189 483.177L180.899 483.409C183.663 483.582 184.737 487.088 182.544 488.779L180.065 490.691C179.103 491.433 178.683 492.682 179.003 493.855L179.856 496.986C180.561 499.572 177.777 501.715 175.457 500.37L171.819 498.261C170.888 497.722 169.741 497.722 168.81 498.261L165.172 500.37C162.852 501.715 160.068 499.572 160.773 496.986L161.626 493.855C161.946 492.682 161.527 491.433 160.564 490.691L158.085 488.779C155.893 487.088 156.966 483.582 159.73 483.409L163.44 483.177C164.564 483.107 165.554 482.413 166.003 481.38L167.564 477.793Z" fill="#F8D566" fill-opacity="0.2"/>
<path d="M50.5637 929.793C51.6096 927.389 55.0196 927.389 56.0656 929.793L57.6258 933.38C58.0751 934.413 59.0651 935.107 60.1893 935.177L63.8991 935.409C66.6629 935.582 67.7366 939.088 65.5438 940.779L63.0651 942.691C62.1027 943.433 61.6832 944.682 62.0028 945.855L62.856 948.986C63.561 951.572 60.7772 953.715 58.4574 952.37L54.8188 950.261C53.8885 949.722 52.7407 949.722 51.8104 950.261L48.1719 952.37C45.852 953.715 43.0682 951.572 43.7732 948.986L44.6264 945.855C44.946 944.682 44.5265 943.433 43.5641 942.691L41.0854 940.779C38.8926 939.088 39.9664 935.582 42.7301 935.409L46.4399 935.177C47.5641 935.107 48.5541 934.413 49.0035 933.38L50.5637 929.793Z" fill="#F8D566" fill-opacity="0.2"/>
<path d="M11.5637 691.793C12.6096 689.389 16.0196 689.389 17.0656 691.793L18.6258 695.38C19.0751 696.413 20.0651 697.107 21.1893 697.177L24.8991 697.409C27.6629 697.582 28.7366 701.088 26.5438 702.779L24.0651 704.691C23.1027 705.433 22.6832 706.682 23.0028 707.855L23.856 710.986C24.561 713.572 21.7772 715.714 19.4574 714.37L15.8188 712.261C14.8885 711.722 13.7407 711.722 12.8104 712.261L9.17187 714.37C6.85201 715.714 4.06819 713.572 4.77322 710.986L5.62642 707.855C5.946 706.682 5.52652 705.433 4.56412 704.691L2.08538 702.779C-0.107393 701.088 0.966356 697.582 3.73011 697.409L7.43991 697.177C8.56409 697.107 9.55413 696.413 10.0035 695.38L11.5637 691.793Z" fill="#F8D566" fill-opacity="0.2"/>
<path d="M408.564 614.793C409.61 612.389 413.02 612.389 414.066 614.793L415.626 618.38C416.075 619.413 417.065 620.107 418.189 620.177L421.899 620.409C424.663 620.582 425.737 624.088 423.544 625.779L421.065 627.691C420.103 628.433 419.683 629.682 420.003 630.855L420.856 633.986C421.561 636.572 418.777 638.714 416.457 637.37L412.819 635.261C411.888 634.722 410.741 634.722 409.81 635.261L406.172 637.37C403.852 638.714 401.068 636.572 401.773 633.986L402.626 630.855C402.946 629.682 402.527 628.433 401.564 627.691L399.085 625.779C396.893 624.088 397.966 620.582 400.73 620.409L404.44 620.177C405.564 620.107 406.554 619.413 407.003 618.38L408.564 614.793Z" fill="#F8D566" fill-opacity="0.2"/>
<path d="M598.564 595.793C599.61 593.389 603.02 593.389 604.066 595.793L605.626 599.38C606.075 600.413 607.065 601.107 608.189 601.177L611.899 601.409C614.663 601.582 615.737 605.088 613.544 606.779L611.065 608.691C610.103 609.433 609.683 610.682 610.003 611.855L610.856 614.986C611.561 617.572 608.777 619.714 606.457 618.37L602.819 616.261C601.889 615.722 600.741 615.722 599.81 616.261L596.172 618.37C593.852 619.714 591.068 617.572 591.773 614.986L592.626 611.855C592.946 610.682 592.526 609.433 591.564 608.691L589.085 606.779C586.893 605.088 587.966 601.582 590.73 601.409L594.44 601.177C595.564 601.107 596.554 600.413 597.003 599.38L598.564 595.793Z" fill="#F8D566" fill-opacity="0.2"/>
<path d="M321.564 740.793C322.61 738.389 326.02 738.389 327.066 740.793L328.626 744.38C329.075 745.413 330.065 746.107 331.189 746.177L334.899 746.409C337.663 746.582 338.737 750.088 336.544 751.779L334.065 753.691C333.103 754.433 332.683 755.682 333.003 756.855L333.856 759.986C334.561 762.572 331.777 764.714 329.457 763.37L325.819 761.261C324.888 760.722 323.741 760.722 322.81 761.261L319.172 763.37C316.852 764.714 314.068 762.572 314.773 759.986L315.626 756.855C315.946 755.682 315.527 754.433 314.564 753.691L312.085 751.779C309.893 750.088 310.966 746.582 313.73 746.409L317.44 746.177C318.564 746.107 319.554 745.413 320.003 744.38L321.564 740.793Z" fill="#F8D566" fill-opacity="0.2"/>
<path d="M393.562 700.816C394.607 698.407 398.022 698.407 399.067 700.816L399.107 700.908C399.536 701.898 400.483 702.563 401.559 702.63L401.906 702.652C404.427 702.81 405.407 706.005 403.41 707.55C402.535 708.228 402.156 709.375 402.446 710.444C403.104 712.867 400.505 714.906 398.334 713.644L397.822 713.346C396.89 712.804 395.739 712.804 394.807 713.346L394.295 713.644C392.124 714.906 389.525 712.867 390.183 710.444C390.474 709.375 390.095 708.228 389.219 707.55C387.222 706.005 388.203 702.81 390.723 702.652L391.07 702.63C392.146 702.563 393.093 701.898 393.522 700.908L393.562 700.816Z" fill="#F8D566" fill-opacity="0.2"/>
<path d="M796.562 656.816C797.607 654.407 801.022 654.407 802.067 656.816L802.107 656.908C802.536 657.898 803.483 658.563 804.56 658.63L804.906 658.652C807.427 658.81 808.407 662.005 806.41 663.55C805.535 664.228 805.156 665.375 805.446 666.444C806.104 668.867 803.505 670.906 801.334 669.644L800.822 669.346C799.89 668.804 798.739 668.804 797.807 669.346L797.295 669.644C795.124 670.906 792.525 668.867 793.183 666.444C793.474 665.375 793.095 664.228 792.219 663.55C790.222 662.005 791.203 658.81 793.723 658.652L794.07 658.63C795.146 658.563 796.093 657.898 796.522 656.908L796.562 656.816Z" fill="#F8D566" fill-opacity="0.2"/>
<path d="M721.562 461.816C722.607 459.407 726.022 459.407 727.067 461.816L727.107 461.908C727.536 462.898 728.483 463.563 729.56 463.63L729.906 463.652C732.427 463.81 733.407 467.005 731.41 468.55C730.535 469.228 730.156 470.375 730.446 471.444C731.104 473.867 728.505 475.906 726.334 474.644L725.822 474.346C724.89 473.804 723.739 473.804 722.807 474.346L722.295 474.644C720.124 475.906 717.525 473.867 718.183 471.444C718.474 470.375 718.095 469.228 717.219 468.55C715.222 467.005 716.203 463.81 718.723 463.652L719.07 463.63C720.146 463.563 721.093 462.898 721.522 461.908L721.562 461.816Z" fill="#F8D566" fill-opacity="0.2"/>
<path d="M891.562 1005.82C892.607 1003.41 896.022 1003.41 897.067 1005.82L897.107 1005.91C897.536 1006.9 898.483 1007.56 899.56 1007.63L899.906 1007.65C902.427 1007.81 903.407 1011.01 901.41 1012.55C900.535 1013.23 900.156 1014.38 900.446 1015.44C901.104 1017.87 898.505 1019.91 896.334 1018.64L895.822 1018.35C894.89 1017.8 893.739 1017.8 892.807 1018.35L892.295 1018.64C890.124 1019.91 887.525 1017.87 888.183 1015.44C888.474 1014.38 888.095 1013.23 887.219 1012.55C885.222 1011.01 886.203 1007.81 888.723 1007.65L889.07 1007.63C890.146 1007.56 891.093 1006.9 891.522 1005.91L891.562 1005.82Z" fill="#F8D566" fill-opacity="0.2"/>
<path d="M1056.56 944.816C1057.61 942.407 1061.02 942.407 1062.07 944.816L1062.11 944.908C1062.54 945.898 1063.48 946.563 1064.56 946.63L1064.91 946.652C1067.43 946.81 1068.41 950.005 1066.41 951.55C1065.53 952.228 1065.16 953.375 1065.45 954.444C1066.1 956.867 1063.5 958.906 1061.33 957.644L1060.82 957.346C1059.89 956.804 1058.74 956.804 1057.81 957.346L1057.3 957.644C1055.12 958.906 1052.52 956.867 1053.18 954.444C1053.47 953.375 1053.09 952.228 1052.22 951.55C1050.22 950.005 1051.2 946.81 1053.72 946.652L1054.07 946.63C1055.15 946.563 1056.09 945.898 1056.52 944.908L1056.56 944.816Z" fill="#F8D566" fill-opacity="0.2"/>
<path d="M866.564 596.793C867.61 594.389 871.02 594.389 872.066 596.793L873.626 600.38C874.075 601.413 875.065 602.107 876.189 602.177L879.899 602.409C882.663 602.582 883.737 606.088 881.544 607.779L879.065 609.691C878.103 610.433 877.683 611.682 878.003 612.855L878.856 615.986C879.561 618.572 876.777 620.714 874.457 619.37L870.819 617.261C869.889 616.722 868.741 616.722 867.81 617.261L864.172 619.37C861.852 620.714 859.068 618.572 859.773 615.986L860.626 612.855C860.946 611.682 860.526 610.433 859.564 609.691L857.085 607.779C854.893 606.088 855.966 602.582 858.73 602.409L862.44 602.177C863.564 602.107 864.554 601.413 865.003 600.38L866.564 596.793Z" fill="#F8D566" fill-opacity="0.2"/>
<path d="M726.564 713.793C727.61 711.389 731.02 711.389 732.066 713.793L733.626 717.38C734.075 718.413 735.065 719.107 736.189 719.177L739.899 719.409C742.663 719.582 743.737 723.088 741.544 724.779L739.065 726.691C738.103 727.433 737.683 728.682 738.003 729.855L738.856 732.986C739.561 735.572 736.777 737.714 734.457 736.37L730.819 734.261C729.889 733.722 728.741 733.722 727.81 734.261L724.172 736.37C721.852 737.714 719.068 735.572 719.773 732.986L720.626 729.855C720.946 728.682 720.526 727.433 719.564 726.691L717.085 724.779C714.893 723.088 715.966 719.582 718.73 719.409L722.44 719.177C723.564 719.107 724.554 718.413 725.003 717.38L726.564 713.793Z" fill="#F8D566" fill-opacity="0.2"/>
<path d="M1146.56 981.805C1147.61 979.398 1151.02 979.398 1152.07 981.805L1155.44 989.564C1155.89 990.598 1156.88 991.293 1158 991.363L1166.57 991.9C1169.33 992.074 1170.4 995.577 1168.21 997.269L1161.99 1002.07C1161.03 1002.82 1160.61 1004.07 1160.93 1005.24L1162.97 1012.74C1163.68 1015.33 1160.89 1017.47 1158.57 1016.12L1150.82 1011.62C1149.89 1011.08 1148.74 1011.08 1147.81 1011.62L1140.06 1016.12C1137.74 1017.47 1134.95 1015.33 1135.66 1012.74L1137.7 1005.24C1138.02 1004.07 1137.6 1002.82 1136.64 1002.07L1130.42 997.269C1128.23 995.577 1129.3 992.074 1132.06 991.9L1140.63 991.363C1141.75 991.293 1142.74 990.598 1143.19 989.564L1146.56 981.805Z" fill="#F8D566" fill-opacity="0.2"/>
<path d="M917.563 927.805C918.608 925.398 922.021 925.398 923.066 927.805L926.437 935.564C926.886 936.598 927.876 937.293 929.001 937.363L937.567 937.9C940.329 938.074 941.404 941.577 939.213 943.269L932.991 948.075C932.031 948.817 931.612 950.065 931.931 951.237L933.973 958.741C934.677 961.328 931.891 963.469 929.572 962.123L921.821 957.624C920.889 957.083 919.74 957.083 918.809 957.624L911.057 962.123C908.738 963.469 905.953 961.328 906.657 958.741L908.699 951.237C909.017 950.065 908.599 948.817 907.638 948.075L901.416 943.269C899.226 941.577 900.3 938.074 903.062 937.9L911.629 937.363C912.753 937.293 913.744 936.598 914.193 935.564L917.563 927.805Z" fill="#F8D566" fill-opacity="0.2"/>
<path d="M251.563 667.805C252.608 665.398 256.021 665.398 257.066 667.805L260.437 675.565C260.886 676.598 261.876 677.293 263.001 677.363L271.567 677.9C274.329 678.074 275.404 681.577 273.213 683.269L266.991 688.075C266.031 688.817 265.612 690.065 265.931 691.237L267.973 698.741C268.677 701.328 265.891 703.469 263.572 702.123L255.821 697.624C254.889 697.083 253.74 697.083 252.809 697.624L245.057 702.123C242.738 703.469 239.953 701.328 240.657 698.741L242.699 691.237C243.017 690.065 242.599 688.817 241.638 688.075L235.416 683.269C233.226 681.577 234.3 678.074 237.062 677.9L245.629 677.363C246.753 677.293 247.744 676.598 248.193 675.565L251.563 667.805Z" fill="#F8D566" fill-opacity="0.2"/>
<path d="M144.563 828.805C145.608 826.398 149.021 826.398 150.066 828.805L153.437 836.565C153.886 837.598 154.876 838.293 156.001 838.363L164.567 838.9C167.329 839.074 168.404 842.577 166.213 844.269L159.991 849.075C159.031 849.817 158.612 851.065 158.931 852.237L160.973 859.741C161.677 862.328 158.891 864.469 156.572 863.123L148.821 858.624C147.889 858.083 146.74 858.083 145.809 858.624L138.057 863.123C135.738 864.469 132.953 862.328 133.657 859.741L135.699 852.237C136.017 851.065 135.599 849.817 134.638 849.075L128.416 844.269C126.226 842.577 127.3 839.074 130.062 838.9L138.629 838.363C139.753 838.293 140.744 837.598 141.193 836.565L144.563 828.805Z" fill="#F8D566" fill-opacity="0.2"/>
<path d="M251.563 995.805C252.608 993.398 256.021 993.398 257.066 995.805L260.437 1003.56C260.886 1004.6 261.876 1005.29 263.001 1005.36L271.567 1005.9C274.329 1006.07 275.404 1009.58 273.213 1011.27L266.991 1016.07C266.031 1016.82 265.612 1018.07 265.931 1019.24L267.973 1026.74C268.677 1029.33 265.891 1031.47 263.572 1030.12L255.821 1025.62C254.889 1025.08 253.74 1025.08 252.809 1025.62L245.057 1030.12C242.738 1031.47 239.953 1029.33 240.657 1026.74L242.699 1019.24C243.017 1018.07 242.599 1016.82 241.638 1016.07L235.416 1011.27C233.226 1009.58 234.3 1006.07 237.062 1005.9L245.629 1005.36C246.753 1005.29 247.744 1004.6 248.193 1003.56L251.563 995.805Z" fill="#F8D566" fill-opacity="0.2"/>
<path d="M408.563 812.805C409.608 810.398 413.021 810.398 414.066 812.805L417.437 820.565C417.886 821.598 418.876 822.293 420.001 822.363L428.567 822.9C431.329 823.074 432.404 826.577 430.213 828.269L423.991 833.075C423.031 833.817 422.612 835.065 422.931 836.237L424.973 843.741C425.677 846.328 422.891 848.469 420.572 847.123L412.821 842.624C411.889 842.083 410.74 842.083 409.809 842.624L402.057 847.123C399.738 848.469 396.953 846.328 397.657 843.741L399.699 836.237C400.017 835.065 399.599 833.817 398.638 833.075L392.416 828.269C390.226 826.577 391.3 823.074 394.062 822.9L402.629 822.363C403.753 822.293 404.744 821.598 405.193 820.565L408.563 812.805Z" fill="#F8D566" fill-opacity="0.2"/>
<path d="M507.815 903.97C507.815 908.664 504.009 912.47 499.315 912.47C494.62 912.47 490.815 908.664 490.815 903.97C490.815 899.275 494.62 895.47 499.315 895.47C504.009 895.47 507.815 899.275 507.815 903.97Z" fill="#F8D566" fill-opacity="0.2"/>
<path d="M193.815 1103.97C193.815 1108.66 190.009 1112.47 185.315 1112.47C180.62 1112.47 176.815 1108.66 176.815 1103.97C176.815 1099.28 180.62 1095.47 185.315 1095.47C190.009 1095.47 193.815 1099.28 193.815 1103.97Z" fill="#F8D566" fill-opacity="0.2"/>
<path d="M254.815 858.97C254.815 863.664 251.009 867.47 246.315 867.47C241.62 867.47 237.815 863.664 237.815 858.97C237.815 854.275 241.62 850.47 246.315 850.47C251.009 850.47 254.815 854.275 254.815 858.97Z" fill="#F8D566" fill-opacity="0.2"/>
<path d="M890.815 854.97C890.815 859.664 887.009 863.47 882.315 863.47C877.62 863.47 873.815 859.664 873.815 854.97C873.815 850.275 877.62 846.47 882.315 846.47C887.009 846.47 890.815 850.275 890.815 854.97Z" fill="#F8D566" fill-opacity="0.2"/>
<path d="M510.815 651.97C510.815 656.664 507.009 660.47 502.315 660.47C497.62 660.47 493.815 656.664 493.815 651.97C493.815 647.275 497.62 643.47 502.315 643.47C507.009 643.47 510.815 647.275 510.815 651.97Z" fill="#F8D566" fill-opacity="0.2"/>
<path d="M628.815 519.97C628.815 524.664 625.009 528.47 620.315 528.47C615.62 528.47 611.815 524.664 611.815 519.97C611.815 515.275 615.62 511.47 620.315 511.47C625.009 511.47 628.815 515.275 628.815 519.97Z" fill="#F8D566" fill-opacity="0.2"/>
<path d="M288.815 562.97C288.815 567.664 285.009 571.47 280.315 571.47C275.62 571.47 271.815 567.664 271.815 562.97C271.815 558.275 275.62 554.47 280.315 554.47C285.009 554.47 288.815 558.275 288.815 562.97Z" fill="#F8D566" fill-opacity="0.2"/>
<path d="M150.815 746.97C150.815 751.664 147.009 755.47 142.315 755.47C137.62 755.47 133.815 751.664 133.815 746.97C133.815 742.275 137.62 738.47 142.315 738.47C147.009 738.47 150.815 742.275 150.815 746.97Z" fill="#F8D566" fill-opacity="0.2"/>
<path d="M150.815 970.97C150.815 975.664 147.009 979.47 142.315 979.47C137.62 979.47 133.815 975.664 133.815 970.97C133.815 966.275 137.62 962.47 142.315 962.47C147.009 962.47 150.815 966.275 150.815 970.97Z" fill="#F8D566" fill-opacity="0.2"/>
<path d="M765.815 1008.97C765.815 1013.66 762.009 1017.47 757.315 1017.47C752.62 1017.47 748.815 1013.66 748.815 1008.97C748.815 1004.28 752.62 1000.47 757.315 1000.47C762.009 1000.47 765.815 1004.28 765.815 1008.97Z" fill="#F8D566" fill-opacity="0.2"/>
<path d="M995.815 875.97C995.815 880.664 992.009 884.47 987.315 884.47C982.62 884.47 978.815 880.664 978.815 875.97C978.815 871.275 982.62 867.47 987.315 867.47C992.009 867.47 995.815 871.275 995.815 875.97Z" fill="#F8D566" fill-opacity="0.2"/>
<path d="M1159.56 690.816C1160.61 688.407 1164.02 688.407 1165.07 690.816L1165.11 690.908C1165.54 691.898 1166.48 692.563 1167.56 692.63L1167.91 692.652C1170.43 692.81 1171.41 696.005 1169.41 697.55C1168.53 698.228 1168.16 699.375 1168.45 700.444C1169.1 702.867 1166.5 704.906 1164.33 703.644L1163.82 703.346C1162.89 702.804 1161.74 702.804 1160.81 703.346L1160.3 703.644C1158.12 704.906 1155.52 702.867 1156.18 700.444C1156.47 699.375 1156.09 698.228 1155.22 697.55C1153.22 696.005 1154.2 692.81 1156.72 692.652L1157.07 692.63C1158.15 692.563 1159.09 691.898 1159.52 690.908L1159.56 690.816Z" fill="#F8D566" fill-opacity="0.2"/>
<path d="M1098.81 621.97C1098.81 626.664 1095.01 630.47 1090.31 630.47C1085.62 630.47 1081.81 626.664 1081.81 621.97C1081.81 617.275 1085.62 613.47 1090.31 613.47C1095.01 613.47 1098.81 617.275 1098.81 621.97Z" fill="#F8D566" fill-opacity="0.2"/>
<path d="M935.815 695.97C935.815 700.664 932.009 704.47 927.315 704.47C922.62 704.47 918.815 700.664 918.815 695.97C918.815 691.275 922.62 687.47 927.315 687.47C932.009 687.47 935.815 691.275 935.815 695.97Z" fill="#F8D566" fill-opacity="0.2"/>
<path d="M995.815 467.97C995.815 472.664 992.009 476.47 987.315 476.47C982.62 476.47 978.815 472.664 978.815 467.97C978.815 463.275 982.62 459.47 987.315 459.47C992.009 459.47 995.815 463.275 995.815 467.97Z" fill="#F8D566" fill-opacity="0.2"/>
<path d="M418.734 1366.27C417.689 1363.87 414.276 1363.87 413.231 1366.27L409.86 1374.03C409.411 1375.07 408.421 1375.76 407.296 1375.83L398.73 1376.37C395.968 1376.54 394.893 1380.05 397.084 1381.74L403.305 1386.54C404.266 1387.29 404.685 1388.53 404.366 1389.71L402.324 1397.21C401.62 1399.8 404.406 1401.94 406.725 1400.59L414.476 1396.09C415.407 1395.55 416.557 1395.55 417.488 1396.09L425.239 1400.59C427.559 1401.94 430.344 1399.8 429.64 1397.21L427.598 1389.71C427.279 1388.53 427.698 1387.29 428.659 1386.54L434.881 1381.74C437.071 1380.05 435.997 1376.54 433.235 1376.37L424.668 1375.83C423.544 1375.76 422.553 1375.07 422.104 1374.03L418.734 1366.27Z" fill="#F8D566" fill-opacity="0.2"/>
<path d="M163.734 1257.27C162.689 1254.87 159.276 1254.87 158.231 1257.27L154.86 1265.03C154.411 1266.07 153.421 1266.76 152.296 1266.83L143.73 1267.37C140.968 1267.54 139.893 1271.05 142.084 1272.74L148.305 1277.54C149.266 1278.29 149.685 1279.53 149.366 1280.71L147.324 1288.21C146.62 1290.8 149.406 1292.94 151.725 1291.59L159.476 1287.09C160.407 1286.55 161.557 1286.55 162.488 1287.09L170.239 1291.59C172.559 1292.94 175.344 1290.8 174.64 1288.21L172.598 1280.71C172.279 1279.53 172.698 1278.29 173.659 1277.54L179.881 1272.74C182.071 1271.05 180.997 1267.54 178.235 1267.37L169.668 1266.83C168.544 1266.76 167.553 1266.07 167.104 1265.03L163.734 1257.27Z" fill="#F8D566" fill-opacity="0.2"/>
<path d="M607.734 1204.27C606.689 1201.87 603.276 1201.87 602.231 1204.27L598.86 1212.03C598.411 1213.07 597.421 1213.76 596.296 1213.83L587.73 1214.37C584.968 1214.54 583.893 1218.05 586.084 1219.74L592.305 1224.54C593.266 1225.29 593.685 1226.53 593.366 1227.71L591.324 1235.21C590.62 1237.8 593.406 1239.94 595.725 1238.59L603.476 1234.09C604.407 1233.55 605.557 1233.55 606.488 1234.09L614.239 1238.59C616.559 1239.94 619.344 1237.8 618.64 1235.21L616.598 1227.71C616.279 1226.53 616.698 1225.29 617.659 1224.54L623.881 1219.74C626.071 1218.05 624.997 1214.54 622.235 1214.37L613.668 1213.83C612.544 1213.76 611.553 1213.07 611.104 1212.03L607.734 1204.27Z" fill="#F8D566" fill-opacity="0.2"/>
<path d="M1100.73 1097.27C1099.69 1094.87 1096.28 1094.87 1095.23 1097.27L1091.86 1105.03C1091.41 1106.07 1090.42 1106.76 1089.3 1106.83L1080.73 1107.37C1077.97 1107.54 1076.89 1111.05 1079.08 1112.74L1085.31 1117.54C1086.27 1118.29 1086.68 1119.53 1086.37 1120.71L1084.32 1128.21C1083.62 1130.8 1086.41 1132.94 1088.73 1131.59L1096.48 1127.09C1097.41 1126.55 1098.56 1126.55 1099.49 1127.09L1107.24 1131.59C1109.56 1132.94 1112.34 1130.8 1111.64 1128.21L1109.6 1120.71C1109.28 1119.53 1109.7 1118.29 1110.66 1117.54L1116.88 1112.74C1119.07 1111.05 1118 1107.54 1115.23 1107.37L1106.67 1106.83C1105.54 1106.76 1104.55 1106.07 1104.1 1105.03L1100.73 1097.27Z" fill="#F8D566" fill-opacity="0.2"/>
<path d="M582.734 1390.27C581.689 1387.87 578.276 1387.87 577.231 1390.27L573.86 1398.03C573.411 1399.07 572.421 1399.76 571.296 1399.83L562.73 1400.37C559.968 1400.54 558.893 1404.05 561.084 1405.74L567.305 1410.54C568.266 1411.29 568.685 1412.53 568.366 1413.71L566.324 1421.21C565.62 1423.8 568.406 1425.94 570.725 1424.59L578.476 1420.09C579.407 1419.55 580.557 1419.55 581.488 1420.09L589.239 1424.59C591.559 1425.94 594.344 1423.8 593.64 1421.21L591.598 1413.71C591.279 1412.53 591.698 1411.29 592.659 1410.54L598.881 1405.74C601.071 1404.05 599.997 1400.54 597.235 1400.37L588.668 1399.83C587.544 1399.76 586.553 1399.07 586.104 1398.03L582.734 1390.27Z" fill="#F8D566" fill-opacity="0.2"/>
<path d="M23.7339 1060.27C22.6886 1057.87 19.2758 1057.87 18.2306 1060.27L14.8602 1068.03C14.4113 1069.07 13.4209 1069.76 12.2963 1069.83L3.72998 1070.37C0.967514 1070.54 -0.106742 1074.05 2.08374 1075.74L8.30542 1080.54C9.26625 1081.29 9.68499 1082.53 9.36621 1083.71L7.32434 1091.21C6.62024 1093.8 9.4058 1095.94 11.7251 1094.59L19.4763 1090.09C20.4076 1089.55 21.557 1089.55 22.4883 1090.09L30.2395 1094.59C32.5588 1095.94 35.3442 1093.8 34.6401 1091.21L32.5983 1083.71C32.2795 1082.53 32.6982 1081.29 33.6591 1080.54L39.8809 1075.74C42.0713 1074.05 40.9971 1070.54 38.2346 1070.37L29.6683 1069.83C28.5436 1069.76 27.5533 1069.07 27.1044 1068.03L23.7339 1060.27Z" fill="#F8D566" fill-opacity="0.2"/>
<path d="M187.734 1084.27C186.689 1081.87 183.276 1081.87 182.231 1084.27L178.86 1092.03C178.411 1093.07 177.421 1093.76 176.296 1093.83L167.73 1094.37C164.968 1094.54 163.893 1098.05 166.084 1099.74L172.305 1104.54C173.266 1105.29 173.685 1106.53 173.366 1107.71L171.324 1115.21C170.62 1117.8 173.406 1119.94 175.725 1118.59L183.476 1114.09C184.407 1113.55 185.557 1113.55 186.488 1114.09L194.239 1118.59C196.559 1119.94 199.344 1117.8 198.64 1115.21L196.598 1107.71C196.279 1106.53 196.698 1105.29 197.659 1104.54L203.881 1099.74C206.071 1098.05 204.997 1094.54 202.235 1094.37L193.668 1093.83C192.544 1093.76 191.553 1093.07 191.104 1092.03L187.734 1084.27Z" fill="#F8D566" fill-opacity="0.2"/>
<path d="M653.734 1533.27C652.689 1530.87 649.276 1530.87 648.231 1533.27L644.86 1541.03C644.411 1542.07 643.421 1542.76 642.296 1542.83L633.73 1543.37C630.968 1543.54 629.893 1547.05 632.084 1548.74L638.305 1553.54C639.266 1554.29 639.685 1555.53 639.366 1556.71L637.324 1564.21C636.62 1566.8 639.406 1568.94 641.725 1567.59L649.476 1563.09C650.407 1562.55 651.557 1562.55 652.488 1563.09L660.239 1567.59C662.559 1568.94 665.344 1566.8 664.64 1564.21L662.598 1556.71C662.279 1555.53 662.698 1554.29 663.659 1553.54L669.881 1548.74C672.071 1547.05 670.997 1543.54 668.235 1543.37L659.668 1542.83C658.544 1542.76 657.553 1542.07 657.104 1541.03L653.734 1533.27Z" fill="#F8D566" fill-opacity="0.2"/>
<path d="M500.734 1631.27C499.689 1628.87 496.276 1628.87 495.231 1631.27L491.86 1639.03C491.411 1640.07 490.421 1640.76 489.296 1640.83L480.73 1641.37C477.968 1641.54 476.893 1645.05 479.084 1646.74L485.305 1651.54C486.266 1652.29 486.685 1653.53 486.366 1654.71L484.324 1662.21C483.62 1664.8 486.406 1666.94 488.725 1665.59L496.476 1661.09C497.407 1660.55 498.557 1660.55 499.488 1661.09L507.239 1665.59C509.559 1666.94 512.344 1664.8 511.64 1662.21L509.598 1654.71C509.279 1653.53 509.698 1652.29 510.659 1651.54L516.881 1646.74C519.071 1645.05 517.997 1641.54 515.235 1641.37L506.668 1640.83C505.544 1640.76 504.553 1640.07 504.104 1639.03L500.734 1631.27Z" fill="#F8D566" fill-opacity="0.2"/>
<path d="M240.734 1631.27C239.689 1628.87 236.276 1628.87 235.231 1631.27L231.86 1639.03C231.411 1640.07 230.421 1640.76 229.296 1640.83L220.73 1641.37C217.968 1641.54 216.893 1645.05 219.084 1646.74L225.305 1651.54C226.266 1652.29 226.685 1653.53 226.366 1654.71L224.324 1662.21C223.62 1664.8 226.406 1666.94 228.725 1665.59L236.476 1661.09C237.407 1660.55 238.557 1660.55 239.488 1661.09L247.239 1665.59C249.559 1666.94 252.344 1664.8 251.64 1662.21L249.598 1654.71C249.28 1653.53 249.698 1652.29 250.659 1651.54L256.881 1646.74C259.071 1645.05 257.997 1641.54 255.235 1641.37L246.668 1640.83C245.544 1640.76 244.553 1640.07 244.104 1639.03L240.734 1631.27Z" fill="#F8D566" fill-opacity="0.2"/>
<path d="M44.7333 1360.26C43.6873 1357.86 40.2773 1357.86 39.2313 1360.26L37.6711 1363.85C37.2218 1364.88 36.2317 1365.58 35.1075 1365.65L31.3977 1365.88C28.634 1366.05 27.5603 1369.56 29.7531 1371.25L32.2318 1373.16C33.1942 1373.9 33.6136 1375.15 33.2941 1376.32L32.4409 1379.46C31.7359 1382.04 34.5196 1384.18 36.8395 1382.84L40.478 1380.73C41.4084 1380.19 42.5561 1380.19 43.4865 1380.73L47.125 1382.84C49.4449 1384.18 52.2287 1382.04 51.5237 1379.46L50.6704 1376.32C50.3508 1375.15 50.7704 1373.9 51.7328 1373.16L54.2115 1371.25C56.4043 1369.56 55.3305 1366.05 52.5668 1365.88L48.8569 1365.65C47.7328 1365.58 46.7428 1364.88 46.2935 1363.85L44.7333 1360.26Z" fill="#F8D566" fill-opacity="0.2"/>
<path d="M297.733 1285.26C296.687 1282.86 293.277 1282.86 292.231 1285.26L290.671 1288.85C290.222 1289.88 289.232 1290.58 288.108 1290.65L284.398 1290.88C281.634 1291.05 280.56 1294.56 282.753 1296.25L285.232 1298.16C286.194 1298.9 286.614 1300.15 286.294 1301.32L285.441 1304.46C284.736 1307.04 287.52 1309.18 289.84 1307.84L293.478 1305.73C294.408 1305.19 295.556 1305.19 296.486 1305.73L300.125 1307.84C302.445 1309.18 305.229 1307.04 304.524 1304.46L303.67 1301.32C303.351 1300.15 303.77 1298.9 304.733 1298.16L307.211 1296.25C309.404 1294.56 308.331 1291.05 305.567 1290.88L301.857 1290.65C300.733 1290.58 299.743 1289.88 299.293 1288.85L297.733 1285.26Z" fill="#F8D566" fill-opacity="0.2"/>
<path d="M484.733 1497.26C483.687 1494.86 480.277 1494.86 479.231 1497.26L477.671 1500.85C477.222 1501.88 476.232 1502.58 475.108 1502.65L471.398 1502.88C468.634 1503.05 467.56 1506.56 469.753 1508.25L472.232 1510.16C473.194 1510.9 473.614 1512.15 473.294 1513.32L472.441 1516.46C471.736 1519.04 474.52 1521.18 476.84 1519.84L480.478 1517.73C481.408 1517.19 482.556 1517.19 483.486 1517.73L487.125 1519.84C489.445 1521.18 492.229 1519.04 491.524 1516.46L490.67 1513.32C490.351 1512.15 490.77 1510.9 491.733 1510.16L494.211 1508.25C496.404 1506.56 495.331 1503.05 492.567 1502.88L488.857 1502.65C487.733 1502.58 486.743 1501.88 486.293 1500.85L484.733 1497.26Z" fill="#F8D566" fill-opacity="0.2"/>
<path d="M634.733 1330.26C633.687 1327.86 630.277 1327.86 629.231 1330.26L627.671 1333.85C627.222 1334.88 626.232 1335.58 625.108 1335.65L621.398 1335.88C618.634 1336.05 617.56 1339.56 619.753 1341.25L622.232 1343.16C623.194 1343.9 623.614 1345.15 623.294 1346.32L622.441 1349.46C621.736 1352.04 624.52 1354.18 626.84 1352.84L630.478 1350.73C631.408 1350.19 632.556 1350.19 633.486 1350.73L637.125 1352.84C639.445 1354.18 642.229 1352.04 641.524 1349.46L640.67 1346.32C640.351 1345.15 640.77 1343.9 641.733 1343.16L644.211 1341.25C646.404 1339.56 645.331 1336.05 642.567 1335.88L638.857 1335.65C637.733 1335.58 636.743 1334.88 636.293 1333.85L634.733 1330.26Z" fill="#F8D566" fill-opacity="0.2"/>
<path d="M822.733 1465.26C821.687 1462.86 818.277 1462.86 817.231 1465.26L815.671 1468.85C815.222 1469.88 814.232 1470.58 813.108 1470.65L809.398 1470.88C806.634 1471.05 805.56 1474.56 807.753 1476.25L810.232 1478.16C811.194 1478.9 811.614 1480.15 811.294 1481.32L810.441 1484.46C809.736 1487.04 812.52 1489.18 814.839 1487.84L818.478 1485.73C819.408 1485.19 820.556 1485.19 821.486 1485.73L825.125 1487.84C827.445 1489.18 830.229 1487.04 829.524 1484.46L828.67 1481.32C828.351 1480.15 828.77 1478.9 829.733 1478.16L832.211 1476.25C834.404 1474.56 833.331 1471.05 830.567 1470.88L826.857 1470.65C825.733 1470.58 824.743 1469.88 824.293 1468.85L822.733 1465.26Z" fill="#F8D566" fill-opacity="0.2"/>
<path d="M822.733 1465.26C821.687 1462.86 818.277 1462.86 817.231 1465.26L815.671 1468.85C815.222 1469.88 814.232 1470.58 813.108 1470.65L809.398 1470.88C806.634 1471.05 805.56 1474.56 807.753 1476.25L810.232 1478.16C811.194 1478.9 811.614 1480.15 811.294 1481.32L810.441 1484.46C809.736 1487.04 812.52 1489.18 814.839 1487.84L818.478 1485.73C819.408 1485.19 820.556 1485.19 821.486 1485.73L825.125 1487.84C827.445 1489.18 830.229 1487.04 829.524 1484.46L828.67 1481.32C828.351 1480.15 828.77 1478.9 829.733 1478.16L832.211 1476.25C834.404 1474.56 833.331 1471.05 830.567 1470.88L826.857 1470.65C825.733 1470.58 824.743 1469.88 824.293 1468.85L822.733 1465.26Z" fill="#F8D566" fill-opacity="0.2"/>
<path d="M783.733 1624.26C782.687 1621.86 779.277 1621.86 778.231 1624.26L776.671 1627.85C776.222 1628.88 775.232 1629.58 774.108 1629.65L770.398 1629.88C767.634 1630.05 766.56 1633.56 768.753 1635.25L771.232 1637.16C772.194 1637.9 772.614 1639.15 772.294 1640.32L771.441 1643.46C770.736 1646.04 773.52 1648.18 775.839 1646.84L779.478 1644.73C780.408 1644.19 781.556 1644.19 782.486 1644.73L786.125 1646.84C788.445 1648.18 791.229 1646.04 790.524 1643.46L789.67 1640.32C789.351 1639.15 789.77 1637.9 790.733 1637.16L793.211 1635.25C795.404 1633.56 794.331 1630.05 791.567 1629.88L787.857 1629.65C786.733 1629.58 785.743 1628.88 785.293 1627.85L783.733 1624.26Z" fill="#F8D566" fill-opacity="0.2"/>
<path d="M495.733 1133.26C494.687 1130.86 491.277 1130.86 490.231 1133.26L488.671 1136.85C488.222 1137.88 487.232 1138.58 486.108 1138.65L482.398 1138.88C479.634 1139.05 478.56 1142.56 480.753 1144.25L483.232 1146.16C484.194 1146.9 484.614 1148.15 484.294 1149.32L483.441 1152.46C482.736 1155.04 485.52 1157.18 487.84 1155.84L491.478 1153.73C492.408 1153.19 493.556 1153.19 494.486 1153.73L498.125 1155.84C500.445 1157.18 503.229 1155.04 502.524 1152.46L501.67 1149.32C501.351 1148.15 501.77 1146.9 502.733 1146.16L505.211 1144.25C507.404 1142.56 506.331 1139.05 503.567 1138.88L499.857 1138.65C498.733 1138.58 497.743 1137.88 497.293 1136.85L495.733 1133.26Z" fill="#F8D566" fill-opacity="0.2"/>
<path d="M1132.73 1467.26C1131.69 1464.86 1128.28 1464.86 1127.23 1467.26L1125.67 1470.85C1125.22 1471.88 1124.23 1472.58 1123.11 1472.65L1119.4 1472.88C1116.63 1473.05 1115.56 1476.56 1117.75 1478.25L1120.23 1480.16C1121.19 1480.9 1121.61 1482.15 1121.29 1483.32L1120.44 1486.46C1119.74 1489.04 1122.52 1491.18 1124.84 1489.84L1128.48 1487.73C1129.41 1487.19 1130.56 1487.19 1131.49 1487.73L1135.12 1489.84C1137.44 1491.18 1140.23 1489.04 1139.52 1486.46L1138.67 1483.32C1138.35 1482.15 1138.77 1480.9 1139.73 1480.16L1142.21 1478.25C1144.4 1476.56 1143.33 1473.05 1140.57 1472.88L1136.86 1472.65C1135.73 1472.58 1134.74 1471.88 1134.29 1470.85L1132.73 1467.26Z" fill="#F8D566" fill-opacity="0.2"/>
<path d="M1171.73 1229.26C1170.69 1226.86 1167.28 1226.86 1166.23 1229.26L1164.67 1232.85C1164.22 1233.88 1163.23 1234.58 1162.11 1234.65L1158.4 1234.88C1155.63 1235.05 1154.56 1238.56 1156.75 1240.25L1159.23 1242.16C1160.19 1242.9 1160.61 1244.15 1160.29 1245.32L1159.44 1248.46C1158.74 1251.04 1161.52 1253.18 1163.84 1251.84L1167.48 1249.73C1168.41 1249.19 1169.56 1249.19 1170.49 1249.73L1174.12 1251.84C1176.44 1253.18 1179.23 1251.04 1178.52 1248.46L1177.67 1245.32C1177.35 1244.15 1177.77 1242.9 1178.73 1242.16L1181.21 1240.25C1183.4 1238.56 1182.33 1235.05 1179.57 1234.88L1175.86 1234.65C1174.73 1234.58 1173.74 1233.88 1173.29 1232.85L1171.73 1229.26Z" fill="#F8D566" fill-opacity="0.2"/>
<path d="M774.733 1152.26C773.687 1149.86 770.277 1149.86 769.231 1152.26L767.671 1155.85C767.222 1156.88 766.232 1157.58 765.108 1157.65L761.398 1157.88C758.634 1158.05 757.56 1161.56 759.753 1163.25L762.232 1165.16C763.194 1165.9 763.614 1167.15 763.294 1168.32L762.441 1171.46C761.736 1174.04 764.52 1176.18 766.839 1174.84L770.478 1172.73C771.408 1172.19 772.556 1172.19 773.486 1172.73L777.125 1174.84C779.445 1176.18 782.229 1174.04 781.524 1171.46L780.67 1168.32C780.351 1167.15 780.77 1165.9 781.733 1165.16L784.211 1163.25C786.404 1161.56 785.331 1158.05 782.567 1157.88L778.857 1157.65C777.733 1157.58 776.743 1156.88 776.293 1155.85L774.733 1152.26Z" fill="#F8D566" fill-opacity="0.2"/>
<path d="M861.733 1278.26C860.687 1275.86 857.277 1275.86 856.231 1278.26L854.671 1281.85C854.222 1282.88 853.232 1283.58 852.108 1283.65L848.398 1283.88C845.634 1284.05 844.56 1287.56 846.753 1289.25L849.232 1291.16C850.194 1291.9 850.614 1293.15 850.294 1294.32L849.441 1297.46C848.736 1300.04 851.52 1302.18 853.839 1300.84L857.478 1298.73C858.408 1298.19 859.556 1298.19 860.486 1298.73L864.125 1300.84C866.445 1302.18 869.229 1300.04 868.524 1297.46L867.67 1294.32C867.351 1293.15 867.77 1291.9 868.733 1291.16L871.211 1289.25C873.404 1287.56 872.331 1284.05 869.567 1283.88L865.857 1283.65C864.733 1283.58 863.743 1282.88 863.293 1281.85L861.733 1278.26Z" fill="#F8D566" fill-opacity="0.2"/>
<path d="M789.735 1238.29C788.69 1235.88 785.275 1235.88 784.23 1238.29L784.19 1238.38C783.761 1239.37 782.813 1240.03 781.737 1240.1L781.39 1240.12C778.87 1240.28 777.889 1243.48 779.887 1245.02C780.762 1245.7 781.141 1246.85 780.851 1247.91C780.193 1250.34 782.792 1252.38 784.963 1251.11L785.475 1250.82C786.407 1250.27 787.558 1250.27 788.49 1250.82L789.002 1251.11C791.172 1252.38 793.772 1250.34 793.114 1247.91C792.823 1246.85 793.202 1245.7 794.078 1245.02C796.075 1243.48 795.094 1240.28 792.574 1240.12L792.227 1240.1C791.151 1240.03 790.204 1239.37 789.775 1238.38L789.735 1238.29Z" fill="#F8D566" fill-opacity="0.2"/>
<path d="M386.735 1194.29C385.69 1191.88 382.275 1191.88 381.23 1194.29L381.19 1194.38C380.761 1195.37 379.813 1196.03 378.737 1196.1L378.391 1196.12C375.87 1196.28 374.889 1199.48 376.887 1201.02C377.762 1201.7 378.141 1202.85 377.851 1203.91C377.193 1206.34 379.792 1208.38 381.963 1207.11L382.475 1206.82C383.407 1206.27 384.558 1206.27 385.49 1206.82L386.002 1207.11C388.172 1208.38 390.772 1206.34 390.114 1203.91C389.823 1202.85 390.202 1201.7 391.078 1201.02C393.075 1199.48 392.094 1196.28 389.574 1196.12L389.227 1196.1C388.151 1196.03 387.204 1195.37 386.775 1194.38L386.735 1194.29Z" fill="#F8D566" fill-opacity="0.2"/>
<path d="M291.735 1543.29C290.69 1540.88 287.275 1540.88 286.23 1543.29L286.19 1543.38C285.761 1544.37 284.813 1545.03 283.737 1545.1L283.391 1545.12C280.87 1545.28 279.889 1548.48 281.887 1550.02C282.762 1550.7 283.141 1551.85 282.851 1552.91C282.193 1555.34 284.792 1557.38 286.963 1556.11L287.475 1555.82C288.407 1555.27 289.558 1555.27 290.49 1555.82L291.002 1556.11C293.172 1557.38 295.772 1555.34 295.114 1552.91C294.823 1551.85 295.202 1550.7 296.078 1550.02C298.075 1548.48 297.094 1545.28 294.574 1545.12L294.227 1545.1C293.151 1545.03 292.204 1544.37 291.775 1543.38L291.735 1543.29Z" fill="#F8D566" fill-opacity="0.2"/>
<path d="M126.735 1482.29C125.69 1479.88 122.275 1479.88 121.23 1482.29L121.19 1482.38C120.761 1483.37 119.814 1484.03 118.737 1484.1L118.391 1484.12C115.87 1484.28 114.889 1487.48 116.887 1489.02C117.762 1489.7 118.141 1490.85 117.851 1491.91C117.193 1494.34 119.792 1496.38 121.963 1495.11L122.475 1494.82C123.407 1494.27 124.558 1494.27 125.49 1494.82L126.002 1495.11C128.172 1496.38 130.772 1494.34 130.114 1491.91C129.823 1490.85 130.202 1489.7 131.078 1489.02C133.075 1487.48 132.094 1484.28 129.574 1484.12L129.227 1484.1C128.151 1484.03 127.204 1483.37 126.775 1482.38L126.735 1482.29Z" fill="#F8D566" fill-opacity="0.2"/>
<path d="M316.733 1134.26C315.687 1131.86 312.277 1131.86 311.231 1134.26L309.671 1137.85C309.222 1138.88 308.232 1139.58 307.108 1139.65L303.398 1139.88C300.634 1140.05 299.56 1143.56 301.753 1145.25L304.232 1147.16C305.194 1147.9 305.614 1149.15 305.294 1150.32L304.441 1153.46C303.736 1156.04 306.52 1158.18 308.84 1156.84L312.478 1154.73C313.408 1154.19 314.556 1154.19 315.486 1154.73L319.125 1156.84C321.445 1158.18 324.229 1156.04 323.524 1153.46L322.67 1150.32C322.351 1149.15 322.77 1147.9 323.733 1147.16L326.211 1145.25C328.404 1143.56 327.331 1140.05 324.567 1139.88L320.857 1139.65C319.733 1139.58 318.743 1138.88 318.293 1137.85L316.733 1134.26Z" fill="#F8D566" fill-opacity="0.2"/>
<path d="M456.733 1251.26C455.687 1248.86 452.277 1248.86 451.231 1251.26L449.671 1254.85C449.222 1255.88 448.232 1256.58 447.108 1256.65L443.398 1256.88C440.634 1257.05 439.56 1260.56 441.753 1262.25L444.232 1264.16C445.194 1264.9 445.614 1266.15 445.294 1267.32L444.441 1270.46C443.736 1273.04 446.52 1275.18 448.84 1273.84L452.478 1271.73C453.408 1271.19 454.556 1271.19 455.486 1271.73L459.125 1273.84C461.445 1275.18 464.229 1273.04 463.524 1270.46L462.67 1267.32C462.351 1266.15 462.77 1264.9 463.733 1264.16L466.211 1262.25C468.404 1260.56 467.331 1257.05 464.567 1256.88L460.857 1256.65C459.733 1256.58 458.743 1255.88 458.293 1254.85L456.733 1251.26Z" fill="#F8D566" fill-opacity="0.2"/>
<path d="M36.7339 1519.27C35.6886 1516.87 32.2758 1516.87 31.2306 1519.27L27.8602 1527.03C27.4113 1528.07 26.4209 1528.76 25.2963 1528.83L16.73 1529.37C13.9675 1529.54 12.8933 1533.05 15.0837 1534.74L21.3054 1539.54C22.2663 1540.29 22.685 1541.53 22.3662 1542.71L20.3243 1550.21C19.6202 1552.8 22.4058 1554.94 24.7251 1553.59L32.4763 1549.09C33.4076 1548.55 34.557 1548.55 35.4883 1549.09L43.2395 1553.59C45.5588 1554.94 48.3442 1552.8 47.6401 1550.21L45.5983 1542.71C45.2795 1541.53 45.6982 1540.29 46.6591 1539.54L52.8809 1534.74C55.0713 1533.05 53.9971 1529.54 51.2346 1529.37L42.6683 1528.83C41.5436 1528.76 40.5533 1528.07 40.1044 1527.03L36.7339 1519.27Z" fill="#F8D566" fill-opacity="0.2"/>
<path d="M265.734 1465.27C264.689 1462.87 261.276 1462.87 260.231 1465.27L256.86 1473.03C256.411 1474.07 255.421 1474.76 254.296 1474.83L245.73 1475.37C242.968 1475.54 241.893 1479.05 244.084 1480.74L250.305 1485.54C251.266 1486.29 251.685 1487.53 251.366 1488.71L249.324 1496.21C248.62 1498.8 251.406 1500.94 253.725 1499.59L261.476 1495.09C262.407 1494.55 263.557 1494.55 264.488 1495.09L272.239 1499.59C274.559 1500.94 277.344 1498.8 276.64 1496.21L274.598 1488.71C274.279 1487.53 274.698 1486.29 275.659 1485.54L281.881 1480.74C284.071 1479.05 282.997 1475.54 280.235 1475.37L271.668 1474.83C270.544 1474.76 269.553 1474.07 269.104 1473.03L265.734 1465.27Z" fill="#F8D566" fill-opacity="0.2"/>
<path d="M931.734 1205.27C930.689 1202.87 927.276 1202.87 926.231 1205.27L922.86 1213.03C922.411 1214.07 921.421 1214.76 920.296 1214.83L911.73 1215.37C908.967 1215.54 907.893 1219.05 910.084 1220.74L916.305 1225.54C917.266 1226.29 917.685 1227.53 917.366 1228.71L915.324 1236.21C914.62 1238.8 917.406 1240.94 919.725 1239.59L927.476 1235.09C928.407 1234.55 929.557 1234.55 930.488 1235.09L938.239 1239.59C940.559 1240.94 943.344 1238.8 942.64 1236.21L940.598 1228.71C940.279 1227.53 940.698 1226.29 941.659 1225.54L947.881 1220.74C950.071 1219.05 948.997 1215.54 946.235 1215.37L937.668 1214.83C936.544 1214.76 935.553 1214.07 935.104 1213.03L931.734 1205.27Z" fill="#F8D566" fill-opacity="0.2"/>
<path d="M1038.73 1366.27C1037.69 1363.87 1034.28 1363.87 1033.23 1366.27L1029.86 1374.03C1029.41 1375.07 1028.42 1375.76 1027.3 1375.83L1018.73 1376.37C1015.97 1376.54 1014.89 1380.05 1017.08 1381.74L1023.31 1386.54C1024.27 1387.29 1024.69 1388.53 1024.37 1389.71L1022.32 1397.21C1021.62 1399.8 1024.41 1401.94 1026.73 1400.59L1034.48 1396.09C1035.41 1395.55 1036.56 1395.55 1037.49 1396.09L1045.24 1400.59C1047.56 1401.94 1050.34 1399.8 1049.64 1397.21L1047.6 1389.71C1047.28 1388.53 1047.7 1387.29 1048.66 1386.54L1054.88 1381.74C1057.07 1380.05 1056 1376.54 1053.23 1376.37L1044.67 1375.83C1043.54 1375.76 1042.55 1375.07 1042.1 1374.03L1038.73 1366.27Z" fill="#F8D566" fill-opacity="0.2"/>
<path d="M931.734 1533.27C930.689 1530.87 927.276 1530.87 926.231 1533.27L922.86 1541.03C922.411 1542.07 921.421 1542.76 920.296 1542.83L911.73 1543.37C908.967 1543.54 907.893 1547.05 910.084 1548.74L916.305 1553.54C917.266 1554.29 917.685 1555.53 917.366 1556.71L915.324 1564.21C914.62 1566.8 917.406 1568.94 919.725 1567.59L927.476 1563.09C928.407 1562.55 929.557 1562.55 930.488 1563.09L938.239 1567.59C940.559 1568.94 943.344 1566.8 942.64 1564.21L940.598 1556.71C940.279 1555.53 940.698 1554.29 941.659 1553.54L947.881 1548.74C950.071 1547.05 948.997 1543.54 946.235 1543.37L937.668 1542.83C936.544 1542.76 935.553 1542.07 935.104 1541.03L931.734 1533.27Z" fill="#F8D566" fill-opacity="0.2"/>
<path d="M774.734 1350.27C773.689 1347.87 770.276 1347.87 769.231 1350.27L765.86 1358.03C765.411 1359.07 764.421 1359.76 763.296 1359.83L754.73 1360.37C751.967 1360.54 750.893 1364.05 753.084 1365.74L759.305 1370.54C760.266 1371.29 760.685 1372.53 760.366 1373.71L758.324 1381.21C757.62 1383.8 760.406 1385.94 762.725 1384.59L770.476 1380.09C771.407 1379.55 772.557 1379.55 773.488 1380.09L781.239 1384.59C783.559 1385.94 786.344 1383.8 785.64 1381.21L783.598 1373.71C783.279 1372.53 783.698 1371.29 784.659 1370.54L790.881 1365.74C793.071 1364.05 791.997 1360.54 789.235 1360.37L780.668 1359.83C779.544 1359.76 778.553 1359.07 778.104 1358.03L774.734 1350.27Z" fill="#F8D566" fill-opacity="0.2"/>
<path d="M675.482 1441.44C675.482 1446.13 679.288 1449.94 683.982 1449.94C688.677 1449.94 692.482 1446.13 692.482 1441.44C692.482 1436.75 688.677 1432.94 683.982 1432.94C679.288 1432.94 675.482 1436.75 675.482 1441.44Z" fill="#F8D566" fill-opacity="0.2"/>
<path d="M989.482 1641.44C989.482 1646.13 993.288 1649.94 997.982 1649.94C1002.68 1649.94 1006.48 1646.13 1006.48 1641.44C1006.48 1636.75 1002.68 1632.94 997.982 1632.94C993.288 1632.94 989.482 1636.75 989.482 1641.44Z" fill="#F8D566" fill-opacity="0.2"/>
<path d="M928.482 1396.44C928.482 1401.13 932.288 1404.94 936.982 1404.94C941.677 1404.94 945.482 1401.13 945.482 1396.44C945.482 1391.75 941.677 1387.94 936.982 1387.94C932.288 1387.94 928.482 1391.75 928.482 1396.44Z" fill="#F8D566" fill-opacity="0.2"/>
<path d="M292.482 1392.44C292.482 1397.13 296.288 1400.94 300.982 1400.94C305.677 1400.94 309.482 1397.13 309.482 1392.44C309.482 1387.75 305.677 1383.94 300.982 1383.94C296.288 1383.94 292.482 1387.75 292.482 1392.44Z" fill="#F8D566" fill-opacity="0.2"/>
<path d="M672.482 1189.44C672.482 1194.13 676.288 1197.94 680.982 1197.94C685.677 1197.94 689.482 1194.13 689.482 1189.44C689.482 1184.75 685.677 1180.94 680.982 1180.94C676.288 1180.94 672.482 1184.75 672.482 1189.44Z" fill="#F8D566" fill-opacity="0.2"/>
<path d="M1032.48 1284.44C1032.48 1289.13 1036.29 1292.94 1040.98 1292.94C1045.68 1292.94 1049.48 1289.13 1049.48 1284.44C1049.48 1279.75 1045.68 1275.94 1040.98 1275.94C1036.29 1275.94 1032.48 1279.75 1032.48 1284.44Z" fill="#F8D566" fill-opacity="0.2"/>
<path d="M1032.48 1508.44C1032.48 1513.13 1036.29 1516.94 1040.98 1516.94C1045.68 1516.94 1049.48 1513.13 1049.48 1508.44C1049.48 1503.75 1045.68 1499.94 1040.98 1499.94C1036.29 1499.94 1032.48 1503.75 1032.48 1508.44Z" fill="#F8D566" fill-opacity="0.2"/>
<path d="M417.482 1546.44C417.482 1551.13 421.288 1554.94 425.982 1554.94C430.677 1554.94 434.482 1551.13 434.482 1546.44C434.482 1541.75 430.677 1537.94 425.982 1537.94C421.288 1537.94 417.482 1541.75 417.482 1546.44Z" fill="#F8D566" fill-opacity="0.2"/>
<path d="M187.482 1413.44C187.482 1418.13 191.288 1421.94 195.982 1421.94C200.677 1421.94 204.482 1418.13 204.482 1413.44C204.482 1408.75 200.677 1404.94 195.982 1404.94C191.288 1404.94 187.482 1408.75 187.482 1413.44Z" fill="#F8D566" fill-opacity="0.2"/>
<path d="M23.7346 1228.29C22.6901 1225.88 19.2745 1225.88 18.23 1228.29L18.1898 1228.38C17.7608 1229.37 16.8135 1230.03 15.7374 1230.1L15.3905 1230.12C12.8703 1230.28 11.8894 1233.48 13.8866 1235.02C14.7622 1235.7 15.1412 1236.85 14.851 1237.91C14.1926 1240.34 16.7921 1242.38 18.9628 1241.11L19.4746 1240.82C20.4067 1240.27 21.5579 1240.27 22.49 1240.82L23.0017 1241.11C25.1724 1242.38 27.772 1240.34 27.1136 1237.91C26.8234 1236.85 27.2023 1235.7 28.0779 1235.02C30.0751 1233.48 29.0943 1230.28 26.5741 1230.12L26.2272 1230.1C25.1511 1230.03 24.2037 1229.37 23.7747 1228.38L23.7346 1228.29Z" fill="#F8D566" fill-opacity="0.2"/>
<path d="M84.4823 1159.44C84.4823 1164.13 88.2879 1167.94 92.9823 1167.94C97.6767 1167.94 101.482 1164.13 101.482 1159.44C101.482 1154.75 97.6767 1150.94 92.9823 1150.94C88.2879 1150.94 84.4823 1154.75 84.4823 1159.44Z" fill="#F8D566" fill-opacity="0.2"/>
<path d="M247.482 1233.44C247.482 1238.13 251.288 1241.94 255.982 1241.94C260.677 1241.94 264.482 1238.13 264.482 1233.44C264.482 1228.75 260.677 1224.94 255.982 1224.94C251.288 1224.94 247.482 1228.75 247.482 1233.44Z" fill="#F8D566" fill-opacity="0.2"/>
<path d="M585.705 1071.79C584.659 1069.39 581.249 1069.39 580.203 1071.79L578.643 1075.38C578.194 1076.41 577.204 1077.11 576.08 1077.18L572.37 1077.41C569.606 1077.58 568.532 1081.09 570.725 1082.78L573.204 1084.69C574.166 1085.43 574.586 1086.68 574.266 1087.86L573.413 1090.99C572.708 1093.57 575.492 1095.71 577.812 1094.37L581.45 1092.26C582.38 1091.72 583.528 1091.72 584.458 1092.26L588.097 1094.37C590.417 1095.71 593.201 1093.57 592.496 1090.99L591.643 1087.86C591.323 1086.68 591.742 1085.43 592.705 1084.69L595.184 1082.78C597.376 1081.09 596.303 1077.58 593.539 1077.41L589.829 1077.18C588.705 1077.11 587.715 1076.41 587.265 1075.38L585.705 1071.79Z" fill="#F8D566" fill-opacity="0.2"/>
<path d="M832.441 1090.99C832.441 1095.68 836.246 1099.49 840.941 1099.49C845.635 1099.49 849.441 1095.68 849.441 1090.99C849.441 1086.29 845.635 1082.49 840.941 1082.49C836.246 1082.49 832.441 1086.29 832.441 1090.99Z" fill="#F8D566" fill-opacity="0.2"/>
<path d="M751.661 234.805C752.707 232.398 756.119 232.398 757.165 234.805L760.535 242.565C760.984 243.598 761.974 244.293 763.099 244.363L771.665 244.9C774.428 245.074 775.502 248.577 773.312 250.269L767.09 255.075C766.129 255.817 765.71 257.065 766.029 258.237L768.071 265.741C768.775 268.328 765.99 270.469 763.67 269.123L755.919 264.624C754.988 264.083 753.838 264.083 752.907 264.624L745.156 269.123C742.837 270.469 740.051 268.328 740.755 265.741L742.797 258.237C743.116 257.065 742.697 255.817 741.736 255.075L735.515 250.269C733.324 248.577 734.398 245.074 737.161 244.9L745.727 244.363C746.852 244.293 747.842 243.598 748.291 242.565L751.661 234.805Z" fill="#F8D566" fill-opacity="0.05"/>
<path d="M562.661 72.8048C563.707 70.3984 567.119 70.3984 568.165 72.8048L571.535 80.5645C571.984 81.5981 572.974 82.293 574.099 82.3635L582.665 82.9005C585.428 83.0737 586.502 86.5767 584.312 88.2688L578.09 93.0747C577.129 93.8169 576.71 95.0651 577.029 96.2366L579.071 103.741C579.775 106.328 576.99 108.469 574.67 107.123L566.919 102.624C565.988 102.083 564.838 102.083 563.907 102.624L556.156 107.123C553.837 108.469 551.051 106.328 551.755 103.741L553.797 96.2366C554.116 95.0651 553.697 93.8169 552.736 93.0747L546.515 88.2688C544.324 86.5767 545.398 83.0737 548.161 82.9005L556.727 82.3635C557.852 82.293 558.842 81.5981 559.291 80.5645L562.661 72.8048Z" fill="#F8D566" fill-opacity="0.05"/>
<path d="M587.661 258.805C588.707 256.398 592.119 256.398 593.165 258.805L596.535 266.565C596.984 267.598 597.974 268.293 599.099 268.363L607.665 268.9C610.428 269.074 611.502 272.577 609.312 274.269L603.09 279.075C602.129 279.817 601.71 281.065 602.029 282.237L604.071 289.741C604.775 292.328 601.99 294.469 599.67 293.123L591.919 288.624C590.988 288.083 589.838 288.083 588.907 288.624L581.156 293.123C578.837 294.469 576.051 292.328 576.755 289.741L578.797 282.237C579.116 281.065 578.697 279.817 577.736 279.075L571.515 274.269C569.324 272.577 570.398 269.074 573.161 268.9L581.727 268.363C582.852 268.293 583.842 267.598 584.291 266.565L587.661 258.805Z" fill="#F8D566" fill-opacity="0.05"/>
<path d="M872.631 153.805C873.676 151.398 877.089 151.398 878.134 153.805L879.686 157.378C880.135 158.412 881.125 159.107 882.25 159.177L885.948 159.409C888.711 159.582 889.785 163.085 887.594 164.777L885.117 166.691C884.156 167.433 883.738 168.681 884.056 169.853L884.908 172.982C885.612 175.57 882.826 177.711 880.507 176.364L876.888 174.264C875.957 173.723 874.808 173.723 873.876 174.264L870.258 176.364C867.938 177.71 865.153 175.57 865.857 172.982L866.708 169.853C867.027 168.681 866.609 167.433 865.648 166.691L863.17 164.777C860.98 163.085 862.054 159.582 864.817 159.409L868.515 159.177C869.639 159.107 870.63 158.412 871.079 157.378L872.631 153.805Z" fill="#F8D566" fill-opacity="0.05"/>
<path d="M685.631 365.805C686.676 363.398 690.089 363.398 691.134 365.805L692.686 369.378C693.135 370.412 694.125 371.107 695.25 371.177L698.948 371.409C701.711 371.582 702.785 375.085 700.594 376.777L698.117 378.691C697.156 379.433 696.738 380.681 697.056 381.853L697.908 384.982C698.612 387.57 695.826 389.711 693.507 388.364L689.888 386.264C688.957 385.723 687.808 385.723 686.876 386.264L683.258 388.364C680.938 389.711 678.153 387.57 678.857 384.982L679.708 381.853C680.027 380.681 679.609 379.433 678.648 378.691L676.17 376.777C673.98 375.085 675.054 371.582 677.817 371.409L681.515 371.177C682.639 371.107 683.63 370.412 684.079 369.378L685.631 365.805Z" fill="#F8D566" fill-opacity="0.05"/>
<path d="M535.631 198.805C536.676 196.398 540.089 196.398 541.134 198.805L542.686 202.378C543.135 203.412 544.125 204.107 545.25 204.177L548.948 204.409C551.711 204.582 552.785 208.085 550.594 209.777L548.117 211.691C547.156 212.433 546.738 213.681 547.056 214.853L547.908 217.982C548.612 220.57 545.826 222.711 543.507 221.364L539.888 219.264C538.957 218.723 537.808 218.723 536.876 219.264L533.258 221.364C530.938 222.71 528.153 220.57 528.857 217.982L529.708 214.853C530.027 213.681 529.609 212.433 528.648 211.691L526.17 209.777C523.98 208.085 525.054 204.582 527.817 204.409L531.515 204.177C532.639 204.107 533.63 203.412 534.079 202.378L535.631 198.805Z" fill="#F8D566" fill-opacity="0.05"/>
<path d="M674.631 1.80481C675.676 -0.601605 679.089 -0.601605 680.134 1.80481L681.686 5.37832C682.135 6.41192 683.125 7.10675 684.25 7.17725L687.948 7.40908C690.711 7.58225 691.785 11.0853 689.594 12.7774L687.117 14.6909C686.156 15.4331 685.738 16.6813 686.056 17.8528L686.908 20.982C687.612 23.5696 684.826 25.7105 682.507 24.3643L678.888 22.2639C677.957 21.7234 676.808 21.7234 675.876 22.2639L672.258 24.3643C669.938 25.7105 667.153 23.5696 667.857 20.982L668.708 17.8528C669.027 16.6813 668.609 15.4331 667.648 14.6909L665.17 12.7774C662.98 11.0853 664.054 7.58225 666.817 7.40908L670.515 7.17725C671.639 7.10675 672.63 6.41192 673.079 5.37832L674.631 1.80481Z" fill="#F8D566" fill-opacity="0.05"/>
<path d="M395.631 20.8048C396.676 18.3984 400.089 18.3984 401.134 20.8048L402.686 24.3783C403.135 25.4119 404.126 26.1067 405.25 26.1773L408.948 26.4091C411.711 26.5823 412.785 30.0853 410.594 31.7774L408.117 33.691C407.156 34.4331 406.738 35.6813 407.056 36.8528L407.908 39.982C408.612 42.5696 405.826 44.7105 403.507 43.3643L399.888 41.2639C398.957 40.7234 397.808 40.7234 396.876 41.2639L393.258 43.3643C390.938 44.7105 388.153 42.5696 388.857 39.982L389.709 36.8528C390.027 35.6813 389.609 34.4331 388.648 33.691L386.17 31.7774C383.98 30.0853 385.054 26.5823 387.817 26.4091L391.515 26.1773C392.639 26.1067 393.63 25.4119 394.079 24.3783L395.631 20.8048Z" fill="#F8D566" fill-opacity="0.05"/>
<path d="M585.631 1.80481C586.676 -0.601605 590.089 -0.601605 591.134 1.80481L592.686 5.37832C593.135 6.41192 594.125 7.10675 595.25 7.17725L598.948 7.40908C601.711 7.58225 602.785 11.0853 600.594 12.7774L598.117 14.6909C597.156 15.4331 596.738 16.6813 597.056 17.8528L597.908 20.982C598.612 23.5696 595.826 25.7105 593.507 24.3643L589.888 22.2639C588.957 21.7234 587.808 21.7234 586.876 22.2639L583.258 24.3643C580.938 25.7105 578.153 23.5696 578.857 20.982L579.708 17.8528C580.027 16.6813 579.609 15.4331 578.648 14.6909L576.17 12.7774C573.98 11.0853 575.054 7.58225 577.817 7.40908L581.515 7.17725C582.639 7.10675 583.63 6.41192 584.079 5.37832L585.631 1.80481Z" fill="#F8D566" fill-opacity="0.05"/>
<path d="M308.631 146.805C309.676 144.398 313.089 144.398 314.134 146.805L315.686 150.378C316.135 151.412 317.126 152.107 318.25 152.177L321.948 152.409C324.711 152.582 325.785 156.085 323.594 157.777L321.117 159.691C320.156 160.433 319.738 161.681 320.056 162.853L320.908 165.982C321.612 168.57 318.826 170.711 316.507 169.364L312.888 167.264C311.957 166.723 310.808 166.723 309.876 167.264L306.258 169.364C303.938 170.71 301.153 168.57 301.857 165.982L302.709 162.853C303.027 161.681 302.609 160.433 301.648 159.691L299.17 157.777C296.98 156.085 298.054 152.582 300.817 152.409L304.515 152.177C305.639 152.107 306.63 151.412 307.079 150.378L308.631 146.805Z" fill="#F8D566" fill-opacity="0.05"/>
<path d="M380.682 106.805C381.727 104.398 385.14 104.398 386.185 106.805L386.23 106.909C386.66 107.898 387.608 108.563 388.684 108.63L389.038 108.652C391.558 108.81 392.538 112.007 390.54 113.551C389.663 114.228 389.284 115.376 389.575 116.445C390.234 118.868 387.636 120.909 385.464 119.648L384.939 119.344C384.008 118.803 382.859 118.803 381.927 119.344L381.403 119.648C379.231 120.909 376.633 118.868 377.292 116.445C377.583 115.376 377.204 114.228 376.327 113.551C374.329 112.007 375.309 108.81 377.829 108.652L378.183 108.63C379.259 108.563 380.207 107.898 380.637 106.909L380.682 106.805Z" fill="#F8D566" fill-opacity="0.05"/>
<path d="M783.682 62.8048C784.727 60.3984 788.14 60.3984 789.185 62.8048L789.23 62.9086C789.66 63.8977 790.608 64.5627 791.684 64.6301L792.038 64.6523C794.558 64.8103 795.538 68.0066 793.54 69.5505C792.663 70.2277 792.284 71.3763 792.575 72.4452C793.234 74.8679 790.636 76.9088 788.464 75.6484L787.939 75.3439C787.008 74.8034 785.859 74.8034 784.927 75.3439L784.403 75.6484C782.231 76.9088 779.633 74.8679 780.292 72.4452C780.583 71.3763 780.204 70.2277 779.327 69.5505C777.328 68.0066 778.309 64.8103 780.829 64.6523L781.183 64.6301C782.259 64.5627 783.207 63.8977 783.637 62.9086L783.682 62.8048Z" fill="#F8D566" fill-opacity="0.05"/>
<path d="M713.631 119.805C714.676 117.398 718.089 117.398 719.134 119.805L720.686 123.378C721.135 124.412 722.125 125.107 723.25 125.177L726.948 125.409C729.711 125.582 730.785 129.085 728.594 130.777L726.117 132.691C725.156 133.433 724.738 134.681 725.056 135.853L725.908 138.982C726.612 141.57 723.826 143.711 721.507 142.364L717.888 140.264C716.957 139.723 715.808 139.723 714.876 140.264L711.258 142.364C708.938 143.711 706.153 141.57 706.857 138.982L707.708 135.853C708.027 134.681 707.609 133.433 706.648 132.691L704.17 130.777C701.98 129.085 703.054 125.582 705.817 125.409L709.515 125.177C710.639 125.107 711.63 124.412 712.079 123.378L713.631 119.805Z" fill="#F8D566" fill-opacity="0.05"/>
<path d="M395.661 218.805C396.707 216.398 400.119 216.398 401.165 218.805L404.535 226.565C404.984 227.598 405.974 228.293 407.099 228.363L415.665 228.9C418.428 229.074 419.502 232.577 417.312 234.269L411.09 239.075C410.129 239.817 409.71 241.065 410.029 242.237L412.071 249.741C412.775 252.328 409.99 254.469 407.67 253.123L399.919 248.624C398.988 248.083 397.838 248.083 396.907 248.624L389.156 253.123C386.837 254.469 384.051 252.328 384.755 249.741L386.797 242.237C387.116 241.065 386.697 239.817 385.736 239.075L379.515 234.269C377.324 232.577 378.398 229.074 381.161 228.9L389.727 228.363C390.852 228.293 391.842 227.598 392.291 226.565L395.661 218.805Z" fill="#F8D566" fill-opacity="0.05"/>
<path d="M494.913 309.97C494.913 314.664 491.107 318.47 486.413 318.47C481.719 318.47 477.913 314.664 477.913 309.97C477.913 305.275 481.719 301.47 486.413 301.47C491.107 301.47 494.913 305.275 494.913 309.97Z" fill="#F8D566" fill-opacity="0.05"/>
<path d="M877.913 260.97C877.913 265.664 874.108 269.47 869.413 269.47C864.719 269.47 860.913 265.664 860.913 260.97C860.913 256.275 864.719 252.47 869.413 252.47C874.108 252.47 877.913 256.275 877.913 260.97Z" fill="#F8D566" fill-opacity="0.05"/>
<path d="M497.913 57.9698C497.913 62.6642 494.107 66.4698 489.413 66.4698C484.719 66.4698 480.913 62.6642 480.913 57.9698C480.913 53.2754 484.719 49.4698 489.413 49.4698C494.107 49.4698 497.913 53.2754 497.913 57.9698Z" fill="#F8D566" fill-opacity="0.05"/>
</svg>
