<svg width="42" height="42" viewBox="0 0 42 42" fill="none" xmlns="http://www.w3.org/2000/svg">
<path d="M20.2755 9.21507C23.4819 9.21507 26.5033 10.6365 28.7175 12.8586V12.8651C28.7175 11.7981 29.4354 10.9909 30.4277 10.9909H30.6797C32.2455 10.9909 32.5592 12.4674 32.5592 12.9334L32.5658 29.5168C32.4568 30.6036 33.6879 31.1653 34.3717 30.4671C37.0296 27.7331 40.215 16.3984 32.7167 9.83588C25.7237 3.71045 16.338 4.72238 11.3479 8.16113C6.04406 11.8256 2.65388 19.9198 5.94694 27.5271C9.54319 35.8208 19.824 38.2948 25.9429 35.8273C29.0404 34.5765 30.4684 38.7581 27.2488 40.1271C22.3965 42.1969 8.87381 41.9856 2.55806 31.0485C-1.70887 23.6604 -1.48313 10.6641 9.8385 3.93095C18.4918 -1.22324 29.9092 0.204759 36.792 7.3907C43.9845 14.91 43.5684 28.9787 36.5466 34.4479C33.3664 36.9351 28.644 34.5161 28.6781 30.8923L28.6427 29.7111C26.4285 31.9043 23.4819 33.1905 20.2755 33.1905C13.9322 33.1905 8.3475 27.6045 8.3475 21.2678C8.3475 14.8628 13.9322 9.2177 20.2755 9.2177V9.21507ZM28.2542 20.8097C28.014 16.1674 24.5687 13.3718 20.4054 13.3718H20.2479C15.4494 13.3718 12.7837 17.1518 12.7837 21.4371C12.7837 26.2421 16.0033 29.2766 20.2283 29.2766C24.9441 29.2766 28.0402 25.8261 28.266 21.7442L28.2542 20.8097Z" fill="black"/>
</svg>
