<svg width="131" height="84" viewBox="0 0 131 84" fill="none" xmlns="http://www.w3.org/2000/svg">
<path d="M88.0034 59.2466C17.5034 52.0035 55.2485 74.0904 23.0063 81.2466C12.5129 81.2466 4.00635 71.3969 4.00635 59.2466C4.00635 47.0962 5.7539 20.9153 16.2473 20.9153C26.7407 20.9153 88.0034 47.0962 88.0034 59.2466Z" fill="white"/>
<ellipse cx="66.5" cy="8.03021" rx="18.5" ry="6" fill="white"/>
<path d="M126.712 57.4697C126.856 78.0791 116.826 81.734 103.916 81.824C91.0073 81.9139 76.9472 36.9019 76.07 28.7061C74.4115 13.2116 76.2401 -5.74288 106.663 5.11755C119.572 5.02759 126.568 36.8603 126.712 57.4697Z" fill="#FFC7C2"/>
<path d="M78.863 17.6143C78.9344 27.8662 108.385 59.8935 56.5661 54.678C35.2263 52.5302 11.0809 118.559 7.59027 29.5935C7.11078 17.3729 19.681 -0.837535 49.6506 3.8747C43.6481 25.2414 78.7916 7.36253 78.863 17.6143Z" fill="#C1C6E6"/>
<path d="M52.7689 49.2003L57.3854 49.1682M72.6553 49.0617L78.6923 49.0197M80.1461 2.84235C82.2769 2.8275 97.1916 2.72357 99.3224 2.70872C101.453 2.69387 103.098 3.24454 105.369 4.08711C107.58 4.90728 108.796 5.52221 110.716 6.89091C112.951 8.48496 114.034 9.66252 115.722 11.8279C117.214 13.741 117.15 12.8834 118.955 17.1323C120.76 21.3813 130.75 44.9266 127.797 62.8828C127.382 65.4061 127.369 66.9097 126.421 69.2847C125.451 71.7151 124.675 73.0599 122.91 74.9913C120.963 77.1214 119.508 78.0551 116.902 79.2948C114.683 80.3505 113.31 80.7631 110.878 81.1124C108.681 81.4279 107.382 81.5337 105.196 81.152C103.468 80.8502 102.525 80.4805 100.925 79.7613C98.8195 78.8149 97.7254 78.0514 95.9308 76.5999C94.4059 75.3664 93.5258 74.6469 92.3549 73.0735C91.059 71.3319 90.8188 70.0539 89.8345 68.1192C88.8502 66.1844 88.689 64.8446 87.314 63.1649C86.2562 61.8726 85.5498 61.1718 84.0982 60.3462C82.3429 59.348 82.3149 59.2605 79.1167 58.9604C75.9185 58.6604 52.8382 59.1435 50.3524 59.1609C47.8665 59.1782 45.4005 62.0364 45.4005 62.0364C45.4005 62.0364 42.9908 65.2632 41.5314 67.3904C39.2025 70.7846 38.8319 73.4069 35.9114 76.3079C33.6462 78.5579 32.223 79.9547 29.1964 80.9714C27.207 81.6397 25.9712 81.6252 23.8746 81.7187C20.952 81.8491 19.2078 81.923 16.4123 81.0605C13.1393 80.0506 11.3786 78.8835 8.92268 76.4959C6.55069 74.19 5.39249 72.5328 4.25669 69.4258C3.48156 67.3054 3.52671 66.5898 3.15175 63.7514C2.77678 60.9129 1.31779 32.2966 11.3454 16.4617C12.6219 14.4459 13.2986 13.2679 14.8619 11.4653C16.4694 9.6117 17.4276 8.5629 19.4487 7.17178C21.2368 5.94102 22.3746 5.42446 24.403 4.65134C26.5402 3.83672 32.049 3.17767 34.3362 3.16168C41.4385 3.11201 42.859 3.10212 49.9614 3.0527M80.1461 2.84235C80.0219 4.92353 80.4197 6.17236 79.8281 8.17155C79.3882 9.65836 79.1731 10.6381 78.0773 11.7351C76.8031 13.0106 75.9584 13.4591 73.8283 13.5403C71.6982 13.6216 53.9419 13.6789 53.9419 13.6789C53.9419 13.6789 52.217 12.8291 51.4437 11.9207C50.4754 10.7833 50.3373 9.83417 49.9985 8.37942C49.5266 6.35338 49.5178 5.08512 49.9614 3.0527M80.1461 2.84235C68.3582 2.9245 61.7492 2.97055 49.9614 3.0527M32.3218 19.867L29.1258 19.8892L28.068 20.962L28.115 27.7092L27.4097 28.4244L21.0176 28.4689L19.6071 29.8993L19.6429 35.0434L21.0721 36.2814L27.4641 36.2369L28.1793 36.9422L28.2239 43.3342L30.3694 45.4501L34.6308 45.4204L36.7466 43.2748L36.7021 36.8828L37.4074 36.1676L43.7994 36.1231L45.2112 34.8653L45.1753 29.7211L43.745 28.3105L37.3529 28.3551L36.6377 27.6498L36.5907 20.9026L35.5179 19.8447L32.3218 19.867Z" stroke="#474747" stroke-width="4"/>
<ellipse cx="83.1853" cy="31.232" rx="4.61661" ry="4.61661" transform="rotate(-0.399268 83.1853 31.232)" fill="#474747"/>
<ellipse cx="95.3479" cy="43.9323" rx="4.61661" ry="4.61661" transform="rotate(-0.399268 95.3479 43.9323)" fill="#474747"/>
<ellipse cx="107.447" cy="31.418" rx="4.61661" ry="4.61661" transform="rotate(-0.399268 107.447 31.418)" fill="#474747"/>
<ellipse cx="95.2883" cy="19.4282" rx="4.61661" ry="4.61661" transform="rotate(-0.399268 95.2883 19.4282)" fill="#474747"/>
</svg>
