<svg width="42" height="40" viewBox="0 0 42 40" fill="none" xmlns="http://www.w3.org/2000/svg">
<path d="M21 0C18.2422 0 15.5115 0.530159 12.9636 1.56021C10.4158 2.59025 8.10079 4.10002 6.15076 6.0033C2.21249 9.84714 0 15.0605 0 20.4965C0 29.556 6.027 37.2422 14.364 39.9683C15.414 40.1322 15.75 39.4968 15.75 38.9434V35.4795C9.933 36.7093 8.694 32.733 8.694 32.733C7.728 30.3554 6.363 29.72 6.363 29.72C4.452 28.4492 6.51 28.4902 6.51 28.4902C8.61 28.6337 9.723 30.6013 9.723 30.6013C11.55 33.7168 14.637 32.7945 15.834 32.3025C16.023 30.9703 16.569 30.0684 17.157 29.556C12.495 29.0436 7.602 27.2809 7.602 19.4717C7.602 17.1966 8.4 15.3724 9.765 13.9172C9.555 13.4047 8.82 11.2731 9.975 8.50606C9.975 8.50606 11.739 7.95266 15.75 10.5967C17.409 10.1458 19.215 9.92033 21 9.92033C22.785 9.92033 24.591 10.1458 26.25 10.5967C30.261 7.95266 32.025 8.50606 32.025 8.50606C33.18 11.2731 32.445 13.4047 32.235 13.9172C33.6 15.3724 34.398 17.1966 34.398 19.4717C34.398 27.3014 29.484 29.0231 24.801 29.5355C25.557 30.1709 26.25 31.4212 26.25 33.3274V38.9434C26.25 39.4968 26.586 40.1527 27.657 39.9683C35.994 37.2217 42 29.556 42 20.4965C42 17.8049 41.4568 15.1396 40.4015 12.6529C39.3461 10.1661 37.7993 7.90658 35.8492 6.0033C33.8992 4.10002 31.5842 2.59025 29.0364 1.56021C26.4885 0.530159 23.7578 0 21 0Z" fill="black"/>
</svg>
