<svg width="1186" height="579" viewBox="0 0 1186 579" fill="none" xmlns="http://www.w3.org/2000/svg">
<path d="M769.748 369.335C770.794 366.929 774.206 366.929 775.252 369.335L778.622 377.095C779.071 378.128 780.061 378.823 781.186 378.894L789.752 379.431C792.515 379.604 793.589 383.107 791.399 384.799L785.177 389.605C784.216 390.347 783.797 391.595 784.116 392.767L786.158 400.271C786.862 402.858 784.076 404.999 781.757 403.653L774.006 399.154C773.075 398.614 771.925 398.614 770.994 399.154L763.243 403.653C760.924 404.999 758.138 402.858 758.842 400.271L760.884 392.767C761.203 391.595 760.784 390.347 759.823 389.605L753.601 384.799C751.411 383.107 752.485 379.604 755.248 379.431L763.814 378.894C764.939 378.823 765.929 378.128 766.378 377.095L769.748 369.335Z" fill="#F8D566" fill-opacity="0.05"/>
<path d="M770.207 369.534C771.051 367.591 773.747 367.531 774.706 369.353L774.793 369.534L778.163 377.294C778.654 378.425 779.701 379.208 780.911 379.369L781.154 379.393L789.721 379.93C791.951 380.069 792.861 382.813 791.256 384.267L791.093 384.403L784.871 389.209C783.82 390.021 783.326 391.351 783.574 392.641L783.634 392.898L785.676 400.402C786.244 402.491 784.083 404.231 782.19 403.317L782.008 403.221L774.257 398.722C773.238 398.131 771.996 398.093 770.949 398.61L770.743 398.722L762.992 403.221C761.12 404.307 758.883 402.667 759.278 400.604L759.324 400.402L761.366 392.898C761.715 391.617 761.308 390.256 760.332 389.378L760.129 389.209L753.907 384.403C752.139 383.037 752.924 380.255 755.067 379.951L755.279 379.93L763.846 379.393C765.076 379.315 766.168 378.598 766.731 377.516L766.837 377.294L770.207 369.534Z" stroke="#374356" stroke-opacity="0.05"/>
<path d="M1025.21 260.534C1026.05 258.591 1028.75 258.531 1029.71 260.353L1029.79 260.534L1033.16 268.294C1033.65 269.425 1034.7 270.208 1035.91 270.369L1036.15 270.393L1044.72 270.93C1046.95 271.069 1047.86 273.813 1046.26 275.267L1046.09 275.403L1039.87 280.209C1038.82 281.021 1038.33 282.351 1038.57 283.641L1038.63 283.898L1040.68 291.402C1041.24 293.491 1039.08 295.231 1037.19 294.317L1037.01 294.221L1029.26 289.722C1028.24 289.131 1027 289.093 1025.95 289.61L1025.74 289.722L1017.99 294.221C1016.12 295.307 1013.88 293.667 1014.28 291.604L1014.32 291.402L1016.37 283.898C1016.71 282.617 1016.31 281.256 1015.33 280.378L1015.13 280.209L1008.91 275.403C1007.14 274.037 1007.92 271.255 1010.07 270.951L1010.28 270.93L1018.85 270.393C1020.08 270.315 1021.17 269.598 1021.73 268.516L1021.84 268.294L1025.21 260.534Z" fill="#F8D566" stroke="#374356"/>
<path d="M580.748 207.335C581.794 204.929 585.206 204.929 586.252 207.335L589.622 215.095C590.071 216.128 591.061 216.823 592.186 216.894L600.752 217.431C603.515 217.604 604.589 221.107 602.399 222.799L596.177 227.605C595.216 228.347 594.797 229.595 595.116 230.767L597.158 238.271C597.862 240.858 595.076 242.999 592.757 241.653L585.006 237.154C584.075 236.614 582.925 236.614 581.994 237.154L574.243 241.653C571.924 242.999 569.138 240.858 569.842 238.271L571.884 230.767C572.203 229.595 571.784 228.347 570.823 227.605L564.601 222.799C562.411 221.107 563.485 217.604 566.248 217.431L574.814 216.894C575.939 216.823 576.929 216.128 577.378 215.095L580.748 207.335Z" fill="#F8D566" fill-opacity="0.05"/>
<path d="M581.207 207.534C582.051 205.591 584.747 205.531 585.706 207.353L585.793 207.534L589.163 215.294C589.654 216.425 590.701 217.208 591.911 217.369L592.154 217.393L600.721 217.93C602.951 218.069 603.861 220.813 602.256 222.267L602.093 222.403L595.871 227.209C594.82 228.021 594.326 229.351 594.574 230.641L594.634 230.898L596.676 238.402C597.244 240.491 595.083 242.231 593.19 241.317L593.008 241.221L585.257 236.722C584.238 236.131 582.996 236.093 581.949 236.61L581.743 236.722L573.992 241.221C572.12 242.307 569.883 240.667 570.278 238.604L570.324 238.402L572.366 230.898C572.715 229.617 572.308 228.256 571.332 227.378L571.129 227.209L564.907 222.403C563.139 221.037 563.924 218.255 566.067 217.951L566.279 217.93L574.846 217.393C576.076 217.315 577.168 216.598 577.731 215.516L577.837 215.294L581.207 207.534Z" stroke="#374356" stroke-opacity="0.05"/>
<path d="M392.207 42.5342C393.051 40.5914 395.747 40.5308 396.706 42.3525L396.793 42.5342L400.163 50.2939C400.654 51.4246 401.701 52.208 402.911 52.3691L403.154 52.3926L411.721 52.9297C413.951 53.0695 414.861 55.8133 413.256 57.2666L413.093 57.4033L406.871 62.209C405.82 63.0207 405.326 64.3514 405.574 65.6406L405.634 65.8984L407.676 73.4023C408.244 75.4911 406.083 77.2306 404.19 76.3174L404.008 76.2207L396.257 71.7217C395.238 71.1305 393.996 71.093 392.949 71.6104L392.743 71.7217L384.992 76.2207C383.12 77.3074 380.883 75.6674 381.278 73.6035L381.324 73.4023L383.366 65.8984C383.715 64.6171 383.308 63.2564 382.332 62.3779L382.129 62.209L375.907 57.4033C374.139 56.0373 374.924 53.2549 377.067 52.9512L377.279 52.9297L385.846 52.3926C387.076 52.3153 388.168 51.5984 388.731 50.5156L388.837 50.2939L392.207 42.5342Z" fill="#F8D566" stroke="#374356"/>
<path d="M836.207 60.5342C837.051 58.5914 839.747 58.5308 840.706 60.3525L840.793 60.5342L844.163 68.2939C844.654 69.4246 845.701 70.208 846.911 70.3691L847.154 70.3926L855.721 70.9297C857.951 71.0695 858.861 73.8133 857.256 75.2666L857.093 75.4033L850.871 80.209C849.82 81.0207 849.326 82.3514 849.574 83.6406L849.634 83.8984L851.676 91.4023C852.244 93.4911 850.083 95.2306 848.19 94.3174L848.008 94.2207L840.257 89.7217C839.238 89.1305 837.996 89.093 836.949 89.6104L836.743 89.7217L828.992 94.2207C827.12 95.3074 824.883 93.6674 825.278 91.6035L825.324 91.4023L827.366 83.8984C827.715 82.6171 827.308 81.2564 826.332 80.3779L826.129 80.209L819.907 75.4033C818.139 74.0373 818.924 71.2549 821.067 70.9512L821.279 70.9297L829.846 70.3926C831.076 70.3153 832.168 69.5984 832.731 68.5156L832.837 68.2939L836.207 60.5342Z" fill="#F8D566" stroke="#374356"/>
<path d="M88.207 100.534C89.0509 98.5914 91.7468 98.5308 92.7061 100.353L92.793 100.534L96.1631 108.294C96.6542 109.425 97.7009 110.208 98.9111 110.369L99.1543 110.393L107.721 110.93C109.951 111.069 110.861 113.813 109.256 115.267L109.093 115.403L102.871 120.209C101.82 121.021 101.326 122.351 101.574 123.641L101.634 123.898L103.676 131.402C104.244 133.491 102.083 135.231 100.19 134.317L100.008 134.221L92.2568 129.722C91.2383 129.131 89.9957 129.093 88.9492 129.61L88.7432 129.722L80.9922 134.221C79.1199 135.307 76.8832 133.667 77.2783 131.604L77.3242 131.402L79.3662 123.898C79.7149 122.617 79.308 121.256 78.332 120.378L78.1289 120.209L71.9072 115.403C70.1389 114.037 70.9236 111.255 73.0674 110.951L73.2793 110.93L81.8457 110.393C83.0756 110.315 84.1682 109.598 84.7314 108.516L84.8369 108.294L88.207 100.534Z" fill="#F8D566" stroke="#374356"/>
<path d="M605.748 393.335C606.794 390.929 610.206 390.929 611.252 393.335L614.622 401.095C615.071 402.128 616.061 402.823 617.186 402.894L625.752 403.431C628.515 403.604 629.589 407.107 627.399 408.799L621.177 413.605C620.216 414.347 619.797 415.595 620.116 416.767L622.158 424.271C622.862 426.858 620.076 428.999 617.757 427.653L610.006 423.154C609.075 422.614 607.925 422.614 606.994 423.154L599.243 427.653C596.924 428.999 594.138 426.858 594.842 424.271L596.884 416.767C597.203 415.595 596.784 414.347 595.823 413.605L589.601 408.799C587.411 407.107 588.485 403.604 591.248 403.431L599.814 402.894C600.939 402.823 601.929 402.128 602.378 401.095L605.748 393.335Z" fill="#F8D566" fill-opacity="0.05"/>
<path d="M606.207 393.534C607.051 391.591 609.747 391.531 610.706 393.353L610.793 393.534L614.163 401.294C614.654 402.425 615.701 403.208 616.911 403.369L617.154 403.393L625.721 403.93C627.951 404.069 628.861 406.813 627.256 408.267L627.093 408.403L620.871 413.209C619.82 414.021 619.326 415.351 619.574 416.641L619.634 416.898L621.676 424.402C622.244 426.491 620.083 428.231 618.19 427.317L618.008 427.221L610.257 422.722C609.238 422.131 607.996 422.093 606.949 422.61L606.743 422.722L598.992 427.221C597.12 428.307 594.883 426.667 595.278 424.604L595.324 424.402L597.366 416.898C597.715 415.617 597.308 414.256 596.332 413.378L596.129 413.209L589.907 408.403C588.139 407.037 588.924 404.255 591.067 403.951L591.279 403.93L599.846 403.393C601.076 403.315 602.168 402.598 602.731 401.516L602.837 401.294L606.207 393.534Z" stroke="#374356" stroke-opacity="0.05"/>
<path d="M535.207 536.534C536.051 534.591 538.747 534.531 539.706 536.353L539.793 536.534L543.163 544.294C543.654 545.425 544.701 546.208 545.911 546.369L546.154 546.393L554.721 546.93C556.951 547.069 557.861 549.813 556.256 551.267L556.093 551.403L549.871 556.209C548.82 557.021 548.326 558.351 548.574 559.641L548.634 559.898L550.676 567.402C551.244 569.491 549.083 571.231 547.19 570.317L547.008 570.221L539.257 565.722C538.238 565.131 536.996 565.093 535.949 565.61L535.743 565.722L527.992 570.221C526.12 571.307 523.883 569.667 524.278 567.604L524.324 567.402L526.366 559.898C526.715 558.617 526.308 557.256 525.332 556.378L525.129 556.209L518.907 551.403C517.139 550.037 517.924 547.255 520.067 546.951L520.279 546.93L528.846 546.393C530.076 546.315 531.168 545.598 531.731 544.516L531.837 544.294L535.207 536.534Z" fill="#F8D566" stroke="#374356"/>
<path d="M1144.18 363.534C1145.02 361.592 1147.72 361.531 1148.67 363.353L1148.76 363.534L1150.31 367.107C1150.81 368.238 1151.85 369.021 1153.06 369.183L1153.31 369.206L1157 369.438C1159.23 369.578 1160.14 372.322 1158.54 373.775L1158.38 373.912L1155.9 375.825C1154.85 376.637 1154.35 377.968 1154.6 379.257L1154.66 379.515L1155.51 382.644C1156.08 384.732 1153.92 386.472 1152.03 385.559L1151.84 385.462L1148.23 383.361C1147.21 382.77 1145.97 382.734 1144.92 383.251L1144.71 383.361L1141.09 385.462C1139.22 386.549 1136.98 384.909 1137.38 382.845L1137.43 382.644L1138.28 379.515C1138.63 378.233 1138.22 376.873 1137.24 375.994L1137.04 375.825L1134.56 373.912C1132.8 372.546 1133.58 369.763 1135.72 369.46L1135.93 369.438L1139.63 369.206C1140.86 369.129 1141.96 368.412 1142.52 367.329L1142.62 367.107L1144.18 363.534Z" fill="#F8D566" stroke="#374356"/>
<path d="M890.718 288.335C891.763 285.929 895.176 285.929 896.221 288.335L897.773 291.909C898.222 292.942 899.212 293.637 900.337 293.707L904.035 293.939C906.798 294.112 907.872 297.616 905.681 299.308L903.204 301.221C902.243 301.963 901.825 303.211 902.143 304.383L902.995 307.512C903.699 310.1 900.913 312.241 898.594 310.895L894.975 308.794C894.044 308.254 892.895 308.254 891.963 308.794L888.345 310.895C886.025 312.241 883.24 310.1 883.944 307.512L884.795 304.383C885.114 303.211 884.695 301.963 883.735 301.221L881.257 299.308C879.067 297.616 880.141 294.112 882.904 293.939L886.602 293.707C887.726 293.637 888.717 292.942 889.166 291.909L890.718 288.335Z" fill="#F8D566" fill-opacity="0.05"/>
<path d="M891.177 288.534C892.021 286.592 894.715 286.531 895.675 288.353L895.763 288.534L897.314 292.107C897.805 293.238 898.852 294.021 900.062 294.183L900.306 294.206L904.004 294.438C906.234 294.578 907.144 297.322 905.539 298.775L905.376 298.912L902.898 300.825C901.848 301.637 901.353 302.968 901.602 304.257L901.661 304.515L902.513 307.644C903.081 309.732 900.92 311.472 899.027 310.559L898.845 310.462L895.227 308.361C894.208 307.77 892.965 307.734 891.919 308.251L891.713 308.361L888.094 310.462C886.221 311.549 883.985 309.909 884.38 307.845L884.427 307.644L885.278 304.515C885.627 303.233 885.219 301.873 884.243 300.994L884.04 300.825L881.563 298.912C879.795 297.546 880.58 294.763 882.724 294.46L882.935 294.438L886.633 294.206C887.863 294.129 888.955 293.412 889.519 292.329L889.624 292.107L891.177 288.534Z" stroke="#374356" stroke-opacity="0.05"/>
<path d="M703.718 500.335C704.763 497.929 708.176 497.929 709.221 500.335L710.773 503.909C711.222 504.942 712.212 505.637 713.337 505.707L717.035 505.939C719.798 506.112 720.872 509.616 718.681 511.308L716.204 513.221C715.243 513.963 714.825 515.211 715.143 516.383L715.995 519.512C716.699 522.1 713.913 524.241 711.594 522.895L707.975 520.794C707.044 520.254 705.895 520.254 704.963 520.794L701.345 522.895C699.025 524.241 696.24 522.1 696.944 519.512L697.795 516.383C698.114 515.211 697.695 513.963 696.735 513.221L694.257 511.308C692.067 509.616 693.141 506.112 695.904 505.939L699.602 505.707C700.726 505.637 701.717 504.942 702.166 503.909L703.718 500.335Z" fill="#F8D566" fill-opacity="0.05"/>
<path d="M704.177 500.534C705.021 498.592 707.715 498.531 708.675 500.353L708.763 500.534L710.314 504.107C710.805 505.238 711.852 506.021 713.062 506.183L713.306 506.206L717.004 506.438C719.234 506.578 720.144 509.322 718.539 510.775L718.376 510.912L715.898 512.825C714.848 513.637 714.353 514.968 714.602 516.257L714.661 516.515L715.513 519.644C716.081 521.732 713.92 523.472 712.027 522.559L711.845 522.462L708.227 520.361C707.208 519.77 705.965 519.734 704.919 520.251L704.713 520.361L701.094 522.462C699.221 523.549 696.985 521.909 697.38 519.845L697.427 519.644L698.278 516.515C698.627 515.233 698.219 513.873 697.243 512.994L697.04 512.825L694.563 510.912C692.795 509.546 693.58 506.763 695.724 506.46L695.935 506.438L699.633 506.206C700.863 506.129 701.955 505.412 702.519 504.329L702.624 504.107L704.177 500.534Z" stroke="#374356" stroke-opacity="0.05"/>
<path d="M553.718 333.335C554.763 330.929 558.176 330.929 559.221 333.335L560.773 336.909C561.222 337.942 562.212 338.637 563.337 338.707L567.035 338.939C569.798 339.112 570.872 342.616 568.681 344.308L566.204 346.221C565.243 346.963 564.825 348.211 565.143 349.383L565.995 352.512C566.699 355.1 563.913 357.241 561.594 355.895L557.975 353.794C557.044 353.254 555.895 353.254 554.963 353.794L551.345 355.895C549.025 357.241 546.24 355.1 546.944 352.512L547.795 349.383C548.114 348.211 547.695 346.963 546.735 346.221L544.257 344.308C542.067 342.616 543.141 339.112 545.904 338.939L549.602 338.707C550.726 338.637 551.717 337.942 552.166 336.909L553.718 333.335Z" fill="#F8D566" fill-opacity="0.05"/>
<path d="M554.177 333.534C555.021 331.592 557.715 331.531 558.675 333.353L558.763 333.534L560.314 337.107C560.805 338.238 561.852 339.021 563.062 339.183L563.306 339.206L567.004 339.438C569.234 339.578 570.144 342.322 568.539 343.775L568.376 343.912L565.898 345.825C564.848 346.637 564.353 347.968 564.602 349.257L564.661 349.515L565.513 352.644C566.081 354.732 563.92 356.472 562.027 355.559L561.845 355.462L558.227 353.361C557.208 352.77 555.965 352.734 554.919 353.251L554.713 353.361L551.094 355.462C549.221 356.549 546.985 354.909 547.38 352.845L547.427 352.644L548.278 349.515C548.627 348.233 548.219 346.873 547.243 345.994L547.04 345.825L544.563 343.912C542.795 342.546 543.58 339.763 545.724 339.46L545.935 339.438L549.633 339.206C550.863 339.129 551.955 338.412 552.519 337.329L552.624 337.107L554.177 333.534Z" stroke="#374356" stroke-opacity="0.05"/>
<path d="M366.177 468.534C367.021 466.592 369.715 466.531 370.675 468.353L370.763 468.534L372.314 472.107C372.805 473.238 373.852 474.021 375.062 474.183L375.306 474.206L379.004 474.438C381.234 474.578 382.144 477.322 380.539 478.775L380.376 478.912L377.898 480.825C376.848 481.637 376.353 482.968 376.602 484.257L376.661 484.515L377.513 487.644C378.081 489.732 375.92 491.472 374.027 490.559L373.845 490.462L370.227 488.361C369.208 487.77 367.965 487.734 366.919 488.251L366.713 488.361L363.094 490.462C361.221 491.549 358.985 489.909 359.38 487.845L359.427 487.644L360.278 484.515C360.627 483.233 360.219 481.873 359.243 480.994L359.04 480.825L356.563 478.912C354.795 477.546 355.58 474.763 357.724 474.46L357.935 474.438L361.633 474.206C362.863 474.129 363.955 473.412 364.519 472.329L364.624 472.107L366.177 468.534Z" fill="#F8D566" stroke="#374356"/>
<path d="M366.177 468.534C367.021 466.592 369.715 466.531 370.675 468.353L370.763 468.534L372.314 472.107C372.805 473.238 373.852 474.021 375.062 474.183L375.306 474.206L379.004 474.438C381.234 474.578 382.144 477.322 380.539 478.775L380.376 478.912L377.898 480.825C376.848 481.637 376.353 482.968 376.602 484.257L376.661 484.515L377.513 487.644C378.081 489.732 375.92 491.472 374.027 490.559L373.845 490.462L370.227 488.361C369.208 487.77 367.965 487.734 366.919 488.251L366.713 488.361L363.094 490.462C361.221 491.549 358.985 489.909 359.38 487.845L359.427 487.644L360.278 484.515C360.627 483.233 360.219 481.873 359.243 480.994L359.04 480.825L356.563 478.912C354.795 477.546 355.58 474.763 357.724 474.46L357.935 474.438L361.633 474.206C362.863 474.129 363.955 473.412 364.519 472.329L364.624 472.107L366.177 468.534Z" fill="#F8D566" stroke="#374356"/>
<path d="M516.177 82.5342C517.021 80.5916 519.715 80.5311 520.675 82.3525L520.763 82.5342L522.314 86.1074C522.805 87.2378 523.852 88.0213 525.062 88.1826L525.306 88.2061L529.004 88.4385C531.234 88.5783 532.144 91.3221 530.539 92.7754L530.376 92.9121L527.898 94.8252C526.848 95.6369 526.353 96.9676 526.602 98.2568L526.661 98.5146L527.513 101.644C528.081 103.732 525.92 105.472 524.027 104.559L523.845 104.462L520.227 102.361C519.208 101.77 517.965 101.734 516.919 102.251L516.713 102.361L513.094 104.462C511.221 105.549 508.985 103.909 509.38 101.845L509.427 101.644L510.278 98.5146C510.627 97.2333 510.219 95.8726 509.243 94.9941L509.04 94.8252L506.563 92.9121C504.795 91.5461 505.58 88.7634 507.724 88.46L507.935 88.4385L511.633 88.2061C512.863 88.1289 513.955 87.412 514.519 86.3291L514.624 86.1074L516.177 82.5342Z" fill="#F8D566" stroke="#374356"/>
<path d="M692.718 136.335C693.763 133.929 697.176 133.929 698.221 136.335L699.773 139.909C700.222 140.942 701.212 141.637 702.337 141.707L706.035 141.939C708.798 142.112 709.872 145.616 707.681 147.308L705.204 149.221C704.243 149.963 703.825 151.211 704.143 152.383L704.995 155.512C705.699 158.1 702.913 160.241 700.594 158.895L696.975 156.794C696.044 156.254 694.895 156.254 693.963 156.794L690.345 158.895C688.025 160.241 685.24 158.1 685.944 155.512L686.795 152.383C687.114 151.211 686.695 149.963 685.735 149.221L683.257 147.308C681.067 145.616 682.141 142.112 684.904 141.939L688.602 141.707C689.726 141.637 690.717 140.942 691.166 139.909L692.718 136.335Z" fill="#F8D566" fill-opacity="0.05"/>
<path d="M693.177 136.534C694.021 134.592 696.715 134.531 697.675 136.353L697.763 136.534L699.314 140.107C699.805 141.238 700.852 142.021 702.062 142.183L702.306 142.206L706.004 142.438C708.234 142.578 709.144 145.322 707.539 146.775L707.376 146.912L704.898 148.825C703.848 149.637 703.353 150.968 703.602 152.257L703.661 152.515L704.513 155.644C705.081 157.732 702.92 159.472 701.027 158.559L700.845 158.462L697.227 156.361C696.208 155.77 694.965 155.734 693.919 156.251L693.713 156.361L690.094 158.462C688.221 159.549 685.985 157.909 686.38 155.845L686.427 155.644L687.278 152.515C687.627 151.233 687.219 149.873 686.243 148.994L686.04 148.825L683.563 146.912C681.795 145.546 682.58 142.763 684.724 142.46L684.935 142.438L688.633 142.206C689.863 142.129 690.955 141.412 691.519 140.329L691.624 140.107L693.177 136.534Z" stroke="#374356" stroke-opacity="0.05"/>
<path d="M172.718 18.335C173.763 15.9286 177.176 15.9286 178.221 18.335L179.773 21.9085C180.222 22.9421 181.212 23.637 182.337 23.7075L186.035 23.9393C188.798 24.1125 189.872 27.6155 187.681 29.3076L185.204 31.2211C184.243 31.9633 183.825 33.2115 184.143 34.383L184.995 37.5122C185.699 40.0998 182.913 42.2407 180.594 40.8945L176.975 38.7941C176.044 38.2536 174.895 38.2536 173.963 38.7941L170.345 40.8945C168.025 42.2407 165.24 40.0998 165.944 37.5122L166.795 34.383C167.114 33.2115 166.695 31.9633 165.735 31.2211L163.257 29.3076C161.067 27.6155 162.141 24.1125 164.904 23.9393L168.602 23.7075C169.726 23.637 170.717 22.9421 171.166 21.9085L172.718 18.335Z" fill="#F8D566" fill-opacity="0.05"/>
<path d="M173.177 18.5342C174.021 16.5916 176.715 16.5311 177.675 18.3525L177.763 18.5342L179.314 22.1074C179.805 23.2378 180.852 24.0213 182.062 24.1826L182.306 24.2061L186.004 24.4385C188.234 24.5783 189.144 27.3221 187.539 28.7754L187.376 28.9121L184.898 30.8252C183.848 31.6369 183.353 32.9676 183.602 34.2568L183.661 34.5146L184.513 37.6436C185.081 39.7325 182.92 41.4719 181.027 40.5586L180.845 40.4619L177.227 38.3613C176.208 37.7701 174.965 37.7336 173.919 38.251L173.713 38.3613L170.094 40.4619C168.221 41.5486 165.985 39.9086 166.38 37.8447L166.427 37.6436L167.278 34.5146C167.627 33.2333 167.219 31.8726 166.243 30.9941L166.04 30.8252L163.563 28.9121C161.795 27.5461 162.58 24.7634 164.724 24.46L164.935 24.4385L168.633 24.2061C169.863 24.1289 170.955 23.412 171.519 22.3291L171.624 22.1074L173.177 18.5342Z" stroke="#374356" stroke-opacity="0.05"/>
<path d="M56.1768 470.534C57.0207 468.592 59.7154 468.531 60.6748 470.353L60.7627 470.534L62.3145 474.107C62.8055 475.238 63.8516 476.021 65.0615 476.183L65.3057 476.206L69.0039 476.438C71.234 476.578 72.1438 479.322 70.5391 480.775L70.376 480.912L67.8984 482.825C66.8476 483.637 66.353 484.968 66.6016 486.257L66.6611 486.515L67.5127 489.644C68.081 491.732 65.9201 493.472 64.0273 492.559L63.8447 492.462L60.2266 490.361C59.208 489.77 57.9655 489.734 56.9189 490.251L56.7129 490.361L53.0938 492.462C51.2215 493.549 48.9846 491.909 49.3799 489.845L49.4268 489.644L50.2783 486.515C50.627 485.233 50.2192 483.873 49.2432 482.994L49.04 482.825L46.5635 480.912C44.795 479.546 45.5796 476.763 47.7236 476.46L47.9346 476.438L51.6328 476.206C52.8629 476.129 53.9552 475.412 54.5186 474.329L54.624 474.107L56.1768 470.534Z" fill="#F8D566" stroke="#374356"/>
<path d="M17.1768 232.534C18.0207 230.592 20.7154 230.531 21.6748 232.353L21.7627 232.534L23.3145 236.107C23.8055 237.238 24.8516 238.021 26.0615 238.183L26.3057 238.206L30.0039 238.438C32.234 238.578 33.1438 241.322 31.5391 242.775L31.376 242.912L28.8984 244.825C27.8476 245.637 27.353 246.968 27.6016 248.257L27.6611 248.515L28.5127 251.644C29.081 253.732 26.9201 255.472 25.0273 254.559L24.8447 254.462L21.2266 252.361C20.208 251.77 18.9655 251.734 17.9189 252.251L17.7129 252.361L14.0938 254.462C12.2215 255.549 9.98462 253.909 10.3799 251.845L10.4268 251.644L11.2783 248.515C11.627 247.233 11.2192 245.873 10.2432 244.994L10.04 244.825L7.56348 242.912C5.79501 241.546 6.57965 238.763 8.72363 238.46L8.93457 238.438L12.6328 238.206C13.8629 238.129 14.9552 237.412 15.5186 236.329L15.624 236.107L17.1768 232.534Z" fill="#F8D566" stroke="#374356"/>
<path d="M413.718 155.335C414.763 152.929 418.176 152.929 419.221 155.335L420.773 158.909C421.222 159.942 422.212 160.637 423.337 160.707L427.035 160.939C429.798 161.112 430.872 164.616 428.681 166.308L426.204 168.221C425.243 168.963 424.825 170.211 425.143 171.383L425.995 174.512C426.699 177.1 423.913 179.241 421.594 177.895L417.975 175.794C417.044 175.254 415.895 175.254 414.963 175.794L411.345 177.895C409.025 179.241 406.24 177.1 406.944 174.512L407.795 171.383C408.114 170.211 407.695 168.963 406.735 168.221L404.257 166.308C402.067 164.616 403.141 161.112 405.904 160.939L409.602 160.707C410.726 160.637 411.717 159.942 412.166 158.909L413.718 155.335Z" fill="#F8D566" fill-opacity="0.05"/>
<path d="M414.177 155.534C415.021 153.592 417.715 153.531 418.675 155.353L418.763 155.534L420.314 159.107C420.805 160.238 421.852 161.021 423.062 161.183L423.306 161.206L427.004 161.438C429.234 161.578 430.144 164.322 428.539 165.775L428.376 165.912L425.898 167.825C424.848 168.637 424.353 169.968 424.602 171.257L424.661 171.515L425.513 174.644C426.081 176.732 423.92 178.472 422.027 177.559L421.845 177.462L418.227 175.361C417.208 174.77 415.965 174.734 414.919 175.251L414.713 175.361L411.094 177.462C409.221 178.549 406.985 176.909 407.38 174.845L407.427 174.644L408.278 171.515C408.627 170.233 408.219 168.873 407.243 167.994L407.04 167.825L404.563 165.912C402.795 164.546 403.58 161.763 405.724 161.46L405.935 161.438L409.633 161.206C410.863 161.129 411.955 160.412 412.519 159.329L412.624 159.107L414.177 155.534Z" stroke="#374356" stroke-opacity="0.05"/>
<g opacity="0.5">
<path d="M603.718 136.335C604.763 133.929 608.176 133.929 609.221 136.335L610.773 139.909C611.222 140.942 612.212 141.637 613.337 141.707L617.035 141.939C619.798 142.112 620.872 145.616 618.681 147.308L616.204 149.221C615.243 149.963 614.825 151.211 615.143 152.383L615.995 155.512C616.699 158.1 613.913 160.241 611.594 158.895L607.975 156.794C607.044 156.254 605.895 156.254 604.963 156.794L601.345 158.895C599.025 160.241 596.24 158.1 596.944 155.512L597.795 152.383C598.114 151.211 597.695 149.963 596.735 149.221L594.257 147.308C592.067 145.616 593.141 142.112 595.904 141.939L599.602 141.707C600.726 141.637 601.717 140.942 602.166 139.909L603.718 136.335Z" fill="#F8D566" fill-opacity="0.05"/>
<path d="M604.177 136.534C605.021 134.592 607.715 134.531 608.675 136.353L608.763 136.534L610.314 140.107C610.805 141.238 611.852 142.021 613.062 142.183L613.306 142.206L617.004 142.438C619.234 142.578 620.144 145.322 618.539 146.775L618.376 146.912L615.898 148.825C614.848 149.637 614.353 150.968 614.602 152.257L614.661 152.515L615.513 155.644C616.081 157.732 613.92 159.472 612.027 158.559L611.845 158.462L608.227 156.361C607.208 155.77 605.965 155.734 604.919 156.251L604.713 156.361L601.094 158.462C599.221 159.549 596.985 157.909 597.38 155.845L597.427 155.644L598.278 152.515C598.627 151.233 598.219 149.873 597.243 148.994L597.04 148.825L594.563 146.912C592.795 145.546 593.58 142.763 595.724 142.46L595.935 142.438L599.633 142.206C600.863 142.129 601.955 141.412 602.519 140.329L602.624 140.107L604.177 136.534Z" stroke="#374356" stroke-opacity="0.05"/>
</g>
<path d="M326.718 281.335C327.763 278.929 331.176 278.929 332.221 281.335L333.773 284.909C334.222 285.942 335.212 286.637 336.337 286.707L340.035 286.939C342.798 287.112 343.872 290.616 341.681 292.308L339.204 294.221C338.243 294.963 337.825 296.211 338.143 297.383L338.995 300.512C339.699 303.1 336.913 305.241 334.594 303.895L330.975 301.794C330.044 301.254 328.895 301.254 327.963 301.794L324.345 303.895C322.025 305.241 319.24 303.1 319.944 300.512L320.795 297.383C321.114 296.211 320.695 294.963 319.735 294.221L317.257 292.308C315.067 290.616 316.141 287.112 318.904 286.939L322.602 286.707C323.726 286.637 324.717 285.942 325.166 284.909L326.718 281.335Z" fill="#F8D566" fill-opacity="0.05"/>
<path d="M327.177 281.534C328.021 279.592 330.715 279.531 331.675 281.353L331.763 281.534L333.314 285.107C333.805 286.238 334.852 287.021 336.062 287.183L336.306 287.206L340.004 287.438C342.234 287.578 343.144 290.322 341.539 291.775L341.376 291.912L338.898 293.825C337.848 294.637 337.353 295.968 337.602 297.257L337.661 297.515L338.513 300.644C339.081 302.732 336.92 304.472 335.027 303.559L334.845 303.462L331.227 301.361C330.208 300.77 328.965 300.734 327.919 301.251L327.713 301.361L324.094 303.462C322.221 304.549 319.985 302.909 320.38 300.845L320.427 300.644L321.278 297.515C321.627 296.233 321.219 294.873 320.243 293.994L320.04 293.825L317.563 291.912C315.795 290.546 316.58 287.763 318.724 287.46L318.935 287.438L322.633 287.206C323.863 287.129 324.955 286.412 325.519 285.329L325.624 285.107L327.177 281.534Z" stroke="#374356" stroke-opacity="0.05"/>
<path d="M398.769 241.335C399.814 238.929 403.227 238.929 404.272 241.335L404.317 241.439C404.747 242.428 405.694 243.093 406.771 243.16L407.125 243.183C409.645 243.341 410.625 246.537 408.627 248.081C407.75 248.758 407.371 249.907 407.661 250.975C408.321 253.398 405.723 255.439 403.551 254.179L403.026 253.874C402.095 253.334 400.946 253.334 400.014 253.874L399.49 254.179C397.318 255.439 394.72 253.398 395.379 250.975C395.67 249.907 395.291 248.758 394.414 248.081C392.415 246.537 393.396 243.341 395.916 243.183L396.27 243.16C397.346 243.093 398.294 242.428 398.724 241.439L398.769 241.335Z" fill="#F8D566" fill-opacity="0.05"/>
<path d="M399.228 241.534C400.071 239.591 402.767 239.531 403.727 241.353L403.813 241.534L403.858 241.638C404.331 242.726 405.339 243.481 406.504 243.637L406.739 243.659L407.094 243.682C409.089 243.807 409.903 246.262 408.467 247.562L408.321 247.685C407.348 248.437 406.894 249.677 407.124 250.869L407.179 251.106C407.707 253.049 405.706 254.671 403.969 253.835L403.802 253.746L403.277 253.441C402.259 252.85 401.016 252.814 399.97 253.331L399.764 253.441L399.239 253.746C397.522 254.743 395.45 253.214 395.818 251.294L395.862 251.106C396.184 249.923 395.811 248.656 394.907 247.842L394.72 247.685C393.138 246.462 393.84 243.973 395.758 243.701L395.947 243.682L396.302 243.659C397.486 243.585 398.539 242.894 399.081 241.852L399.183 241.638L399.228 241.534Z" stroke="#374356" stroke-opacity="0.05"/>
<path d="M801.769 197.335C802.814 194.929 806.227 194.929 807.272 197.335L807.317 197.439C807.747 198.428 808.694 199.093 809.771 199.16L810.125 199.183C812.645 199.341 813.625 202.537 811.627 204.081C810.75 204.758 810.371 205.907 810.661 206.975C811.321 209.398 808.723 211.439 806.551 210.179L806.026 209.874C805.095 209.334 803.946 209.334 803.014 209.874L802.49 210.179C800.318 211.439 797.72 209.398 798.379 206.975C798.67 205.907 798.291 204.758 797.414 204.081C795.415 202.537 796.396 199.341 798.916 199.183L799.27 199.16C800.346 199.093 801.294 198.428 801.724 197.439L801.769 197.335Z" fill="#F8D566" fill-opacity="0.05"/>
<path d="M802.228 197.534C803.071 195.591 805.767 195.531 806.727 197.353L806.813 197.534L806.858 197.638C807.331 198.726 808.339 199.481 809.504 199.637L809.739 199.659L810.094 199.682C812.089 199.807 812.903 202.262 811.467 203.562L811.321 203.685C810.348 204.437 809.894 205.677 810.124 206.869L810.179 207.106C810.707 209.049 808.706 210.671 806.969 209.835L806.802 209.746L806.277 209.441C805.259 208.85 804.016 208.814 802.97 209.331L802.764 209.441L802.239 209.746C800.522 210.743 798.45 209.214 798.818 207.294L798.862 207.106C799.184 205.923 798.811 204.656 797.907 203.842L797.72 203.685C796.138 202.462 796.84 199.973 798.758 199.701L798.947 199.682L799.302 199.659C800.486 199.585 801.539 198.894 802.081 197.852L802.183 197.638L802.228 197.534Z" stroke="#374356" stroke-opacity="0.05"/>
<path d="M730.228 69.5342C731.071 67.5914 733.767 67.5308 734.727 69.3525L734.813 69.5342L734.858 69.6377C735.331 70.7264 736.339 71.4813 737.504 71.6367L737.739 71.6592L738.094 71.6816C740.089 71.8071 740.903 74.262 739.467 75.5625L739.321 75.6846C738.348 76.4366 737.894 77.6771 738.124 78.8691L738.179 79.1064C738.707 81.0493 736.706 82.6712 734.969 81.835L734.802 81.7461L734.277 81.4414C733.259 80.8502 732.016 80.8136 730.97 81.3311L730.764 81.4414L730.239 81.7461C728.522 82.7427 726.45 81.2135 726.818 79.2939L726.862 79.1064C727.184 77.9232 726.811 76.6564 725.907 75.8418L725.72 75.6846C724.138 74.4621 724.84 71.9732 726.758 71.7012L726.947 71.6816L727.302 71.6592C728.486 71.5848 729.539 70.8944 730.081 69.8516L730.183 69.6377L730.228 69.5342Z" fill="#F8D566" stroke="#374356"/>
<path d="M897.228 546.534C898.071 544.591 900.767 544.531 901.727 546.353L901.813 546.534L901.858 546.638C902.331 547.726 903.339 548.481 904.504 548.637L904.739 548.659L905.094 548.682C907.089 548.807 907.903 551.262 906.467 552.562L906.321 552.685C905.348 553.437 904.894 554.677 905.124 555.869L905.179 556.106C905.707 558.049 903.706 559.671 901.969 558.835L901.802 558.746L901.277 558.441C900.259 557.85 899.016 557.814 897.97 558.331L897.764 558.441L897.239 558.746C895.522 559.743 893.45 558.214 893.818 556.294L893.862 556.106C894.184 554.923 893.811 553.656 892.907 552.842L892.72 552.685C891.138 551.462 891.84 548.973 893.758 548.701L893.947 548.682L894.302 548.659C895.486 548.585 896.539 547.894 897.081 546.852L897.183 546.638L897.228 546.534Z" fill="#F8D566" stroke="#374356"/>
<path d="M1062.23 485.534C1063.07 483.591 1065.77 483.531 1066.73 485.353L1066.81 485.534L1066.86 485.638C1067.33 486.726 1068.34 487.481 1069.5 487.637L1069.74 487.659L1070.09 487.682C1072.09 487.807 1072.9 490.262 1071.47 491.562L1071.32 491.685C1070.35 492.437 1069.89 493.677 1070.12 494.869L1070.18 495.106C1070.71 497.049 1068.71 498.671 1066.97 497.835L1066.8 497.746L1066.28 497.441C1065.26 496.85 1064.02 496.814 1062.97 497.331L1062.76 497.441L1062.24 497.746C1060.52 498.743 1058.45 497.214 1058.82 495.294L1058.86 495.106C1059.18 493.923 1058.81 492.656 1057.91 491.842L1057.72 491.685C1056.14 490.462 1056.84 487.973 1058.76 487.701L1058.95 487.682L1059.3 487.659C1060.49 487.585 1061.54 486.894 1062.08 485.852L1062.18 485.638L1062.23 485.534Z" fill="#F8D566" stroke="#374356"/>
<path d="M872.177 137.534C873.021 135.592 875.715 135.531 876.675 137.353L876.763 137.534L878.314 141.107C878.805 142.238 879.852 143.021 881.062 143.183L881.306 143.206L885.004 143.438C887.234 143.578 888.144 146.322 886.539 147.775L886.376 147.912L883.898 149.825C882.848 150.637 882.353 151.968 882.602 153.257L882.661 153.515L883.513 156.644C884.081 158.732 881.92 160.472 880.027 159.559L879.845 159.462L876.227 157.361C875.208 156.77 873.965 156.734 872.919 157.251L872.713 157.361L869.094 159.462C867.221 160.549 864.985 158.909 865.38 156.845L865.427 156.644L866.278 153.515C866.627 152.233 866.219 150.873 865.243 149.994L865.04 149.825L862.563 147.912C860.795 146.546 861.58 143.763 863.724 143.46L863.935 143.438L867.633 143.206C868.863 143.129 869.955 142.412 870.519 141.329L870.624 141.107L872.177 137.534Z" fill="#F8D566" stroke="#374356"/>
<path d="M950.177 57.5342C951.021 55.5916 953.715 55.5311 954.675 57.3525L954.763 57.5342L956.314 61.1074C956.805 62.2378 957.852 63.0213 959.062 63.1826L959.306 63.2061L963.004 63.4385C965.234 63.5783 966.144 66.3221 964.539 67.7754L964.376 67.9121L961.898 69.8252C960.848 70.6369 960.353 71.9676 960.602 73.2568L960.661 73.5146L961.513 76.6436C962.081 78.7325 959.92 80.4719 958.027 79.5586L957.845 79.4619L954.227 77.3613C953.208 76.7701 951.965 76.7336 950.919 77.251L950.713 77.3613L947.094 79.4619C945.221 80.5486 942.985 78.9086 943.38 76.8447L943.427 76.6436L944.278 73.5146C944.627 72.2333 944.219 70.8726 943.243 69.9941L943.04 69.8252L940.563 67.9121C938.795 66.5461 939.58 63.7634 941.724 63.46L941.935 63.4385L945.633 63.2061C946.863 63.1289 947.955 62.412 948.519 61.3291L948.624 61.1074L950.177 57.5342Z" fill="#F8D566" stroke="#374356"/>
<path d="M1164.18 260.534C1165.02 258.592 1167.72 258.531 1168.67 260.353L1168.76 260.534L1170.31 264.107C1170.81 265.238 1171.85 266.021 1173.06 266.183L1173.31 266.206L1177 266.438C1179.23 266.578 1180.14 269.322 1178.54 270.775L1178.38 270.912L1175.9 272.825C1174.85 273.637 1174.35 274.968 1174.6 276.257L1174.66 276.515L1175.51 279.644C1176.08 281.732 1173.92 283.472 1172.03 282.559L1171.84 282.462L1168.23 280.361C1167.21 279.77 1165.97 279.734 1164.92 280.251L1164.71 280.361L1161.09 282.462C1159.22 283.549 1156.98 281.909 1157.38 279.845L1157.43 279.644L1158.28 276.515C1158.63 275.233 1158.22 273.873 1157.24 272.994L1157.04 272.825L1154.56 270.912C1152.8 269.546 1153.58 266.763 1155.72 266.46L1155.93 266.438L1159.63 266.206C1160.86 266.129 1161.96 265.412 1162.52 264.329L1162.62 264.107L1164.18 260.534Z" fill="#F8D566" stroke="#374356"/>
<path d="M731.718 254.335C732.763 251.929 736.176 251.929 737.221 254.335L738.773 257.909C739.222 258.942 740.212 259.637 741.337 259.707L745.035 259.939C747.798 260.112 748.872 263.616 746.681 265.308L744.204 267.221C743.243 267.963 742.825 269.211 743.143 270.383L743.995 273.512C744.699 276.1 741.913 278.241 739.594 276.895L735.975 274.794C735.044 274.254 733.895 274.254 732.963 274.794L729.345 276.895C727.025 278.241 724.24 276.1 724.944 273.512L725.795 270.383C726.114 269.211 725.695 267.963 724.735 267.221L722.257 265.308C720.067 263.616 721.141 260.112 723.904 259.939L727.602 259.707C728.726 259.637 729.717 258.942 730.166 257.909L731.718 254.335Z" fill="#F8D566" fill-opacity="0.05"/>
<path d="M732.177 254.534C733.021 252.592 735.715 252.531 736.675 254.353L736.763 254.534L738.314 258.107C738.805 259.238 739.852 260.021 741.062 260.183L741.306 260.206L745.004 260.438C747.234 260.578 748.144 263.322 746.539 264.775L746.376 264.912L743.898 266.825C742.848 267.637 742.353 268.968 742.602 270.257L742.661 270.515L743.513 273.644C744.081 275.732 741.92 277.472 740.027 276.559L739.845 276.462L736.227 274.361C735.208 273.77 733.965 273.734 732.919 274.251L732.713 274.361L729.094 276.462C727.221 277.549 724.985 275.909 725.38 273.845L725.427 273.644L726.278 270.515C726.627 269.233 726.219 267.873 725.243 266.994L725.04 266.825L722.563 264.912C720.795 263.546 721.58 260.763 723.724 260.46L723.935 260.438L727.633 260.206C728.863 260.129 729.955 259.412 730.519 258.329L730.624 258.107L732.177 254.534Z" stroke="#374356" stroke-opacity="0.05"/>
<path d="M1152.21 522.534C1153.05 520.591 1155.75 520.531 1156.71 522.353L1156.79 522.534L1160.16 530.294C1160.65 531.425 1161.7 532.208 1162.91 532.369L1163.15 532.393L1171.72 532.93C1173.95 533.069 1174.86 535.813 1173.26 537.267L1173.09 537.403L1166.87 542.209C1165.82 543.021 1165.33 544.351 1165.57 545.641L1165.63 545.898L1167.68 553.402C1168.24 555.491 1166.08 557.231 1164.19 556.317L1164.01 556.221L1156.26 551.722C1155.24 551.131 1154 551.093 1152.95 551.61L1152.74 551.722L1144.99 556.221C1143.12 557.307 1140.88 555.667 1141.28 553.604L1141.32 553.402L1143.37 545.898C1143.71 544.617 1143.31 543.256 1142.33 542.378L1142.13 542.209L1135.91 537.403C1134.14 536.037 1134.92 533.255 1137.07 532.951L1137.28 532.93L1145.85 532.393C1147.08 532.315 1148.17 531.598 1148.73 530.516L1148.84 530.294L1152.21 522.534Z" fill="#F8D566" stroke="#374356"/>
<path d="M923.207 468.534C924.051 466.591 926.747 466.531 927.706 468.353L927.793 468.534L931.163 476.294C931.654 477.425 932.701 478.208 933.911 478.369L934.154 478.393L942.721 478.93C944.951 479.069 945.861 481.813 944.256 483.267L944.093 483.403L937.871 488.209C936.82 489.021 936.326 490.351 936.574 491.641L936.634 491.898L938.676 499.402C939.244 501.491 937.083 503.231 935.19 502.317L935.008 502.221L927.257 497.722C926.238 497.131 924.996 497.093 923.949 497.61L923.743 497.722L915.992 502.221C914.12 503.307 911.883 501.667 912.278 499.604L912.324 499.402L914.366 491.898C914.715 490.617 914.308 489.256 913.332 488.378L913.129 488.209L906.907 483.403C905.139 482.037 905.924 479.255 908.067 478.951L908.279 478.93L916.846 478.393C918.076 478.315 919.168 477.598 919.731 476.516L919.837 476.294L923.207 468.534Z" fill="#F8D566" stroke="#374356"/>
<path d="M257.207 208.534C258.051 206.591 260.747 206.531 261.706 208.353L261.793 208.534L265.163 216.294C265.654 217.425 266.701 218.208 267.911 218.369L268.154 218.393L276.721 218.93C278.951 219.069 279.861 221.813 278.256 223.267L278.093 223.403L271.871 228.209C270.82 229.021 270.326 230.351 270.574 231.641L270.634 231.898L272.676 239.402C273.244 241.491 271.083 243.231 269.19 242.317L269.008 242.221L261.257 237.722C260.238 237.131 258.996 237.093 257.949 237.61L257.743 237.722L249.992 242.221C248.12 243.307 245.883 241.667 246.278 239.604L246.324 239.402L248.366 231.898C248.715 230.617 248.308 229.256 247.332 228.378L247.129 228.209L240.907 223.403C239.139 222.037 239.924 219.255 242.067 218.951L242.279 218.93L250.846 218.393C252.076 218.315 253.168 217.598 253.731 216.516L253.837 216.294L257.207 208.534Z" fill="#F8D566" stroke="#374356"/>
<path d="M150.207 369.534C151.051 367.591 153.747 367.531 154.706 369.353L154.793 369.534L158.163 377.294C158.654 378.425 159.701 379.208 160.911 379.369L161.154 379.393L169.721 379.93C171.951 380.069 172.861 382.813 171.256 384.267L171.093 384.403L164.871 389.209C163.82 390.021 163.326 391.351 163.574 392.641L163.634 392.898L165.676 400.402C166.244 402.491 164.083 404.231 162.19 403.317L162.008 403.221L154.257 398.722C153.238 398.131 151.996 398.093 150.949 398.61L150.743 398.722L142.992 403.221C141.12 404.307 138.883 402.667 139.278 400.604L139.324 400.402L141.366 392.898C141.715 391.617 141.308 390.256 140.332 389.378L140.129 389.209L133.907 384.403C132.139 383.037 132.924 380.255 135.067 379.951L135.279 379.93L143.846 379.393C145.076 379.315 146.168 378.598 146.731 377.516L146.837 377.294L150.207 369.534Z" fill="#F8D566" stroke="#374356"/>
<path d="M257.207 536.534C258.051 534.591 260.747 534.531 261.706 536.353L261.793 536.534L265.163 544.294C265.654 545.425 266.701 546.208 267.911 546.369L268.154 546.393L276.721 546.93C278.951 547.069 279.861 549.813 278.256 551.267L278.093 551.403L271.871 556.209C270.82 557.021 270.326 558.351 270.574 559.641L270.634 559.898L272.676 567.402C273.244 569.491 271.083 571.231 269.19 570.317L269.008 570.221L261.257 565.722C260.238 565.131 258.996 565.093 257.949 565.61L257.743 565.722L249.992 570.221C248.12 571.307 245.883 569.667 246.278 567.604L246.324 567.402L248.366 559.898C248.715 558.617 248.308 557.256 247.332 556.378L247.129 556.209L240.907 551.403C239.139 550.037 239.924 547.255 242.067 546.951L242.279 546.93L250.846 546.393C252.076 546.315 253.168 545.598 253.731 544.516L253.837 544.294L257.207 536.534Z" fill="#F8D566" stroke="#374356"/>
<path d="M413.748 353.335C414.794 350.929 418.206 350.929 419.252 353.335L422.622 361.095C423.071 362.128 424.061 362.823 425.186 362.894L433.752 363.431C436.515 363.604 437.589 367.107 435.399 368.799L429.177 373.605C428.216 374.347 427.797 375.595 428.116 376.767L430.158 384.271C430.862 386.858 428.076 388.999 425.757 387.653L418.006 383.154C417.075 382.614 415.925 382.614 414.994 383.154L407.243 387.653C404.924 388.999 402.138 386.858 402.842 384.271L404.884 376.767C405.203 375.595 404.784 374.347 403.823 373.605L397.601 368.799C395.411 367.107 396.485 363.604 399.248 363.431L407.814 362.894C408.939 362.823 409.929 362.128 410.378 361.095L413.748 353.335Z" fill="#F8D566" fill-opacity="0.05"/>
<path d="M414.207 353.534C415.051 351.591 417.747 351.531 418.706 353.353L418.793 353.534L422.163 361.294C422.654 362.425 423.701 363.208 424.911 363.369L425.154 363.393L433.721 363.93C435.951 364.069 436.861 366.813 435.256 368.267L435.093 368.403L428.871 373.209C427.82 374.021 427.326 375.351 427.574 376.641L427.634 376.898L429.676 384.402C430.244 386.491 428.083 388.231 426.19 387.317L426.008 387.221L418.257 382.722C417.238 382.131 415.996 382.093 414.949 382.61L414.743 382.722L406.992 387.221C405.12 388.307 402.883 386.667 403.278 384.604L403.324 384.402L405.366 376.898C405.715 375.617 405.308 374.256 404.332 373.378L404.129 373.209L397.907 368.403C396.139 367.037 396.924 364.255 399.067 363.951L399.279 363.93L407.846 363.393C409.076 363.315 410.168 362.598 410.731 361.516L410.837 361.294L414.207 353.534Z" stroke="#374356" stroke-opacity="0.05"/>
<circle cx="504.5" cy="444.5" r="8.5" fill="#F8D566" fill-opacity="0.05"/>
<circle cx="504.5" cy="444.5" r="8" stroke="#374356" stroke-opacity="0.05"/>
<circle cx="251.5" cy="399.5" r="8" fill="#F8D566" stroke="#374356"/>
<circle cx="887.5" cy="395.5" r="8.5" fill="#F8D566" fill-opacity="0.05"/>
<circle cx="887.5" cy="395.5" r="8" stroke="#374356" stroke-opacity="0.05"/>
<circle cx="507.5" cy="192.5" r="8.5" fill="#F8D566" fill-opacity="0.05"/>
<circle cx="507.5" cy="192.5" r="8" stroke="#374356" stroke-opacity="0.05"/>
<circle cx="625.5" cy="60.5" r="8" fill="#F8D566" stroke="#374356"/>
<circle cx="285.5" cy="103.5" r="8" fill="#F8D566" stroke="#374356"/>
<circle cx="147.5" cy="287.5" r="8" fill="#F8D566" stroke="#374356"/>
<circle cx="147.5" cy="511.5" r="8" fill="#F8D566" stroke="#374356"/>
<circle cx="762.5" cy="549.5" r="8" fill="#F8D566" stroke="#374356"/>
<circle cx="992.5" cy="416.5" r="8" fill="#F8D566" stroke="#374356"/>
<circle cx="932.5" cy="236.5" r="8" fill="#F8D566" stroke="#374356"/>
<circle cx="992.5" cy="8.5" r="8.5" fill="#F8D566" fill-opacity="0.15"/>
<circle cx="992.5" cy="8.5" r="8" stroke="#374356" stroke-opacity="0.15"/>
</svg>
