<svg width="42" height="42" viewBox="0 0 42 42" fill="none" xmlns="http://www.w3.org/2000/svg">
<path d="M21.0001 0.839996C9.86589 0.839996 0.840088 9.8658 0.840088 21C0.840088 32.1342 9.86589 41.16 21.0001 41.16C32.1343 41.16 41.1601 32.1342 41.1601 21C41.1601 9.8658 32.1343 0.839996 21.0001 0.839996ZM16.0651 29.3559H11.9827V16.2183H16.0651V29.3559ZM13.9987 14.6055C12.7093 14.6055 11.8756 13.692 11.8756 12.5622C11.8756 11.4093 12.7345 10.5231 14.0512 10.5231C15.3679 10.5231 16.1743 11.4093 16.1995 12.5622C16.1995 13.692 15.3679 14.6055 13.9987 14.6055ZM30.9751 29.3559H26.8927V22.0752C26.8927 20.3805 26.3005 19.2297 24.8242 19.2297C23.6965 19.2297 23.0266 20.0088 22.7305 20.7585C22.6213 21.0252 22.594 21.4032 22.594 21.7791V29.3538H18.5095V20.4078C18.5095 18.7677 18.457 17.3964 18.4024 16.2162H21.9493L22.1362 18.0411H22.2181C22.7557 17.1843 24.0724 15.9201 26.2753 15.9201C28.9612 15.9201 30.9751 17.7198 30.9751 21.588V29.3559Z" fill="black"/>
</svg>
