<svg width="112" height="115" viewBox="0 0 112 115" fill="none" xmlns="http://www.w3.org/2000/svg">
<path d="M69.0462 33.7552C69.9233 31.7326 72.7872 31.7326 73.6644 33.7552L76.4927 40.2773C76.8695 41.1461 77.7004 41.7301 78.6442 41.7893L85.8327 42.2407C88.1509 42.3862 89.0524 45.3306 87.2142 46.7527L81.9932 50.7922C81.1869 51.416 80.8355 52.4651 81.103 53.4497L82.8165 59.7569C83.4073 61.9318 81.0698 63.7312 79.1235 62.5998L72.619 58.8183C71.8375 58.364 70.8729 58.364 70.0915 58.8183L63.5869 62.5998C61.6407 63.7312 59.3032 61.9318 59.8941 59.7569L61.6076 53.4497C61.8751 52.4651 61.5237 51.416 60.7174 50.7922L55.4964 46.7527C53.6582 45.3306 54.5597 42.3862 56.8779 42.2407L64.0662 41.7893C65.01 41.7301 65.8411 41.1461 66.2178 40.2773L69.0462 33.7552Z" fill="#F8D566"/>
<path d="M58.3057 2.00928L58.373 2.01514L64.251 2.55029L64.25 2.55127C64.2788 2.55376 64.3108 2.55597 64.3447 2.56104C64.3851 2.56705 64.7162 2.6071 65.0391 2.854C65.2372 3.00554 65.4928 3.28389 65.5908 3.7124C65.6879 4.13715 65.5806 4.49299 65.4756 4.70752C65.3021 5.06157 65.0355 5.24392 65.002 5.26807C64.8601 5.3703 64.7277 5.4259 64.709 5.43408C64.6617 5.45477 64.6195 5.4708 64.5918 5.48096C64.49 5.51825 64.3596 5.558 64.2402 5.59326C63.9818 5.66958 63.5982 5.77609 63.1387 5.90088C62.2176 6.151 60.9239 6.49424 59.5928 6.85205C58.2538 7.21196 56.8661 7.58911 55.7266 7.9165C54.8293 8.17431 54.1655 8.38004 53.791 8.51123L53.5146 8.6167C48.1522 11.0552 43.9571 14.0879 41.5146 16.1724L41.0498 16.5767C38.827 18.5426 36.1563 22.1527 33.793 26.1147C31.5839 29.8181 29.7384 33.6679 28.8223 36.5161L28.6514 37.0718C26.957 42.8855 26.6201 54.8248 30.7705 64.9497L31.3672 66.3696C32.7463 69.5657 34.0663 71.9731 35.8857 74.189L36.2812 74.6626C38.333 77.0781 41.4107 80.1317 43.6914 81.9985L44.1064 82.3325C46.0861 83.9043 48.6354 85.599 50.8633 86.6118L51.3359 86.8179L51.4053 86.8472L51.4717 86.8833C52.1963 87.2764 54.1224 88.1224 55.9531 88.9028C56.8501 89.2852 57.6985 89.6408 58.3223 89.9009C58.6341 90.0309 58.8899 90.137 59.0674 90.2104C59.1558 90.2471 59.2246 90.2761 59.2715 90.2954C59.2949 90.3051 59.3132 90.3129 59.3252 90.3179C59.3311 90.3203 59.3359 90.3215 59.3389 90.3228C59.3403 90.3233 59.3411 90.3244 59.3418 90.3247H59.3428L59.5244 90.3999L59.6309 90.481C59.6435 90.4881 59.6648 90.5001 59.6963 90.5161C59.805 90.5713 60.0282 90.6737 60.4102 90.8071C61.177 91.075 62.557 91.4579 64.8887 91.8345L65.7373 91.9595C69.9376 92.5204 73.5223 92.131 77.3525 91.8208C81.1204 91.5157 88.0129 89.2123 92.6787 86.8784L92.9473 86.7378C94.3202 85.9927 96.1423 84.5985 97.7285 83.2817C98.5556 82.5951 99.288 81.9558 99.8135 81.4878C100.076 81.254 100.287 81.0634 100.431 80.9321C100.502 80.8667 100.558 80.8157 100.595 80.7817L100.636 80.7437C100.641 80.7386 100.649 80.7312 100.659 80.7212C100.681 80.7003 100.714 80.6685 100.756 80.6274C100.84 80.5453 100.962 80.4244 101.114 80.2729C101.42 79.9693 101.844 79.5423 102.316 79.0503C103.273 78.0536 104.384 76.8363 105.128 75.8442C105.873 74.8505 106.505 73.7927 106.961 72.9888C107.147 72.6616 107.408 72.1855 107.505 72.0161C107.562 71.9167 107.647 71.7691 107.731 71.6509C107.756 71.6171 107.799 71.5599 107.855 71.4966C107.885 71.4639 108.035 71.2926 108.282 71.1606C108.412 71.0915 108.7 70.9618 109.086 70.9858C109.544 71.0143 109.928 71.2445 110.173 71.5542C110.378 71.8131 110.444 72.0709 110.469 72.1899C110.496 72.325 110.5 72.4371 110.5 72.5005V72.7485L110.42 72.9829V72.9849C110.42 72.9856 110.418 72.9864 110.418 72.9878L110.395 73.0581C110.378 73.1069 110.353 73.1787 110.322 73.27C110.26 73.4527 110.17 73.7149 110.062 74.0317C109.844 74.6651 109.549 75.5194 109.24 76.4009C108.932 77.2811 108.609 78.1934 108.335 78.9419C108.077 79.6457 107.824 80.3139 107.67 80.6216C107.211 81.5391 106.003 83.5895 105.478 84.4653C105.244 84.8548 104.945 85.5002 104.454 86.4585C104.055 87.2372 103.566 88.1416 102.995 89.0024L102.745 89.3677C101.891 90.5802 101.13 91.3597 100.341 92.271L100 92.6714C99.1629 93.6763 98.5766 94.4878 97.6797 95.4956L97.2744 95.9409C95.0709 98.3107 93.4951 99.6171 91.1436 101.289L90.084 102.032C89.031 102.762 87.6509 103.589 86.5586 104.221C86.0074 104.54 85.5198 104.815 85.1699 105.01C84.995 105.108 84.8544 105.186 84.7568 105.24C84.7206 105.26 84.6899 105.276 84.666 105.289C84.6429 105.304 84.6137 105.324 84.5781 105.348C84.4848 105.41 84.3501 105.5 84.1816 105.611C83.845 105.832 83.3728 106.138 82.8311 106.478C81.8939 107.067 80.7123 107.782 79.6504 108.334L79.2041 108.56C76.4118 109.931 72.6483 110.897 69.6738 111.516C68.169 111.829 66.8317 112.06 65.8701 112.213C65.3889 112.29 65.0007 112.347 64.7314 112.385C64.5969 112.404 64.492 112.42 64.4199 112.429C64.384 112.434 64.3561 112.437 64.3369 112.44C64.3274 112.441 64.3197 112.442 64.3145 112.443C64.3121 112.443 64.3101 112.444 64.3086 112.444H64.3057L64.2969 112.445L64.2891 112.446H64.2881C64.2874 112.446 64.2864 112.447 64.2852 112.447C64.2827 112.447 64.279 112.447 64.2744 112.448C64.2651 112.449 64.251 112.451 64.2334 112.453C64.1981 112.457 64.1463 112.462 64.0801 112.469C63.9472 112.484 63.755 112.505 63.5156 112.531C63.0368 112.581 62.3677 112.649 61.6055 112.716C60.2823 112.834 58.6436 112.954 57.2275 112.984L56.6357 112.991C52.882 112.995 50.5076 112.819 47.1494 112.189L45.6426 111.89C42.5578 111.25 38.8438 109.868 35.957 108.678C34.5013 108.078 33.2324 107.516 32.3271 107.105C31.8743 106.899 31.5111 106.73 31.2607 106.613C31.1358 106.554 31.039 106.508 30.9727 106.476C30.9396 106.46 30.914 106.448 30.8965 106.44C30.8877 106.436 30.8807 106.432 30.876 106.43C30.8737 106.429 30.8714 106.429 30.8701 106.428L30.8691 106.427H30.8682V106.426L30.8096 106.398L30.7539 106.365H30.7529L30.752 106.364C30.7513 106.363 30.7501 106.363 30.749 106.363C30.7463 106.361 30.7424 106.358 30.7373 106.355C30.727 106.349 30.7118 106.34 30.6924 106.329C30.6533 106.305 30.5959 106.271 30.5225 106.227C30.3756 106.139 30.1639 106.009 29.9004 105.848C29.3734 105.526 28.6397 105.071 27.8125 104.542C26.3751 103.624 24.6204 102.46 23.1738 101.369L22.5752 100.907C20.2053 99.0325 18.7501 97.7855 16.8389 95.7759L15.9873 94.8638C13.913 92.6027 12.7002 91.089 11.165 88.7593L10.4844 87.7065C9.39778 85.9994 8.73297 84.7988 7.98535 83.2993L7.19141 81.6704C6.15076 79.5043 5.51942 78.117 4.77734 76.0288L4.45117 75.0864C3.76914 73.07 3.38864 71.7813 2.97754 69.8804L2.79883 69.0239C2.6031 68.0595 2.49043 67.403 2.37207 66.5972L2.24902 65.7241C1.98327 63.8046 1.87329 62.4987 1.78613 60.9009L1.70215 59.1724C1.5614 56.1216 1.32547 54.1752 1.71094 50.9097L1.8125 50.1187C2.05917 48.3633 2.37134 47.1803 2.8125 45.3823L3.2666 43.4985C3.69711 41.7334 4.11336 40.2313 5.03809 38.1753L5.38867 37.4351C5.51265 37.1828 5.63836 36.9343 5.74902 36.7183C5.86137 36.4989 5.96121 36.3067 6.0332 36.1694C6.06459 36.1096 6.09076 36.06 6.11035 36.0229C6.12259 35.9919 6.13769 35.9525 6.15625 35.9058C6.20703 35.7778 6.28089 35.5929 6.37402 35.3638C6.56016 34.9058 6.82464 34.2684 7.13672 33.5483C7.75423 32.1236 8.58508 30.3182 9.38574 28.9468L9.6543 28.4985C10.3086 27.4348 11.1388 26.256 11.8213 25.3208C12.2155 24.7806 12.5685 24.3102 12.8232 23.9751C12.9507 23.8074 13.0544 23.6734 13.126 23.5806C13.1618 23.5342 13.1898 23.4979 13.209 23.4731C13.2184 23.461 13.2254 23.4513 13.2305 23.4448C13.233 23.4416 13.2349 23.4388 13.2363 23.437L13.2393 23.4341L13.2686 23.396L13.2998 23.3608L17.5752 18.5493L17.6338 18.4839L17.6992 18.4253L22.5088 14.1489L22.5859 14.0796L22.6729 14.022L29.085 9.74561L29.1631 9.69385L29.2461 9.65186L33.5215 7.51318L33.5518 7.49854L33.583 7.48389L38.3916 5.34619L38.458 5.31689L38.5264 5.29346L43.3359 3.68994L43.4092 3.66553L43.4844 3.64893L48.2939 2.57959L48.373 2.56201L48.4531 2.55322L53.2627 2.01807L53.3457 2.00928H58.3057Z" fill="#E1E1E1" stroke="#374356" stroke-width="3" stroke-linecap="round"/>
</svg>
