<svg width="672" height="565" viewBox="0 0 672 565" fill="none" xmlns="http://www.w3.org/2000/svg">
<path d="M18.9165 251.5C18.9165 159.268 18.9165 113.139 47.5817 84.4987C76.2468 55.858 122.351 55.8335 214.583 55.8335H312.416C404.649 55.8335 450.777 55.8335 479.418 84.4987C508.059 113.164 508.083 159.268 508.083 251.5V300.417C508.083 392.649 508.083 438.778 479.418 467.418C450.753 496.059 404.649 496.084 312.416 496.084H214.583C122.351 496.084 76.2224 496.083 47.5817 467.418C18.941 438.753 18.9165 392.649 18.9165 300.417V251.5Z" stroke="black" stroke-width="36.6875"/>
<path d="M141.208 55.8335V19.146M385.792 55.8335V19.146M31.146 178.125H495.854" stroke="black" stroke-width="36.6875" stroke-linecap="round"/>
<path d="M410.25 373.792C410.25 380.278 407.673 386.5 403.086 391.086C398.5 395.673 392.278 398.25 385.792 398.25C379.305 398.25 373.084 395.673 368.497 391.086C363.91 386.5 361.333 380.278 361.333 373.792C361.333 367.305 363.91 361.084 368.497 356.497C373.084 351.91 379.305 349.333 385.792 349.333C392.278 349.333 398.5 351.91 403.086 356.497C407.673 361.084 410.25 367.305 410.25 373.792ZM410.25 275.958C410.25 282.445 407.673 288.666 403.086 293.253C398.5 297.84 392.278 300.417 385.792 300.417C379.305 300.417 373.084 297.84 368.497 293.253C363.91 288.666 361.333 282.445 361.333 275.958C361.333 269.472 363.91 263.251 368.497 258.664C373.084 254.077 379.305 251.5 385.792 251.5C392.278 251.5 398.5 254.077 403.086 258.664C407.673 263.251 410.25 269.472 410.25 275.958ZM287.958 373.792C287.958 380.278 285.381 386.5 280.795 391.086C276.208 395.673 269.987 398.25 263.5 398.25C257.013 398.25 250.792 395.673 246.205 391.086C241.619 386.5 239.042 380.278 239.042 373.792C239.042 367.305 241.619 361.084 246.205 356.497C250.792 351.91 257.013 349.333 263.5 349.333C269.987 349.333 276.208 351.91 280.795 356.497C285.381 361.084 287.958 367.305 287.958 373.792ZM287.958 275.958C287.958 282.445 285.381 288.666 280.795 293.253C276.208 297.84 269.987 300.417 263.5 300.417C257.013 300.417 250.792 297.84 246.205 293.253C241.619 288.666 239.042 282.445 239.042 275.958C239.042 269.472 241.619 263.251 246.205 258.664C250.792 254.077 257.013 251.5 263.5 251.5C269.987 251.5 276.208 254.077 280.795 258.664C285.381 263.251 287.958 269.472 287.958 275.958ZM165.667 373.792C165.667 380.278 163.09 386.5 158.503 391.086C153.916 395.673 147.695 398.25 141.208 398.25C134.722 398.25 128.501 395.673 123.914 391.086C119.327 386.5 116.75 380.278 116.75 373.792C116.75 367.305 119.327 361.084 123.914 356.497C128.501 351.91 134.722 349.333 141.208 349.333C147.695 349.333 153.916 351.91 158.503 356.497C163.09 361.084 165.667 367.305 165.667 373.792ZM165.667 275.958C165.667 282.445 163.09 288.666 158.503 293.253C153.916 297.84 147.695 300.417 141.208 300.417C134.722 300.417 128.501 297.84 123.914 293.253C119.327 288.666 116.75 282.445 116.75 275.958C116.75 269.472 119.327 263.251 123.914 258.664C128.501 254.077 134.722 251.5 141.208 251.5C147.695 251.5 153.916 254.077 158.503 258.664C163.09 263.251 165.667 269.472 165.667 275.958Z" fill="black"/>
<path d="M672 412.868C654.115 411.885 636.372 416.531 621.268 426.154C617.615 421.996 613.861 417.838 609.904 413.883L606.961 411.144L608.382 409.927C613.344 405.67 616.88 399.993 618.513 393.664C620.146 387.334 619.797 380.656 617.514 374.531C614.215 367.616 608.979 361.807 602.441 357.81C595.902 353.813 588.343 351.8 580.682 352.016V372.3C584.292 372.25 587.85 373.163 590.99 374.946C594.129 376.729 596.735 379.316 598.54 382.442C600.265 386.499 598.54 390.961 593.771 395.728L591.437 397.858C580.855 389.042 569.236 381.549 556.838 375.545C531.168 363.983 517.977 369.359 511.484 375.545C509.509 377.531 507.925 379.871 506.816 382.442L504.99 387.817L490.379 431.834C501.946 460.638 529.95 511.855 590.829 533.965L641.561 517.129C643.272 516.493 644.779 515.406 645.924 513.985L648.054 512.16C662.564 497.555 653.229 469.461 633.748 442.179C645.315 435.431 658.635 432.288 672 433.153V412.868ZM633.545 497.758H632.936C625.935 501.51 596.917 491.977 564.042 459.116C560.592 455.668 557.345 452.321 554.403 448.974C553.388 447.859 552.475 446.642 551.461 445.424L546.083 438.934L543.242 434.978C541.821 433.051 540.401 431.124 539.183 429.299C537.966 427.473 537.56 426.662 536.748 425.343C535.937 424.025 534.516 421.895 533.603 420.171C532.69 418.446 532.284 417.737 531.675 416.418C531.066 415.1 529.95 413.578 529.341 412.158C528.733 410.738 528.428 409.826 527.921 408.71C527.414 407.594 526.805 405.972 526.399 404.653C525.993 403.335 525.892 402.726 525.689 401.712C525.486 400.698 525.08 399.278 524.877 398.264C524.828 397.453 524.828 396.64 524.877 395.83C524.781 394.953 524.781 394.069 524.877 393.193L525.993 390.049C527.718 388.223 535.226 387.716 548.62 393.801C557.564 398.11 566.032 403.345 573.884 409.42C569.606 411.301 565.046 412.466 560.389 412.868V433.153C571.171 432.554 581.633 429.277 590.829 423.619L595.8 428.284C600.265 432.645 604.222 437.007 607.875 441.165C601.749 451.589 599.319 463.774 600.975 475.749L621.268 471.794C620.576 467.971 620.576 464.055 621.268 460.232C634.357 480.212 636.792 494.614 633.545 497.758ZM483.277 453.437L460.65 521.389C459.017 526.378 458.588 531.682 459.399 536.869C460.209 542.055 462.236 546.976 465.314 551.229C468.391 555.483 472.432 558.948 477.106 561.341C481.78 563.734 486.954 564.988 492.205 565C495.658 564.968 499.083 564.386 502.352 563.276L568.507 541.267C531.169 522.207 501.199 491.322 483.277 453.437Z" fill="black"/>
</svg>
