<svg width="276" height="259" viewBox="0 0 276 259" fill="none" xmlns="http://www.w3.org/2000/svg">
<path d="M265.5 0.666504H223.5C220.715 0.666504 218.045 1.77275 216.075 3.74188C214.106 5.71101 213 8.38173 213 11.1665V95.1665C213 97.9513 214.106 100.622 216.075 102.591C218.045 104.56 220.715 105.667 223.5 105.667H265.5C268.285 105.667 270.955 104.56 272.925 102.591C274.894 100.622 276 97.9513 276 95.1665V11.1665C276 8.38173 274.894 5.71101 272.925 3.74188C270.955 1.77275 268.285 0.666504 265.5 0.666504ZM249.75 100.417H239.25V95.1665H249.75V100.417ZM265.5 89.9165H223.5V16.4165H265.5V89.9165Z" fill="black"/>
<path d="M20.3 18H182.7C188.084 18 193.247 20.1387 197.054 23.9457C200.861 27.7527 203 32.9161 203 38.3V124H182.7V117V38.3H20.3V160.1H169V180.4H121.8V200.7H152.25V221H50.75V200.7H81.2V180.4H20.3C14.9161 180.4 9.75272 178.261 5.94573 174.454C2.13874 170.647 0 165.484 0 160.1V38.3C0 32.9161 2.13874 27.7527 5.94573 23.9457C9.75272 20.1387 14.9161 18 20.3 18Z" fill="black"/>
<path d="M262.263 121H171.947C168.11 121 165 124.11 165 127.947V246.053C165 249.89 168.11 253 171.947 253H262.263C266.1 253 269.211 249.89 269.211 246.053V127.947C269.211 124.11 266.1 121 262.263 121Z" stroke="black" stroke-width="10.9091"/>
<path d="M210.158 228.684H224.052" stroke="black" stroke-width="10.9091" stroke-linecap="round" stroke-linejoin="round"/>
</svg>
