<svg width="30" height="31" viewBox="0 0 30 31" fill="none" xmlns="http://www.w3.org/2000/svg">
<path d="M12.1208 23.1295C11.0685 22.7608 10.7177 22.5395 9.94605 21.8758C9.33351 21.349 8.56338 20.428 8.23077 19.6288C8.03201 19.1512 7.74646 18.525 7.56085 18.0411C7.37523 17.5572 7.21883 16.759 7.21007 16.1975C7.19331 15.1225 7.31197 14.2386 7.49068 13.174C7.9116 11.9203 8.79353 10.6667 9.59528 9.92922C10.1565 9.413 10.6814 9.08504 11.2759 8.67603C11.779 8.32981 12.4716 8.0856 13.1029 7.86436L13.2054 7.67857L13.3835 7.60318C14.2254 7.52943 15.1195 7.58146 15.5583 7.64313C16.4001 7.76147 16.3851 7.70274 17.1017 7.93811C17.6644 8.12296 17.9863 8.22354 18.5047 8.52807C19.1559 8.91058 20.2424 9.89461 20.7496 10.5192C22.1133 12.1984 22.6587 13.921 22.5034 16.1238C22.4207 17.2981 21.8721 18.6311 21.415 19.6772C20.8899 20.6222 20.416 21.3952 19.557 22.0233C18.609 22.7166 17.8733 23.1903 16.6106 23.4982C16.0057 23.6457 15.0547 23.6457 14.4358 23.6457C14.2135 23.6457 13.535 23.5185 13.3134 23.4982C13.1236 23.4809 12.306 23.1944 12.1224 23.13M12.1208 23.1295L12.1224 23.13M12.1208 23.1295C12.1213 23.1297 12.1219 23.1299 12.1224 23.13" stroke="black" stroke-linecap="round"/>
<path d="M15.8417 27.9482C15.7666 27.7802 15.1314 25.9571 15.0478 25.9571L14.9998 25.9571C14.9642 25.9571 14.106 27.7755 14.031 27.9434C13.956 28.1114 13.8907 28.3255 13.8907 28.4597C13.9066 28.5762 13.8473 29.2834 13.8907 29.3668C14.0992 29.7676 14.3961 29.9142 14.4519 29.9346C14.6297 29.9994 14.8402 29.9994 14.9641 29.9994H14.9642C15.1277 29.9994 15.1876 30.013 15.4207 29.9393C15.6355 29.8713 15.7715 29.7918 15.982 29.3715C16.0186 29.2599 15.966 28.5809 15.982 28.4644C15.982 28.3302 15.9167 28.1161 15.8417 27.9482Z" stroke="black" stroke-linecap="round"/>
<path d="M15.8417 3.05222C15.7666 3.22019 15.1314 5.04332 15.0478 5.04332L14.9998 5.04331C14.9642 5.04332 14.106 3.22492 14.031 3.05695C13.956 2.88898 13.8907 2.67489 13.8907 2.54074C13.9066 2.42422 13.8473 1.71696 13.8907 1.63363C14.0992 1.23277 14.3961 1.0862 14.4519 1.06584C14.6297 1.00101 14.8402 1.001 14.9641 1.00099H14.9642C15.1277 1.00099 15.1876 0.987374 15.4207 1.06111C15.6355 1.12905 15.7715 1.2086 15.982 1.62889C16.0186 1.74047 15.966 2.41949 15.982 2.53601C15.982 2.67015 15.9167 2.88425 15.8417 3.05222Z" stroke="black" stroke-linecap="round"/>
<path d="M26.6358 14.3431C26.476 14.4219 24.7417 15.0897 24.7417 15.1776L24.7417 15.228C24.7417 15.2655 26.4715 16.1676 26.6313 16.2464C26.7911 16.3253 26.9948 16.3939 27.1224 16.3939C27.2332 16.3772 27.9061 16.4395 27.9853 16.3939C28.3667 16.1747 28.5061 15.8627 28.5255 15.804C28.5871 15.617 28.5872 15.3958 28.5872 15.2656V15.2655C28.5872 15.0936 28.6001 15.0306 28.53 14.7855C28.4653 14.5598 28.3897 14.4168 27.9898 14.1956C27.8837 14.157 27.2377 14.2124 27.1269 14.1956C26.9993 14.1956 26.7956 14.2642 26.6358 14.3431Z" stroke="black" stroke-linecap="round"/>
<path d="M2.95206 14.3431C3.11185 14.4219 4.84619 15.0897 4.84619 15.1776L4.84618 15.228C4.84619 15.2655 3.11635 16.1676 2.95656 16.2464C2.79678 16.3253 2.5931 16.3939 2.46549 16.3939C2.35465 16.3772 1.68183 16.4395 1.60256 16.3939C1.22122 16.1747 1.08179 15.8627 1.06242 15.804C1.00074 15.617 1.00074 15.3958 1.00073 15.2656V15.2655C1.00073 15.0936 0.987776 15.0306 1.05792 14.7855C1.12255 14.5598 1.19823 14.4168 1.59805 14.1956C1.70419 14.157 2.35014 14.2124 2.46099 14.1956C2.5886 14.1956 2.79227 14.2642 2.95206 14.3431Z" stroke="black" stroke-linecap="round"/>
<path d="M25.5028 20.6949C25.327 20.6792 23.5073 20.346 23.4655 20.4221L23.4416 20.4657C23.4237 20.4982 24.4927 22.1886 24.5936 22.3409C24.6945 22.4932 24.8382 22.6597 24.9487 22.7268C25.0527 22.7705 25.6057 23.1781 25.6961 23.1803C26.1306 23.1909 26.3998 22.9939 26.4444 22.9533C26.5868 22.8238 26.692 22.6322 26.754 22.5194L26.754 22.5194C26.8358 22.3705 26.877 22.3227 26.9328 22.0737C26.9842 21.8442 26.9866 21.6806 26.7456 21.2789C26.672 21.1897 26.0863 20.8981 25.9983 20.8253C25.8878 20.7582 25.6787 20.7106 25.5028 20.6949Z" stroke="black" stroke-linecap="round"/>
<path d="M4.99311 8.24672C5.09398 8.399 6.27833 9.8889 6.23653 9.965L6.21256 10.0086C6.19473 10.0411 4.26757 9.91314 4.09168 9.89745C3.91579 9.88176 3.70676 9.83415 3.59624 9.76707C3.50823 9.69429 2.8959 9.39465 2.84892 9.31352C2.62293 8.92326 2.65062 8.57971 2.66176 8.51871C2.69727 8.32439 2.8025 8.13277 2.86443 8.02L2.86446 8.01995C2.94622 7.87108 2.96498 7.80969 3.14228 7.63435C3.30564 7.4728 3.43918 7.38878 3.89066 7.40733C4.00091 7.42974 4.53401 7.81715 4.63798 7.86089C4.7485 7.92796 4.89224 8.09444 4.99311 8.24672Z" stroke="black" stroke-linecap="round"/>
<path d="M21.5003 25.6C21.3554 25.494 19.9381 24.249 19.8657 24.2929L19.8242 24.3181C19.7933 24.3369 19.915 26.3627 19.9299 26.5476C19.9449 26.7325 19.9902 26.9522 20.054 27.0684C20.1232 27.1609 20.4083 27.8046 20.4854 27.854C20.8567 28.0915 21.1835 28.0624 21.2415 28.0507C21.4264 28.0134 21.6087 27.9028 21.716 27.8377L21.716 27.8376C21.8576 27.7517 21.916 27.732 22.0828 27.5456C22.2365 27.3739 22.3164 27.2335 22.2988 26.7589C22.2775 26.643 21.9089 26.0826 21.8673 25.9733C21.8035 25.8572 21.6451 25.7061 21.5003 25.6Z" stroke="black" stroke-linecap="round"/>
<path d="M9.65888 4.03978C9.67381 4.22468 9.99081 6.13746 9.91841 6.1814L9.87691 6.20658C9.84602 6.22534 8.23791 5.1016 8.09305 4.99557C7.94818 4.88953 7.78981 4.73843 7.726 4.62226C7.6844 4.51297 7.29663 3.93163 7.29453 3.83668C7.28445 3.37993 7.47184 3.09695 7.5105 3.04998C7.63367 2.90036 7.81596 2.78972 7.92323 2.72461L7.92328 2.72458C8.06489 2.63863 8.11034 2.59533 8.34728 2.53667C8.5656 2.48262 8.72121 2.48004 9.10338 2.7334C9.18821 2.81076 9.46561 3.42647 9.53485 3.51899C9.59866 3.63516 9.64395 3.85489 9.65888 4.03978Z" stroke="black" stroke-linecap="round"/>
<path d="M9.65888 26.5535C9.67381 26.3686 9.99081 24.4558 9.91841 24.4119L9.87691 24.3867C9.84602 24.3679 8.23791 25.4917 8.09305 25.5977C7.94818 25.7037 7.78981 25.8548 7.726 25.971C7.6844 26.0803 7.29663 26.6616 7.29453 26.7566C7.28445 27.2133 7.47184 27.4963 7.5105 27.5433C7.63367 27.6929 7.81596 27.8035 7.92323 27.8686L7.92328 27.8687C8.06489 27.9546 8.11034 27.9979 8.34728 28.0566C8.5656 28.1106 8.72121 28.1132 9.10338 27.8599C9.18821 27.7825 9.46561 27.1668 9.53485 27.0743C9.59866 26.9581 9.64395 26.7384 9.65888 26.5535Z" stroke="black" stroke-linecap="round"/>
<path d="M21.5003 4.99257C21.3554 5.09861 19.9381 6.34359 19.8657 6.29965L19.8242 6.27445C19.7933 6.25571 19.915 4.22988 19.9299 4.04499C19.9449 3.8601 19.9902 3.64036 20.054 3.52419C20.1232 3.43167 20.4083 2.78799 20.4854 2.73861C20.8567 2.50105 21.1835 2.53016 21.2415 2.54187C21.4264 2.57919 21.6087 2.68982 21.716 2.75492L21.716 2.75495C21.8576 2.84089 21.916 2.86062 22.0828 3.04699C22.2365 3.21871 22.3164 3.35908 22.2988 3.83368C22.2775 3.94958 21.9089 4.50997 21.8673 4.61926C21.8035 4.73544 21.6451 4.88654 21.5003 4.99257Z" stroke="black" stroke-linecap="round"/>
<path d="M4.99311 22.3459C5.09398 22.1936 6.27833 20.7037 6.23653 20.6276L6.21256 20.584C6.19473 20.5515 4.26757 20.6795 4.09168 20.6951C3.91579 20.7108 3.70676 20.7585 3.59624 20.8255C3.50823 20.8983 2.8959 21.198 2.84892 21.2791C2.62293 21.6693 2.65062 22.0129 2.66176 22.0739C2.69727 22.2682 2.8025 22.4598 2.86443 22.5726L2.86446 22.5727C2.94622 22.7215 2.96498 22.7829 3.14228 22.9582C3.30564 23.1198 3.43918 23.2038 3.89066 23.1853C4.00091 23.1629 4.53401 22.7754 4.63798 22.7317C4.7485 22.6646 4.89224 22.4982 4.99311 22.3459Z" stroke="black" stroke-linecap="round"/>
<path d="M25.5028 9.89768C25.327 9.91337 23.5073 10.2466 23.4655 10.1705L23.4416 10.1269C23.4237 10.0944 24.4927 8.40396 24.5936 8.25168C24.6945 8.0994 24.8382 7.93292 24.9487 7.86585C25.0527 7.82211 25.6057 7.41449 25.6961 7.41229C26.1306 7.40168 26.3998 7.59867 26.4444 7.63931C26.5868 7.76879 26.692 7.96041 26.754 8.07317L26.754 8.07323C26.8358 8.22208 26.877 8.26986 26.9328 8.51893C26.9842 8.74842 26.9866 8.912 26.7456 9.31374C26.672 9.40291 26.0863 9.69452 25.9983 9.7673C25.8878 9.83437 25.6787 9.88198 25.5028 9.89768Z" stroke="black" stroke-linecap="round"/>
</svg>
