<svg width="28" height="28" viewBox="0 0 28 28" fill="none" xmlns="http://www.w3.org/2000/svg">
<path d="M14.3242 0.5L14.3467 0.501953L15.7676 0.630859L15.7666 0.631836C15.7761 0.632653 15.7867 0.632134 15.7979 0.633789C15.8111 0.635748 15.9209 0.649601 16.0283 0.731445C16.0942 0.781689 16.18 0.874355 16.2129 1.01758C16.2455 1.15974 16.209 1.27903 16.1738 1.35059C16.1158 1.46837 16.0275 1.52929 16.0166 1.53711C15.9696 1.57083 15.9254 1.58844 15.9199 1.59082C15.9051 1.5973 15.8918 1.60255 15.8838 1.60547C15.8548 1.61605 15.8196 1.62635 15.791 1.63477C15.7269 1.65362 15.6326 1.67991 15.5215 1.70996C15.2988 1.77021 14.9849 1.85354 14.6641 1.93945C14.3407 2.02605 14.0065 2.11686 13.7324 2.19531C13.5952 2.23458 13.4759 2.27 13.3818 2.2998C13.3348 2.31471 13.2958 2.32723 13.2656 2.33789C13.251 2.34307 13.2393 2.34715 13.2305 2.35059C13.2261 2.3523 13.2221 2.35447 13.2197 2.35547L13.2168 2.35645C12.0198 2.89872 11.0658 3.56407 10.4707 4.05273L10.2383 4.25098C9.12753 5.22968 7.91344 6.52474 7.29102 9.08984C6.85841 11.2091 6.9543 12.7806 7.16602 13.8555C7.3804 14.9436 7.70041 15.501 7.7959 15.7549L7.93359 16.1064C8.25457 16.888 8.57087 17.4031 9.00488 17.9297L9.20117 18.1592C9.68784 18.7133 10.3639 19.3766 10.8721 19.791L11.0752 19.9512C11.4959 20.2742 12.0034 20.6063 12.4619 20.8291L12.6865 20.9307L12.709 20.9404L12.7314 20.9531C12.9053 21.0471 13.2853 21.2241 13.6768 21.3955C14.0701 21.5677 14.428 21.7126 14.5732 21.7578C14.6674 21.7811 14.7772 21.817 14.877 21.8506C15.0012 21.8924 15.1233 21.9349 15.2568 21.9785C15.5419 22.0717 15.7509 22.124 15.8516 22.124H18.9512C19.0141 22.1239 19.1931 22.0974 19.4902 22.0264C19.7706 21.9593 20.1158 21.8631 20.4834 21.748C21.2232 21.5164 22.0244 21.2183 22.5645 20.9492L22.8037 20.8164C23.0392 20.6716 23.2667 20.4931 23.5039 20.292C23.8048 20.037 24.1488 19.7198 24.499 19.458L24.6348 19.3506C24.9409 19.0934 25.185 18.7853 25.5254 18.333C25.6995 18.1016 25.848 17.8515 25.957 17.6582C25.9841 17.6102 26.0085 17.5658 26.0303 17.5264C26.0513 17.4883 26.0722 17.4515 26.0889 17.4219C26.102 17.3986 26.1249 17.357 26.1494 17.3223C26.1565 17.3122 26.1698 17.2936 26.1875 17.2734C26.1965 17.2631 26.2445 17.2081 26.3232 17.1641C26.364 17.1413 26.4573 17.0954 26.585 17.0996C26.7383 17.1046 26.8708 17.1792 26.957 17.2852C27.0284 17.3729 27.0514 17.4613 27.0596 17.501C27.0688 17.5458 27.0703 17.5827 27.0703 17.6035V17.6904L27.041 17.7725L26.3955 19.5742L26.3848 19.6035L26.3711 19.6299C26.2599 19.8516 25.9742 20.3327 25.8438 20.5498L25.8447 20.5508L25.1992 21.709L25.1758 21.75L25.1455 21.7861L23.8545 23.3311L23.8262 23.3643L23.793 23.3926L22.1143 24.8076L22.083 24.834L22.0488 24.8545L20.7568 25.627L19.4658 26.3994L19.4043 26.4365L19.334 26.4541L15.8477 27.3555L15.8037 27.3672L15.7578 27.3701L13.9502 27.499L13.9072 27.502L13.8643 27.4971L11.2822 27.2402L11.2178 27.2334L11.1582 27.2119L7.67188 25.9248L7.61621 25.9043L7.56738 25.8721L5.63086 24.585L5.59863 24.5635L5.57031 24.5371L4.02051 23.1221L3.98828 23.0928L3.96191 23.0576L2.6709 21.3848L2.64648 21.3535L2.62793 21.3193L1.85254 19.9033L1.83984 19.8809L1.83008 19.8564L1.18457 18.3115L1.17188 18.2822L1.16309 18.251L0.776367 16.835L0.769531 16.8105L0.764648 16.7852L0.635742 16.0127L0.632812 15.9932L0.630859 15.9727L0.501953 14.4277L0.5 14.4072V12.4062L0.509766 12.3574L0.767578 11.0703L0.773438 11.0449L0.780273 11.0205L1.29688 9.34766L1.30957 9.30762L1.32812 9.27051L1.58594 8.75586L2.35449 7.09668L2.37305 7.05664L2.39844 7.01953L3.30273 5.73242L3.31934 5.70898L3.33887 5.68652L4.37207 4.52832L4.3916 4.50684L4.41309 4.4873L5.57617 3.45703L5.60156 3.43457L5.63086 3.41504L7.18066 2.38574L7.20605 2.36816L7.23438 2.35449L8.26758 1.83984L8.27734 1.83496L8.28809 1.83008L9.4502 1.31543L9.47168 1.30566L9.49512 1.29785L10.6572 0.912109L10.6816 0.90332L10.707 0.898438L11.8691 0.640625L11.8955 0.634766L11.9219 0.631836L13.084 0.50293L13.1113 0.5H14.3242Z" stroke="white" stroke-linecap="round"/>
</svg>
