<svg width="331" height="164" viewBox="0 0 331 164" fill="none" xmlns="http://www.w3.org/2000/svg">
<path d="M11.6162 59.6671C13.2311 58.4829 15.5312 56.5142 17.218 55.7475C17.3713 55.7475 17.218 53.754 17.3713 52.0672C17.5163 50.4729 18.4299 47.6765 19.5904 46.3767C21.9974 43.6809 24.1994 40.9165 27.2277 38.8517C29.9346 37.0062 35.2244 33.9354 38.226 35.3528C38.5327 35.4977 38.686 32.746 38.8394 31.5193C39.1056 29.389 39.841 25.9007 40.3728 25.2322C41.2669 23.5454 43.0511 21.241 44.3597 19.5585C46.5065 16.7983 48.1933 14.8048 50.6468 12.8114C52.0524 11.1399 57.0237 8.12504 59.0807 7.13768C62.9142 5.29756 66.4686 3.65404 71.5015 3.15076C74.5683 2.84407 80.6895 3.03478 83.7689 3.45744C91.0129 4.45171 96.6773 8.20595 102.17 12.5047C105.697 15.2649 107.997 18.0251 110.297 21.3986C111.984 23.8725 113.671 26.4589 114.131 28.4524C115.165 32.9349 114.131 33.3594 115.664 32.4393C118.118 31.5193 121.755 30.3314 124.405 29.9858C127.932 29.5258 127.198 29.5258 130.845 29.5258C134.492 29.5258 137.439 30.9898 140.199 31.9793C144.861 33.6505 147.311 35.8782 150.585 38.8562L150.78 39.0331C152.927 41.7933 154.547 45.5434 155.687 47.927C156.389 49.3942 157.361 51.9139 157.68 53.9074C158.294 57.7409 158.308 57.5405 161.054 56.5598L161.263 56.4852C164.926 55.1766 167.19 54.3674 171.175 54.3674C174.319 54.3674 177.922 55.2874 181.449 57.2809C183.749 58.581 188.471 64.272 189.269 65.8681C190.614 68.559 191.876 80.8958 189.882 84.8827C186.648 91.3522 185.435 93.7766 178.535 96.8435C169.641 100.064 144.302 99.4503 135.404 99.4503C128.03 99.4503 56.9282 99.9315 49.5734 99.9315C45.5884 99.533 39.6164 99.9754 35.6192 99.9315C31.6357 99.8877 29.5655 100.106 25.5617 99.9315C18.891 99.6415 12.2603 96.8048 7.61033 91.9385C4.28096 88.4543 2.90116 81.9654 3.00548 77.3752C3.10438 73.0236 4.99275 68.1609 7.3857 64.5715L7.44051 64.4893C8.74986 62.525 9.73551 61.0463 11.6162 59.6671Z" fill="#CBDCEF" stroke="black" stroke-width="5" stroke-linecap="round"/>
<path d="M90.4168 107.777C92.5565 106.215 95.6043 103.617 97.8394 102.605C98.0425 102.605 97.8394 99.9744 98.0425 97.7485C98.2346 95.6446 99.4452 91.9546 100.983 90.2394C104.172 86.682 107.09 83.0342 111.103 80.3095C114.689 77.8741 121.699 73.822 125.676 75.6924C126.082 75.8835 126.285 72.2525 126.489 70.6337C126.841 67.8226 127.816 63.2195 128.52 62.3373C129.705 60.1115 132.069 57.0706 133.803 54.8504C136.648 51.2081 138.883 48.5775 142.134 45.947C143.996 43.7413 150.583 39.7629 153.309 38.46C158.389 36.0318 163.098 33.8631 169.767 33.1989C173.831 32.7942 181.942 33.0459 186.022 33.6036C195.62 34.9157 203.126 39.8697 210.404 45.5423C215.077 49.1846 218.125 52.8269 221.173 57.2786C223.408 60.5432 225.643 63.9561 226.253 66.5867C227.623 72.5017 226.253 73.0619 228.285 71.8478C231.535 70.6337 236.355 69.0662 239.866 68.6102C244.539 68.0031 243.567 68.0031 248.4 68.0031C253.232 68.0031 257.137 69.935 260.794 71.2407C266.971 73.446 270.217 76.3857 274.556 80.3154L274.814 80.5488C277.659 84.1911 279.805 89.1398 281.316 92.2851C282.246 94.2212 283.535 97.5462 283.957 100.177C284.77 105.235 284.789 104.971 288.427 103.677L288.704 103.578C293.557 101.852 296.558 100.784 301.838 100.784C306.004 100.784 310.778 101.998 315.451 104.628C318.499 106.344 324.756 113.854 325.814 115.96C327.596 119.511 329.268 135.79 326.626 141.051C322.34 149.589 320.734 152.788 311.591 156.835C299.806 161.084 266.231 160.275 254.441 160.275C244.669 160.275 150.457 160.91 140.712 160.91C135.431 160.384 127.518 160.968 122.222 160.91C116.943 160.852 114.2 161.139 108.895 160.91C100.056 160.527 91.2702 156.784 85.1089 150.362C80.6973 145.764 78.869 137.202 79.0073 131.145C79.1383 125.402 81.6405 118.986 84.8112 114.249L84.8838 114.141C86.6188 111.548 87.9248 109.597 90.4168 107.777Z" fill="#CBDCEF" stroke="black" stroke-width="5" stroke-linecap="round"/>
</svg>
