<svg width="149" height="131" viewBox="0 0 149 131" fill="none" xmlns="http://www.w3.org/2000/svg">
<ellipse cx="88.5" cy="61.5" rx="58.5" ry="59.5" fill="white"/>
<path d="M72.4155 50.5199C72.5765 73.6155 50.0357 80.5657 42.2824 80.6197C34.5292 80.6737 37.6473 65.3503 37.5235 47.5929C43.2907 30.3434 47.7814 24.8776 55.0113 22.5628C62.7646 22.5088 78.1606 30.1004 72.4155 50.5199Z" fill="#BEDDBA"/>
<path d="M84.1218 105.69C84.1621 111.464 82.9314 113.397 75.1183 113.451C67.3052 113.506 55.1259 103.991 55.0949 99.5519C60.9974 95.2083 62.6593 93.1014 69.957 92.4845C77.7701 92.43 90.0189 100.554 84.1218 105.69Z" fill="#BEDDBA"/>
<path d="M138.366 91.2725C136.228 109.403 119.531 52.9094 112.32 57.9415C119.37 29.8137 108.109 38.4968 99.8878 28.5911C98.9157 19.0873 94.3967 20.4774 116.527 11.7189C123.144 9.09978 162.52 48.081 138.366 91.2725Z" fill="#BEDDBA"/>
<path d="M135.706 98.0838C135.727 101.085 127.781 106.744 123.53 106.773C120.797 104.528 120.337 103.625 117.605 101.38C117.584 98.3789 128.648 85.4525 132.9 85.4229C137.152 85.3932 135.685 95.0826 135.706 98.0838Z" fill="#BEDDBA"/>
<path d="M126.296 48.7954C123.637 48.7626 122.141 48.9376 119.506 49.2956C107.887 50.8746 91.9641 61.2569 91.9641 61.2569L65.325 72.8261L43.2011 82.4344L27.7472 74.3903L16.9134 79.4475L21.3801 89.8325L29.3425 108.345L32.0785 111.043L36.1605 111.92L39.3242 110.993L50.954 105.762L76.1466 94.4325L76.575 127.489L86.9591 122.888L104.336 82.0083L120.14 75.2242L138.652 67.2771L146.778 63.5975L146.63 57.7111C146.63 57.7111 145.846 55.5957 144.904 54.553C143.8 53.3311 139.9 51.4178 139.9 51.4178C137.792 50.2595 136.353 50.1518 134.001 49.6474C131.041 49.0127 129.323 48.8327 126.296 48.7954Z" fill="white"/>
<path d="M50.8641 105.704L50.954 105.762M50.954 105.762L76.1466 94.4325L76.575 127.489L86.9591 122.888L104.336 82.0083L120.14 75.2242L138.652 67.2771L146.778 63.5975L146.63 57.7111C146.63 57.7111 145.846 55.5957 144.904 54.553C143.8 53.3311 139.9 51.4178 139.9 51.4178C137.792 50.2595 136.353 50.1518 134.001 49.6474C131.041 49.0127 129.323 48.8327 126.296 48.7954C123.637 48.7626 122.141 48.9376 119.506 49.2956C107.887 50.8746 91.9641 61.2569 91.9641 61.2569L65.325 72.8261L43.2011 82.4344L27.7472 74.3903L16.9134 79.4475L21.3801 89.8325L29.3425 108.345L32.0785 111.043L36.1605 111.92L39.3242 110.993L50.954 105.762Z" stroke="#474747" stroke-width="4"/>
<path d="M118.12 110.434C118.152 114.936 113.548 115.448 110.047 115.472C104.185 119.164 83.3688 133.773 108.431 84.6877C109.775 76.5265 120.579 73.2813 122.065 85.4985C100.037 108.749 118.089 105.932 118.12 110.434Z" fill="#BADCDD"/>
<path d="M108.748 44.804C108.779 49.3058 105.975 54.3337 102.474 54.3581C96.6123 58.0502 98.4207 57.6128 87.0677 53.1351C80.2523 49.9475 86.8783 25.9638 100.546 37.6154C105.093 40.3007 108.716 40.3021 108.748 44.804Z" fill="#BADCDD"/>
<path d="M94.5298 19.1178C94.5631 23.887 94.9298 29.1306 95.1442 34.0585C95.6831 46.4452 95.2596 56.8374 86.1592 52.6891C76.1712 49.1357 78.4196 46.8568 78.3029 30.0998C46.8949 7.22197 48.9252 14.454 82.4966 2.44526C135.078 9.32486 94.4415 6.43798 94.5298 19.1178Z" fill="#BADCDD"/>
<path d="M110.608 7.23053L93.0165 17.3164L94.0232 31.8014L109.03 40.7544L107.5 53.5M110.608 7.23053C110.608 7.23053 116.051 9.33557 119.241 11.2463C122.488 13.1912 124.186 14.5267 126.981 17.0797C129.29 19.1903 132.456 22.929 132.456 22.929C134.775 25.7425 136.075 27.32 138.393 30.1336L141.608 36.4515L143.919 43.2285C143.919 43.2285 145.722 48.1011 146.24 51.3641C146.685 54.1619 146.75 59.5123 146.75 59.5123L146.763 61.3238L146.785 64.4937C146.785 64.4937 146.897 67.2556 146.816 69.0223C146.694 71.6958 146.542 73.2095 145.958 75.8214C145.262 78.9329 143.294 83.5388 143.294 83.5388C143.294 83.5388 140.59 89.521 138.379 93.0835C136.775 95.6689 135.855 97.1278 133.895 99.455C132.122 101.559 130.998 102.636 128.948 104.471C126.313 106.831 121.74 109.956 121.74 109.956L120.838 110.495M110.608 7.23053L106.067 5.45067C106.067 5.45067 101.96 4.19345 99.2617 3.68659C94.5559 2.80265 91.8147 2.73213 87.0284 2.86609C83.2991 2.97047 81.1959 3.17418 77.5247 3.83807C72.4568 4.75453 64.8701 7.54927 64.8701 7.54927C64.8701 7.54927 57.2141 11.3655 52.6903 14.4273C49.9859 16.2577 48.6368 17.6257 48.6368 17.6257M87.5957 120.861C87.5957 120.861 94.1258 120.576 97.8085 120.086C100.49 119.729 101.998 119.447 104.592 118.68C108.467 117.534 110.497 116.418 114.073 114.538C116.798 113.106 120.838 110.495 120.838 110.495M76.2787 119.682C76.2787 119.682 69.6306 117.992 65.6274 116.234C62.8747 115.025 61.415 114.159 58.8094 112.659M58.8094 112.659C55.3234 110.652 50.1657 107.058 50.1657 107.058L50.2556 107.116L58.8094 112.659ZM30.4831 77.079C30.4831 77.079 29.5184 69.6463 29.4922 64.8582C29.4679 60.4256 30.222 53.5312 30.222 53.5312M20.6817 91.1864C20.6817 91.1864 17.5555 90.8189 15.1776 90.319C12.3815 89.7313 10.8192 89.1137 8.36583 87.6492C6.63439 86.6157 5.4926 86.1097 4.26805 84.5077C3.21028 83.1238 2.74043 82.1582 2.42823 80.4446C2.20633 79.2267 2.23039 78.5001 2.40614 77.2746C2.67655 75.3891 3.20882 74.3685 4.186 72.7335C5.5974 70.3719 7.12599 69.5995 9.13268 67.7173C13.0813 64.0139 19.9412 59.0374 19.9412 59.0374L27.6082 54.4552L30.222 53.5312M30.222 53.5312L30.3095 52.172C30.3095 52.172 31.4556 45.3962 32.9509 41.2845C34.0866 38.1618 34.8979 36.4607 36.5201 33.5608C38.8688 29.3621 40.5302 27.1698 43.6964 23.5475C46.8625 19.9252 48.6368 17.6257 48.6368 17.6257M48.6368 17.6257L71.827 31.0504L71.8743 37.8432L71.9866 53.9537M119.441 76.5782L123.381 85.4891L109.916 102.792L120.838 110.495" stroke="#474747" stroke-width="4"/>
<path d="M53.6094 44.7638L91.9639 61.2476L65.3248 72.8167L43.2253 49.3649L53.6094 44.7638Z" fill="white"/>
<path d="M50.8639 105.695L50.9538 105.753M91.9639 61.2476C91.9639 61.2476 107.886 50.8652 119.506 49.2862C122.14 48.9282 123.637 48.7532 126.296 48.786C129.323 48.8234 131.041 49.0033 134 49.6381C136.353 50.1425 137.792 50.2501 139.9 51.4084C140.478 51.7257 141.33 52.3042 141.33 52.3042M91.9639 61.2476L53.6094 44.7638L43.2253 49.3649L65.3248 72.8167M91.9639 61.2476L65.3248 72.8167M65.3248 72.8167L43.2008 82.425L27.747 74.3809L16.9132 79.438L21.3799 89.823L29.3422 108.335L32.0783 111.034L36.1603 111.911L39.3239 110.983L50.9538 105.753M128.428 58.2816L141.33 52.3042M141.33 52.3042C141.33 52.3042 143.799 53.3217 144.904 54.5437C145.846 55.5864 146.629 57.7018 146.629 57.7018L146.778 63.5881L138.652 67.2678L120.14 75.2148L104.336 81.9989L86.9588 122.879L76.5747 127.48L76.1464 94.423L50.9538 105.753M124.362 59.6685L120.299 61.5083M116.236 63.3482L112.626 65.1848M100.886 70.2483L96.8231 72.0881M92.7568 73.475L88.6938 75.3148M84.6307 77.1546L80.5676 78.9944M76.5046 80.8342L72.8944 82.6709M68.8313 84.5107L64.7682 86.3505M60.702 87.7375L56.6389 89.5773" stroke="#474747" stroke-width="4"/>
</svg>
