<svg width="799" height="472" viewBox="0 0 799 472" fill="none" xmlns="http://www.w3.org/2000/svg">
<path d="M282.898 253.338L273.976 303.498L288.626 296.77L290.556 295.897C300.55 291.411 327.138 279.48 345.566 259.979C346.978 258.486 348.236 257.077 349.358 255.74C356.359 247.371 357.943 241.128 358.615 237.045L359.823 224.119L282.898 253.338Z" fill="#C0C0C0"/>
<path d="M30.5625 242.938C30.5625 243.146 30.5 243.333 30.375 243.5C30.25 243.646 30.0417 243.771 29.75 243.875C29.4583 243.979 29.0521 244.052 28.5312 244.094C28.0312 244.156 27.4062 244.188 26.6562 244.188C25.8854 244.188 25.2396 244.156 24.7188 244.094C24.2188 244.052 23.8229 243.979 23.5312 243.875C23.2396 243.771 23.0312 243.646 22.9062 243.5C22.7812 243.333 22.7188 243.146 22.7188 242.938V227.031C22.7188 225.677 22.6146 224.615 22.4062 223.844C22.2188 223.073 21.9375 222.417 21.5625 221.875C21.1875 221.312 20.6979 220.885 20.0938 220.594C19.5104 220.281 18.8229 220.125 18.0312 220.125C17.0312 220.125 16.0208 220.49 15 221.219C13.9792 221.948 12.9167 223.01 11.8125 224.406V242.938C11.8125 243.146 11.75 243.333 11.625 243.5C11.5 243.646 11.2812 243.771 10.9688 243.875C10.6771 243.979 10.2812 244.052 9.78125 244.094C9.28125 244.156 8.64583 244.188 7.875 244.188C7.10417 244.188 6.46875 244.156 5.96875 244.094C5.46875 244.052 5.0625 243.979 4.75 243.875C4.45833 243.771 4.25 243.646 4.125 243.5C4 243.333 3.9375 243.146 3.9375 242.938V201.844C3.9375 201.635 4 201.448 4.125 201.281C4.25 201.115 4.45833 200.979 4.75 200.875C5.0625 200.75 5.46875 200.656 5.96875 200.594C6.46875 200.531 7.10417 200.5 7.875 200.5C8.64583 200.5 9.28125 200.531 9.78125 200.594C10.2812 200.656 10.6771 200.75 10.9688 200.875C11.2812 200.979 11.5 201.115 11.625 201.281C11.75 201.448 11.8125 201.635 11.8125 201.844V217.25C13.1667 215.917 14.5417 214.927 15.9375 214.281C17.3542 213.615 18.8229 213.281 20.3438 213.281C22.2396 213.281 23.8333 213.594 25.125 214.219C26.4375 214.844 27.4896 215.698 28.2812 216.781C29.0938 217.865 29.6771 219.135 30.0312 220.594C30.3854 222.031 30.5625 223.781 30.5625 225.844V242.938ZM74 240.188C74 241.104 73.9375 241.802 73.8125 242.281C73.7083 242.76 73.5521 243.104 73.3438 243.312C73.1562 243.521 72.875 243.698 72.5 243.844C72.1458 243.99 71.7292 244.125 71.25 244.25C70.7708 244.375 70.2396 244.469 69.6562 244.531C69.0938 244.594 68.5312 244.625 67.9688 244.625C66.3854 244.625 65.0208 244.427 63.875 244.031C62.7292 243.635 61.7812 243.031 61.0312 242.219C60.2812 241.385 59.7292 240.344 59.375 239.094C59.0208 237.844 58.8438 236.365 58.8438 234.656V220.375H46.875V233.469C46.875 234.99 47.1146 236.135 47.5938 236.906C48.0729 237.656 48.9271 238.031 50.1562 238.031C50.5729 238.031 50.9479 238 51.2812 237.938C51.6146 237.854 51.9062 237.771 52.1562 237.688C52.4271 237.583 52.6458 237.5 52.8125 237.438C53 237.354 53.1667 237.312 53.3125 237.312C53.4375 237.312 53.5521 237.354 53.6562 237.438C53.7812 237.5 53.875 237.646 53.9375 237.875C54 238.083 54.0521 238.375 54.0938 238.75C54.1562 239.125 54.1875 239.604 54.1875 240.188C54.1875 240.771 54.1667 241.24 54.125 241.594C54.1042 241.927 54.0625 242.208 54 242.438C53.9583 242.667 53.8958 242.865 53.8125 243.031C53.75 243.177 53.6354 243.323 53.4688 243.469C53.3021 243.594 53.0417 243.729 52.6875 243.875C52.3333 244.021 51.9167 244.146 51.4375 244.25C50.9583 244.375 50.4271 244.469 49.8438 244.531C49.2812 244.594 48.7083 244.625 48.125 244.625C46.5625 244.625 45.2083 244.427 44.0625 244.031C42.9167 243.635 41.9688 243.031 41.2188 242.219C40.4688 241.385 39.9167 240.344 39.5625 239.094C39.2083 237.844 39.0312 236.365 39.0312 234.656V220.375H35.6875C35.2917 220.375 34.9896 220.135 34.7812 219.656C34.5729 219.156 34.4688 218.333 34.4688 217.188C34.4688 216.583 34.4896 216.073 34.5312 215.656C34.5938 215.24 34.6771 214.917 34.7812 214.688C34.8854 214.438 35.0104 214.26 35.1562 214.156C35.3229 214.052 35.5104 214 35.7188 214H39.0312V207.781C39.0312 207.573 39.0833 207.385 39.1875 207.219C39.3125 207.052 39.5208 206.917 39.8125 206.812C40.125 206.688 40.5312 206.604 41.0312 206.562C41.5521 206.5 42.1875 206.469 42.9375 206.469C43.7083 206.469 44.3438 206.5 44.8438 206.562C45.3646 206.604 45.7708 206.688 46.0625 206.812C46.3542 206.917 46.5625 207.052 46.6875 207.219C46.8125 207.385 46.875 207.573 46.875 207.781V214H58.8438V206.281C58.8438 206.073 58.8958 205.885 59 205.719C59.125 205.552 59.3333 205.417 59.625 205.312C59.9375 205.208 60.3438 205.125 60.8438 205.062C61.3646 205 62 204.969 62.75 204.969C63.5208 204.969 64.1562 205 64.6562 205.062C65.1771 205.125 65.5833 205.208 65.875 205.312C66.1667 205.417 66.375 205.552 66.5 205.719C66.625 205.885 66.6875 206.073 66.6875 206.281V214H72.75C72.9583 214 73.1354 214.052 73.2812 214.156C73.4271 214.26 73.5521 214.438 73.6562 214.688C73.7812 214.917 73.8646 215.24 73.9062 215.656C73.9688 216.073 74 216.583 74 217.188C74 218.333 73.8854 219.156 73.6562 219.656C73.4479 220.135 73.1562 220.375 72.7812 220.375H66.6875V233.469C66.6875 234.99 66.9167 236.135 67.375 236.906C67.8542 237.656 68.7188 238.031 69.9688 238.031C70.3854 238.031 70.7604 238 71.0938 237.938C71.4271 237.854 71.7188 237.771 71.9688 237.688C72.2188 237.583 72.4375 237.5 72.625 237.438C72.8125 237.354 72.9792 237.312 73.125 237.312C73.25 237.312 73.3646 237.354 73.4688 237.438C73.5729 237.5 73.6562 237.646 73.7188 237.875C73.8021 238.083 73.8646 238.375 73.9062 238.75C73.9688 239.125 74 239.604 74 240.188ZM107.75 228.594C107.75 231.073 107.479 233.312 106.938 235.312C106.417 237.292 105.646 238.979 104.625 240.375C103.604 241.771 102.333 242.844 100.812 243.594C99.2917 244.344 97.5521 244.719 95.5938 244.719C94.7812 244.719 94.0312 244.635 93.3438 244.469C92.6771 244.323 92.0208 244.094 91.375 243.781C90.75 243.448 90.125 243.042 89.5 242.562C88.875 242.083 88.2292 241.521 87.5625 240.875V254C87.5625 254.208 87.5 254.396 87.375 254.562C87.25 254.729 87.0312 254.865 86.7188 254.969C86.4271 255.094 86.0312 255.188 85.5312 255.25C85.0312 255.312 84.3958 255.344 83.625 255.344C82.8542 255.344 82.2188 255.312 81.7188 255.25C81.2188 255.188 80.8125 255.094 80.5 254.969C80.2083 254.865 80 254.729 79.875 254.562C79.75 254.396 79.6875 254.208 79.6875 254V215.062C79.6875 214.854 79.7396 214.677 79.8438 214.531C79.9479 214.365 80.125 214.229 80.375 214.125C80.6458 214.021 80.9896 213.948 81.4062 213.906C81.8438 213.844 82.3854 213.812 83.0312 213.812C83.6562 213.812 84.1771 213.844 84.5938 213.906C85.0312 213.948 85.375 214.021 85.625 214.125C85.8958 214.229 86.0833 214.365 86.1875 214.531C86.2917 214.677 86.3438 214.854 86.3438 215.062V218.344C87.1562 217.51 87.9479 216.781 88.7188 216.156C89.5104 215.51 90.3125 214.979 91.125 214.562C91.9375 214.125 92.7708 213.802 93.625 213.594C94.5 213.385 95.4271 213.281 96.4062 213.281C98.4479 213.281 100.188 213.688 101.625 214.5C103.062 215.292 104.229 216.385 105.125 217.781C106.042 219.177 106.708 220.802 107.125 222.656C107.542 224.51 107.75 226.49 107.75 228.594ZM99.5625 229.156C99.5625 227.969 99.4688 226.833 99.2812 225.75C99.1146 224.646 98.8125 223.667 98.375 222.812C97.9583 221.958 97.3958 221.281 96.6875 220.781C96 220.26 95.1354 220 94.0938 220C93.5729 220 93.0521 220.083 92.5312 220.25C92.0312 220.396 91.5104 220.646 90.9688 221C90.4479 221.354 89.9062 221.812 89.3438 222.375C88.7812 222.938 88.1875 223.635 87.5625 224.469V233.656C88.6667 235.052 89.7188 236.135 90.7188 236.906C91.7188 237.656 92.7604 238.031 93.8438 238.031C94.8646 238.031 95.7292 237.771 96.4375 237.25C97.1667 236.729 97.7604 236.052 98.2188 235.219C98.6771 234.365 99.0104 233.406 99.2188 232.344C99.4479 231.281 99.5625 230.219 99.5625 229.156ZM133.375 235.062C133.375 236.646 133.073 238.042 132.469 239.25C131.885 240.458 131.052 241.469 129.969 242.281C128.885 243.094 127.604 243.698 126.125 244.094C124.646 244.51 123.042 244.719 121.312 244.719C120.271 244.719 119.271 244.635 118.312 244.469C117.375 244.323 116.531 244.135 115.781 243.906C115.031 243.656 114.406 243.406 113.906 243.156C113.406 242.906 113.042 242.677 112.812 242.469C112.583 242.24 112.406 241.896 112.281 241.438C112.156 240.958 112.094 240.26 112.094 239.344C112.094 238.74 112.115 238.26 112.156 237.906C112.198 237.531 112.26 237.24 112.344 237.031C112.427 236.802 112.531 236.656 112.656 236.594C112.781 236.51 112.938 236.469 113.125 236.469C113.354 236.469 113.688 236.604 114.125 236.875C114.583 237.125 115.146 237.406 115.812 237.719C116.479 238.031 117.25 238.323 118.125 238.594C119.021 238.865 120.031 239 121.156 239C121.865 239 122.49 238.927 123.031 238.781C123.594 238.635 124.073 238.427 124.469 238.156C124.885 237.885 125.198 237.542 125.406 237.125C125.615 236.708 125.719 236.229 125.719 235.688C125.719 235.062 125.521 234.531 125.125 234.094C124.75 233.635 124.24 233.24 123.594 232.906C122.969 232.573 122.25 232.26 121.438 231.969C120.646 231.677 119.823 231.354 118.969 231C118.135 230.646 117.312 230.24 116.5 229.781C115.708 229.323 114.99 228.76 114.344 228.094C113.719 227.427 113.208 226.625 112.812 225.688C112.438 224.75 112.25 223.625 112.25 222.312C112.25 220.979 112.51 219.76 113.031 218.656C113.552 217.531 114.302 216.573 115.281 215.781C116.26 214.99 117.448 214.375 118.844 213.938C120.26 213.5 121.844 213.281 123.594 213.281C124.469 213.281 125.312 213.344 126.125 213.469C126.958 213.594 127.708 213.75 128.375 213.938C129.042 214.125 129.604 214.333 130.062 214.562C130.521 214.771 130.844 214.958 131.031 215.125C131.24 215.271 131.385 215.427 131.469 215.594C131.552 215.74 131.615 215.927 131.656 216.156C131.698 216.365 131.729 216.635 131.75 216.969C131.792 217.281 131.812 217.677 131.812 218.156C131.812 218.719 131.792 219.177 131.75 219.531C131.729 219.885 131.677 220.167 131.594 220.375C131.531 220.583 131.438 220.729 131.312 220.812C131.188 220.875 131.042 220.906 130.875 220.906C130.688 220.906 130.396 220.802 130 220.594C129.604 220.365 129.104 220.125 128.5 219.875C127.917 219.625 127.229 219.396 126.438 219.188C125.667 218.958 124.781 218.844 123.781 218.844C123.073 218.844 122.458 218.917 121.938 219.062C121.417 219.208 120.99 219.417 120.656 219.688C120.323 219.958 120.073 220.281 119.906 220.656C119.74 221.01 119.656 221.396 119.656 221.812C119.656 222.458 119.854 223 120.25 223.438C120.646 223.875 121.167 224.26 121.812 224.594C122.458 224.927 123.188 225.24 124 225.531C124.833 225.823 125.667 226.146 126.5 226.5C127.354 226.833 128.188 227.229 129 227.688C129.833 228.146 130.573 228.708 131.219 229.375C131.865 230.042 132.385 230.844 132.781 231.781C133.177 232.698 133.375 233.792 133.375 235.062ZM149.188 219.312C149.188 220.188 149.115 220.917 148.969 221.5C148.823 222.083 148.573 222.562 148.219 222.938C147.885 223.312 147.438 223.583 146.875 223.75C146.312 223.896 145.604 223.969 144.75 223.969C143.896 223.969 143.188 223.896 142.625 223.75C142.062 223.583 141.604 223.312 141.25 222.938C140.917 222.562 140.688 222.083 140.562 221.5C140.438 220.917 140.375 220.188 140.375 219.312C140.375 218.417 140.438 217.667 140.562 217.062C140.688 216.458 140.917 215.969 141.25 215.594C141.604 215.219 142.062 214.948 142.625 214.781C143.188 214.615 143.896 214.531 144.75 214.531C145.604 214.531 146.312 214.615 146.875 214.781C147.438 214.948 147.885 215.219 148.219 215.594C148.573 215.969 148.823 216.458 148.969 217.062C149.115 217.667 149.188 218.417 149.188 219.312ZM149.188 239.719C149.188 240.594 149.115 241.333 148.969 241.938C148.823 242.521 148.573 243 148.219 243.375C147.885 243.75 147.438 244.01 146.875 244.156C146.312 244.323 145.604 244.406 144.75 244.406C143.896 244.406 143.188 244.323 142.625 244.156C142.062 244.01 141.604 243.75 141.25 243.375C140.917 243 140.688 242.521 140.562 241.938C140.438 241.333 140.375 240.594 140.375 239.719C140.375 238.844 140.438 238.104 140.562 237.5C140.688 236.875 140.917 236.375 141.25 236C141.604 235.625 142.062 235.365 142.625 235.219C143.188 235.052 143.896 234.969 144.75 234.969C145.604 234.969 146.312 235.052 146.875 235.219C147.438 235.365 147.885 235.625 148.219 236C148.573 236.375 148.823 236.875 148.969 237.5C149.115 238.104 149.188 238.844 149.188 239.719ZM160.938 252.094C160.833 252.365 160.698 252.583 160.531 252.75C160.365 252.917 160.125 253.052 159.812 253.156C159.521 253.26 159.146 253.333 158.688 253.375C158.25 253.438 157.688 253.469 157 253.469C156.146 253.469 155.448 253.427 154.906 253.344C154.365 253.26 153.948 253.135 153.656 252.969C153.385 252.802 153.229 252.583 153.188 252.312C153.146 252.062 153.188 251.76 153.312 251.406L172 198.938C172.083 198.667 172.208 198.448 172.375 198.281C172.542 198.094 172.771 197.948 173.062 197.844C173.354 197.74 173.729 197.667 174.188 197.625C174.667 197.562 175.24 197.531 175.906 197.531C176.781 197.531 177.479 197.573 178 197.656C178.542 197.74 178.948 197.865 179.219 198.031C179.49 198.198 179.646 198.417 179.688 198.688C179.729 198.938 179.698 199.24 179.594 199.594L160.938 252.094ZM188.438 252.094C188.333 252.365 188.198 252.583 188.031 252.75C187.865 252.917 187.625 253.052 187.312 253.156C187.021 253.26 186.646 253.333 186.188 253.375C185.75 253.438 185.188 253.469 184.5 253.469C183.646 253.469 182.948 253.427 182.406 253.344C181.865 253.26 181.448 253.135 181.156 252.969C180.885 252.802 180.729 252.583 180.688 252.312C180.646 252.062 180.688 251.76 180.812 251.406L199.5 198.938C199.583 198.667 199.708 198.448 199.875 198.281C200.042 198.094 200.271 197.948 200.562 197.844C200.854 197.74 201.229 197.667 201.688 197.625C202.167 197.562 202.74 197.531 203.406 197.531C204.281 197.531 204.979 197.573 205.5 197.656C206.042 197.74 206.448 197.865 206.719 198.031C206.99 198.198 207.146 198.417 207.188 198.688C207.229 198.938 207.198 199.24 207.094 199.594L188.438 252.094ZM254.656 215C254.656 215.229 254.625 215.51 254.562 215.844C254.5 216.177 254.385 216.656 254.219 217.281L246.781 242.5C246.677 242.854 246.542 243.146 246.375 243.375C246.208 243.583 245.948 243.75 245.594 243.875C245.26 244 244.771 244.083 244.125 244.125C243.5 244.167 242.677 244.188 241.656 244.188C240.635 244.188 239.802 244.156 239.156 244.094C238.51 244.052 238 243.969 237.625 243.844C237.271 243.719 237.01 243.552 236.844 243.344C236.677 243.115 236.552 242.833 236.469 242.5L231.781 225.562L231.719 225.281L231.656 225.562L227.344 242.5C227.26 242.854 227.135 243.146 226.969 243.375C226.823 243.583 226.562 243.75 226.188 243.875C225.812 244 225.302 244.083 224.656 244.125C224.01 244.167 223.177 244.188 222.156 244.188C221.115 244.188 220.271 244.156 219.625 244.094C219 244.052 218.5 243.969 218.125 243.844C217.771 243.719 217.51 243.552 217.344 243.344C217.177 243.115 217.052 242.833 216.969 242.5L209.594 217.281C209.406 216.677 209.281 216.208 209.219 215.875C209.177 215.521 209.156 215.229 209.156 215C209.156 214.792 209.208 214.615 209.312 214.469C209.438 214.302 209.646 214.177 209.938 214.094C210.25 213.99 210.656 213.917 211.156 213.875C211.677 213.833 212.323 213.812 213.094 213.812C213.927 213.812 214.604 213.833 215.125 213.875C215.646 213.917 216.052 213.99 216.344 214.094C216.635 214.198 216.833 214.344 216.938 214.531C217.062 214.698 217.156 214.906 217.219 215.156L222.75 235.625L222.812 236L222.875 235.625L228.062 215.156C228.125 214.906 228.219 214.698 228.344 214.531C228.49 214.344 228.698 214.198 228.969 214.094C229.24 213.99 229.615 213.917 230.094 213.875C230.594 213.833 231.229 213.812 232 213.812C232.771 213.812 233.396 213.844 233.875 213.906C234.354 213.948 234.729 214.021 235 214.125C235.292 214.208 235.49 214.333 235.594 214.5C235.719 214.646 235.812 214.823 235.875 215.031L241.438 235.656L241.531 236L241.594 235.625L246.906 215.156C246.948 214.906 247.031 214.698 247.156 214.531C247.281 214.344 247.49 214.198 247.781 214.094C248.073 213.99 248.469 213.917 248.969 213.875C249.469 213.833 250.104 213.812 250.875 213.812C251.646 213.812 252.271 213.833 252.75 213.875C253.25 213.917 253.635 213.99 253.906 214.094C254.198 214.177 254.396 214.302 254.5 214.469C254.604 214.615 254.656 214.792 254.656 215ZM302.719 215C302.719 215.229 302.688 215.51 302.625 215.844C302.562 216.177 302.448 216.656 302.281 217.281L294.844 242.5C294.74 242.854 294.604 243.146 294.438 243.375C294.271 243.583 294.01 243.75 293.656 243.875C293.323 244 292.833 244.083 292.188 244.125C291.562 244.167 290.74 244.188 289.719 244.188C288.698 244.188 287.865 244.156 287.219 244.094C286.573 244.052 286.062 243.969 285.688 243.844C285.333 243.719 285.073 243.552 284.906 243.344C284.74 243.115 284.615 242.833 284.531 242.5L279.844 225.562L279.781 225.281L279.719 225.562L275.406 242.5C275.323 242.854 275.198 243.146 275.031 243.375C274.885 243.583 274.625 243.75 274.25 243.875C273.875 244 273.365 244.083 272.719 244.125C272.073 244.167 271.24 244.188 270.219 244.188C269.177 244.188 268.333 244.156 267.688 244.094C267.062 244.052 266.562 243.969 266.188 243.844C265.833 243.719 265.573 243.552 265.406 243.344C265.24 243.115 265.115 242.833 265.031 242.5L257.656 217.281C257.469 216.677 257.344 216.208 257.281 215.875C257.24 215.521 257.219 215.229 257.219 215C257.219 214.792 257.271 214.615 257.375 214.469C257.5 214.302 257.708 214.177 258 214.094C258.312 213.99 258.719 213.917 259.219 213.875C259.74 213.833 260.385 213.812 261.156 213.812C261.99 213.812 262.667 213.833 263.188 213.875C263.708 213.917 264.115 213.99 264.406 214.094C264.698 214.198 264.896 214.344 265 214.531C265.125 214.698 265.219 214.906 265.281 215.156L270.812 235.625L270.875 236L270.938 235.625L276.125 215.156C276.188 214.906 276.281 214.698 276.406 214.531C276.552 214.344 276.76 214.198 277.031 214.094C277.302 213.99 277.677 213.917 278.156 213.875C278.656 213.833 279.292 213.812 280.062 213.812C280.833 213.812 281.458 213.844 281.938 213.906C282.417 213.948 282.792 214.021 283.062 214.125C283.354 214.208 283.552 214.333 283.656 214.5C283.781 214.646 283.875 214.823 283.938 215.031L289.5 235.656L289.594 236L289.656 235.625L294.969 215.156C295.01 214.906 295.094 214.698 295.219 214.531C295.344 214.344 295.552 214.198 295.844 214.094C296.135 213.99 296.531 213.917 297.031 213.875C297.531 213.833 298.167 213.812 298.938 213.812C299.708 213.812 300.333 213.833 300.812 213.875C301.312 213.917 301.698 213.99 301.969 214.094C302.26 214.177 302.458 214.302 302.562 214.469C302.667 214.615 302.719 214.792 302.719 215ZM350.781 215C350.781 215.229 350.75 215.51 350.688 215.844C350.625 216.177 350.51 216.656 350.344 217.281L342.906 242.5C342.802 242.854 342.667 243.146 342.5 243.375C342.333 243.583 342.073 243.75 341.719 243.875C341.385 244 340.896 244.083 340.25 244.125C339.625 244.167 338.802 244.188 337.781 244.188C336.76 244.188 335.927 244.156 335.281 244.094C334.635 244.052 334.125 243.969 333.75 243.844C333.396 243.719 333.135 243.552 332.969 243.344C332.802 243.115 332.677 242.833 332.594 242.5L327.906 225.562L327.844 225.281L327.781 225.562L323.469 242.5C323.385 242.854 323.26 243.146 323.094 243.375C322.948 243.583 322.688 243.75 322.312 243.875C321.938 244 321.427 244.083 320.781 244.125C320.135 244.167 319.302 244.188 318.281 244.188C317.24 244.188 316.396 244.156 315.75 244.094C315.125 244.052 314.625 243.969 314.25 243.844C313.896 243.719 313.635 243.552 313.469 243.344C313.302 243.115 313.177 242.833 313.094 242.5L305.719 217.281C305.531 216.677 305.406 216.208 305.344 215.875C305.302 215.521 305.281 215.229 305.281 215C305.281 214.792 305.333 214.615 305.438 214.469C305.562 214.302 305.771 214.177 306.062 214.094C306.375 213.99 306.781 213.917 307.281 213.875C307.802 213.833 308.448 213.812 309.219 213.812C310.052 213.812 310.729 213.833 311.25 213.875C311.771 213.917 312.177 213.99 312.469 214.094C312.76 214.198 312.958 214.344 313.062 214.531C313.188 214.698 313.281 214.906 313.344 215.156L318.875 235.625L318.938 236L319 235.625L324.188 215.156C324.25 214.906 324.344 214.698 324.469 214.531C324.615 214.344 324.823 214.198 325.094 214.094C325.365 213.99 325.74 213.917 326.219 213.875C326.719 213.833 327.354 213.812 328.125 213.812C328.896 213.812 329.521 213.844 330 213.906C330.479 213.948 330.854 214.021 331.125 214.125C331.417 214.208 331.615 214.333 331.719 214.5C331.844 214.646 331.938 214.823 332 215.031L337.562 235.656L337.656 236L337.719 235.625L343.031 215.156C343.073 214.906 343.156 214.698 343.281 214.531C343.406 214.344 343.615 214.198 343.906 214.094C344.198 213.99 344.594 213.917 345.094 213.875C345.594 213.833 346.229 213.812 347 213.812C347.771 213.812 348.396 213.833 348.875 213.875C349.375 213.917 349.76 213.99 350.031 214.094C350.323 214.177 350.521 214.302 350.625 214.469C350.729 214.615 350.781 214.792 350.781 215ZM361.312 239.5C361.312 241.438 360.969 242.74 360.281 243.406C359.615 244.073 358.406 244.406 356.656 244.406C354.906 244.406 353.698 244.083 353.031 243.438C352.365 242.771 352.031 241.521 352.031 239.688C352.031 237.729 352.365 236.417 353.031 235.75C353.719 235.083 354.948 234.75 356.719 234.75C358.448 234.75 359.646 235.083 360.312 235.75C360.979 236.396 361.312 237.646 361.312 239.5ZM394.938 228.188C394.938 229.146 394.719 229.854 394.281 230.312C393.865 230.771 393.281 231 392.531 231H375.562C375.562 232.188 375.698 233.271 375.969 234.25C376.26 235.208 376.708 236.031 377.312 236.719C377.938 237.385 378.729 237.896 379.688 238.25C380.667 238.604 381.833 238.781 383.188 238.781C384.562 238.781 385.771 238.688 386.812 238.5C387.854 238.292 388.75 238.073 389.5 237.844C390.271 237.594 390.906 237.375 391.406 237.188C391.906 236.979 392.312 236.875 392.625 236.875C392.812 236.875 392.969 236.917 393.094 237C393.219 237.062 393.323 237.188 393.406 237.375C393.49 237.562 393.542 237.833 393.562 238.188C393.604 238.521 393.625 238.948 393.625 239.469C393.625 239.927 393.615 240.323 393.594 240.656C393.573 240.969 393.542 241.24 393.5 241.469C393.458 241.698 393.396 241.896 393.312 242.062C393.229 242.208 393.115 242.354 392.969 242.5C392.844 242.646 392.479 242.844 391.875 243.094C391.271 243.344 390.5 243.594 389.562 243.844C388.625 244.073 387.552 244.271 386.344 244.438C385.135 244.625 383.844 244.719 382.469 244.719C379.99 244.719 377.812 244.406 375.938 243.781C374.083 243.156 372.531 242.208 371.281 240.938C370.031 239.667 369.094 238.062 368.469 236.125C367.865 234.188 367.562 231.917 367.562 229.312C367.562 226.833 367.885 224.604 368.531 222.625C369.177 220.625 370.115 218.938 371.344 217.562C372.573 216.167 374.062 215.104 375.812 214.375C377.583 213.646 379.573 213.281 381.781 213.281C384.115 213.281 386.104 213.625 387.75 214.312C389.417 215 390.781 215.958 391.844 217.188C392.906 218.396 393.688 219.833 394.188 221.5C394.688 223.167 394.938 224.979 394.938 226.938V228.188ZM387.312 225.938C387.375 223.729 386.927 222 385.969 220.75C385.031 219.479 383.573 218.844 381.594 218.844C380.594 218.844 379.719 219.031 378.969 219.406C378.24 219.781 377.625 220.292 377.125 220.938C376.646 221.562 376.271 222.312 376 223.188C375.75 224.042 375.604 224.958 375.562 225.938H387.312ZM424.656 242.375C424.823 242.729 424.896 243.021 424.875 243.25C424.875 243.479 424.729 243.667 424.438 243.812C424.146 243.958 423.698 244.052 423.094 244.094C422.49 244.156 421.688 244.188 420.688 244.188C419.75 244.188 418.99 244.167 418.406 244.125C417.844 244.104 417.396 244.052 417.062 243.969C416.75 243.865 416.51 243.75 416.344 243.625C416.198 243.479 416.083 243.302 416 243.094L410.844 233.188L405.688 243.094C405.604 243.302 405.49 243.479 405.344 243.625C405.198 243.75 404.969 243.865 404.656 243.969C404.365 244.052 403.948 244.104 403.406 244.125C402.865 244.167 402.156 244.188 401.281 244.188C400.365 244.188 399.635 244.156 399.094 244.094C398.552 244.052 398.156 243.958 397.906 243.812C397.656 243.667 397.521 243.479 397.5 243.25C397.5 243.021 397.594 242.729 397.781 242.375L405.5 228.656L398.375 215.781C398.188 215.406 398.083 215.094 398.062 214.844C398.062 214.573 398.198 214.365 398.469 214.219C398.74 214.073 399.167 213.969 399.75 213.906C400.354 213.844 401.167 213.812 402.188 213.812C403.104 213.812 403.833 213.833 404.375 213.875C404.938 213.896 405.375 213.938 405.688 214C406 214.062 406.229 214.167 406.375 214.312C406.521 214.438 406.646 214.604 406.75 214.812L411.719 224.125L416.656 214.812C416.719 214.646 416.812 214.5 416.938 214.375C417.062 214.25 417.26 214.146 417.531 214.062C417.802 213.979 418.167 213.917 418.625 213.875C419.104 213.833 419.75 213.812 420.562 213.812C421.479 213.812 422.208 213.833 422.75 213.875C423.312 213.917 423.708 214.01 423.938 214.156C424.188 214.302 424.302 214.51 424.281 214.781C424.281 215.031 424.167 215.365 423.938 215.781L417 228.438L424.656 242.375ZM452.625 243.031C452.625 243.323 452.521 243.552 452.312 243.719C452.104 243.885 451.771 244 451.312 244.062C450.875 244.146 450.219 244.188 449.344 244.188C448.406 244.188 447.719 244.146 447.281 244.062C446.865 244 446.562 243.885 446.375 243.719C446.208 243.552 446.125 243.323 446.125 243.031V240.812C444.979 242.042 443.667 243 442.188 243.688C440.729 244.375 439.104 244.719 437.312 244.719C435.833 244.719 434.469 244.521 433.219 244.125C431.99 243.75 430.917 243.188 430 242.438C429.104 241.667 428.406 240.719 427.906 239.594C427.406 238.469 427.156 237.156 427.156 235.656C427.156 234.031 427.469 232.625 428.094 231.438C428.74 230.229 429.688 229.24 430.938 228.469C432.208 227.677 433.781 227.094 435.656 226.719C437.531 226.344 439.708 226.156 442.188 226.156H444.906V224.469C444.906 223.594 444.812 222.833 444.625 222.188C444.458 221.521 444.167 220.969 443.75 220.531C443.354 220.094 442.812 219.771 442.125 219.562C441.458 219.354 440.625 219.25 439.625 219.25C438.312 219.25 437.135 219.396 436.094 219.688C435.073 219.979 434.167 220.302 433.375 220.656C432.583 221.01 431.917 221.333 431.375 221.625C430.854 221.917 430.427 222.062 430.094 222.062C429.865 222.062 429.656 221.99 429.469 221.844C429.302 221.698 429.156 221.49 429.031 221.219C428.927 220.948 428.844 220.615 428.781 220.219C428.719 219.823 428.688 219.385 428.688 218.906C428.688 218.26 428.74 217.75 428.844 217.375C428.948 217 429.146 216.667 429.438 216.375C429.729 216.062 430.24 215.729 430.969 215.375C431.698 215 432.552 214.656 433.531 214.344C434.51 214.031 435.573 213.781 436.719 213.594C437.885 213.385 439.083 213.281 440.312 213.281C442.5 213.281 444.365 213.5 445.906 213.938C447.469 214.354 448.75 215.01 449.75 215.906C450.75 216.781 451.479 217.917 451.938 219.312C452.396 220.708 452.625 222.365 452.625 224.281V243.031ZM444.906 231.094H441.906C440.635 231.094 439.552 231.188 438.656 231.375C437.76 231.562 437.031 231.844 436.469 232.219C435.906 232.594 435.49 233.052 435.219 233.594C434.969 234.115 434.844 234.719 434.844 235.406C434.844 236.573 435.208 237.49 435.938 238.156C436.688 238.823 437.719 239.156 439.031 239.156C440.135 239.156 441.146 238.875 442.062 238.312C443 237.75 443.948 236.927 444.906 235.844V231.094ZM504.844 242.938C504.844 243.146 504.781 243.333 504.656 243.5C504.531 243.646 504.323 243.771 504.031 243.875C503.74 243.979 503.344 244.052 502.844 244.094C502.344 244.156 501.708 244.188 500.938 244.188C500.146 244.188 499.5 244.156 499 244.094C498.5 244.052 498.094 243.979 497.781 243.875C497.49 243.771 497.281 243.646 497.156 243.5C497.052 243.333 497 243.146 497 242.938V226.406C497 225.469 496.906 224.615 496.719 223.844C496.552 223.073 496.281 222.417 495.906 221.875C495.552 221.312 495.094 220.885 494.531 220.594C493.99 220.281 493.333 220.125 492.562 220.125C491.625 220.125 490.677 220.49 489.719 221.219C488.76 221.948 487.719 223.01 486.594 224.406V242.938C486.594 243.146 486.531 243.333 486.406 243.5C486.281 243.646 486.062 243.771 485.75 243.875C485.458 243.979 485.062 244.052 484.562 244.094C484.062 244.156 483.438 244.188 482.688 244.188C481.917 244.188 481.281 244.156 480.781 244.094C480.281 244.052 479.875 243.979 479.562 243.875C479.271 243.771 479.062 243.646 478.938 243.5C478.812 243.333 478.75 243.146 478.75 242.938V226.406C478.75 225.469 478.656 224.615 478.469 223.844C478.302 223.073 478.042 222.417 477.688 221.875C477.333 221.312 476.875 220.885 476.312 220.594C475.75 220.281 475.094 220.125 474.344 220.125C473.385 220.125 472.427 220.49 471.469 221.219C470.51 221.948 469.479 223.01 468.375 224.406V242.938C468.375 243.146 468.312 243.333 468.188 243.5C468.062 243.646 467.844 243.771 467.531 243.875C467.24 243.979 466.844 244.052 466.344 244.094C465.844 244.156 465.208 244.188 464.438 244.188C463.667 244.188 463.031 244.156 462.531 244.094C462.031 244.052 461.625 243.979 461.312 243.875C461.021 243.771 460.812 243.646 460.688 243.5C460.562 243.333 460.5 243.146 460.5 242.938V215.062C460.5 214.854 460.552 214.677 460.656 214.531C460.76 214.365 460.948 214.229 461.219 214.125C461.49 214.021 461.833 213.948 462.25 213.906C462.688 213.844 463.229 213.812 463.875 213.812C464.542 213.812 465.094 213.844 465.531 213.906C465.969 213.948 466.302 214.021 466.531 214.125C466.781 214.229 466.958 214.365 467.062 214.531C467.167 214.677 467.219 214.854 467.219 215.062V218.281C468.76 216.615 470.292 215.365 471.812 214.531C473.354 213.698 474.958 213.281 476.625 213.281C477.771 213.281 478.802 213.406 479.719 213.656C480.635 213.885 481.448 214.229 482.156 214.688C482.885 215.125 483.51 215.656 484.031 216.281C484.552 216.906 484.99 217.604 485.344 218.375C486.177 217.479 486.99 216.708 487.781 216.062C488.594 215.417 489.385 214.896 490.156 214.5C490.948 214.083 491.729 213.781 492.5 213.594C493.292 213.385 494.094 213.281 494.906 213.281C496.76 213.281 498.323 213.594 499.594 214.219C500.865 214.844 501.885 215.698 502.656 216.781C503.448 217.844 504.01 219.094 504.344 220.531C504.677 221.969 504.844 223.49 504.844 225.094V242.938ZM540.625 228.594C540.625 231.073 540.354 233.312 539.812 235.312C539.292 237.292 538.521 238.979 537.5 240.375C536.479 241.771 535.208 242.844 533.688 243.594C532.167 244.344 530.427 244.719 528.469 244.719C527.656 244.719 526.906 244.635 526.219 244.469C525.552 244.323 524.896 244.094 524.25 243.781C523.625 243.448 523 243.042 522.375 242.562C521.75 242.083 521.104 241.521 520.438 240.875V254C520.438 254.208 520.375 254.396 520.25 254.562C520.125 254.729 519.906 254.865 519.594 254.969C519.302 255.094 518.906 255.188 518.406 255.25C517.906 255.312 517.271 255.344 516.5 255.344C515.729 255.344 515.094 255.312 514.594 255.25C514.094 255.188 513.688 255.094 513.375 254.969C513.083 254.865 512.875 254.729 512.75 254.562C512.625 254.396 512.562 254.208 512.562 254V215.062C512.562 214.854 512.615 214.677 512.719 214.531C512.823 214.365 513 214.229 513.25 214.125C513.521 214.021 513.865 213.948 514.281 213.906C514.719 213.844 515.26 213.812 515.906 213.812C516.531 213.812 517.052 213.844 517.469 213.906C517.906 213.948 518.25 214.021 518.5 214.125C518.771 214.229 518.958 214.365 519.062 214.531C519.167 214.677 519.219 214.854 519.219 215.062V218.344C520.031 217.51 520.823 216.781 521.594 216.156C522.385 215.51 523.188 214.979 524 214.562C524.812 214.125 525.646 213.802 526.5 213.594C527.375 213.385 528.302 213.281 529.281 213.281C531.323 213.281 533.062 213.688 534.5 214.5C535.938 215.292 537.104 216.385 538 217.781C538.917 219.177 539.583 220.802 540 222.656C540.417 224.51 540.625 226.49 540.625 228.594ZM532.438 229.156C532.438 227.969 532.344 226.833 532.156 225.75C531.99 224.646 531.688 223.667 531.25 222.812C530.833 221.958 530.271 221.281 529.562 220.781C528.875 220.26 528.01 220 526.969 220C526.448 220 525.927 220.083 525.406 220.25C524.906 220.396 524.385 220.646 523.844 221C523.323 221.354 522.781 221.812 522.219 222.375C521.656 222.938 521.062 223.635 520.438 224.469V233.656C521.542 235.052 522.594 236.135 523.594 236.906C524.594 237.656 525.635 238.031 526.719 238.031C527.74 238.031 528.604 237.771 529.312 237.25C530.042 236.729 530.635 236.052 531.094 235.219C531.552 234.365 531.885 233.406 532.094 232.344C532.323 231.281 532.438 230.219 532.438 229.156ZM554.812 242.938C554.812 243.146 554.75 243.333 554.625 243.5C554.5 243.646 554.281 243.771 553.969 243.875C553.677 243.979 553.281 244.052 552.781 244.094C552.281 244.156 551.646 244.188 550.875 244.188C550.104 244.188 549.469 244.156 548.969 244.094C548.469 244.052 548.062 243.979 547.75 243.875C547.458 243.771 547.25 243.646 547.125 243.5C547 243.333 546.938 243.146 546.938 242.938V201.844C546.938 201.635 547 201.448 547.125 201.281C547.25 201.115 547.458 200.979 547.75 200.875C548.062 200.75 548.469 200.656 548.969 200.594C549.469 200.531 550.104 200.5 550.875 200.5C551.646 200.5 552.281 200.531 552.781 200.594C553.281 200.656 553.677 200.75 553.969 200.875C554.281 200.979 554.5 201.115 554.625 201.281C554.75 201.448 554.812 201.635 554.812 201.844V242.938ZM588.438 228.188C588.438 229.146 588.219 229.854 587.781 230.312C587.365 230.771 586.781 231 586.031 231H569.062C569.062 232.188 569.198 233.271 569.469 234.25C569.76 235.208 570.208 236.031 570.812 236.719C571.438 237.385 572.229 237.896 573.188 238.25C574.167 238.604 575.333 238.781 576.688 238.781C578.062 238.781 579.271 238.688 580.312 238.5C581.354 238.292 582.25 238.073 583 237.844C583.771 237.594 584.406 237.375 584.906 237.188C585.406 236.979 585.812 236.875 586.125 236.875C586.312 236.875 586.469 236.917 586.594 237C586.719 237.062 586.823 237.188 586.906 237.375C586.99 237.562 587.042 237.833 587.062 238.188C587.104 238.521 587.125 238.948 587.125 239.469C587.125 239.927 587.115 240.323 587.094 240.656C587.073 240.969 587.042 241.24 587 241.469C586.958 241.698 586.896 241.896 586.812 242.062C586.729 242.208 586.615 242.354 586.469 242.5C586.344 242.646 585.979 242.844 585.375 243.094C584.771 243.344 584 243.594 583.062 243.844C582.125 244.073 581.052 244.271 579.844 244.438C578.635 244.625 577.344 244.719 575.969 244.719C573.49 244.719 571.312 244.406 569.438 243.781C567.583 243.156 566.031 242.208 564.781 240.938C563.531 239.667 562.594 238.062 561.969 236.125C561.365 234.188 561.062 231.917 561.062 229.312C561.062 226.833 561.385 224.604 562.031 222.625C562.677 220.625 563.615 218.938 564.844 217.562C566.073 216.167 567.562 215.104 569.312 214.375C571.083 213.646 573.073 213.281 575.281 213.281C577.615 213.281 579.604 213.625 581.25 214.312C582.917 215 584.281 215.958 585.344 217.188C586.406 218.396 587.188 219.833 587.688 221.5C588.188 223.167 588.438 224.979 588.438 226.938V228.188ZM580.812 225.938C580.875 223.729 580.427 222 579.469 220.75C578.531 219.479 577.073 218.844 575.094 218.844C574.094 218.844 573.219 219.031 572.469 219.406C571.74 219.781 571.125 220.292 570.625 220.938C570.146 221.562 569.771 222.312 569.5 223.188C569.25 224.042 569.104 224.958 569.062 225.938H580.812ZM604.188 239.5C604.188 241.438 603.844 242.74 603.156 243.406C602.49 244.073 601.281 244.406 599.531 244.406C597.781 244.406 596.573 244.083 595.906 243.438C595.24 242.771 594.906 241.521 594.906 239.688C594.906 237.729 595.24 236.417 595.906 235.75C596.594 235.083 597.823 234.75 599.594 234.75C601.323 234.75 602.521 235.083 603.188 235.75C603.854 236.396 604.188 237.646 604.188 239.5ZM633.156 238.5C633.156 239.042 633.135 239.5 633.094 239.875C633.073 240.229 633.031 240.531 632.969 240.781C632.927 241.031 632.865 241.24 632.781 241.406C632.719 241.552 632.562 241.75 632.312 242C632.062 242.229 631.635 242.521 631.031 242.875C630.427 243.208 629.74 243.51 628.969 243.781C628.198 244.052 627.354 244.271 626.438 244.438C625.542 244.604 624.615 244.688 623.656 244.688C621.51 244.688 619.604 244.354 617.938 243.688C616.292 243.021 614.906 242.042 613.781 240.75C612.656 239.438 611.802 237.844 611.219 235.969C610.656 234.094 610.375 231.948 610.375 229.531C610.375 226.74 610.719 224.333 611.406 222.312C612.115 220.271 613.094 218.583 614.344 217.25C615.594 215.917 617.073 214.927 618.781 214.281C620.49 213.635 622.365 213.312 624.406 213.312C625.24 213.312 626.052 213.385 626.844 213.531C627.656 213.677 628.406 213.875 629.094 214.125C629.802 214.375 630.427 214.656 630.969 214.969C631.531 215.281 631.927 215.552 632.156 215.781C632.385 216.01 632.542 216.208 632.625 216.375C632.729 216.521 632.802 216.719 632.844 216.969C632.906 217.219 632.948 217.531 632.969 217.906C633.01 218.26 633.031 218.698 633.031 219.219C633.031 220.427 632.927 221.281 632.719 221.781C632.51 222.26 632.24 222.5 631.906 222.5C631.552 222.5 631.177 222.354 630.781 222.062C630.385 221.771 629.917 221.448 629.375 221.094C628.833 220.74 628.188 220.417 627.438 220.125C626.688 219.833 625.792 219.688 624.75 219.688C622.708 219.688 621.146 220.479 620.062 222.062C618.979 223.625 618.438 225.927 618.438 228.969C618.438 230.469 618.573 231.792 618.844 232.938C619.115 234.083 619.51 235.042 620.031 235.812C620.573 236.583 621.24 237.167 622.031 237.562C622.844 237.938 623.781 238.125 624.844 238.125C625.927 238.125 626.854 237.969 627.625 237.656C628.417 237.323 629.104 236.958 629.688 236.562C630.271 236.167 630.76 235.812 631.156 235.5C631.552 235.167 631.885 235 632.156 235C632.344 235 632.5 235.052 632.625 235.156C632.75 235.26 632.844 235.458 632.906 235.75C632.99 236.021 633.052 236.375 633.094 236.812C633.135 237.25 633.156 237.812 633.156 238.5ZM666.75 228.719C666.75 231.094 666.438 233.26 665.812 235.219C665.188 237.177 664.24 238.865 662.969 240.281C661.698 241.698 660.104 242.792 658.188 243.562C656.271 244.333 654.031 244.719 651.469 244.719C648.99 244.719 646.833 244.375 645 243.688C643.167 243 641.646 242 640.438 240.688C639.229 239.375 638.333 237.76 637.75 235.844C637.167 233.927 636.875 231.74 636.875 229.281C636.875 226.906 637.188 224.74 637.812 222.781C638.458 220.802 639.417 219.115 640.688 217.719C641.958 216.302 643.542 215.208 645.438 214.438C647.354 213.667 649.594 213.281 652.156 213.281C654.656 213.281 656.823 213.625 658.656 214.312C660.49 214.979 662 215.969 663.188 217.281C664.396 218.594 665.292 220.208 665.875 222.125C666.458 224.042 666.75 226.24 666.75 228.719ZM658.656 229.031C658.656 227.656 658.542 226.396 658.312 225.25C658.104 224.083 657.74 223.073 657.219 222.219C656.698 221.365 656 220.698 655.125 220.219C654.271 219.74 653.188 219.5 651.875 219.5C650.708 219.5 649.688 219.719 648.812 220.156C647.938 220.573 647.219 221.198 646.656 222.031C646.094 222.844 645.667 223.833 645.375 225C645.104 226.146 644.969 227.458 644.969 228.938C644.969 230.312 645.083 231.583 645.312 232.75C645.542 233.896 645.906 234.896 646.406 235.75C646.927 236.604 647.625 237.271 648.5 237.75C649.375 238.208 650.458 238.438 651.75 238.438C652.938 238.438 653.969 238.229 654.844 237.812C655.719 237.375 656.438 236.75 657 235.938C657.562 235.125 657.979 234.146 658.25 233C658.521 231.833 658.656 230.51 658.656 229.031ZM717.344 242.938C717.344 243.146 717.281 243.333 717.156 243.5C717.031 243.646 716.823 243.771 716.531 243.875C716.24 243.979 715.844 244.052 715.344 244.094C714.844 244.156 714.208 244.188 713.438 244.188C712.646 244.188 712 244.156 711.5 244.094C711 244.052 710.594 243.979 710.281 243.875C709.99 243.771 709.781 243.646 709.656 243.5C709.552 243.333 709.5 243.146 709.5 242.938V226.406C709.5 225.469 709.406 224.615 709.219 223.844C709.052 223.073 708.781 222.417 708.406 221.875C708.052 221.312 707.594 220.885 707.031 220.594C706.49 220.281 705.833 220.125 705.062 220.125C704.125 220.125 703.177 220.49 702.219 221.219C701.26 221.948 700.219 223.01 699.094 224.406V242.938C699.094 243.146 699.031 243.333 698.906 243.5C698.781 243.646 698.562 243.771 698.25 243.875C697.958 243.979 697.562 244.052 697.062 244.094C696.562 244.156 695.938 244.188 695.188 244.188C694.417 244.188 693.781 244.156 693.281 244.094C692.781 244.052 692.375 243.979 692.062 243.875C691.771 243.771 691.562 243.646 691.438 243.5C691.312 243.333 691.25 243.146 691.25 242.938V226.406C691.25 225.469 691.156 224.615 690.969 223.844C690.802 223.073 690.542 222.417 690.188 221.875C689.833 221.312 689.375 220.885 688.812 220.594C688.25 220.281 687.594 220.125 686.844 220.125C685.885 220.125 684.927 220.49 683.969 221.219C683.01 221.948 681.979 223.01 680.875 224.406V242.938C680.875 243.146 680.812 243.333 680.688 243.5C680.562 243.646 680.344 243.771 680.031 243.875C679.74 243.979 679.344 244.052 678.844 244.094C678.344 244.156 677.708 244.188 676.938 244.188C676.167 244.188 675.531 244.156 675.031 244.094C674.531 244.052 674.125 243.979 673.812 243.875C673.521 243.771 673.312 243.646 673.188 243.5C673.062 243.333 673 243.146 673 242.938V215.062C673 214.854 673.052 214.677 673.156 214.531C673.26 214.365 673.448 214.229 673.719 214.125C673.99 214.021 674.333 213.948 674.75 213.906C675.188 213.844 675.729 213.812 676.375 213.812C677.042 213.812 677.594 213.844 678.031 213.906C678.469 213.948 678.802 214.021 679.031 214.125C679.281 214.229 679.458 214.365 679.562 214.531C679.667 214.677 679.719 214.854 679.719 215.062V218.281C681.26 216.615 682.792 215.365 684.312 214.531C685.854 213.698 687.458 213.281 689.125 213.281C690.271 213.281 691.302 213.406 692.219 213.656C693.135 213.885 693.948 214.229 694.656 214.688C695.385 215.125 696.01 215.656 696.531 216.281C697.052 216.906 697.49 217.604 697.844 218.375C698.677 217.479 699.49 216.708 700.281 216.062C701.094 215.417 701.885 214.896 702.656 214.5C703.448 214.083 704.229 213.781 705 213.594C705.792 213.385 706.594 213.281 707.406 213.281C709.26 213.281 710.823 213.594 712.094 214.219C713.365 214.844 714.385 215.698 715.156 216.781C715.948 217.844 716.51 219.094 716.844 220.531C717.177 221.969 717.344 223.49 717.344 225.094V242.938ZM729 252.094C728.896 252.365 728.76 252.583 728.594 252.75C728.427 252.917 728.188 253.052 727.875 253.156C727.583 253.26 727.208 253.333 726.75 253.375C726.312 253.438 725.75 253.469 725.062 253.469C724.208 253.469 723.51 253.427 722.969 253.344C722.427 253.26 722.01 253.135 721.719 252.969C721.448 252.802 721.292 252.583 721.25 252.312C721.208 252.062 721.25 251.76 721.375 251.406L740.062 198.938C740.146 198.667 740.271 198.448 740.438 198.281C740.604 198.094 740.833 197.948 741.125 197.844C741.417 197.74 741.792 197.667 742.25 197.625C742.729 197.562 743.302 197.531 743.969 197.531C744.844 197.531 745.542 197.573 746.062 197.656C746.604 197.74 747.01 197.865 747.281 198.031C747.552 198.198 747.708 198.417 747.75 198.688C747.792 198.938 747.76 199.24 747.656 199.594L729 252.094Z" fill="#202020"/>
<path d="M186.566 337.959C192.084 331.392 195.204 323.143 195.412 314.569L216.302 303.529L213.512 296.493C213.014 295.231 212.643 293.923 212.403 292.588L211.398 281.956L187.368 290.134C182.528 283.958 175.894 279.432 168.378 277.181C160.862 274.929 152.833 275.06 145.395 277.558C137.957 280.055 131.476 284.796 126.842 291.127C122.208 297.459 119.649 305.07 119.517 312.915C119.386 320.76 121.688 328.454 126.107 334.937C130.526 341.42 136.846 346.375 144.196 349.12C151.546 351.866 159.566 352.267 167.153 350.268C174.741 348.269 181.522 343.969 186.566 337.959ZM141.321 299.994C144.003 296.798 147.572 294.469 151.577 293.302C155.583 292.134 159.844 292.181 163.823 293.435C167.802 294.69 171.319 297.096 173.931 300.35C176.542 303.603 178.13 307.558 178.494 311.714C178.857 315.87 177.98 320.041 175.974 323.699C173.967 327.356 170.921 330.337 167.22 332.263C163.52 334.189 159.331 334.975 155.184 334.521C151.037 334.067 147.117 332.393 143.921 329.711C139.636 326.115 136.954 320.964 136.467 315.391C135.979 309.818 137.725 304.279 141.321 299.994Z" fill="#C0C0C0"/>
<path d="M292.36 167.511L285.407 165.477C279.679 163.755 273.947 166.008 267.085 172.668C263.251 176.418 257.449 183.135 251.781 194.033C246.799 203.621 221.771 252.933 219.548 280.538C218.497 293.596 224.994 301.671 230.235 308.133C235.005 314.049 238.764 318.732 238.272 327.269C237.688 337.104 235.646 343.837 234.404 347.139C225.602 348.938 217.729 353.81 212.191 360.884C206.654 367.957 203.814 376.77 204.18 385.746C204.547 394.722 208.095 403.274 214.19 409.873C220.285 416.472 228.53 420.687 237.448 421.763C246.367 422.839 255.377 420.707 262.867 415.747C270.357 410.788 275.838 403.325 278.329 394.694C280.82 386.063 280.158 376.827 276.462 368.64C272.767 360.452 266.278 353.846 258.157 350.005L292.36 167.511ZM258.048 397.916C255.366 401.111 251.797 403.44 247.792 404.608C243.787 405.775 239.525 405.729 235.546 404.474C231.568 403.22 228.05 400.813 225.439 397.56C222.827 394.306 221.24 390.351 220.876 386.195C220.512 382.039 221.389 377.869 223.396 374.211C225.403 370.553 228.449 367.573 232.149 365.646C235.85 363.72 240.039 362.934 244.186 363.388C248.333 363.843 252.252 365.516 255.448 368.198C259.734 371.794 262.415 376.945 262.903 382.518C263.39 388.091 261.644 393.63 258.048 397.916Z" fill="#C0C0C0"/>
<path d="M559.221 385.49C558.844 385.238 555.698 382.784 548.903 382.784C547.141 382.784 545.38 382.973 543.618 383.287C542.297 374.479 534.936 370.012 534.621 369.823L532.796 368.754L531.664 370.452C530.154 372.717 528.959 375.297 528.455 377.94C527.197 382.973 527.952 387.755 530.531 391.844C527.449 393.606 522.415 394.046 521.346 394.046H438.484C436.345 394.046 434.583 395.808 434.583 398.01C434.583 405.245 435.716 412.481 438.233 419.276C441.064 426.763 445.342 432.3 450.816 435.697C456.982 439.472 467.111 441.611 478.625 441.611C483.596 441.611 488.755 441.171 493.851 440.227C500.898 438.969 507.693 436.515 513.921 432.929C519.08 429.979 523.697 426.17 527.574 421.667C534.181 414.305 538.081 405.937 540.913 398.702H542.108C549.281 398.702 553.748 395.808 556.201 393.354C557.837 391.844 559.033 390.02 559.914 387.88L560.417 386.37L559.221 385.49ZM446.223 391.718H457.296C457.8 391.718 458.303 391.278 458.303 390.712V380.771C458.303 380.267 457.863 379.764 457.296 379.764H446.223C445.657 379.764 445.216 380.205 445.216 380.771V390.712C445.279 391.278 445.657 391.718 446.223 391.718ZM461.512 391.718H472.585C473.088 391.718 473.592 391.278 473.592 390.712V380.771C473.592 380.267 473.151 379.764 472.585 379.764H461.512C460.946 379.764 460.505 380.205 460.505 380.771V390.712C460.568 391.278 460.946 391.718 461.512 391.718ZM477.052 391.718H488.063C488.692 391.718 489.132 391.278 489.132 390.712V380.771C489.132 380.267 488.755 379.764 488.063 379.764H477.052C476.549 379.764 476.109 380.205 476.109 380.771V390.712C476.109 391.278 476.486 391.718 477.052 391.718ZM492.404 391.718H503.54C504.043 391.718 504.484 391.278 504.484 390.712V380.771C504.484 380.267 504.106 379.764 503.54 379.764H492.404C491.901 379.764 491.46 380.205 491.46 380.771V390.712C491.46 391.278 491.901 391.718 492.404 391.718ZM461.512 377.625H472.585C473.088 377.625 473.592 377.059 473.592 376.492V366.615C473.592 366.048 473.151 365.608 472.585 365.608H461.512C460.946 365.608 460.505 365.985 460.505 366.615V376.492C460.568 377.059 460.946 377.625 461.512 377.625ZM477.052 377.625H488.063C488.692 377.625 489.132 377.059 489.132 376.492V366.615C489.132 366.048 488.755 365.608 488.063 365.608H477.052C476.549 365.608 476.109 365.985 476.109 366.615V376.492C476.109 377.059 476.486 377.625 477.052 377.625ZM492.404 377.625H503.54C504.043 377.625 504.484 377.059 504.484 376.492V366.615C504.484 366.048 504.043 365.608 503.54 365.608H492.404C491.901 365.608 491.46 365.985 491.46 366.615V376.492C491.46 377.059 491.901 377.625 492.404 377.625ZM492.404 363.28H503.54C504.043 363.28 504.484 362.84 504.484 362.273V352.458C504.484 351.829 504.043 351.389 503.54 351.389H492.404C491.901 351.389 491.46 351.766 491.46 352.458V362.273C491.46 362.777 491.901 363.28 492.404 363.28ZM507.881 391.718H518.955C519.521 391.718 519.961 391.278 519.961 390.712V380.771C519.961 380.267 519.521 379.764 518.955 379.764H507.881C507.378 379.764 506.938 380.205 506.938 380.771V390.712C506.938 391.278 507.378 391.718 507.881 391.718Z" fill="#202020"/>
<mask id="mask0_346_498" style="mask-type:luminance" maskUnits="userSpaceOnUse" x="342" y="0" width="99" height="99">
<path d="M342 0H441V99H342V0Z" fill="white"/>
</mask>
<g mask="url(#mask0_346_498)">
<path d="M391.145 0C366.007 0 367.575 10.956 367.575 10.956L367.604 22.308H391.587V25.7153H358.088C358.088 25.7153 342 23.8796 342 49.3721C342 74.8646 356.037 73.9571 356.037 73.9571H364.411V62.1308C364.411 62.1308 363.961 48.0233 378.23 48.0233H402.015C402.015 48.0233 415.38 48.2378 415.38 35.0378V13.2082C415.38 13.2082 417.409 0 391.145 0ZM377.921 7.63125C380.305 7.63125 382.235 9.57 382.235 11.9707C382.235 14.3674 380.305 16.3061 377.921 16.3061C375.536 16.3061 373.606 14.3674 373.606 11.9707C373.606 9.57 375.532 7.63125 377.921 7.63125Z" fill="#202020"/>
<path d="M391.859 99C416.988 99 415.421 88.044 415.421 88.044L415.392 76.6919H391.409V73.2847H424.916C424.916 73.2847 441.004 75.1203 441.004 49.6278C441.004 24.1353 426.962 25.0428 426.962 25.0428H418.589V36.8692C418.589 36.8692 419.038 50.9767 404.77 50.9767H380.989C380.989 50.9767 367.624 50.7622 367.624 63.9622V85.7917C367.624 85.7917 365.595 99 391.859 99ZM405.083 91.3687C402.695 91.3687 400.769 89.4299 400.769 87.0292C400.769 84.6326 402.695 82.6938 405.083 82.6938C407.468 82.6938 409.398 84.6326 409.398 87.0292C409.398 89.4299 407.468 91.3687 405.083 91.3687Z" fill="#202020"/>
</g>
<path d="M148.121 43.2917C144.344 43.3271 140.588 43.861 136.95 44.8797L136.693 44.9569C134.402 44.5642 132.085 44.3475 129.762 44.3089C124.985 44.2273 120.878 45.3517 117.573 47.2272C114.312 46.1285 107.548 44.2359 100.42 44.6136C95.4541 44.8754 90.038 46.3388 86.0253 50.4502C82.0212 54.5617 79.9054 60.9219 80.3517 69.5782C80.4719 71.9687 81.1714 75.8612 82.3388 80.9082C83.4975 85.9509 85.1369 91.852 87.1755 97.238C89.214 102.624 91.45 107.469 94.9434 110.757C96.6858 112.405 99.0849 113.791 101.913 113.675C103.9 113.598 105.698 112.752 107.248 111.503C108.003 112.469 108.81 112.89 109.544 113.28C110.466 113.769 111.368 114.104 112.299 114.327C114.878 114.989 117.564 115.122 120.196 114.718C121.341 114.533 122.547 114.173 123.749 113.658C123.792 114.954 123.843 116.224 123.899 117.512C124.062 121.589 124.17 125.353 125.431 128.653C125.633 129.194 126.187 131.97 128.38 134.421C130.569 136.876 134.86 138.404 139.744 137.391C143.19 136.674 147.576 135.382 150.486 131.365C153.362 127.391 154.662 121.692 154.919 112.443C154.984 111.946 155.061 111.521 155.143 111.122L155.829 111.182H155.907C159.584 111.345 163.576 110.838 166.91 109.336C169.863 108.006 172.095 106.667 173.721 104.285C174.129 103.697 174.575 102.985 174.695 101.753C174.816 100.53 174.095 98.607 172.889 97.723C170.472 95.9462 168.957 96.62 167.331 96.9505C165.729 97.2938 164.104 97.4841 162.456 97.5212C167.146 89.8649 170.507 81.7279 172.425 74.5265C173.558 70.2777 174.198 66.3595 174.249 62.9347C174.301 59.51 174.013 56.4757 171.897 53.8492C165.284 45.6522 155.984 43.3862 148.791 43.3089C148.568 43.3032 148.345 43.3018 148.121 43.3046V43.2917ZM147.933 45.811C154.735 45.7466 163.43 47.6006 169.67 55.3385C171.073 57.0766 171.49 59.6172 171.442 62.7502C171.391 65.8788 170.794 69.6211 169.704 73.724C167.588 81.6721 163.589 90.9335 157.954 99.2508C158.154 99.3895 158.37 99.5033 158.597 99.5898C159.773 100.062 162.451 100.465 167.803 99.401C169.146 99.122 170.133 98.9375 171.155 99.6928C171.399 99.8957 171.593 100.152 171.722 100.443C171.851 100.733 171.911 101.049 171.897 101.367C171.841 101.846 171.658 102.302 171.369 102.688C170.339 104.195 168.297 105.624 165.679 106.8C163.365 107.847 160.044 108.392 157.1 108.426C155.623 108.439 154.263 108.328 153.108 107.98L153.031 107.954C152.585 112.121 151.559 120.357 150.894 124.112C150.357 127.142 149.422 129.55 147.632 131.352C145.847 133.155 143.323 134.241 139.924 134.949C135.714 135.824 132.646 134.88 130.667 133.262C128.693 131.653 127.788 129.511 127.242 128.198C126.869 127.297 126.676 126.125 126.487 124.559C126.28 122.683 126.141 120.801 126.071 118.915C125.948 115.609 125.908 112.301 125.951 108.993C124.191 110.551 122.002 111.589 119.655 111.98C116.865 112.439 114.367 111.988 112.878 111.628C112.148 111.448 111.442 111.181 110.775 110.834C110.08 110.478 109.423 110.074 108.986 109.276C108.728 108.82 108.645 108.286 108.754 107.774C108.895 107.254 109.206 106.796 109.638 106.474C110.445 105.838 111.505 105.487 113.106 105.16C116.024 104.581 117.041 104.182 117.659 103.706C118.187 103.298 118.784 102.474 119.839 101.259L119.826 101.1C117.945 101.045 116.1 100.564 114.432 99.6928C113.827 100.311 110.72 103.5 106.93 107.92C105.338 109.77 103.578 110.83 101.72 110.907C99.8617 110.984 98.1836 110.074 96.7588 108.735C93.9048 106.049 91.6302 101.427 89.6475 96.2037C87.6733 90.9765 86.0597 85.157 84.9181 80.2001C83.7679 75.2432 83.0898 71.2477 82.9954 69.3207C82.5662 61.1279 84.5404 55.6088 87.9308 52.1283C91.3212 48.6477 95.9648 47.3259 100.497 47.077C108.625 46.6221 116.346 49.373 117.908 49.9653C120.917 47.9825 124.792 46.7465 129.637 46.8238C131.934 46.8557 134.22 47.1436 136.452 47.6821L136.534 47.6478C137.518 47.313 138.517 47.0327 139.53 46.8066C142.287 46.1843 145.102 45.8534 147.928 45.8195L147.933 45.811ZM148.546 48.446H147.958C145.636 48.4773 143.323 48.7302 141.049 49.2014C145.562 51.1673 149.528 54.205 152.602 58.0508C154.464 60.3516 156.009 62.8921 157.194 65.6041C157.64 66.6427 157.941 67.5225 158.108 68.2006C158.194 68.5439 158.254 68.8315 158.271 69.1319C158.287 69.322 158.271 69.5135 158.224 69.6984L158.198 69.7499C158.323 73.1961 157.443 75.5307 157.336 78.8182C157.254 81.2043 157.881 84.0068 158.035 87.0582C158.181 89.9336 157.825 93.088 155.902 96.1865C156.062 96.3754 156.217 96.5642 156.366 96.753C161.451 88.9851 165.121 80.3846 167.073 73.0587C168.116 69.1104 168.674 65.5355 168.721 62.703C168.764 59.8705 168.219 57.8147 167.524 56.9607C162.082 50.2099 154.722 48.4932 148.546 48.446ZM129.127 49.4503C124.333 49.4589 120.891 50.8665 118.286 52.9695C115.595 55.1453 113.792 58.1195 112.608 61.1708C111.461 64.2202 110.76 67.4189 110.526 70.6683L110.582 70.6382C112.029 69.8486 113.93 69.0632 115.964 68.6083C118.003 68.1534 120.196 68.0117 122.183 68.7585C124.17 69.5052 125.813 71.2648 126.41 73.9342C129.264 86.7492 125.522 91.5129 124.14 95.105C123.621 96.4087 123.174 97.7397 122.801 99.092C122.972 99.0434 123.145 99.009 123.32 98.989C124.074 98.9482 124.826 99.0957 125.509 99.4182C126.899 99.9761 127.852 101.143 128.367 102.482C128.501 102.837 128.597 103.209 128.654 103.598C128.712 103.761 128.739 103.929 128.736 104.1C128.582 109.001 128.599 113.905 128.787 118.804C128.882 120.924 129.019 122.786 129.195 124.258C129.367 125.726 129.616 126.842 129.775 127.22C130.29 128.481 131.049 130.129 132.423 131.249C133.796 132.37 135.757 133.112 139.349 132.365C142.465 131.717 144.388 130.82 145.675 129.52C146.954 128.228 147.722 126.43 148.212 123.67C148.945 119.537 150.422 107.559 150.598 105.302C150.52 103.607 150.778 102.298 151.336 101.302C151.915 100.281 152.808 99.6542 153.576 99.3152C153.962 99.1435 154.323 99.0319 154.619 98.9504C154.303 98.5138 153.974 98.0873 153.632 97.6715C152.522 96.3732 151.612 94.9166 150.932 93.3497C150.605 92.7052 150.257 92.0711 149.89 91.4485C149.353 90.5044 148.671 89.3242 147.958 87.998C146.529 85.3415 144.976 82.1227 144.169 78.9855C143.366 75.8569 143.246 72.6167 145.306 70.3292C147.134 68.2993 150.336 67.4581 155.147 67.9302C155.005 67.5182 154.919 67.1749 154.679 66.6255C153.593 64.132 152.174 61.7975 150.46 59.6859C146.383 54.6303 139.787 49.6177 129.59 49.4546H129.127V49.4503ZM102.192 49.652C101.677 49.652 101.162 49.6663 100.647 49.6949C96.5528 49.9224 92.6817 51.0768 89.9136 53.9265C87.1369 56.7719 85.3129 61.4412 85.7077 69.1748C85.7893 70.634 86.4459 74.7368 87.5703 79.6035C88.6947 84.4789 90.2912 90.2082 92.2053 95.2681C94.1194 100.332 96.4455 104.74 98.6514 106.826C99.7629 107.868 100.729 108.289 101.604 108.255C102.484 108.212 103.54 107.723 104.836 106.216C107.196 103.454 109.644 100.768 112.174 98.1607C110.386 96.6612 109.01 94.7307 108.175 92.5515C107.346 90.393 107.095 88.0559 107.445 85.7707C107.861 82.8609 107.917 80.14 107.87 77.9942C107.818 75.8998 107.664 74.5093 107.664 73.6381V73.518C107.659 68.9822 108.472 64.4828 110.063 60.2352C111.196 57.3083 112.887 54.3342 115.423 51.9266C112.934 51.1326 108.514 49.9224 103.728 49.6949C103.214 49.6674 102.699 49.6531 102.183 49.652H102.192ZM152.465 70.4322C149.714 70.4666 148.169 71.1575 147.358 72.0588C146.207 73.3377 146.1 75.578 146.812 78.3418C147.525 81.1056 148.988 84.1999 150.37 86.7663C151.057 88.0538 151.726 89.2126 152.267 90.1482C152.812 91.0923 153.211 91.7618 153.452 92.3369C153.681 92.8548 153.921 93.3283 154.173 93.7575C155.237 91.573 155.43 89.4315 155.319 87.1955C155.177 84.4317 154.516 81.6035 154.615 78.7409C154.722 75.3934 155.404 73.209 155.464 70.6211C154.469 70.4998 153.467 70.4367 152.465 70.4322ZM119.075 70.8829C118.235 70.8892 117.397 70.9871 116.578 71.1747C114.948 71.5589 113.376 72.1532 111.9 72.9429C111.405 73.2004 110.933 73.4994 110.484 73.8398L110.398 73.9171C110.423 74.4922 110.539 75.887 110.591 77.9341C110.634 80.1786 110.582 83.0412 110.136 86.1312C109.166 92.8605 114.196 98.4311 120.11 98.4397C120.453 97.0577 121.024 95.6587 121.59 94.1823C123.238 89.8778 126.479 86.7406 123.749 74.4879C123.303 72.4837 122.419 71.6725 121.2 71.2133C120.517 70.9764 119.798 70.8644 119.075 70.8829ZM151.177 71.6854H151.383C151.652 71.694 151.895 71.7226 152.113 71.7712C152.31 71.8109 152.499 71.885 152.671 71.9901C152.749 72.0362 152.816 72.0982 152.869 72.1721C152.921 72.2461 152.958 72.3303 152.975 72.4193V72.4536C152.987 72.6422 152.935 72.8293 152.829 72.9858C152.71 73.2022 152.559 73.4002 152.383 73.5737C151.967 74.0151 151.419 74.3089 150.821 74.4106C150.235 74.48 149.643 74.3352 149.156 74.0029C148.959 73.8733 148.782 73.7173 148.628 73.5394C148.498 73.4005 148.409 73.2281 148.37 73.0416C148.361 72.9498 148.372 72.8571 148.401 72.7697C148.431 72.6823 148.479 72.6023 148.542 72.5352C148.679 72.3911 148.84 72.2721 149.018 72.1832C149.698 71.8712 150.434 71.6989 151.181 71.6768L151.177 71.6854ZM119.47 72.3463C119.685 72.3463 119.909 72.3635 120.144 72.3978C120.762 72.4837 121.316 72.6425 121.736 72.8785C121.942 72.9844 122.123 73.1231 122.277 73.2948C122.357 73.3892 122.417 73.4936 122.457 73.6081C122.497 73.7225 122.51 73.8413 122.496 73.9643C122.457 74.1919 122.351 74.4026 122.191 74.5694C122.025 74.7693 121.83 74.943 121.612 75.0844C121.079 75.4474 120.432 75.6045 119.792 75.5265C119.143 75.4216 118.546 75.1065 118.093 74.6295C117.904 74.4374 117.743 74.2209 117.612 73.9857C117.478 73.78 117.419 73.5346 117.445 73.2905C117.505 72.8613 117.869 72.6467 118.217 72.518C118.619 72.3905 119.041 72.3381 119.462 72.3635L119.47 72.3463ZM156.207 101.238H156.194C155.598 101.452 155.108 101.538 154.692 101.71C154.277 101.864 153.934 102.165 153.726 102.555C153.469 103.006 153.254 103.809 153.319 105.173C153.504 105.295 153.706 105.388 153.919 105.448C154.61 105.654 155.773 105.791 157.074 105.77C159.657 105.74 162.842 105.156 164.533 104.392C165.919 103.766 167.206 102.95 168.357 101.972C162.705 103.105 159.516 102.804 157.555 102.019C157.071 101.822 156.617 101.561 156.207 101.238ZM123.642 101.603H123.556C123.341 101.62 123.028 101.688 122.427 102.341C121.011 103.877 120.522 104.839 119.354 105.74C118.196 106.641 116.681 107.117 113.659 107.718C112.702 107.907 112.157 108.117 111.788 108.285C111.908 108.379 111.895 108.405 112.071 108.495C112.513 108.731 113.084 108.937 113.539 109.053C114.84 109.366 116.973 109.735 119.2 109.366C121.427 108.997 123.74 107.963 125.715 105.276C126.058 104.813 126.092 104.126 125.813 103.388C125.526 102.658 124.908 102.023 124.47 101.843C124.209 101.72 123.929 101.641 123.642 101.611V101.603Z" fill="#202020"/>
<path d="M780.021 339.333L772.083 347.271L742.979 318.167L750.917 310.229C754.885 306.26 769.437 299.646 780.021 310.229C790.604 320.812 783.989 335.365 780.021 339.333Z" fill="#202020" stroke="#202020" stroke-width="10" stroke-linecap="round" stroke-linejoin="round"/>
<path d="M793.25 297L780.021 310.229" stroke="#202020" stroke-width="10" stroke-linecap="round" stroke-linejoin="round"/>
<path d="M711.229 349.917L719.167 341.979L748.271 371.083L740.333 379.021C736.365 382.99 721.812 389.604 711.229 379.021C700.646 368.438 707.26 353.885 711.229 349.917Z" fill="#202020" stroke="#202020" stroke-width="10" stroke-linecap="round" stroke-linejoin="round"/>
<path d="M742.979 365.792L753.562 355.208M698 392.25L711.229 379.021M724.458 347.271L735.042 336.688" stroke="#202020" stroke-width="10" stroke-linecap="round" stroke-linejoin="round"/>
</svg>
